<svg width="60" height="557" viewBox="0 0 60 557" fill="none" xmlns="http://www.w3.org/2000/svg">
<mask id="mask0" mask-type="alpha" maskUnits="userSpaceOnUse" x="0" y="0" width="60" height="557">
<rect width="60" height="557" fill="#C4C4C4"/>
</mask>
<g mask="url(#mask0)">
<path d="M21.06 546.26L21.06 541.24L29.46 541.24L29.46 538.22L32.92 538.22L32.92 541.24L36 541.24L36 545.84L32.92 545.84L32.92 556.74L30.1 556.74L21.06 546.26ZM24.78 545.84L29.46 551.3L29.46 545.84L24.78 545.84ZM28.82 516.418C29.2467 516.418 29.7333 516.465 30.28 516.558C30.8133 516.638 31.36 516.805 31.92 517.058C32.4667 517.311 33 517.671 33.52 518.138C34.04 518.591 34.5067 519.191 34.92 519.938C35.32 520.671 35.6467 521.578 35.9 522.658C36.14 523.725 36.26 524.991 36.26 526.458L36.26 527.338C36.26 528.805 36.14 530.071 35.9 531.138C35.6467 532.205 35.32 533.111 34.92 533.858C34.5067 534.591 34.04 535.191 33.52 535.658C33 536.125 32.4667 536.485 31.92 536.738C31.36 536.991 30.8133 537.165 30.28 537.258C29.7467 537.338 29.26 537.378 28.82 537.378L28.22 537.378C27.78 537.378 27.2933 537.338 26.76 537.258C26.2267 537.165 25.6867 536.991 25.14 536.738C24.5933 536.485 24.0667 536.125 23.56 535.658C23.04 535.191 22.58 534.591 22.18 533.858C21.78 533.111 21.46 532.205 21.22 531.138C20.98 530.071 20.86 528.805 20.86 527.338L20.86 526.458C20.86 524.991 20.98 523.725 21.22 522.658C21.46 521.591 21.78 520.685 22.18 519.938C22.58 519.191 23.04 518.591 23.56 518.138C24.0667 517.671 24.5933 517.311 25.14 517.058C25.6867 516.805 26.2267 516.638 26.76 516.558C27.2933 516.465 27.78 516.418 28.22 516.418L28.82 516.418ZM28.36 521.298C27.9333 521.298 27.4933 521.378 27.04 521.538C26.5867 521.685 26.1733 521.971 25.8 522.398C25.4133 522.811 25.1 523.385 24.86 524.118C24.6067 524.838 24.48 525.765 24.48 526.898C24.48 528.058 24.6067 529.005 24.86 529.738C25.1 530.458 25.4133 531.025 25.8 531.438C26.1733 531.851 26.5867 532.131 27.04 532.278C27.4933 532.425 27.9333 532.498 28.36 532.498L28.6 532.498C29.0267 532.498 29.4733 532.418 29.94 532.258C30.4067 532.098 30.84 531.811 31.24 531.398C31.64 530.985 31.9733 530.418 32.24 529.698C32.4933 528.965 32.62 528.031 32.62 526.898C32.62 525.765 32.4933 524.838 32.24 524.118C31.9867 523.385 31.6667 522.811 31.28 522.398C30.88 521.985 30.4467 521.698 29.98 521.538C29.5133 521.378 29.0667 521.298 28.64 521.298L28.36 521.298ZM21.06 505.147L21.06 500.127L29.46 500.127L29.46 497.107L32.92 497.107L32.92 500.127L36 500.127L36 504.727L32.92 504.727L32.92 515.627L30.1 515.627L21.06 505.147ZM24.78 504.727L29.46 510.187L29.46 504.727L24.78 504.727ZM28.34 477.32L31.78 477.32L31.78 483.74L28.34 483.74L28.34 477.32ZM24.64 457.286L24.64 463.686L21.12 463.686L21.12 446.166L24.64 446.166L24.64 452.586L36 452.586L36 457.286L24.64 457.286ZM30.88 437.322L31.54 441.582C31.6333 442.155 31.7467 442.568 31.88 442.822C32.0133 443.075 32.2333 443.202 32.54 443.202L32.56 443.202C32.7067 443.202 32.8533 443.175 33 443.122C33.1467 443.055 33.28 442.948 33.4 442.802C33.5067 442.642 33.6 442.442 33.68 442.202C33.7467 441.948 33.78 441.628 33.78 441.242C33.78 440.642 33.7067 440.102 33.56 439.622C33.4133 439.142 33.22 438.735 32.98 438.402C32.74 438.055 32.4667 437.788 32.16 437.602C31.8533 437.415 31.54 437.322 31.22 437.322L30.88 437.322ZM34.52 437.202C34.6667 437.322 34.8333 437.502 35.02 437.742C35.2067 437.982 35.3933 438.302 35.58 438.702C35.7533 439.088 35.9 439.568 36.02 440.142C36.14 440.702 36.2 441.382 36.2 442.182L36.2 442.442C36.2 443.348 36.1067 444.122 35.92 444.762C35.72 445.388 35.46 445.902 35.14 446.302C34.8067 446.702 34.4333 446.995 34.02 447.182C33.5933 447.355 33.1467 447.442 32.68 447.442L32.54 447.442C31.5533 447.442 30.8067 447.095 30.3 446.402C29.7933 445.695 29.4667 444.535 29.32 442.922L28.86 438.002C28.8333 437.748 28.78 437.575 28.7 437.482C28.6067 437.375 28.4733 437.322 28.3 437.322C28.2067 437.322 28.1067 437.348 28 437.402C27.8933 437.442 27.8 437.555 27.72 437.742C27.6267 437.928 27.5533 438.208 27.5 438.582C27.4467 438.955 27.42 439.468 27.42 440.122L27.42 440.222C27.42 440.888 27.4667 441.408 27.56 441.782C27.6533 442.155 27.7667 442.435 27.9 442.622C28.02 442.795 28.1467 442.908 28.28 442.962C28.4133 443.002 28.5267 443.028 28.62 443.042L28.62 447.182L28.58 447.182C28.34 447.182 28.0867 447.162 27.82 447.122C27.54 447.082 27.2667 446.995 27 446.862C26.7333 446.715 26.48 446.502 26.24 446.222C25.9867 445.942 25.7667 445.568 25.58 445.102C25.38 444.622 25.2267 444.028 25.12 443.322C25 442.615 24.94 441.762 24.94 440.762L24.94 439.662C24.94 438.102 25.0467 436.882 25.26 436.002C25.4733 435.108 25.7533 434.442 26.1 434.002C26.4333 433.562 26.8067 433.288 27.22 433.182C27.6333 433.075 28.0333 433.022 28.42 433.022L32.54 433.022C32.7 433.022 32.8333 432.988 32.94 432.922C33.0333 432.842 33.08 432.688 33.08 432.462L33.08 431.882L36 431.882L36 435.502C36 435.928 35.88 436.302 35.64 436.622C35.4 436.928 35.0267 437.122 34.52 437.202ZM31.06 426.543L36 426.543L36 431.003L25.24 431.003L25.24 426.543L29.54 426.543L25.24 422.183L25.24 417.243L30.1 422.323L36 416.623L36 421.863L31.06 426.543ZM36.3 410.031C36.3 411.591 36.1267 412.871 35.78 413.871C35.4333 414.871 34.9933 415.664 34.46 416.251C33.9133 416.824 33.3133 417.224 32.66 417.451C32.0067 417.664 31.3667 417.771 30.74 417.771L30.38 417.771C29.7667 417.771 29.14 417.664 28.5 417.451C27.8467 417.224 27.26 416.824 26.74 416.251C26.2067 415.678 25.7733 414.891 25.44 413.891C25.1067 412.891 24.94 411.611 24.94 410.051L24.94 408.631C24.94 406.991 25.1133 405.671 25.46 404.671C25.7933 403.658 26.2267 402.878 26.76 402.331C27.28 401.771 27.86 401.398 28.5 401.211C29.14 401.024 29.7667 400.931 30.38 400.931L30.74 400.931C31.3667 400.931 32.0067 401.024 32.66 401.211C33.3133 401.384 33.9133 401.744 34.46 402.291C34.9933 402.838 35.4333 403.618 35.78 404.631C36.1267 405.631 36.3 406.964 36.3 408.631L36.3 410.031ZM33.4 409.331C33.4 408.571 33.3133 407.944 33.14 407.451C32.9667 406.944 32.7467 406.544 32.48 406.251C32.2133 405.958 31.92 405.751 31.6 405.631C31.2667 405.511 30.94 405.451 30.62 405.451L30.52 405.451C30.1867 405.451 29.86 405.511 29.54 405.631C29.2067 405.751 28.9133 405.958 28.66 406.251C28.4067 406.544 28.2 406.944 28.04 407.451C27.88 407.944 27.8 408.564 27.8 409.311L27.8 409.331C27.8 410.091 27.88 410.724 28.04 411.231C28.1867 411.724 28.3933 412.118 28.66 412.411C28.9133 412.704 29.2067 412.911 29.54 413.031C29.86 413.151 30.1867 413.211 30.52 413.211L30.62 413.211C30.94 413.211 31.2667 413.151 31.6 413.031C31.92 412.911 32.2133 412.704 32.48 412.411C32.7467 412.118 32.9667 411.724 33.14 411.231C33.3133 410.724 33.4 410.091 33.4 409.331ZM25.24 399.733L25.24 395.273L32.02 395.273L25.24 388.513L25.24 383.953L36 383.953L36 388.413L29.22 388.413L36 395.173L36 399.733L25.24 399.733ZM24.36 392.093C24.36 393 24.24 393.74 24 394.313C23.76 394.873 23.4733 395.307 23.14 395.613C22.8067 395.92 22.46 396.127 22.1 396.233C21.7267 396.34 21.4133 396.393 21.16 396.393L21.12 396.393L21.12 392.993C21.1867 392.993 21.2733 392.98 21.38 392.953C21.4867 392.913 21.5933 392.853 21.7 392.773C21.8067 392.68 21.9 392.553 21.98 392.393C22.06 392.233 22.1 392.02 22.1 391.753C22.1 391.5 22.06 391.293 21.98 391.133C21.9 390.973 21.8067 390.853 21.7 390.773C21.5933 390.68 21.4867 390.62 21.38 390.593C21.2733 390.553 21.1867 390.533 21.12 390.533L21.12 387.213L21.16 387.213C21.4133 387.213 21.7267 387.28 22.1 387.413C22.46 387.547 22.8067 387.773 23.14 388.093C23.4733 388.413 23.76 388.847 24 389.393C24.24 389.94 24.36 390.627 24.36 391.453L24.36 392.093ZM36.3 368.982C36.3 370.515 36.1267 371.769 35.78 372.742C35.42 373.715 34.9733 374.482 34.44 375.042C33.8933 375.589 33.2933 375.969 32.64 376.182C31.9867 376.382 31.36 376.482 30.76 376.482L30.36 376.482C29.76 376.482 29.14 376.382 28.5 376.182C27.86 375.969 27.28 375.589 26.76 375.042C26.2267 374.495 25.7933 373.735 25.46 372.762C25.1133 371.789 24.94 370.535 24.94 369.002L24.94 367.862C24.94 366.742 25.0267 365.782 25.2 364.982C25.36 364.169 25.5733 363.482 25.84 362.922C26.1067 362.362 26.4133 361.909 26.76 361.562C27.0933 361.215 27.4333 360.949 27.78 360.762C28.1267 360.575 28.4667 360.455 28.8 360.402C29.12 360.335 29.4 360.302 29.64 360.302L29.7 360.302L29.7 364.882C29.5933 364.909 29.4333 364.969 29.22 365.062C29.0067 365.142 28.7933 365.309 28.58 365.562C28.3533 365.802 28.16 366.155 28 366.622C27.84 367.075 27.76 367.682 27.76 368.442L27.76 368.502C27.76 369.155 27.8333 369.702 27.98 370.142C28.1267 370.569 28.3267 370.915 28.58 371.182C28.8333 371.449 29.12 371.642 29.44 371.762C29.76 371.869 30.0867 371.922 30.42 371.922L30.56 371.922C30.92 371.922 31.2733 371.869 31.62 371.762C31.9667 371.642 32.2733 371.449 32.54 371.182C32.8067 370.915 33.0267 370.562 33.2 370.122C33.36 369.682 33.44 369.142 33.44 368.502L33.44 368.442C33.44 367.695 33.36 367.095 33.2 366.642C33.0267 366.175 32.8333 365.815 32.62 365.562C32.3933 365.309 32.1733 365.142 31.96 365.062C31.7333 364.969 31.5667 364.909 31.46 364.882L31.46 360.302L31.5 360.302C31.7533 360.302 32.0467 360.329 32.38 360.382C32.7133 360.435 33.06 360.555 33.42 360.742C33.7667 360.915 34.1133 361.175 34.46 361.522C34.8067 361.855 35.12 362.302 35.4 362.862C35.6667 363.422 35.88 364.115 36.04 364.942C36.2133 365.755 36.3 366.735 36.3 367.882L36.3 368.982ZM28.2 355.437L28.2 359.937L25.24 359.937L25.24 346.477L28.2 346.477L28.2 350.977L36 350.977L36 355.437L28.2 355.437ZM30.62 340.584C30.9533 340.584 31.2867 340.504 31.62 340.344C31.9533 340.184 32.2533 339.944 32.52 339.624C32.7867 339.291 33.0067 338.878 33.18 338.384C33.34 337.878 33.42 337.284 33.42 336.604L33.42 336.504C33.42 335.784 33.34 335.191 33.18 334.724C33.0067 334.244 32.7867 333.864 32.52 333.584C32.24 333.304 31.9333 333.111 31.6 333.004C31.2667 332.884 30.94 332.824 30.62 332.824L30.54 332.824C30.1933 332.824 29.8533 332.884 29.52 333.004C29.1867 333.111 28.8933 333.304 28.64 333.584C28.3733 333.864 28.16 334.244 28 334.724C27.84 335.191 27.76 335.784 27.76 336.504L27.76 336.604C27.76 337.298 27.84 337.898 28 338.404C28.16 338.898 28.3733 339.311 28.64 339.644C28.8933 339.964 29.1867 340.204 29.52 340.364C29.8533 340.511 30.1933 340.584 30.54 340.584L30.62 340.584ZM25.24 340.584L26.78 340.584C26.6733 340.464 26.52 340.271 26.32 340.004C26.12 339.724 25.92 339.358 25.72 338.904C25.52 338.451 25.3467 337.911 25.2 337.284C25.0533 336.658 24.98 335.938 24.98 335.124L24.98 334.764C24.98 333.551 25.1267 332.531 25.42 331.704C25.7 330.864 26.0867 330.191 26.58 329.684C27.06 329.178 27.6333 328.818 28.3 328.604C28.9533 328.378 29.6467 328.264 30.38 328.264L30.76 328.264C31.4667 328.264 32.1533 328.378 32.82 328.604C33.4733 328.831 34.06 329.204 34.58 329.724C35.0867 330.244 35.4933 330.931 35.8 331.784C36.1067 332.624 36.26 333.664 36.26 334.904L36.26 335.224C36.26 336.024 36.1867 336.738 36.04 337.364C35.8933 337.991 35.72 338.531 35.52 338.984C35.32 339.424 35.1267 339.778 34.94 340.044C34.74 340.311 34.5867 340.491 34.48 340.584L39.76 340.584L39.76 345.044L25.24 345.044L25.24 340.584ZM30.88 317.497L31.54 321.757C31.6333 322.331 31.7467 322.744 31.88 322.997C32.0133 323.251 32.2333 323.377 32.54 323.377L32.56 323.377C32.7067 323.377 32.8533 323.351 33 323.297C33.1467 323.231 33.28 323.124 33.4 322.977C33.5067 322.817 33.6 322.617 33.68 322.377C33.7467 322.124 33.78 321.804 33.78 321.417C33.78 320.817 33.7067 320.277 33.56 319.797C33.4133 319.317 33.22 318.911 32.98 318.577C32.74 318.231 32.4667 317.964 32.16 317.777C31.8533 317.591 31.54 317.497 31.22 317.497L30.88 317.497ZM34.52 317.377C34.6667 317.497 34.8333 317.677 35.02 317.917C35.2067 318.157 35.3933 318.477 35.58 318.877C35.7533 319.264 35.9 319.744 36.02 320.317C36.14 320.877 36.2 321.557 36.2 322.357L36.2 322.617C36.2 323.524 36.1067 324.297 35.92 324.937C35.72 325.564 35.46 326.077 35.14 326.477C34.8067 326.877 34.4333 327.171 34.02 327.357C33.5933 327.531 33.1467 327.617 32.68 327.617L32.54 327.617C31.5533 327.617 30.8067 327.271 30.3 326.577C29.7933 325.871 29.4667 324.711 29.32 323.097L28.86 318.177C28.8333 317.924 28.78 317.751 28.7 317.657C28.6067 317.551 28.4733 317.497 28.3 317.497C28.2067 317.497 28.1067 317.524 28 317.577C27.8933 317.617 27.8 317.731 27.72 317.917C27.6267 318.104 27.5533 318.384 27.5 318.757C27.4467 319.131 27.42 319.644 27.42 320.297L27.42 320.397C27.42 321.064 27.4667 321.584 27.56 321.957C27.6533 322.331 27.7667 322.611 27.9 322.797C28.02 322.971 28.1467 323.084 28.28 323.137C28.4133 323.177 28.5267 323.204 28.62 323.217L28.62 327.357L28.58 327.357C28.34 327.357 28.0867 327.337 27.82 327.297C27.54 327.257 27.2667 327.171 27 327.037C26.7333 326.891 26.48 326.677 26.24 326.397C25.9867 326.117 25.7667 325.744 25.58 325.277C25.38 324.797 25.2267 324.204 25.12 323.497C25 322.791 24.94 321.937 24.94 320.937L24.94 319.837C24.94 318.277 25.0467 317.057 25.26 316.177C25.4733 315.284 25.7533 314.617 26.1 314.177C26.4333 313.737 26.8067 313.464 27.22 313.357C27.6333 313.251 28.0333 313.197 28.42 313.197L32.54 313.197C32.7 313.197 32.8333 313.164 32.94 313.097C33.0333 313.017 33.08 312.864 33.08 312.637L33.08 312.057L36 312.057L36 315.677C36 316.104 35.88 316.477 35.64 316.797C35.4 317.104 35.0267 317.297 34.52 317.377ZM36 311.179L25.24 311.179L25.24 306.719L29.16 306.719L29.16 300.679L25.24 300.679L25.24 296.219L36 296.219L36 300.679L32.12 300.679L32.12 306.719L36 306.719L36 311.179ZM25.24 294.46L25.24 290L32.02 290L25.24 283.24L25.24 278.68L36 278.68L36 283.14L29.22 283.14L36 289.9L36 294.46L25.24 294.46ZM38.4 260.761L38.4 265.021L36 265.021L36 276.921L25.24 276.921L25.24 272.461L33.04 272.461L33.04 267.421L25.24 267.421L25.24 262.961L33.04 262.961L33.04 260.761L38.4 260.761ZM25.24 259.772L25.24 255.312L28.04 255.312L28.04 250.492C28.04 249.692 28.14 248.992 28.34 248.392C28.5267 247.779 28.7867 247.272 29.12 246.872C29.4533 246.472 29.8533 246.172 30.32 245.972C30.7733 245.759 31.26 245.652 31.78 245.652L31.98 245.652C32.5 245.652 33.0067 245.752 33.5 245.952C33.98 246.152 34.4067 246.459 34.78 246.872C35.14 247.272 35.4333 247.779 35.66 248.392C35.8867 248.992 36 249.692 36 250.492L36 259.772L25.24 259.772ZM33.26 251.612C33.26 251.132 33.14 250.779 32.9 250.552C32.6467 250.312 32.3667 250.192 32.06 250.192L31.96 250.192C31.64 250.192 31.3667 250.312 31.14 250.552C30.9 250.779 30.78 251.132 30.78 251.612L30.78 255.312L33.26 255.312L33.26 251.612ZM36 240.132L36 244.592L25.24 244.592L25.24 240.132L36 240.132ZM36 232.272L25.24 232.272L25.24 227.812L29.16 227.812L29.16 221.772L25.24 221.772L25.24 217.312L36 217.312L36 221.772L32.12 221.772L32.12 227.812L36 227.812L36 232.272ZM27.44 207.954C27.44 209.074 27.6 209.907 27.92 210.454C28.24 211 28.6867 211.36 29.26 211.534L29.26 204.334C28.6867 204.48 28.24 204.834 27.92 205.394C27.6 205.954 27.44 206.8 27.44 207.934L27.44 207.954ZM32.22 199.894C32.58 199.894 33 199.98 33.48 200.154C33.9467 200.314 34.3933 200.654 34.82 201.174C35.2333 201.694 35.5867 202.44 35.88 203.414C36.16 204.387 36.3 205.674 36.3 207.274L36.3 208.414C36.3 209.854 36.1467 211.06 35.84 212.034C35.5333 212.994 35.1267 213.767 34.62 214.354C34.1 214.94 33.5133 215.36 32.86 215.614C32.1933 215.867 31.5067 215.994 30.8 215.994L30.36 215.994C29.6667 215.994 29 215.88 28.36 215.654C27.7067 215.414 27.1267 215.014 26.62 214.454C26.1133 213.88 25.7067 213.114 25.4 212.154C25.0933 211.194 24.94 209.987 24.94 208.534L24.94 207.314C24.94 205.74 25.12 204.467 25.48 203.494C25.84 202.507 26.3 201.747 26.86 201.214C27.42 200.667 28.0467 200.3 28.74 200.114C29.42 199.927 30.0867 199.834 30.74 199.834L31.48 199.834L31.48 211.614C32.1067 211.48 32.6133 211.12 33 210.534C33.3867 209.947 33.58 209.04 33.58 207.814L33.58 207.794C33.58 207.06 33.52 206.467 33.4 206.014C33.28 205.56 33.1467 205.207 33 204.954C32.84 204.7 32.6867 204.534 32.54 204.454C32.38 204.36 32.2667 204.307 32.2 204.294L32.2 199.894L32.22 199.894ZM36.3 185.447C36.3 186.98 36.1267 188.233 35.78 189.207C35.42 190.18 34.9733 190.947 34.44 191.507C33.8933 192.053 33.2933 192.433 32.64 192.647C31.9867 192.847 31.36 192.947 30.76 192.947L30.36 192.947C29.76 192.947 29.14 192.847 28.5 192.647C27.86 192.433 27.28 192.053 26.76 191.507C26.2267 190.96 25.7933 190.2 25.46 189.227C25.1133 188.253 24.94 187 24.94 185.467L24.94 184.327C24.94 183.207 25.0266 182.247 25.2 181.447C25.36 180.633 25.5733 179.947 25.84 179.387C26.1066 178.827 26.4133 178.373 26.76 178.027C27.0933 177.68 27.4333 177.413 27.78 177.227C28.1266 177.04 28.4666 176.92 28.8 176.867C29.12 176.8 29.4 176.767 29.64 176.767L29.7 176.767L29.7 181.347C29.5933 181.373 29.4333 181.433 29.22 181.527C29.0066 181.607 28.7933 181.773 28.58 182.027C28.3533 182.267 28.16 182.62 28 183.087C27.84 183.54 27.76 184.147 27.76 184.907L27.76 184.967C27.76 185.62 27.8333 186.167 27.98 186.607C28.1267 187.033 28.3267 187.38 28.58 187.647C28.8333 187.913 29.12 188.107 29.44 188.227C29.76 188.333 30.0867 188.387 30.42 188.387L30.56 188.387C30.92 188.387 31.2733 188.333 31.62 188.227C31.9667 188.107 32.2733 187.913 32.54 187.647C32.8067 187.38 33.0267 187.027 33.2 186.587C33.36 186.147 33.44 185.607 33.44 184.967L33.44 184.907C33.44 184.16 33.36 183.56 33.2 183.107C33.0267 182.64 32.8333 182.28 32.62 182.027C32.3933 181.773 32.1733 181.607 31.96 181.527C31.7333 181.433 31.5667 181.373 31.46 181.347L31.46 176.767L31.5 176.767C31.7533 176.767 32.0466 176.793 32.38 176.847C32.7133 176.9 33.06 177.02 33.42 177.207C33.7666 177.38 34.1133 177.64 34.46 177.987C34.8067 178.32 35.12 178.767 35.4 179.327C35.6667 179.887 35.88 180.58 36.04 181.407C36.2133 182.22 36.3 183.2 36.3 184.347L36.3 185.447ZM36.56 174.6L36.56 172.08C36.56 171.867 36.5266 171.727 36.46 171.66C36.4066 171.594 36.3266 171.56 36.22 171.56C36.1133 171.56 35.9733 171.607 35.8 171.7C35.6266 171.78 35.3866 171.9 35.08 172.06L25.24 177.2L25.24 172.4L32.52 168.94L25.24 165.58L25.24 161.1L36.72 166.74C37.2266 166.994 37.6666 167.254 38.04 167.52C38.4266 167.774 38.7466 168.06 39 168.38C39.2533 168.687 39.44 169.034 39.56 169.42C39.6933 169.794 39.76 170.22 39.76 170.7L39.76 174.6L36.56 174.6ZM25.24 160.554L25.24 156.094L33.04 156.094L33.04 152.254L25.24 152.254L25.24 147.794L33.04 147.794L33.04 143.954L25.24 143.954L25.24 139.494L33.04 139.494L33.04 137.294L38.4 137.294L38.4 141.554L36 141.554L36 160.554L25.24 160.554ZM27.44 128.911C27.44 130.031 27.6 130.864 27.92 131.411C28.24 131.957 28.6866 132.317 29.26 132.491L29.26 125.291C28.6866 125.437 28.24 125.791 27.92 126.351C27.6 126.911 27.44 127.757 27.44 128.891L27.44 128.911ZM32.22 120.851C32.58 120.851 33 120.937 33.48 121.111C33.9466 121.271 34.3933 121.611 34.82 122.131C35.2333 122.651 35.5866 123.397 35.88 124.371C36.16 125.344 36.3 126.631 36.3 128.231L36.3 129.371C36.3 130.811 36.1466 132.017 35.84 132.991C35.5333 133.951 35.1266 134.724 34.62 135.311C34.1 135.897 33.5133 136.317 32.86 136.571C32.1933 136.824 31.5066 136.951 30.8 136.951L30.36 136.951C29.6666 136.951 29 136.837 28.36 136.611C27.7066 136.371 27.1266 135.971 26.62 135.411C26.1133 134.837 25.7066 134.071 25.4 133.111C25.0933 132.151 24.94 130.944 24.94 129.491L24.94 128.271C24.94 126.697 25.12 125.424 25.48 124.451C25.84 123.464 26.3 122.704 26.86 122.171C27.42 121.624 28.0466 121.257 28.74 121.071C29.42 120.884 30.0866 120.791 30.74 120.791L31.48 120.791L31.48 132.571C32.1066 132.437 32.6133 132.077 33 131.491C33.3866 130.904 33.58 129.997 33.58 128.771L33.58 128.751C33.58 128.017 33.52 127.424 33.4 126.971C33.28 126.517 33.1466 126.164 33 125.911C32.84 125.657 32.6866 125.491 32.54 125.411C32.38 125.317 32.2666 125.264 32.2 125.251L32.2 120.851L32.22 120.851ZM36.3 112.556C36.3 114.089 36.1266 115.343 35.78 116.316C35.42 117.289 34.9733 118.056 34.44 118.616C33.8933 119.163 33.2933 119.543 32.64 119.756C31.9866 119.956 31.36 120.056 30.76 120.056L30.36 120.056C29.76 120.056 29.14 119.956 28.5 119.756C27.86 119.543 27.28 119.163 26.76 118.616C26.2266 118.069 25.7933 117.309 25.46 116.336C25.1133 115.363 24.94 114.109 24.94 112.576L24.94 111.436C24.94 110.316 25.0266 109.356 25.2 108.556C25.36 107.743 25.5733 107.056 25.84 106.496C26.1066 105.936 26.4133 105.483 26.76 105.136C27.0933 104.789 27.4333 104.523 27.78 104.336C28.1266 104.149 28.4666 104.029 28.8 103.976C29.12 103.909 29.4 103.876 29.64 103.876L29.7 103.876L29.7 108.456C29.5933 108.483 29.4333 108.543 29.22 108.636C29.0066 108.716 28.7933 108.883 28.58 109.136C28.3533 109.376 28.16 109.729 28 110.196C27.84 110.649 27.76 111.256 27.76 112.016L27.76 112.076C27.76 112.729 27.8333 113.276 27.98 113.716C28.1266 114.143 28.3266 114.489 28.58 114.756C28.8333 115.023 29.12 115.216 29.44 115.336C29.76 115.443 30.0866 115.496 30.42 115.496L30.56 115.496C30.92 115.496 31.2733 115.443 31.62 115.336C31.9666 115.216 32.2733 115.023 32.54 114.756C32.8066 114.489 33.0266 114.136 33.2 113.696C33.36 113.256 33.44 112.716 33.44 112.076L33.44 112.016C33.44 111.269 33.36 110.669 33.2 110.216C33.0266 109.749 32.8333 109.389 32.62 109.136C32.3933 108.883 32.1733 108.716 31.96 108.636C31.7333 108.543 31.5666 108.483 31.46 108.456L31.46 103.876L31.5 103.876C31.7533 103.876 32.0466 103.903 32.38 103.956C32.7133 104.009 33.06 104.129 33.42 104.316C33.7666 104.489 34.1133 104.749 34.46 105.096C34.8066 105.429 35.12 105.876 35.4 106.436C35.6666 106.996 35.88 107.689 36.04 108.516C36.2133 109.329 36.3 110.309 36.3 111.456L36.3 112.556ZM28.2 99.0117L28.2 103.512L25.24 103.512L25.24 90.0517L28.2 90.0517L28.2 94.5517L36 94.5517L36 99.0117L28.2 99.0117ZM36 88.6786L25.24 88.6786L25.24 80.7186C25.24 79.5719 25.2933 78.6053 25.4 77.8186C25.5066 77.0319 25.6666 76.3986 25.88 75.9186C26.0933 75.4386 26.36 75.0986 26.68 74.8986C26.9866 74.6853 27.34 74.5786 27.74 74.5786L27.94 74.5786C28.5266 74.5786 29.0066 74.7986 29.38 75.2386C29.7533 75.6653 30.0266 76.2519 30.2 76.9986C30.28 76.6253 30.3933 76.2653 30.54 75.9186C30.6733 75.5586 30.8466 75.2453 31.06 74.9786C31.2733 74.6986 31.5266 74.4786 31.82 74.3186C32.1 74.1586 32.4133 74.0786 32.76 74.0786L32.96 74.0786C33.3866 74.0786 33.7866 74.1786 34.16 74.3786C34.52 74.5653 34.84 74.8786 35.12 75.3186C35.3866 75.7453 35.6 76.3119 35.76 77.0186C35.92 77.7119 36 78.5653 36 79.5786L36 88.6786ZM29.22 80.9386C29.22 80.2453 29.1533 79.7719 29.02 79.5186C28.8866 79.2519 28.6866 79.1186 28.42 79.1186L28.36 79.1186C28.1066 79.1186 27.92 79.2519 27.8 79.5186C27.6666 79.7719 27.6 80.2519 27.6 80.9586L27.6 84.2186L29.22 84.2186L29.22 80.9386ZM33.58 80.5386C33.58 79.2586 33.2333 78.6186 32.54 78.6186L32.44 78.6186C31.8 78.6186 31.48 79.2653 31.48 80.5586L31.48 84.2186L33.58 84.2186L33.58 80.5386ZM36.56 71.5927L36.56 69.0727C36.56 68.8593 36.5266 68.7193 36.46 68.6527C36.4066 68.586 36.3266 68.5527 36.22 68.5527C36.1133 68.5527 35.9733 68.5993 35.8 68.6927C35.6266 68.7727 35.3866 68.8927 35.08 69.0527L25.24 74.1927L25.24 69.3927L32.52 65.9327L25.24 62.5727L25.24 58.0927L36.72 63.7327C37.2266 63.986 37.6666 64.246 38.04 64.5127C38.4266 64.766 38.7466 65.0527 39 65.3727C39.2533 65.6793 39.44 66.026 39.56 66.4127C39.6933 66.786 39.76 67.2127 39.76 67.6927L39.76 71.5927L36.56 71.5927ZM27.44 50.5122C27.44 51.6322 27.6 52.4655 27.92 53.0122C28.24 53.5589 28.6866 53.9189 29.26 54.0922L29.26 46.8922C28.6866 47.0389 28.24 47.3922 27.92 47.9522C27.6 48.5122 27.44 49.3589 27.44 50.4922L27.44 50.5122ZM32.22 42.4522C32.58 42.4522 33 42.5389 33.48 42.7122C33.9466 42.8722 34.3933 43.2122 34.82 43.7322C35.2333 44.2522 35.5866 44.9989 35.88 45.9722C36.16 46.9455 36.3 48.2322 36.3 49.8322L36.3 50.9722C36.3 52.4122 36.1466 53.6189 35.84 54.5922C35.5333 55.5522 35.1266 56.3255 34.62 56.9122C34.1 57.4989 33.5133 57.9189 32.86 58.1722C32.1933 58.4255 31.5066 58.5522 30.8 58.5522L30.36 58.5522C29.6666 58.5522 29 58.4389 28.36 58.2122C27.7066 57.9722 27.1266 57.5722 26.62 57.0122C26.1133 56.4389 25.7066 55.6722 25.4 54.7122C25.0933 53.7522 24.94 52.5455 24.94 51.0922L24.94 49.8722C24.94 48.2989 25.12 47.0255 25.48 46.0522C25.84 45.0655 26.3 44.3055 26.86 43.7722C27.42 43.2255 28.0466 42.8589 28.74 42.6722C29.42 42.4855 30.0866 42.3922 30.74 42.3922L31.48 42.3922L31.48 54.1722C32.1066 54.0389 32.6133 53.6789 33 53.0922C33.3866 52.5055 33.58 51.5989 33.58 50.3722L33.58 50.3522C33.58 49.6189 33.52 49.0255 33.4 48.5722C33.28 48.1189 33.1466 47.7655 33 47.5122C32.84 47.2589 32.6866 47.0922 32.54 47.0122C32.38 46.9189 32.2666 46.8655 32.2 46.8522L32.2 42.4522L32.22 42.4522ZM28.2 37.0977L28.2 41.5977L25.24 41.5977L25.24 28.1377L28.2 28.1377L28.2 32.6377L36 32.6377L36 37.0977L28.2 37.0977ZM28.34 8.15984L31.78 8.15984L31.78 14.5798L28.34 14.5798L28.34 8.15984ZM21.06 -15.6541L21.06 -20.6741L29.46 -20.6741L29.46 -23.6941L32.92 -23.6941L32.92 -20.6741L36 -20.6741L36 -16.0741L32.92 -16.0741L32.92 -5.17406L30.1 -5.17406L21.06 -15.6541ZM24.78 -16.0741L29.46 -10.6141L29.46 -16.0741L24.78 -16.0741ZM28.82 -45.4961C29.2466 -45.4961 29.7333 -45.4494 30.28 -45.3561C30.8133 -45.2761 31.36 -45.1094 31.92 -44.8561C32.4666 -44.6028 33 -44.2428 33.52 -43.7761C34.04 -43.3228 34.5066 -42.7228 34.92 -41.9761C35.32 -41.2428 35.6466 -40.3361 35.9 -39.2561C36.14 -38.1894 36.26 -36.9228 36.26 -35.4561L36.26 -34.5761C36.26 -33.1094 36.14 -31.8428 35.9 -30.7761C35.6466 -29.7094 35.32 -28.8028 34.92 -28.0561C34.5066 -27.3228 34.04 -26.7228 33.52 -26.2561C33 -25.7894 32.4666 -25.4294 31.92 -25.1761C31.36 -24.9228 30.8133 -24.7494 30.28 -24.6561C29.7466 -24.5761 29.26 -24.5361 28.82 -24.5361L28.22 -24.5361C27.78 -24.5361 27.2933 -24.5761 26.76 -24.6561C26.2266 -24.7494 25.6866 -24.9228 25.14 -25.1761C24.5933 -25.4294 24.0666 -25.7894 23.56 -26.2561C23.04 -26.7228 22.58 -27.3228 22.18 -28.0561C21.78 -28.8028 21.46 -29.7094 21.22 -30.7761C20.98 -31.8428 20.86 -33.1094 20.86 -34.5761L20.86 -35.4561C20.86 -36.9228 20.98 -38.1894 21.22 -39.2561C21.46 -40.3228 21.78 -41.2294 22.18 -41.9761C22.58 -42.7228 23.04 -43.3228 23.56 -43.7761C24.0666 -44.2428 24.5933 -44.6028 25.14 -44.8561C25.6866 -45.1094 26.2266 -45.2761 26.76 -45.3561C27.2933 -45.4494 27.78 -45.4961 28.22 -45.4961L28.82 -45.4961ZM28.36 -40.6161C27.9333 -40.6161 27.4933 -40.5361 27.04 -40.3761C26.5866 -40.2294 26.1733 -39.9428 25.8 -39.5161C25.4133 -39.1028 25.1 -38.5294 24.86 -37.7961C24.6066 -37.0761 24.48 -36.1494 24.48 -35.0161C24.48 -33.8561 24.6066 -32.9094 24.86 -32.1761C25.1 -31.4561 25.4133 -30.8894 25.8 -30.4761C26.1733 -30.0628 26.5866 -29.7828 27.04 -29.6361C27.4933 -29.4894 27.9333 -29.4161 28.36 -29.4161L28.6 -29.4161C29.0266 -29.4161 29.4733 -29.4961 29.94 -29.6561C30.4066 -29.8161 30.84 -30.1028 31.24 -30.5161C31.64 -30.9294 31.9733 -31.4961 32.24 -32.2161C32.4933 -32.9494 32.62 -33.8828 32.62 -35.0161C32.62 -36.1494 32.4933 -37.0761 32.24 -37.7961C31.9866 -38.5294 31.6666 -39.1028 31.28 -39.5161C30.88 -39.9294 30.4466 -40.2161 29.98 -40.3761C29.5133 -40.5361 29.0666 -40.6161 28.64 -40.6161L28.36 -40.6161ZM21.06 -56.7673L21.06 -61.7873L29.46 -61.7873L29.46 -64.8073L32.92 -64.8073L32.92 -61.7873L36 -61.7873L36 -57.1873L32.92 -57.1873L32.92 -46.2873L30.1 -46.2873L21.06 -56.7673ZM24.78 -57.1873L29.46 -51.7273L29.46 -57.1873L24.78 -57.1873Z" fill="white"/>
</g>
</svg>
