<svg width="562" height="59" viewBox="0 0 562 59" fill="none" xmlns="http://www.w3.org/2000/svg">
<mask id="mask0" mask-type="alpha" maskUnits="userSpaceOnUse" x="0" y="0" width="562" height="59">
<rect width="562" height="59" fill="#C4C4C4"/>
</mask>
<g mask="url(#mask0)">
<path d="M12.74 21.06H17.76V29.46H20.78V32.92H17.76V36H13.16V32.92H2.26V30.1L12.74 21.06ZM13.16 24.78L7.7 29.46H13.16V24.78ZM42.582 28.82C42.582 29.2467 42.5354 29.7333 42.442 30.28C42.362 30.8133 42.1954 31.36 41.942 31.92C41.6887 32.4667 41.3287 33 40.862 33.52C40.4087 34.04 39.8087 34.5067 39.062 34.92C38.3287 35.32 37.422 35.6467 36.342 35.9C35.2754 36.14 34.0087 36.26 32.542 36.26H31.662C30.1954 36.26 28.9287 36.14 27.862 35.9C26.7954 35.6467 25.8887 35.32 25.142 34.92C24.4087 34.5067 23.8087 34.04 23.342 33.52C22.8754 33 22.5154 32.4667 22.262 31.92C22.0087 31.36 21.8354 30.8133 21.742 30.28C21.662 29.7467 21.622 29.26 21.622 28.82V28.22C21.622 27.78 21.662 27.2933 21.742 26.76C21.8354 26.2267 22.0087 25.6867 22.262 25.14C22.5154 24.5933 22.8754 24.0667 23.342 23.56C23.8087 23.04 24.4087 22.58 25.142 22.18C25.8887 21.78 26.7954 21.46 27.862 21.22C28.9287 20.98 30.1954 20.86 31.662 20.86H32.542C34.0087 20.86 35.2754 20.98 36.342 21.22C37.4087 21.46 38.3154 21.78 39.062 22.18C39.8087 22.58 40.4087 23.04 40.862 23.56C41.3287 24.0667 41.6887 24.5933 41.942 25.14C42.1954 25.6867 42.362 26.2267 42.442 26.76C42.5354 27.2933 42.582 27.78 42.582 28.22V28.82ZM37.702 28.36C37.702 27.9333 37.622 27.4933 37.462 27.04C37.3154 26.5867 37.0287 26.1733 36.602 25.8C36.1887 25.4133 35.6154 25.1 34.882 24.86C34.162 24.6067 33.2354 24.48 32.102 24.48C30.942 24.48 29.9954 24.6067 29.262 24.86C28.542 25.1 27.9754 25.4133 27.562 25.8C27.1487 26.1733 26.8687 26.5867 26.722 27.04C26.5754 27.4933 26.502 27.9333 26.502 28.36V28.6C26.502 29.0267 26.582 29.4733 26.742 29.94C26.902 30.4067 27.1887 30.84 27.602 31.24C28.0154 31.64 28.582 31.9733 29.302 32.24C30.0354 32.4933 30.9687 32.62 32.102 32.62C33.2354 32.62 34.162 32.4933 34.882 32.24C35.6154 31.9867 36.1887 31.6667 36.602 31.28C37.0154 30.88 37.302 30.4467 37.462 29.98C37.622 29.5133 37.702 29.0667 37.702 28.64V28.36ZM53.8533 21.06H58.8733V29.46H61.8933V32.92H58.8733V36H54.2733V32.92H43.3733V30.1L53.8533 21.06ZM54.2733 24.78L48.8133 29.46H54.2733V24.78ZM81.68 28.34V31.78H75.26V28.34H81.68ZM101.714 24.64H95.3139V21.12H112.834V24.64H106.414V36H101.714V24.64ZM121.678 30.88L117.418 31.54C116.845 31.6333 116.432 31.7467 116.178 31.88C115.925 32.0133 115.798 32.2333 115.798 32.54V32.56C115.798 32.7067 115.825 32.8533 115.878 33C115.945 33.1467 116.052 33.28 116.198 33.4C116.358 33.5067 116.558 33.6 116.798 33.68C117.052 33.7467 117.372 33.78 117.758 33.78C118.358 33.78 118.898 33.7067 119.378 33.56C119.858 33.4133 120.265 33.22 120.598 32.98C120.945 32.74 121.212 32.4667 121.398 32.16C121.585 31.8533 121.678 31.54 121.678 31.22V30.88ZM121.798 34.52C121.678 34.6667 121.498 34.8333 121.258 35.02C121.018 35.2067 120.698 35.3933 120.298 35.58C119.912 35.7533 119.432 35.9 118.858 36.02C118.298 36.14 117.618 36.2 116.818 36.2H116.558C115.652 36.2 114.878 36.1067 114.238 35.92C113.612 35.72 113.098 35.46 112.698 35.14C112.298 34.8067 112.005 34.4333 111.818 34.02C111.645 33.5933 111.558 33.1467 111.558 32.68V32.54C111.558 31.5533 111.905 30.8067 112.598 30.3C113.305 29.7933 114.465 29.4667 116.078 29.32L120.998 28.86C121.252 28.8333 121.425 28.78 121.518 28.7C121.625 28.6067 121.678 28.4733 121.678 28.3C121.678 28.2067 121.652 28.1067 121.598 28C121.558 27.8933 121.445 27.8 121.258 27.72C121.072 27.6267 120.792 27.5533 120.418 27.5C120.045 27.4467 119.532 27.42 118.878 27.42H118.778C118.112 27.42 117.592 27.4667 117.218 27.56C116.845 27.6533 116.565 27.7667 116.378 27.9C116.205 28.02 116.092 28.1467 116.038 28.28C115.998 28.4133 115.972 28.5267 115.958 28.62H111.818V28.58C111.818 28.34 111.838 28.0867 111.878 27.82C111.918 27.54 112.005 27.2667 112.138 27C112.285 26.7333 112.498 26.48 112.778 26.24C113.058 25.9867 113.432 25.7667 113.898 25.58C114.378 25.38 114.972 25.2267 115.678 25.12C116.385 25 117.238 24.94 118.238 24.94H119.338C120.898 24.94 122.118 25.0467 122.998 25.26C123.892 25.4733 124.558 25.7533 124.998 26.1C125.438 26.4333 125.712 26.8067 125.818 27.22C125.925 27.6333 125.978 28.0333 125.978 28.42V32.54C125.978 32.7 126.012 32.8333 126.078 32.94C126.158 33.0333 126.312 33.08 126.538 33.08H127.118V36H123.498C123.072 36 122.698 35.88 122.378 35.64C122.072 35.4 121.878 35.0267 121.798 34.52ZM132.457 31.06V36H127.997V25.24H132.457V29.54L136.817 25.24H141.757L136.677 30.1L142.377 36H137.137L132.457 31.06ZM148.969 36.3C147.409 36.3 146.129 36.1267 145.129 35.78C144.129 35.4333 143.336 34.9933 142.749 34.46C142.176 33.9133 141.776 33.3133 141.549 32.66C141.336 32.0067 141.229 31.3667 141.229 30.74V30.38C141.229 29.7667 141.336 29.14 141.549 28.5C141.776 27.8467 142.176 27.26 142.749 26.74C143.322 26.2067 144.109 25.7733 145.109 25.44C146.109 25.1067 147.389 24.94 148.949 24.94H150.369C152.009 24.94 153.329 25.1133 154.329 25.46C155.342 25.7933 156.122 26.2267 156.669 26.76C157.229 27.28 157.602 27.86 157.789 28.5C157.976 29.14 158.069 29.7667 158.069 30.38V30.74C158.069 31.3667 157.976 32.0067 157.789 32.66C157.616 33.3133 157.256 33.9133 156.709 34.46C156.162 34.9933 155.382 35.4333 154.369 35.78C153.369 36.1267 152.036 36.3 150.369 36.3H148.969ZM149.669 33.4C150.429 33.4 151.056 33.3133 151.549 33.14C152.056 32.9667 152.456 32.7467 152.749 32.48C153.042 32.2133 153.249 31.92 153.369 31.6C153.489 31.2667 153.549 30.94 153.549 30.62V30.52C153.549 30.1867 153.489 29.86 153.369 29.54C153.249 29.2067 153.042 28.9133 152.749 28.66C152.456 28.4067 152.056 28.2 151.549 28.04C151.056 27.88 150.436 27.8 149.689 27.8H149.669C148.909 27.8 148.276 27.88 147.769 28.04C147.276 28.1867 146.882 28.3933 146.589 28.66C146.296 28.9133 146.089 29.2067 145.969 29.54C145.849 29.86 145.789 30.1867 145.789 30.52V30.62C145.789 30.94 145.849 31.2667 145.969 31.6C146.089 31.92 146.296 32.2133 146.589 32.48C146.882 32.7467 147.276 32.9667 147.769 33.14C148.276 33.3133 148.909 33.4 149.669 33.4ZM159.267 25.24H163.727V32.02L170.487 25.24H175.047V36H170.587V29.22L163.827 36H159.267V25.24ZM166.907 24.36C166 24.36 165.26 24.24 164.687 24C164.127 23.76 163.693 23.4733 163.387 23.14C163.08 22.8067 162.873 22.46 162.767 22.1C162.66 21.7267 162.607 21.4133 162.607 21.16V21.12H166.007C166.007 21.1867 166.02 21.2733 166.047 21.38C166.087 21.4867 166.147 21.5933 166.227 21.7C166.32 21.8067 166.447 21.9 166.607 21.98C166.767 22.06 166.98 22.1 167.247 22.1C167.5 22.1 167.707 22.06 167.867 21.98C168.027 21.9 168.147 21.8067 168.227 21.7C168.32 21.5933 168.38 21.4867 168.407 21.38C168.447 21.2733 168.467 21.1867 168.467 21.12H171.787V21.16C171.787 21.4133 171.72 21.7267 171.587 22.1C171.453 22.46 171.227 22.8067 170.907 23.14C170.587 23.4733 170.153 23.76 169.607 24C169.06 24.24 168.373 24.36 167.547 24.36H166.907ZM190.018 36.3C188.485 36.3 187.231 36.1267 186.258 35.78C185.285 35.42 184.518 34.9733 183.958 34.44C183.411 33.8933 183.031 33.2933 182.818 32.64C182.618 31.9867 182.518 31.36 182.518 30.76V30.36C182.518 29.76 182.618 29.14 182.818 28.5C183.031 27.86 183.411 27.28 183.958 26.76C184.505 26.2267 185.265 25.7933 186.238 25.46C187.211 25.1133 188.465 24.94 189.998 24.94H191.138C192.258 24.94 193.218 25.0267 194.018 25.2C194.831 25.36 195.518 25.5733 196.078 25.84C196.638 26.1067 197.091 26.4133 197.438 26.76C197.785 27.0933 198.051 27.4333 198.238 27.78C198.425 28.1267 198.545 28.4667 198.598 28.8C198.665 29.12 198.698 29.4 198.698 29.64V29.7H194.118C194.091 29.5933 194.031 29.4333 193.938 29.22C193.858 29.0067 193.691 28.7933 193.438 28.58C193.198 28.3533 192.845 28.16 192.378 28C191.925 27.84 191.318 27.76 190.558 27.76H190.498C189.845 27.76 189.298 27.8333 188.858 27.98C188.431 28.1267 188.085 28.3267 187.818 28.58C187.551 28.8333 187.358 29.12 187.238 29.44C187.131 29.76 187.078 30.0867 187.078 30.42V30.56C187.078 30.92 187.131 31.2733 187.238 31.62C187.358 31.9667 187.551 32.2733 187.818 32.54C188.085 32.8067 188.438 33.0267 188.878 33.2C189.318 33.36 189.858 33.44 190.498 33.44H190.558C191.305 33.44 191.905 33.36 192.358 33.2C192.825 33.0267 193.185 32.8333 193.438 32.62C193.691 32.3933 193.858 32.1733 193.938 31.96C194.031 31.7333 194.091 31.5667 194.118 31.46H198.698V31.5C198.698 31.7533 198.671 32.0467 198.618 32.38C198.565 32.7133 198.445 33.06 198.258 33.42C198.085 33.7667 197.825 34.1133 197.478 34.46C197.145 34.8067 196.698 35.12 196.138 35.4C195.578 35.6667 194.885 35.88 194.058 36.04C193.245 36.2133 192.265 36.3 191.118 36.3H190.018ZM203.562 28.2H199.063V25.24H212.523V28.2H208.023V36H203.562V28.2ZM218.416 30.62C218.416 30.9533 218.496 31.2867 218.656 31.62C218.816 31.9533 219.056 32.2533 219.376 32.52C219.709 32.7867 220.122 33.0067 220.616 33.18C221.122 33.34 221.716 33.42 222.396 33.42H222.496C223.216 33.42 223.809 33.34 224.276 33.18C224.756 33.0067 225.136 32.7867 225.416 32.52C225.696 32.24 225.889 31.9333 225.996 31.6C226.116 31.2667 226.176 30.94 226.176 30.62V30.54C226.176 30.1933 226.116 29.8533 225.996 29.52C225.889 29.1867 225.696 28.8933 225.416 28.64C225.136 28.3733 224.756 28.16 224.276 28C223.809 27.84 223.216 27.76 222.496 27.76H222.396C221.702 27.76 221.102 27.84 220.596 28C220.102 28.16 219.689 28.3733 219.356 28.64C219.036 28.8933 218.796 29.1867 218.636 29.52C218.489 29.8533 218.416 30.1933 218.416 30.54V30.62ZM218.416 25.24V26.78C218.536 26.6733 218.729 26.52 218.996 26.32C219.276 26.12 219.642 25.92 220.096 25.72C220.549 25.52 221.089 25.3467 221.716 25.2C222.342 25.0533 223.062 24.98 223.876 24.98H224.236C225.449 24.98 226.469 25.1267 227.296 25.42C228.136 25.7 228.809 26.0867 229.316 26.58C229.822 27.06 230.182 27.6333 230.396 28.3C230.622 28.9533 230.736 29.6467 230.736 30.38V30.76C230.736 31.4667 230.622 32.1533 230.396 32.82C230.169 33.4733 229.796 34.06 229.276 34.58C228.756 35.0867 228.069 35.4933 227.216 35.8C226.376 36.1067 225.336 36.26 224.096 36.26H223.776C222.976 36.26 222.262 36.1867 221.636 36.04C221.009 35.8933 220.469 35.72 220.016 35.52C219.576 35.32 219.222 35.1267 218.956 34.94C218.689 34.74 218.509 34.5867 218.416 34.48V39.76H213.956V25.24H218.416ZM241.503 30.88L237.243 31.54C236.669 31.6333 236.256 31.7467 236.003 31.88C235.749 32.0133 235.623 32.2333 235.623 32.54V32.56C235.623 32.7067 235.649 32.8533 235.703 33C235.769 33.1467 235.876 33.28 236.023 33.4C236.183 33.5067 236.383 33.6 236.623 33.68C236.876 33.7467 237.196 33.78 237.583 33.78C238.183 33.78 238.723 33.7067 239.203 33.56C239.683 33.4133 240.089 33.22 240.423 32.98C240.769 32.74 241.036 32.4667 241.223 32.16C241.409 31.8533 241.503 31.54 241.503 31.22V30.88ZM241.622 34.52C241.503 34.6667 241.323 34.8333 241.083 35.02C240.843 35.2067 240.523 35.3933 240.123 35.58C239.736 35.7533 239.256 35.9 238.683 36.02C238.123 36.14 237.443 36.2 236.643 36.2H236.383C235.476 36.2 234.703 36.1067 234.063 35.92C233.436 35.72 232.923 35.46 232.523 35.14C232.123 34.8067 231.829 34.4333 231.643 34.02C231.469 33.5933 231.383 33.1467 231.383 32.68V32.54C231.383 31.5533 231.729 30.8067 232.423 30.3C233.129 29.7933 234.289 29.4667 235.903 29.32L240.823 28.86C241.076 28.8333 241.249 28.78 241.342 28.7C241.449 28.6067 241.503 28.4733 241.503 28.3C241.503 28.2067 241.476 28.1067 241.423 28C241.383 27.8933 241.269 27.8 241.083 27.72C240.896 27.6267 240.616 27.5533 240.243 27.5C239.869 27.4467 239.356 27.42 238.703 27.42H238.603C237.936 27.42 237.416 27.4667 237.043 27.56C236.669 27.6533 236.389 27.7667 236.202 27.9C236.029 28.02 235.916 28.1467 235.863 28.28C235.823 28.4133 235.796 28.5267 235.783 28.62H231.643V28.58C231.643 28.34 231.663 28.0867 231.703 27.82C231.743 27.54 231.829 27.2667 231.963 27C232.109 26.7333 232.323 26.48 232.603 26.24C232.883 25.9867 233.256 25.7667 233.723 25.58C234.203 25.38 234.796 25.2267 235.503 25.12C236.209 25 237.063 24.94 238.063 24.94H239.163C240.723 24.94 241.943 25.0467 242.822 25.26C243.716 25.4733 244.383 25.7533 244.823 26.1C245.263 26.4333 245.536 26.8067 245.643 27.22C245.749 27.6333 245.803 28.0333 245.803 28.42V32.54C245.803 32.7 245.836 32.8333 245.903 32.94C245.983 33.0333 246.136 33.08 246.363 33.08H246.943V36H243.323C242.896 36 242.523 35.88 242.203 35.64C241.896 35.4 241.703 35.0267 241.622 34.52ZM247.821 36V25.24H252.281V29.16H258.321V25.24H262.781V36H258.321V32.12H252.281V36H247.821ZM264.54 25.24H269V32.02L275.76 25.24H280.32V36H275.86V29.22L269.1 36H264.54V25.24ZM298.239 38.4H293.979V36H282.079V25.24H286.539V33.04H291.579V25.24H296.039V33.04H298.239V38.4ZM299.228 25.24H303.688V28.04H308.508C309.308 28.04 310.008 28.14 310.608 28.34C311.221 28.5267 311.728 28.7867 312.128 29.12C312.528 29.4533 312.828 29.8533 313.028 30.32C313.241 30.7733 313.348 31.26 313.348 31.78V31.98C313.348 32.5 313.248 33.0067 313.048 33.5C312.848 33.98 312.541 34.4067 312.128 34.78C311.728 35.14 311.221 35.4333 310.608 35.66C310.008 35.8867 309.308 36 308.508 36H299.228V25.24ZM307.388 33.26C307.868 33.26 308.221 33.14 308.448 32.9C308.688 32.6467 308.808 32.3667 308.808 32.06V31.96C308.808 31.64 308.688 31.3667 308.448 31.14C308.221 30.9 307.868 30.78 307.388 30.78H303.688V33.26H307.388ZM318.868 36H314.408V25.24H318.868V36ZM326.728 36V25.24H331.188V29.16H337.228V25.24H341.688V36H337.228V32.12H331.188V36H326.728ZM351.046 27.44C349.926 27.44 349.093 27.6 348.546 27.92C348 28.24 347.64 28.6867 347.466 29.26H354.666C354.52 28.6867 354.166 28.24 353.606 27.92C353.046 27.6 352.2 27.44 351.066 27.44H351.046ZM359.106 32.22C359.106 32.58 359.02 33 358.846 33.48C358.686 33.9467 358.346 34.3933 357.826 34.82C357.306 35.2333 356.56 35.5867 355.586 35.88C354.613 36.16 353.326 36.3 351.726 36.3H350.586C349.146 36.3 347.94 36.1467 346.966 35.84C346.006 35.5333 345.233 35.1267 344.646 34.62C344.06 34.1 343.64 33.5133 343.386 32.86C343.133 32.1933 343.006 31.5067 343.006 30.8V30.36C343.006 29.6667 343.12 29 343.346 28.36C343.586 27.7067 343.986 27.1267 344.546 26.62C345.12 26.1133 345.886 25.7067 346.846 25.4C347.806 25.0933 349.013 24.94 350.466 24.94H351.686C353.26 24.94 354.533 25.12 355.506 25.48C356.493 25.84 357.253 26.3 357.786 26.86C358.333 27.42 358.7 28.0467 358.886 28.74C359.073 29.42 359.166 30.0867 359.166 30.74V31.48H347.386C347.52 32.1067 347.88 32.6133 348.466 33C349.053 33.3867 349.96 33.58 351.186 33.58H351.206C351.94 33.58 352.533 33.52 352.986 33.4C353.44 33.28 353.793 33.1467 354.046 33C354.3 32.84 354.466 32.6867 354.546 32.54C354.64 32.38 354.693 32.2667 354.706 32.2H359.106V32.22ZM373.553 36.3C372.02 36.3 370.767 36.1267 369.793 35.78C368.82 35.42 368.053 34.9733 367.493 34.44C366.947 33.8933 366.567 33.2933 366.353 32.64C366.153 31.9867 366.053 31.36 366.053 30.76V30.36C366.053 29.76 366.153 29.14 366.353 28.5C366.567 27.86 366.947 27.28 367.493 26.76C368.04 26.2267 368.8 25.7933 369.773 25.46C370.747 25.1133 372 24.94 373.533 24.94H374.673C375.793 24.94 376.753 25.0267 377.553 25.2C378.367 25.36 379.053 25.5733 379.613 25.84C380.173 26.1067 380.627 26.4133 380.973 26.76C381.32 27.0933 381.587 27.4333 381.773 27.78C381.96 28.1267 382.08 28.4667 382.133 28.8C382.2 29.12 382.233 29.4 382.233 29.64V29.7H377.653C377.627 29.5933 377.567 29.4333 377.473 29.22C377.393 29.0067 377.227 28.7933 376.973 28.58C376.733 28.3533 376.38 28.16 375.913 28C375.46 27.84 374.853 27.76 374.093 27.76H374.033C373.38 27.76 372.833 27.8333 372.393 27.98C371.967 28.1267 371.62 28.3267 371.353 28.58C371.087 28.8333 370.893 29.12 370.773 29.44C370.667 29.76 370.613 30.0867 370.613 30.42V30.56C370.613 30.92 370.667 31.2733 370.773 31.62C370.893 31.9667 371.087 32.2733 371.353 32.54C371.62 32.8067 371.973 33.0267 372.413 33.2C372.853 33.36 373.393 33.44 374.033 33.44H374.093C374.84 33.44 375.44 33.36 375.893 33.2C376.36 33.0267 376.72 32.8333 376.973 32.62C377.227 32.3933 377.393 32.1733 377.473 31.96C377.567 31.7333 377.627 31.5667 377.653 31.46H382.233V31.5C382.233 31.7533 382.207 32.0467 382.153 32.38C382.1 32.7133 381.98 33.06 381.793 33.42C381.62 33.7667 381.36 34.1133 381.013 34.46C380.68 34.8067 380.233 35.12 379.673 35.4C379.113 35.6667 378.42 35.88 377.593 36.04C376.78 36.2133 375.8 36.3 374.653 36.3H373.553ZM384.4 36.56H386.92C387.133 36.56 387.273 36.5267 387.34 36.46C387.406 36.4067 387.44 36.3267 387.44 36.22C387.44 36.1133 387.393 35.9733 387.3 35.8C387.22 35.6267 387.1 35.3867 386.94 35.08L381.8 25.24H386.6L390.06 32.52L393.42 25.24H397.9L392.26 36.72C392.006 37.2267 391.746 37.6667 391.48 38.04C391.226 38.4267 390.94 38.7467 390.62 39C390.313 39.2533 389.966 39.44 389.58 39.56C389.206 39.6933 388.78 39.76 388.3 39.76H384.4V36.56ZM398.446 25.24H402.906V33.04H406.746V25.24H411.206V33.04H415.046V25.24H419.506V33.04H421.706V38.4H417.446V36H398.446V25.24ZM430.089 27.44C428.969 27.44 428.136 27.6 427.589 27.92C427.043 28.24 426.683 28.6867 426.509 29.26H433.709C433.563 28.6867 433.209 28.24 432.649 27.92C432.089 27.6 431.243 27.44 430.109 27.44H430.089ZM438.149 32.22C438.149 32.58 438.063 33 437.889 33.48C437.729 33.9467 437.389 34.3933 436.869 34.82C436.349 35.2333 435.603 35.5867 434.629 35.88C433.656 36.16 432.369 36.3 430.769 36.3H429.629C428.189 36.3 426.983 36.1467 426.009 35.84C425.049 35.5333 424.276 35.1267 423.689 34.62C423.103 34.1 422.683 33.5133 422.429 32.86C422.176 32.1933 422.049 31.5067 422.049 30.8V30.36C422.049 29.6667 422.163 29 422.389 28.36C422.629 27.7067 423.029 27.1267 423.589 26.62C424.163 26.1133 424.929 25.7067 425.889 25.4C426.849 25.0933 428.056 24.94 429.509 24.94H430.729C432.303 24.94 433.576 25.12 434.549 25.48C435.536 25.84 436.296 26.3 436.829 26.86C437.376 27.42 437.743 28.0467 437.929 28.74C438.116 29.42 438.209 30.0867 438.209 30.74V31.48H426.429C426.563 32.1067 426.923 32.6133 427.509 33C428.096 33.3867 429.003 33.58 430.229 33.58H430.249C430.983 33.58 431.576 33.52 432.029 33.4C432.483 33.28 432.836 33.1467 433.089 33C433.343 32.84 433.509 32.6867 433.589 32.54C433.683 32.38 433.736 32.2667 433.749 32.2H438.149V32.22ZM446.444 36.3C444.911 36.3 443.657 36.1267 442.684 35.78C441.711 35.42 440.944 34.9733 440.384 34.44C439.837 33.8933 439.457 33.2933 439.244 32.64C439.044 31.9867 438.944 31.36 438.944 30.76V30.36C438.944 29.76 439.044 29.14 439.244 28.5C439.457 27.86 439.837 27.28 440.384 26.76C440.931 26.2267 441.691 25.7933 442.664 25.46C443.637 25.1133 444.891 24.94 446.424 24.94H447.564C448.684 24.94 449.644 25.0267 450.444 25.2C451.257 25.36 451.944 25.5733 452.504 25.84C453.064 26.1067 453.517 26.4133 453.864 26.76C454.211 27.0933 454.477 27.4333 454.664 27.78C454.851 28.1267 454.971 28.4667 455.024 28.8C455.091 29.12 455.124 29.4 455.124 29.64V29.7H450.544C450.517 29.5933 450.457 29.4333 450.364 29.22C450.284 29.0067 450.117 28.7933 449.864 28.58C449.624 28.3533 449.271 28.16 448.804 28C448.351 27.84 447.744 27.76 446.984 27.76H446.924C446.271 27.76 445.724 27.8333 445.284 27.98C444.857 28.1267 444.511 28.3267 444.244 28.58C443.977 28.8333 443.784 29.12 443.664 29.44C443.557 29.76 443.504 30.0867 443.504 30.42V30.56C443.504 30.92 443.557 31.2733 443.664 31.62C443.784 31.9667 443.977 32.2733 444.244 32.54C444.511 32.8067 444.864 33.0267 445.304 33.2C445.744 33.36 446.284 33.44 446.924 33.44H446.984C447.731 33.44 448.331 33.36 448.784 33.2C449.251 33.0267 449.611 32.8333 449.864 32.62C450.117 32.3933 450.284 32.1733 450.364 31.96C450.457 31.7333 450.517 31.5667 450.544 31.46H455.124V31.5C455.124 31.7533 455.097 32.0467 455.044 32.38C454.991 32.7133 454.871 33.06 454.684 33.42C454.511 33.7667 454.251 34.1133 453.904 34.46C453.571 34.8067 453.124 35.12 452.564 35.4C452.004 35.6667 451.311 35.88 450.484 36.04C449.671 36.2133 448.691 36.3 447.544 36.3H446.444ZM459.988 28.2H455.488V25.24H468.948V28.2H464.448V36H459.988V28.2ZM470.321 36V25.24H478.281C479.428 25.24 480.395 25.2933 481.181 25.4C481.968 25.5067 482.601 25.6667 483.081 25.88C483.561 26.0933 483.901 26.36 484.101 26.68C484.315 26.9867 484.421 27.34 484.421 27.74V27.94C484.421 28.5267 484.201 29.0067 483.761 29.38C483.335 29.7533 482.748 30.0267 482.001 30.2C482.375 30.28 482.735 30.3933 483.081 30.54C483.441 30.6733 483.755 30.8467 484.021 31.06C484.301 31.2733 484.521 31.5267 484.681 31.82C484.841 32.1 484.921 32.4133 484.921 32.76V32.96C484.921 33.3867 484.821 33.7867 484.621 34.16C484.435 34.52 484.121 34.84 483.681 35.12C483.255 35.3867 482.688 35.6 481.981 35.76C481.288 35.92 480.435 36 479.421 36H470.321ZM478.061 29.22C478.755 29.22 479.228 29.1533 479.481 29.02C479.748 28.8867 479.881 28.6867 479.881 28.42V28.36C479.881 28.1067 479.748 27.92 479.481 27.8C479.228 27.6667 478.748 27.6 478.041 27.6H474.781V29.22H478.061ZM478.461 33.58C479.741 33.58 480.381 33.2333 480.381 32.54V32.44C480.381 31.8 479.735 31.48 478.441 31.48H474.781V33.58H478.461ZM487.407 36.56H489.927C490.141 36.56 490.281 36.5267 490.347 36.46C490.414 36.4067 490.447 36.3267 490.447 36.22C490.447 36.1133 490.401 35.9733 490.307 35.8C490.227 35.6267 490.107 35.3867 489.947 35.08L484.807 25.24H489.607L493.067 32.52L496.427 25.24H500.907L495.267 36.72C495.014 37.2267 494.754 37.6667 494.487 38.04C494.234 38.4267 493.947 38.7467 493.627 39C493.321 39.2533 492.974 39.44 492.587 39.56C492.214 39.6933 491.787 39.76 491.307 39.76H487.407V36.56ZM508.488 27.44C507.368 27.44 506.534 27.6 505.988 27.92C505.441 28.24 505.081 28.6867 504.908 29.26H512.108C511.961 28.6867 511.608 28.24 511.048 27.92C510.488 27.6 509.641 27.44 508.508 27.44H508.488ZM516.548 32.22C516.548 32.58 516.461 33 516.288 33.48C516.128 33.9467 515.788 34.3933 515.268 34.82C514.748 35.2333 514.001 35.5867 513.028 35.88C512.054 36.16 510.768 36.3 509.168 36.3H508.028C506.588 36.3 505.381 36.1467 504.408 35.84C503.448 35.5333 502.674 35.1267 502.088 34.62C501.501 34.1 501.081 33.5133 500.828 32.86C500.574 32.1933 500.448 31.5067 500.448 30.8V30.36C500.448 29.6667 500.561 29 500.788 28.36C501.028 27.7067 501.428 27.1267 501.988 26.62C502.561 26.1133 503.328 25.7067 504.288 25.4C505.248 25.0933 506.454 24.94 507.908 24.94H509.128C510.701 24.94 511.974 25.12 512.948 25.48C513.934 25.84 514.694 26.3 515.228 26.86C515.774 27.42 516.141 28.0467 516.328 28.74C516.514 29.42 516.608 30.0867 516.608 30.74V31.48H504.828C504.961 32.1067 505.321 32.6133 505.908 33C506.494 33.3867 507.401 33.58 508.628 33.58H508.648C509.381 33.58 509.974 33.52 510.428 33.4C510.881 33.28 511.234 33.1467 511.488 33C511.741 32.84 511.908 32.6867 511.988 32.54C512.081 32.38 512.134 32.2667 512.148 32.2H516.548V32.22ZM521.902 28.2H517.402V25.24H530.862V28.2H526.362V36H521.902V28.2ZM550.84 28.34V31.78H544.42V28.34H550.84ZM574.654 21.06H579.674V29.46H582.694V32.92H579.674V36H575.074V32.92H564.174V30.1L574.654 21.06ZM575.074 24.78L569.614 29.46H575.074V24.78ZM604.496 28.82C604.496 29.2467 604.449 29.7333 604.356 30.28C604.276 30.8133 604.109 31.36 603.856 31.92C603.603 32.4667 603.243 33 602.776 33.52C602.323 34.04 601.723 34.5067 600.976 34.92C600.243 35.32 599.336 35.6467 598.256 35.9C597.189 36.14 595.923 36.26 594.456 36.26H593.576C592.109 36.26 590.843 36.14 589.776 35.9C588.709 35.6467 587.803 35.32 587.056 34.92C586.323 34.5067 585.723 34.04 585.256 33.52C584.789 33 584.429 32.4667 584.176 31.92C583.923 31.36 583.749 30.8133 583.656 30.28C583.576 29.7467 583.536 29.26 583.536 28.82V28.22C583.536 27.78 583.576 27.2933 583.656 26.76C583.749 26.2267 583.923 25.6867 584.176 25.14C584.429 24.5933 584.789 24.0667 585.256 23.56C585.723 23.04 586.323 22.58 587.056 22.18C587.803 21.78 588.709 21.46 589.776 21.22C590.843 20.98 592.109 20.86 593.576 20.86H594.456C595.923 20.86 597.189 20.98 598.256 21.22C599.323 21.46 600.229 21.78 600.976 22.18C601.723 22.58 602.323 23.04 602.776 23.56C603.243 24.0667 603.603 24.5933 603.856 25.14C604.109 25.6867 604.276 26.2267 604.356 26.76C604.449 27.2933 604.496 27.78 604.496 28.22V28.82ZM599.616 28.36C599.616 27.9333 599.536 27.4933 599.376 27.04C599.229 26.5867 598.943 26.1733 598.516 25.8C598.103 25.4133 597.529 25.1 596.796 24.86C596.076 24.6067 595.149 24.48 594.016 24.48C592.856 24.48 591.909 24.6067 591.176 24.86C590.456 25.1 589.889 25.4133 589.476 25.8C589.063 26.1733 588.783 26.5867 588.636 27.04C588.489 27.4933 588.416 27.9333 588.416 28.36V28.6C588.416 29.0267 588.496 29.4733 588.656 29.94C588.816 30.4067 589.103 30.84 589.516 31.24C589.929 31.64 590.496 31.9733 591.216 32.24C591.949 32.4933 592.883 32.62 594.016 32.62C595.149 32.62 596.076 32.4933 596.796 32.24C597.529 31.9867 598.103 31.6667 598.516 31.28C598.929 30.88 599.216 30.4467 599.376 29.98C599.536 29.5133 599.616 29.0667 599.616 28.64V28.36ZM615.767 21.06H620.787V29.46H623.807V32.92H620.787V36H616.187V32.92H605.287V30.1L615.767 21.06ZM616.187 24.78L610.727 29.46H616.187V24.78ZM643.594 28.34V31.78H637.174V28.34H643.594ZM663.628 24.64H657.228V21.12H674.748V24.64H668.328V36H663.628V24.64ZM683.592 30.88L679.332 31.54C678.759 31.6333 678.346 31.7467 678.092 31.88C677.839 32.0133 677.712 32.2333 677.712 32.54V32.56C677.712 32.7067 677.739 32.8533 677.792 33C677.859 33.1467 677.966 33.28 678.112 33.4C678.272 33.5067 678.472 33.6 678.712 33.68C678.966 33.7467 679.286 33.78 679.672 33.78C680.272 33.78 680.812 33.7067 681.292 33.56C681.772 33.4133 682.179 33.22 682.512 32.98C682.859 32.74 683.126 32.4667 683.312 32.16C683.499 31.8533 683.592 31.54 683.592 31.22V30.88ZM683.712 34.52C683.592 34.6667 683.412 34.8333 683.172 35.02C682.932 35.2067 682.612 35.3933 682.212 35.58C681.826 35.7533 681.346 35.9 680.772 36.02C680.212 36.14 679.532 36.2 678.732 36.2H678.472C677.566 36.2 676.792 36.1067 676.152 35.92C675.526 35.72 675.012 35.46 674.612 35.14C674.212 34.8067 673.919 34.4333 673.732 34.02C673.559 33.5933 673.472 33.1467 673.472 32.68V32.54C673.472 31.5533 673.819 30.8067 674.512 30.3C675.219 29.7933 676.379 29.4667 677.992 29.32L682.912 28.86C683.166 28.8333 683.339 28.78 683.432 28.7C683.539 28.6067 683.592 28.4733 683.592 28.3C683.592 28.2067 683.566 28.1067 683.512 28C683.472 27.8933 683.359 27.8 683.172 27.72C682.986 27.6267 682.706 27.5533 682.332 27.5C681.959 27.4467 681.446 27.42 680.792 27.42H680.692C680.026 27.42 679.506 27.4667 679.132 27.56C678.759 27.6533 678.479 27.7667 678.292 27.9C678.119 28.02 678.006 28.1467 677.952 28.28C677.912 28.4133 677.886 28.5267 677.872 28.62H673.732V28.58C673.732 28.34 673.752 28.0867 673.792 27.82C673.832 27.54 673.919 27.2667 674.052 27C674.199 26.7333 674.412 26.48 674.692 26.24C674.972 25.9867 675.346 25.7667 675.812 25.58C676.292 25.38 676.886 25.2267 677.592 25.12C678.299 25 679.152 24.94 680.152 24.94H681.252C682.812 24.94 684.032 25.0467 684.912 25.26C685.806 25.4733 686.472 25.7533 686.912 26.1C687.352 26.4333 687.626 26.8067 687.732 27.22C687.839 27.6333 687.892 28.0333 687.892 28.42V32.54C687.892 32.7 687.926 32.8333 687.992 32.94C688.072 33.0333 688.226 33.08 688.452 33.08H689.032V36H685.412C684.986 36 684.612 35.88 684.292 35.64C683.986 35.4 683.792 35.0267 683.712 34.52ZM694.371 31.06V36H689.911V25.24H694.371V29.54L698.731 25.24H703.671L698.591 30.1L704.291 36H699.051L694.371 31.06ZM710.883 36.3C709.323 36.3 708.043 36.1267 707.043 35.78C706.043 35.4333 705.25 34.9933 704.663 34.46C704.09 33.9133 703.69 33.3133 703.463 32.66C703.25 32.0067 703.143 31.3667 703.143 30.74V30.38C703.143 29.7667 703.25 29.14 703.463 28.5C703.69 27.8467 704.09 27.26 704.663 26.74C705.236 26.2067 706.023 25.7733 707.023 25.44C708.023 25.1067 709.303 24.94 710.863 24.94H712.283C713.923 24.94 715.243 25.1133 716.243 25.46C717.256 25.7933 718.036 26.2267 718.583 26.76C719.143 27.28 719.516 27.86 719.703 28.5C719.89 29.14 719.983 29.7667 719.983 30.38V30.74C719.983 31.3667 719.89 32.0067 719.703 32.66C719.53 33.3133 719.17 33.9133 718.623 34.46C718.076 34.9933 717.296 35.4333 716.283 35.78C715.283 36.1267 713.95 36.3 712.283 36.3H710.883ZM711.583 33.4C712.343 33.4 712.97 33.3133 713.463 33.14C713.97 32.9667 714.37 32.7467 714.663 32.48C714.956 32.2133 715.163 31.92 715.283 31.6C715.403 31.2667 715.463 30.94 715.463 30.62V30.52C715.463 30.1867 715.403 29.86 715.283 29.54C715.163 29.2067 714.956 28.9133 714.663 28.66C714.37 28.4067 713.97 28.2 713.463 28.04C712.97 27.88 712.35 27.8 711.603 27.8H711.583C710.823 27.8 710.19 27.88 709.683 28.04C709.19 28.1867 708.796 28.3933 708.503 28.66C708.21 28.9133 708.003 29.2067 707.883 29.54C707.763 29.86 707.703 30.1867 707.703 30.52V30.62C707.703 30.94 707.763 31.2667 707.883 31.6C708.003 31.92 708.21 32.2133 708.503 32.48C708.796 32.7467 709.19 32.9667 709.683 33.14C710.19 33.3133 710.823 33.4 711.583 33.4ZM721.181 25.24H725.641V32.02L732.401 25.24H736.961V36H732.501V29.22L725.741 36H721.181V25.24ZM728.821 24.36C727.914 24.36 727.174 24.24 726.601 24C726.041 23.76 725.607 23.4733 725.301 23.14C724.994 22.8067 724.787 22.46 724.681 22.1C724.574 21.7267 724.521 21.4133 724.521 21.16V21.12H727.921C727.921 21.1867 727.934 21.2733 727.961 21.38C728.001 21.4867 728.061 21.5933 728.141 21.7C728.234 21.8067 728.361 21.9 728.521 21.98C728.681 22.06 728.894 22.1 729.161 22.1C729.414 22.1 729.621 22.06 729.781 21.98C729.941 21.9 730.061 21.8067 730.141 21.7C730.234 21.5933 730.294 21.4867 730.321 21.38C730.361 21.2733 730.381 21.1867 730.381 21.12H733.701V21.16C733.701 21.4133 733.634 21.7267 733.501 22.1C733.367 22.46 733.141 22.8067 732.821 23.14C732.501 23.4733 732.067 23.76 731.521 24C730.974 24.24 730.287 24.36 729.461 24.36H728.821ZM751.932 36.3C750.399 36.3 749.146 36.1267 748.172 35.78C747.199 35.42 746.432 34.9733 745.872 34.44C745.326 33.8933 744.946 33.2933 744.732 32.64C744.532 31.9867 744.432 31.36 744.432 30.76V30.36C744.432 29.76 744.532 29.14 744.732 28.5C744.946 27.86 745.326 27.28 745.872 26.76C746.419 26.2267 747.179 25.7933 748.152 25.46C749.126 25.1133 750.379 24.94 751.912 24.94H753.052C754.172 24.94 755.132 25.0267 755.932 25.2C756.746 25.36 757.432 25.5733 757.992 25.84C758.552 26.1067 759.006 26.4133 759.352 26.76C759.699 27.0933 759.966 27.4333 760.152 27.78C760.339 28.1267 760.459 28.4667 760.512 28.8C760.579 29.12 760.612 29.4 760.612 29.64V29.7H756.032C756.006 29.5933 755.946 29.4333 755.852 29.22C755.772 29.0067 755.606 28.7933 755.352 28.58C755.112 28.3533 754.759 28.16 754.292 28C753.839 27.84 753.232 27.76 752.472 27.76H752.412C751.759 27.76 751.212 27.8333 750.772 27.98C750.346 28.1267 749.999 28.3267 749.732 28.58C749.466 28.8333 749.272 29.12 749.152 29.44C749.046 29.76 748.992 30.0867 748.992 30.42V30.56C748.992 30.92 749.046 31.2733 749.152 31.62C749.272 31.9667 749.466 32.2733 749.732 32.54C749.999 32.8067 750.352 33.0267 750.792 33.2C751.232 33.36 751.772 33.44 752.412 33.44H752.472C753.219 33.44 753.819 33.36 754.272 33.2C754.739 33.0267 755.099 32.8333 755.352 32.62C755.606 32.3933 755.772 32.1733 755.852 31.96C755.946 31.7333 756.006 31.5667 756.032 31.46H760.612V31.5C760.612 31.7533 760.586 32.0467 760.532 32.38C760.479 32.7133 760.359 33.06 760.172 33.42C759.999 33.7667 759.739 34.1133 759.392 34.46C759.059 34.8067 758.612 35.12 758.052 35.4C757.492 35.6667 756.799 35.88 755.972 36.04C755.159 36.2133 754.179 36.3 753.032 36.3H751.932ZM765.477 28.2H760.977V25.24H774.437V28.2H769.937V36H765.477V28.2ZM780.33 30.62C780.33 30.9533 780.41 31.2867 780.57 31.62C780.73 31.9533 780.97 32.2533 781.29 32.52C781.623 32.7867 782.036 33.0067 782.53 33.18C783.036 33.34 783.63 33.42 784.31 33.42H784.41C785.13 33.42 785.723 33.34 786.19 33.18C786.67 33.0067 787.05 32.7867 787.33 32.52C787.61 32.24 787.803 31.9333 787.91 31.6C788.03 31.2667 788.09 30.94 788.09 30.62V30.54C788.09 30.1933 788.03 29.8533 787.91 29.52C787.803 29.1867 787.61 28.8933 787.33 28.64C787.05 28.3733 786.67 28.16 786.19 28C785.723 27.84 785.13 27.76 784.41 27.76H784.31C783.616 27.76 783.016 27.84 782.51 28C782.016 28.16 781.603 28.3733 781.27 28.64C780.95 28.8933 780.71 29.1867 780.55 29.52C780.403 29.8533 780.33 30.1933 780.33 30.54V30.62ZM780.33 25.24V26.78C780.45 26.6733 780.643 26.52 780.91 26.32C781.19 26.12 781.556 25.92 782.01 25.72C782.463 25.52 783.003 25.3467 783.63 25.2C784.256 25.0533 784.976 24.98 785.79 24.98H786.15C787.363 24.98 788.383 25.1267 789.21 25.42C790.05 25.7 790.723 26.0867 791.23 26.58C791.736 27.06 792.096 27.6333 792.31 28.3C792.536 28.9533 792.65 29.6467 792.65 30.38V30.76C792.65 31.4667 792.536 32.1533 792.31 32.82C792.083 33.4733 791.71 34.06 791.19 34.58C790.67 35.0867 789.983 35.4933 789.13 35.8C788.29 36.1067 787.25 36.26 786.01 36.26H785.69C784.89 36.26 784.176 36.1867 783.55 36.04C782.923 35.8933 782.383 35.72 781.93 35.52C781.49 35.32 781.136 35.1267 780.87 34.94C780.603 34.74 780.423 34.5867 780.33 34.48V39.76H775.87V25.24H780.33ZM803.417 30.88L799.157 31.54C798.583 31.6333 798.17 31.7467 797.917 31.88C797.663 32.0133 797.537 32.2333 797.537 32.54V32.56C797.537 32.7067 797.563 32.8533 797.617 33C797.683 33.1467 797.79 33.28 797.937 33.4C798.097 33.5067 798.297 33.6 798.537 33.68C798.79 33.7467 799.11 33.78 799.497 33.78C800.097 33.78 800.637 33.7067 801.117 33.56C801.597 33.4133 802.003 33.22 802.337 32.98C802.683 32.74 802.95 32.4667 803.137 32.16C803.323 31.8533 803.417 31.54 803.417 31.22V30.88ZM803.537 34.52C803.417 34.6667 803.237 34.8333 802.997 35.02C802.757 35.2067 802.437 35.3933 802.037 35.58C801.65 35.7533 801.17 35.9 800.597 36.02C800.037 36.14 799.357 36.2 798.557 36.2H798.297C797.39 36.2 796.617 36.1067 795.977 35.92C795.35 35.72 794.837 35.46 794.437 35.14C794.037 34.8067 793.743 34.4333 793.557 34.02C793.383 33.5933 793.297 33.1467 793.297 32.68V32.54C793.297 31.5533 793.643 30.8067 794.337 30.3C795.043 29.7933 796.203 29.4667 797.817 29.32L802.737 28.86C802.99 28.8333 803.163 28.78 803.257 28.7C803.363 28.6067 803.417 28.4733 803.417 28.3C803.417 28.2067 803.39 28.1067 803.337 28C803.297 27.8933 803.183 27.8 802.997 27.72C802.81 27.6267 802.53 27.5533 802.157 27.5C801.783 27.4467 801.27 27.42 800.617 27.42H800.517C799.85 27.42 799.33 27.4667 798.957 27.56C798.583 27.6533 798.303 27.7667 798.117 27.9C797.943 28.02 797.83 28.1467 797.777 28.28C797.737 28.4133 797.71 28.5267 797.697 28.62H793.557V28.58C793.557 28.34 793.577 28.0867 793.617 27.82C793.657 27.54 793.743 27.2667 793.877 27C794.023 26.7333 794.237 26.48 794.517 26.24C794.797 25.9867 795.17 25.7667 795.637 25.58C796.117 25.38 796.71 25.2267 797.417 25.12C798.123 25 798.977 24.94 799.977 24.94H801.077C802.637 24.94 803.857 25.0467 804.737 25.26C805.63 25.4733 806.297 25.7533 806.737 26.1C807.177 26.4333 807.45 26.8067 807.557 27.22C807.663 27.6333 807.717 28.0333 807.717 28.42V32.54C807.717 32.7 807.75 32.8333 807.817 32.94C807.897 33.0333 808.05 33.08 808.277 33.08H808.857V36H805.237C804.81 36 804.437 35.88 804.117 35.64C803.81 35.4 803.617 35.0267 803.537 34.52ZM809.735 36V25.24H814.195V29.16H820.235V25.24H824.695V36H820.235V32.12H814.195V36H809.735ZM826.454 25.24H830.914V32.02L837.674 25.24H842.234V36H837.774V29.22L831.014 36H826.454V25.24ZM860.153 38.4H855.893V36H843.993V25.24H848.453V33.04H853.493V25.24H857.953V33.04H860.153V38.4ZM861.142 25.24H865.602V28.04H870.422C871.222 28.04 871.922 28.14 872.522 28.34C873.135 28.5267 873.642 28.7867 874.042 29.12C874.442 29.4533 874.742 29.8533 874.942 30.32C875.155 30.7733 875.262 31.26 875.262 31.78V31.98C875.262 32.5 875.162 33.0067 874.962 33.5C874.762 33.98 874.455 34.4067 874.042 34.78C873.642 35.14 873.135 35.4333 872.522 35.66C871.922 35.8867 871.222 36 870.422 36H861.142V25.24ZM869.302 33.26C869.782 33.26 870.135 33.14 870.362 32.9C870.602 32.6467 870.722 32.3667 870.722 32.06V31.96C870.722 31.64 870.602 31.3667 870.362 31.14C870.135 30.9 869.782 30.78 869.302 30.78H865.602V33.26H869.302ZM880.782 36H876.322V25.24H880.782V36ZM888.642 36V25.24H893.102V29.16H899.142V25.24H903.602V36H899.142V32.12H893.102V36H888.642ZM912.96 27.44C911.84 27.44 911.007 27.6 910.46 27.92C909.914 28.24 909.554 28.6867 909.38 29.26H916.58C916.434 28.6867 916.08 28.24 915.52 27.92C914.96 27.6 914.114 27.44 912.98 27.44H912.96ZM921.02 32.22C921.02 32.58 920.934 33 920.76 33.48C920.6 33.9467 920.26 34.3933 919.74 34.82C919.22 35.2333 918.474 35.5867 917.5 35.88C916.527 36.16 915.24 36.3 913.64 36.3H912.5C911.06 36.3 909.854 36.1467 908.88 35.84C907.92 35.5333 907.147 35.1267 906.56 34.62C905.974 34.1 905.554 33.5133 905.3 32.86C905.047 32.1933 904.92 31.5067 904.92 30.8V30.36C904.92 29.6667 905.034 29 905.26 28.36C905.5 27.7067 905.9 27.1267 906.46 26.62C907.034 26.1133 907.8 25.7067 908.76 25.4C909.72 25.0933 910.927 24.94 912.38 24.94H913.6C915.174 24.94 916.447 25.12 917.42 25.48C918.407 25.84 919.167 26.3 919.7 26.86C920.247 27.42 920.614 28.0467 920.8 28.74C920.987 29.42 921.08 30.0867 921.08 30.74V31.48H909.3C909.434 32.1067 909.794 32.6133 910.38 33C910.967 33.3867 911.874 33.58 913.1 33.58H913.12C913.854 33.58 914.447 33.52 914.9 33.4C915.354 33.28 915.707 33.1467 915.96 33C916.214 32.84 916.38 32.6867 916.46 32.54C916.554 32.38 916.607 32.2667 916.62 32.2H921.02V32.22ZM935.467 36.3C933.934 36.3 932.681 36.1267 931.707 35.78C930.734 35.42 929.967 34.9733 929.407 34.44C928.861 33.8933 928.481 33.2933 928.267 32.64C928.067 31.9867 927.967 31.36 927.967 30.76V30.36C927.967 29.76 928.067 29.14 928.267 28.5C928.481 27.86 928.861 27.28 929.407 26.76C929.954 26.2267 930.714 25.7933 931.687 25.46C932.661 25.1133 933.914 24.94 935.447 24.94H936.587C937.707 24.94 938.667 25.0267 939.467 25.2C940.281 25.36 940.967 25.5733 941.527 25.84C942.087 26.1067 942.541 26.4133 942.887 26.76C943.234 27.0933 943.501 27.4333 943.687 27.78C943.874 28.1267 943.994 28.4667 944.047 28.8C944.114 29.12 944.147 29.4 944.147 29.64V29.7H939.567C939.541 29.5933 939.481 29.4333 939.387 29.22C939.307 29.0067 939.141 28.7933 938.887 28.58C938.647 28.3533 938.294 28.16 937.827 28C937.374 27.84 936.767 27.76 936.007 27.76H935.947C935.294 27.76 934.747 27.8333 934.307 27.98C933.881 28.1267 933.534 28.3267 933.267 28.58C933.001 28.8333 932.807 29.12 932.687 29.44C932.581 29.76 932.527 30.0867 932.527 30.42V30.56C932.527 30.92 932.581 31.2733 932.687 31.62C932.807 31.9667 933.001 32.2733 933.267 32.54C933.534 32.8067 933.887 33.0267 934.327 33.2C934.767 33.36 935.307 33.44 935.947 33.44H936.007C936.754 33.44 937.354 33.36 937.807 33.2C938.274 33.0267 938.634 32.8333 938.887 32.62C939.141 32.3933 939.307 32.1733 939.387 31.96C939.481 31.7333 939.541 31.5667 939.567 31.46H944.147V31.5C944.147 31.7533 944.121 32.0467 944.067 32.38C944.014 32.7133 943.894 33.06 943.707 33.42C943.534 33.7667 943.274 34.1133 942.927 34.46C942.594 34.8067 942.147 35.12 941.587 35.4C941.027 35.6667 940.334 35.88 939.507 36.04C938.694 36.2133 937.714 36.3 936.567 36.3H935.467ZM946.314 36.56H948.834C949.047 36.56 949.187 36.5267 949.254 36.46C949.32 36.4067 949.354 36.3267 949.354 36.22C949.354 36.1133 949.307 35.9733 949.214 35.8C949.134 35.6267 949.014 35.3867 948.854 35.08L943.714 25.24H948.514L951.974 32.52L955.334 25.24H959.814L954.174 36.72C953.92 37.2267 953.66 37.6667 953.394 38.04C953.14 38.4267 952.854 38.7467 952.534 39C952.227 39.2533 951.88 39.44 951.494 39.56C951.12 39.6933 950.694 39.76 950.214 39.76H946.314V36.56ZM960.36 25.24H964.82V33.04H968.66V25.24H973.12V33.04H976.96V25.24H981.42V33.04H983.62V38.4H979.36V36H960.36V25.24ZM992.003 27.44C990.883 27.44 990.05 27.6 989.503 27.92C988.957 28.24 988.597 28.6867 988.423 29.26H995.623C995.477 28.6867 995.123 28.24 994.563 27.92C994.003 27.6 993.157 27.44 992.023 27.44H992.003ZM1000.06 32.22C1000.06 32.58 999.977 33 999.803 33.48C999.643 33.9467 999.303 34.3933 998.783 34.82C998.263 35.2333 997.517 35.5867 996.543 35.88C995.57 36.16 994.283 36.3 992.683 36.3H991.543C990.103 36.3 988.897 36.1467 987.923 35.84C986.963 35.5333 986.19 35.1267 985.603 34.62C985.017 34.1 984.597 33.5133 984.343 32.86C984.09 32.1933 983.963 31.5067 983.963 30.8V30.36C983.963 29.6667 984.077 29 984.303 28.36C984.543 27.7067 984.943 27.1267 985.503 26.62C986.077 26.1133 986.843 25.7067 987.803 25.4C988.763 25.0933 989.97 24.94 991.423 24.94H992.643C994.217 24.94 995.49 25.12 996.463 25.48C997.45 25.84 998.21 26.3 998.743 26.86C999.29 27.42 999.657 28.0467 999.843 28.74C1000.03 29.42 1000.12 30.0867 1000.12 30.74V31.48H988.343C988.477 32.1067 988.837 32.6133 989.423 33C990.01 33.3867 990.917 33.58 992.143 33.58H992.163C992.897 33.58 993.49 33.52 993.943 33.4C994.397 33.28 994.75 33.1467 995.003 33C995.257 32.84 995.423 32.6867 995.503 32.54C995.597 32.38 995.65 32.2667 995.663 32.2H1000.06V32.22ZM1008.36 36.3C1006.82 36.3 1005.57 36.1267 1004.6 35.78C1003.62 35.42 1002.86 34.9733 1002.3 34.44C1001.75 33.8933 1001.37 33.2933 1001.16 32.64C1000.96 31.9867 1000.86 31.36 1000.86 30.76V30.36C1000.86 29.76 1000.96 29.14 1001.16 28.5C1001.37 27.86 1001.75 27.28 1002.3 26.76C1002.84 26.2267 1003.6 25.7933 1004.58 25.46C1005.55 25.1133 1006.8 24.94 1008.34 24.94H1009.48C1010.6 24.94 1011.56 25.0267 1012.36 25.2C1013.17 25.36 1013.86 25.5733 1014.42 25.84C1014.98 26.1067 1015.43 26.4133 1015.78 26.76C1016.12 27.0933 1016.39 27.4333 1016.58 27.78C1016.76 28.1267 1016.88 28.4667 1016.94 28.8C1017 29.12 1017.04 29.4 1017.04 29.64V29.7H1012.46C1012.43 29.5933 1012.37 29.4333 1012.28 29.22C1012.2 29.0067 1012.03 28.7933 1011.78 28.58C1011.54 28.3533 1011.18 28.16 1010.72 28C1010.26 27.84 1009.66 27.76 1008.9 27.76H1008.84C1008.18 27.76 1007.64 27.8333 1007.2 27.98C1006.77 28.1267 1006.42 28.3267 1006.16 28.58C1005.89 28.8333 1005.7 29.12 1005.58 29.44C1005.47 29.76 1005.42 30.0867 1005.42 30.42V30.56C1005.42 30.92 1005.47 31.2733 1005.58 31.62C1005.7 31.9667 1005.89 32.2733 1006.16 32.54C1006.42 32.8067 1006.78 33.0267 1007.22 33.2C1007.66 33.36 1008.2 33.44 1008.84 33.44H1008.9C1009.64 33.44 1010.24 33.36 1010.7 33.2C1011.16 33.0267 1011.52 32.8333 1011.78 32.62C1012.03 32.3933 1012.2 32.1733 1012.28 31.96C1012.37 31.7333 1012.43 31.5667 1012.46 31.46H1017.04V31.5C1017.04 31.7533 1017.01 32.0467 1016.96 32.38C1016.9 32.7133 1016.78 33.06 1016.6 33.42C1016.42 33.7667 1016.16 34.1133 1015.82 34.46C1015.48 34.8067 1015.04 35.12 1014.48 35.4C1013.92 35.6667 1013.22 35.88 1012.4 36.04C1011.58 36.2133 1010.6 36.3 1009.46 36.3H1008.36ZM1021.9 28.2H1017.4V25.24H1030.86V28.2H1026.36V36H1021.9V28.2ZM1032.24 36V25.24H1040.2C1041.34 25.24 1042.31 25.2933 1043.1 25.4C1043.88 25.5067 1044.52 25.6667 1045 25.88C1045.48 26.0933 1045.82 26.36 1046.02 26.68C1046.23 26.9867 1046.34 27.34 1046.34 27.74V27.94C1046.34 28.5267 1046.12 29.0067 1045.68 29.38C1045.25 29.7533 1044.66 30.0267 1043.92 30.2C1044.29 30.28 1044.65 30.3933 1045 30.54C1045.36 30.6733 1045.67 30.8467 1045.94 31.06C1046.22 31.2733 1046.44 31.5267 1046.6 31.82C1046.76 32.1 1046.84 32.4133 1046.84 32.76V32.96C1046.84 33.3867 1046.74 33.7867 1046.54 34.16C1046.35 34.52 1046.04 34.84 1045.6 35.12C1045.17 35.3867 1044.6 35.6 1043.9 35.76C1043.2 35.92 1042.35 36 1041.34 36H1032.24ZM1039.98 29.22C1040.67 29.22 1041.14 29.1533 1041.4 29.02C1041.66 28.8867 1041.8 28.6867 1041.8 28.42V28.36C1041.8 28.1067 1041.66 27.92 1041.4 27.8C1041.14 27.6667 1040.66 27.6 1039.96 27.6H1036.7V29.22H1039.98ZM1040.38 33.58C1041.66 33.58 1042.3 33.2333 1042.3 32.54V32.44C1042.3 31.8 1041.65 31.48 1040.36 31.48H1036.7V33.58H1040.38ZM1049.32 36.56H1051.84C1052.05 36.56 1052.19 36.5267 1052.26 36.46C1052.33 36.4067 1052.36 36.3267 1052.36 36.22C1052.36 36.1133 1052.31 35.9733 1052.22 35.8C1052.14 35.6267 1052.02 35.3867 1051.86 35.08L1046.72 25.24H1051.52L1054.98 32.52L1058.34 25.24H1062.82L1057.18 36.72C1056.93 37.2267 1056.67 37.6667 1056.4 38.04C1056.15 38.4267 1055.86 38.7467 1055.54 39C1055.23 39.2533 1054.89 39.44 1054.5 39.56C1054.13 39.6933 1053.7 39.76 1053.22 39.76H1049.32V36.56ZM1070.4 27.44C1069.28 27.44 1068.45 27.6 1067.9 27.92C1067.36 28.24 1067 28.6867 1066.82 29.26H1074.02C1073.88 28.6867 1073.52 28.24 1072.96 27.92C1072.4 27.6 1071.56 27.44 1070.42 27.44H1070.4ZM1078.46 32.22C1078.46 32.58 1078.38 33 1078.2 33.48C1078.04 33.9467 1077.7 34.3933 1077.18 34.82C1076.66 35.2333 1075.92 35.5867 1074.94 35.88C1073.97 36.16 1072.68 36.3 1071.08 36.3H1069.94C1068.5 36.3 1067.3 36.1467 1066.32 35.84C1065.36 35.5333 1064.59 35.1267 1064 34.62C1063.42 34.1 1063 33.5133 1062.74 32.86C1062.49 32.1933 1062.36 31.5067 1062.36 30.8V30.36C1062.36 29.6667 1062.48 29 1062.7 28.36C1062.94 27.7067 1063.34 27.1267 1063.9 26.62C1064.48 26.1133 1065.24 25.7067 1066.2 25.4C1067.16 25.0933 1068.37 24.94 1069.82 24.94H1071.04C1072.62 24.94 1073.89 25.12 1074.86 25.48C1075.85 25.84 1076.61 26.3 1077.14 26.86C1077.69 27.42 1078.06 28.0467 1078.24 28.74C1078.43 29.42 1078.52 30.0867 1078.52 30.74V31.48H1066.74C1066.88 32.1067 1067.24 32.6133 1067.82 33C1068.41 33.3867 1069.32 33.58 1070.54 33.58H1070.56C1071.3 33.58 1071.89 33.52 1072.34 33.4C1072.8 33.28 1073.15 33.1467 1073.4 33C1073.66 32.84 1073.82 32.6867 1073.9 32.54C1074 32.38 1074.05 32.2667 1074.06 32.2H1078.46V32.22ZM1083.82 28.2H1079.32V25.24H1092.78V28.2H1088.28V36H1083.82V28.2ZM1112.75 28.34V31.78H1106.33V28.34H1112.75ZM1136.57 21.06H1141.59V29.46H1144.61V32.92H1141.59V36H1136.99V32.92H1126.09V30.1L1136.57 21.06ZM1136.99 24.78L1131.53 29.46H1136.99V24.78ZM1166.41 28.82C1166.41 29.2467 1166.36 29.7333 1166.27 30.28C1166.19 30.8133 1166.02 31.36 1165.77 31.92C1165.52 32.4667 1165.16 33 1164.69 33.52C1164.24 34.04 1163.64 34.5067 1162.89 34.92C1162.16 35.32 1161.25 35.6467 1160.17 35.9C1159.1 36.14 1157.84 36.26 1156.37 36.26H1155.49C1154.02 36.26 1152.76 36.14 1151.69 35.9C1150.62 35.6467 1149.72 35.32 1148.97 34.92C1148.24 34.5067 1147.64 34.04 1147.17 33.52C1146.7 33 1146.34 32.4667 1146.09 31.92C1145.84 31.36 1145.66 30.8133 1145.57 30.28C1145.49 29.7467 1145.45 29.26 1145.45 28.82V28.22C1145.45 27.78 1145.49 27.2933 1145.57 26.76C1145.66 26.2267 1145.84 25.6867 1146.09 25.14C1146.34 24.5933 1146.7 24.0667 1147.17 23.56C1147.64 23.04 1148.24 22.58 1148.97 22.18C1149.72 21.78 1150.62 21.46 1151.69 21.22C1152.76 20.98 1154.02 20.86 1155.49 20.86H1156.37C1157.84 20.86 1159.1 20.98 1160.17 21.22C1161.24 21.46 1162.14 21.78 1162.89 22.18C1163.64 22.58 1164.24 23.04 1164.69 23.56C1165.16 24.0667 1165.52 24.5933 1165.77 25.14C1166.02 25.6867 1166.19 26.2267 1166.27 26.76C1166.36 27.2933 1166.41 27.78 1166.41 28.22V28.82ZM1161.53 28.36C1161.53 27.9333 1161.45 27.4933 1161.29 27.04C1161.14 26.5867 1160.86 26.1733 1160.43 25.8C1160.02 25.4133 1159.44 25.1 1158.71 24.86C1157.99 24.6067 1157.06 24.48 1155.93 24.48C1154.77 24.48 1153.82 24.6067 1153.09 24.86C1152.37 25.1 1151.8 25.4133 1151.39 25.8C1150.98 26.1733 1150.7 26.5867 1150.55 27.04C1150.4 27.4933 1150.33 27.9333 1150.33 28.36V28.6C1150.33 29.0267 1150.41 29.4733 1150.57 29.94C1150.73 30.4067 1151.02 30.84 1151.43 31.24C1151.84 31.64 1152.41 31.9733 1153.13 32.24C1153.86 32.4933 1154.8 32.62 1155.93 32.62C1157.06 32.62 1157.99 32.4933 1158.71 32.24C1159.44 31.9867 1160.02 31.6667 1160.43 31.28C1160.84 30.88 1161.13 30.4467 1161.29 29.98C1161.45 29.5133 1161.53 29.0667 1161.53 28.64V28.36ZM1177.68 21.06H1182.7V29.46H1185.72V32.92H1182.7V36H1178.1V32.92H1167.2V30.1L1177.68 21.06ZM1178.1 24.78L1172.64 29.46H1178.1V24.78ZM1205.51 28.34V31.78H1199.09V28.34H1205.51ZM1225.54 24.64H1219.14V21.12H1236.66V24.64H1230.24V36H1225.54V24.64ZM1245.51 30.88L1241.25 31.54C1240.67 31.6333 1240.26 31.7467 1240.01 31.88C1239.75 32.0133 1239.63 32.2333 1239.63 32.54V32.56C1239.63 32.7067 1239.65 32.8533 1239.71 33C1239.77 33.1467 1239.88 33.28 1240.03 33.4C1240.19 33.5067 1240.39 33.6 1240.63 33.68C1240.88 33.7467 1241.2 33.78 1241.59 33.78C1242.19 33.78 1242.73 33.7067 1243.21 33.56C1243.69 33.4133 1244.09 33.22 1244.43 32.98C1244.77 32.74 1245.04 32.4667 1245.23 32.16C1245.41 31.8533 1245.51 31.54 1245.51 31.22V30.88ZM1245.63 34.52C1245.51 34.6667 1245.33 34.8333 1245.09 35.02C1244.85 35.2067 1244.53 35.3933 1244.13 35.58C1243.74 35.7533 1243.26 35.9 1242.69 36.02C1242.13 36.14 1241.45 36.2 1240.65 36.2H1240.39C1239.48 36.2 1238.71 36.1067 1238.07 35.92C1237.44 35.72 1236.93 35.46 1236.53 35.14C1236.13 34.8067 1235.83 34.4333 1235.65 34.02C1235.47 33.5933 1235.39 33.1467 1235.39 32.68V32.54C1235.39 31.5533 1235.73 30.8067 1236.43 30.3C1237.13 29.7933 1238.29 29.4667 1239.91 29.32L1244.83 28.86C1245.08 28.8333 1245.25 28.78 1245.35 28.7C1245.45 28.6067 1245.51 28.4733 1245.51 28.3C1245.51 28.2067 1245.48 28.1067 1245.43 28C1245.39 27.8933 1245.27 27.8 1245.09 27.72C1244.9 27.6267 1244.62 27.5533 1244.25 27.5C1243.87 27.4467 1243.36 27.42 1242.71 27.42H1242.61C1241.94 27.42 1241.42 27.4667 1241.05 27.56C1240.67 27.6533 1240.39 27.7667 1240.21 27.9C1240.03 28.02 1239.92 28.1467 1239.87 28.28C1239.83 28.4133 1239.8 28.5267 1239.79 28.62H1235.65V28.58C1235.65 28.34 1235.67 28.0867 1235.71 27.82C1235.75 27.54 1235.83 27.2667 1235.97 27C1236.11 26.7333 1236.33 26.48 1236.61 26.24C1236.89 25.9867 1237.26 25.7667 1237.73 25.58C1238.21 25.38 1238.8 25.2267 1239.51 25.12C1240.21 25 1241.07 24.94 1242.07 24.94H1243.17C1244.73 24.94 1245.95 25.0467 1246.83 25.26C1247.72 25.4733 1248.39 25.7533 1248.83 26.1C1249.27 26.4333 1249.54 26.8067 1249.65 27.22C1249.75 27.6333 1249.81 28.0333 1249.81 28.42V32.54C1249.81 32.7 1249.84 32.8333 1249.91 32.94C1249.99 33.0333 1250.14 33.08 1250.37 33.08H1250.95V36H1247.33C1246.9 36 1246.53 35.88 1246.21 35.64C1245.9 35.4 1245.71 35.0267 1245.63 34.52ZM1256.29 31.06V36H1251.83V25.24H1256.29V29.54L1260.65 25.24H1265.59L1260.51 30.1L1266.21 36H1260.97L1256.29 31.06ZM1272.8 36.3C1271.24 36.3 1269.96 36.1267 1268.96 35.78C1267.96 35.4333 1267.16 34.9933 1266.58 34.46C1266 33.9133 1265.6 33.3133 1265.38 32.66C1265.16 32.0067 1265.06 31.3667 1265.06 30.74V30.38C1265.06 29.7667 1265.16 29.14 1265.38 28.5C1265.6 27.8467 1266 27.26 1266.58 26.74C1267.15 26.2067 1267.94 25.7733 1268.94 25.44C1269.94 25.1067 1271.22 24.94 1272.78 24.94H1274.2C1275.84 24.94 1277.16 25.1133 1278.16 25.46C1279.17 25.7933 1279.95 26.2267 1280.5 26.76C1281.06 27.28 1281.43 27.86 1281.62 28.5C1281.8 29.14 1281.9 29.7667 1281.9 30.38V30.74C1281.9 31.3667 1281.8 32.0067 1281.62 32.66C1281.44 33.3133 1281.08 33.9133 1280.54 34.46C1279.99 34.9933 1279.21 35.4333 1278.2 35.78C1277.2 36.1267 1275.86 36.3 1274.2 36.3H1272.8ZM1273.5 33.4C1274.26 33.4 1274.88 33.3133 1275.38 33.14C1275.88 32.9667 1276.28 32.7467 1276.58 32.48C1276.87 32.2133 1277.08 31.92 1277.2 31.6C1277.32 31.2667 1277.38 30.94 1277.38 30.62V30.52C1277.38 30.1867 1277.32 29.86 1277.2 29.54C1277.08 29.2067 1276.87 28.9133 1276.58 28.66C1276.28 28.4067 1275.88 28.2 1275.38 28.04C1274.88 27.88 1274.26 27.8 1273.52 27.8H1273.5C1272.74 27.8 1272.1 27.88 1271.6 28.04C1271.1 28.1867 1270.71 28.3933 1270.42 28.66C1270.12 28.9133 1269.92 29.2067 1269.8 29.54C1269.68 29.86 1269.62 30.1867 1269.62 30.52V30.62C1269.62 30.94 1269.68 31.2667 1269.8 31.6C1269.92 31.92 1270.12 32.2133 1270.42 32.48C1270.71 32.7467 1271.1 32.9667 1271.6 33.14C1272.1 33.3133 1272.74 33.4 1273.5 33.4ZM1283.09 25.24H1287.55V32.02L1294.31 25.24H1298.87V36H1294.41V29.22L1287.65 36H1283.09V25.24ZM1290.73 24.36C1289.83 24.36 1289.09 24.24 1288.51 24C1287.95 23.76 1287.52 23.4733 1287.21 23.14C1286.91 22.8067 1286.7 22.46 1286.59 22.1C1286.49 21.7267 1286.43 21.4133 1286.43 21.16V21.12H1289.83C1289.83 21.1867 1289.85 21.2733 1289.87 21.38C1289.91 21.4867 1289.97 21.5933 1290.05 21.7C1290.15 21.8067 1290.27 21.9 1290.43 21.98C1290.59 22.06 1290.81 22.1 1291.07 22.1C1291.33 22.1 1291.53 22.06 1291.69 21.98C1291.85 21.9 1291.97 21.8067 1292.05 21.7C1292.15 21.5933 1292.21 21.4867 1292.23 21.38C1292.27 21.2733 1292.29 21.1867 1292.29 21.12H1295.61V21.16C1295.61 21.4133 1295.55 21.7267 1295.41 22.1C1295.28 22.46 1295.05 22.8067 1294.73 23.14C1294.41 23.4733 1293.98 23.76 1293.43 24C1292.89 24.24 1292.2 24.36 1291.37 24.36H1290.73ZM1313.85 36.3C1312.31 36.3 1311.06 36.1267 1310.09 35.78C1309.11 35.42 1308.35 34.9733 1307.79 34.44C1307.24 33.8933 1306.86 33.2933 1306.65 32.64C1306.45 31.9867 1306.35 31.36 1306.35 30.76V30.36C1306.35 29.76 1306.45 29.14 1306.65 28.5C1306.86 27.86 1307.24 27.28 1307.79 26.76C1308.33 26.2267 1309.09 25.7933 1310.07 25.46C1311.04 25.1133 1312.29 24.94 1313.83 24.94H1314.97C1316.09 24.94 1317.05 25.0267 1317.85 25.2C1318.66 25.36 1319.35 25.5733 1319.91 25.84C1320.47 26.1067 1320.92 26.4133 1321.27 26.76C1321.61 27.0933 1321.88 27.4333 1322.07 27.78C1322.25 28.1267 1322.37 28.4667 1322.43 28.8C1322.49 29.12 1322.53 29.4 1322.53 29.64V29.7H1317.95C1317.92 29.5933 1317.86 29.4333 1317.77 29.22C1317.69 29.0067 1317.52 28.7933 1317.27 28.58C1317.03 28.3533 1316.67 28.16 1316.21 28C1315.75 27.84 1315.15 27.76 1314.39 27.76H1314.33C1313.67 27.76 1313.13 27.8333 1312.69 27.98C1312.26 28.1267 1311.91 28.3267 1311.65 28.58C1311.38 28.8333 1311.19 29.12 1311.07 29.44C1310.96 29.76 1310.91 30.0867 1310.91 30.42V30.56C1310.91 30.92 1310.96 31.2733 1311.07 31.62C1311.19 31.9667 1311.38 32.2733 1311.65 32.54C1311.91 32.8067 1312.27 33.0267 1312.71 33.2C1313.15 33.36 1313.69 33.44 1314.33 33.44H1314.39C1315.13 33.44 1315.73 33.36 1316.19 33.2C1316.65 33.0267 1317.01 32.8333 1317.27 32.62C1317.52 32.3933 1317.69 32.1733 1317.77 31.96C1317.86 31.7333 1317.92 31.5667 1317.95 31.46H1322.53V31.5C1322.53 31.7533 1322.5 32.0467 1322.45 32.38C1322.39 32.7133 1322.27 33.06 1322.09 33.42C1321.91 33.7667 1321.65 34.1133 1321.31 34.46C1320.97 34.8067 1320.53 35.12 1319.97 35.4C1319.41 35.6667 1318.71 35.88 1317.89 36.04C1317.07 36.2133 1316.09 36.3 1314.95 36.3H1313.85ZM1327.39 28.2H1322.89V25.24H1336.35V28.2H1331.85V36H1327.39V28.2ZM1342.24 30.62C1342.24 30.9533 1342.32 31.2867 1342.48 31.62C1342.64 31.9533 1342.88 32.2533 1343.2 32.52C1343.54 32.7867 1343.95 33.0067 1344.44 33.18C1344.95 33.34 1345.54 33.42 1346.22 33.42H1346.32C1347.04 33.42 1347.64 33.34 1348.1 33.18C1348.58 33.0067 1348.96 32.7867 1349.24 32.52C1349.52 32.24 1349.72 31.9333 1349.82 31.6C1349.94 31.2667 1350 30.94 1350 30.62V30.54C1350 30.1933 1349.94 29.8533 1349.82 29.52C1349.72 29.1867 1349.52 28.8933 1349.24 28.64C1348.96 28.3733 1348.58 28.16 1348.1 28C1347.64 27.84 1347.04 27.76 1346.32 27.76H1346.22C1345.53 27.76 1344.93 27.84 1344.42 28C1343.93 28.16 1343.52 28.3733 1343.18 28.64C1342.86 28.8933 1342.62 29.1867 1342.46 29.52C1342.32 29.8533 1342.24 30.1933 1342.24 30.54V30.62ZM1342.24 25.24V26.78C1342.36 26.6733 1342.56 26.52 1342.82 26.32C1343.1 26.12 1343.47 25.92 1343.92 25.72C1344.38 25.52 1344.92 25.3467 1345.54 25.2C1346.17 25.0533 1346.89 24.98 1347.7 24.98H1348.06C1349.28 24.98 1350.3 25.1267 1351.12 25.42C1351.96 25.7 1352.64 26.0867 1353.14 26.58C1353.65 27.06 1354.01 27.6333 1354.22 28.3C1354.45 28.9533 1354.56 29.6467 1354.56 30.38V30.76C1354.56 31.4667 1354.45 32.1533 1354.22 32.82C1354 33.4733 1353.62 34.06 1353.1 34.58C1352.58 35.0867 1351.9 35.4933 1351.04 35.8C1350.2 36.1067 1349.16 36.26 1347.92 36.26H1347.6C1346.8 36.26 1346.09 36.1867 1345.46 36.04C1344.84 35.8933 1344.3 35.72 1343.84 35.52C1343.4 35.32 1343.05 35.1267 1342.78 34.94C1342.52 34.74 1342.34 34.5867 1342.24 34.48V39.76H1337.78V25.24H1342.24ZM1365.33 30.88L1361.07 31.54C1360.5 31.6333 1360.08 31.7467 1359.83 31.88C1359.58 32.0133 1359.45 32.2333 1359.45 32.54V32.56C1359.45 32.7067 1359.48 32.8533 1359.53 33C1359.6 33.1467 1359.7 33.28 1359.85 33.4C1360.01 33.5067 1360.21 33.6 1360.45 33.68C1360.7 33.7467 1361.02 33.78 1361.41 33.78C1362.01 33.78 1362.55 33.7067 1363.03 33.56C1363.51 33.4133 1363.92 33.22 1364.25 32.98C1364.6 32.74 1364.86 32.4667 1365.05 32.16C1365.24 31.8533 1365.33 31.54 1365.33 31.22V30.88ZM1365.45 34.52C1365.33 34.6667 1365.15 34.8333 1364.91 35.02C1364.67 35.2067 1364.35 35.3933 1363.95 35.58C1363.56 35.7533 1363.08 35.9 1362.51 36.02C1361.95 36.14 1361.27 36.2 1360.47 36.2H1360.21C1359.3 36.2 1358.53 36.1067 1357.89 35.92C1357.26 35.72 1356.75 35.46 1356.35 35.14C1355.95 34.8067 1355.66 34.4333 1355.47 34.02C1355.3 33.5933 1355.21 33.1467 1355.21 32.68V32.54C1355.21 31.5533 1355.56 30.8067 1356.25 30.3C1356.96 29.7933 1358.12 29.4667 1359.73 29.32L1364.65 28.86C1364.9 28.8333 1365.08 28.78 1365.17 28.7C1365.28 28.6067 1365.33 28.4733 1365.33 28.3C1365.33 28.2067 1365.3 28.1067 1365.25 28C1365.21 27.8933 1365.1 27.8 1364.91 27.72C1364.72 27.6267 1364.44 27.5533 1364.07 27.5C1363.7 27.4467 1363.18 27.42 1362.53 27.42H1362.43C1361.76 27.42 1361.24 27.4667 1360.87 27.56C1360.5 27.6533 1360.22 27.7667 1360.03 27.9C1359.86 28.02 1359.74 28.1467 1359.69 28.28C1359.65 28.4133 1359.62 28.5267 1359.61 28.62H1355.47V28.58C1355.47 28.34 1355.49 28.0867 1355.53 27.82C1355.57 27.54 1355.66 27.2667 1355.79 27C1355.94 26.7333 1356.15 26.48 1356.43 26.24C1356.71 25.9867 1357.08 25.7667 1357.55 25.58C1358.03 25.38 1358.62 25.2267 1359.33 25.12C1360.04 25 1360.89 24.94 1361.89 24.94H1362.99C1364.55 24.94 1365.77 25.0467 1366.65 25.26C1367.54 25.4733 1368.21 25.7533 1368.65 26.1C1369.09 26.4333 1369.36 26.8067 1369.47 27.22C1369.58 27.6333 1369.63 28.0333 1369.63 28.42V32.54C1369.63 32.7 1369.66 32.8333 1369.73 32.94C1369.81 33.0333 1369.96 33.08 1370.19 33.08H1370.77V36H1367.15C1366.72 36 1366.35 35.88 1366.03 35.64C1365.72 35.4 1365.53 35.0267 1365.45 34.52ZM1371.65 36V25.24H1376.11V29.16H1382.15V25.24H1386.61V36H1382.15V32.12H1376.11V36H1371.65ZM1388.37 25.24H1392.83V32.02L1399.59 25.24H1404.15V36H1399.69V29.22L1392.93 36H1388.37V25.24ZM1422.07 38.4H1417.81V36H1405.91V25.24H1410.37V33.04H1415.41V25.24H1419.87V33.04H1422.07V38.4ZM1423.06 25.24H1427.52V28.04H1432.34C1433.14 28.04 1433.84 28.14 1434.44 28.34C1435.05 28.5267 1435.56 28.7867 1435.96 29.12C1436.36 29.4533 1436.66 29.8533 1436.86 30.32C1437.07 30.7733 1437.18 31.26 1437.18 31.78V31.98C1437.18 32.5 1437.08 33.0067 1436.88 33.5C1436.68 33.98 1436.37 34.4067 1435.96 34.78C1435.56 35.14 1435.05 35.4333 1434.44 35.66C1433.84 35.8867 1433.14 36 1432.34 36H1423.06V25.24ZM1431.22 33.26C1431.7 33.26 1432.05 33.14 1432.28 32.9C1432.52 32.6467 1432.64 32.3667 1432.64 32.06V31.96C1432.64 31.64 1432.52 31.3667 1432.28 31.14C1432.05 30.9 1431.7 30.78 1431.22 30.78H1427.52V33.26H1431.22ZM1442.7 36H1438.24V25.24H1442.7V36ZM1450.56 36V25.24H1455.02V29.16H1461.06V25.24H1465.52V36H1461.06V32.12H1455.02V36H1450.56ZM1474.87 27.44C1473.75 27.44 1472.92 27.6 1472.37 27.92C1471.83 28.24 1471.47 28.6867 1471.29 29.26H1478.49C1478.35 28.6867 1477.99 28.24 1477.43 27.92C1476.87 27.6 1476.03 27.44 1474.89 27.44H1474.87ZM1482.93 32.22C1482.93 32.58 1482.85 33 1482.67 33.48C1482.51 33.9467 1482.17 34.3933 1481.65 34.82C1481.13 35.2333 1480.39 35.5867 1479.41 35.88C1478.44 36.16 1477.15 36.3 1475.55 36.3H1474.41C1472.97 36.3 1471.77 36.1467 1470.79 35.84C1469.83 35.5333 1469.06 35.1267 1468.47 34.62C1467.89 34.1 1467.47 33.5133 1467.21 32.86C1466.96 32.1933 1466.83 31.5067 1466.83 30.8V30.36C1466.83 29.6667 1466.95 29 1467.17 28.36C1467.41 27.7067 1467.81 27.1267 1468.37 26.62C1468.95 26.1133 1469.71 25.7067 1470.67 25.4C1471.63 25.0933 1472.84 24.94 1474.29 24.94H1475.51C1477.09 24.94 1478.36 25.12 1479.33 25.48C1480.32 25.84 1481.08 26.3 1481.61 26.86C1482.16 27.42 1482.53 28.0467 1482.71 28.74C1482.9 29.42 1482.99 30.0867 1482.99 30.74V31.48H1471.21C1471.35 32.1067 1471.71 32.6133 1472.29 33C1472.88 33.3867 1473.79 33.58 1475.01 33.58H1475.03C1475.77 33.58 1476.36 33.52 1476.81 33.4C1477.27 33.28 1477.62 33.1467 1477.87 33C1478.13 32.84 1478.29 32.6867 1478.37 32.54C1478.47 32.38 1478.52 32.2667 1478.53 32.2H1482.93V32.22Z" fill="white"/>
</g>
</svg>
