<svg width="248" height="248" viewBox="0 0 248 248" fill="none" xmlns="http://www.w3.org/2000/svg">
<g clip-path="url(#clip0)">
<path d="M106.159 24.5725C106.525 24.4819 106.906 24.4667 107.278 24.5278C107.65 24.5889 108.006 24.7251 108.324 24.9279C108.62 25.1382 108.867 25.4091 109.05 25.7225C109.233 26.0359 109.347 26.3846 109.384 26.7455C109.474 27.0985 109.49 27.4662 109.433 27.8259C109.375 28.1856 109.244 28.5296 109.048 28.8369C108.818 29.136 108.528 29.3843 108.197 29.5664C107.866 29.7484 107.502 29.8602 107.126 29.8949L104.348 30.3933L105.033 34.0538L103.837 34.2753L102.225 25.29L106.159 24.5725ZM106.55 28.9342C107.089 28.8926 107.593 28.6501 107.962 28.2548C108.095 28.0651 108.186 27.849 108.229 27.621C108.272 27.393 108.266 27.1585 108.21 26.9332C108.179 26.7052 108.1 26.4862 107.98 26.2901C107.86 26.094 107.7 25.925 107.511 25.794C107.026 25.5523 106.473 25.4882 105.946 25.6128L103.61 26.0443L104.223 29.3288L106.55 28.9342Z" fill="#FF570F"/>
<path d="M115.292 23.3972C116.019 23.291 116.76 23.4521 117.378 23.8505C117.639 24.0471 117.853 24.2996 118.004 24.5893C118.155 24.8791 118.239 25.1989 118.251 25.5255C118.304 26.0323 118.218 26.5441 118 27.005C117.886 27.2417 117.726 27.4534 117.53 27.6277C117.333 27.8021 117.104 27.9355 116.856 28.0203C117.087 28.0344 117.314 28.0951 117.522 28.1988C117.694 28.2971 117.843 28.4317 117.958 28.5934C118.071 28.7543 118.162 28.9298 118.228 29.1152C118.293 29.3176 118.342 29.5291 118.391 29.7406L118.488 30.4144C118.518 30.6472 118.564 30.871 118.613 31.0824C118.66 31.2962 118.729 31.5048 118.816 31.7054C118.895 31.8902 119.006 32.059 119.146 32.2034L117.793 32.317C117.686 32.223 117.614 32.0966 117.585 31.9573C117.535 31.7832 117.499 31.6055 117.477 31.4257C117.452 31.2209 117.415 31.0127 117.398 30.7832C117.369 30.5563 117.323 30.3319 117.26 30.1118L117.069 29.4922C117.005 29.3088 116.907 29.1391 116.78 28.9917C116.652 28.8566 116.495 28.7514 116.321 28.6835C116.086 28.6009 115.835 28.5744 115.588 28.6061L112.647 28.8757L113.036 32.8007L111.833 32.9013L111.001 23.8207L115.292 23.3972ZM115.904 27.5273C116.174 27.4622 116.425 27.3349 116.638 27.1556C116.817 27.0136 116.958 26.8284 117.046 26.6173C117.15 26.3574 117.185 26.0752 117.147 25.7981C117.132 25.3868 116.956 24.9979 116.657 24.715C116.487 24.5744 116.289 24.4722 116.076 24.4151C115.864 24.3581 115.641 24.3476 115.424 24.3845L112.318 24.6761L112.609 27.8343L115.183 27.6515C115.431 27.6217 115.676 27.5677 115.914 27.4903L115.904 27.5273Z" fill="#FF570F"/>
<path d="M121.426 23.1503L121.629 32.2606L120.405 32.2895L120.202 23.1792L121.426 23.1503Z" fill="#FF570F"/>
<path d="M127.06 23.14C128.242 23.1015 129.391 23.533 130.256 24.3398C130.645 24.7908 130.935 25.3183 131.108 25.8883C131.281 26.4584 131.332 27.0583 131.259 27.6494C131.244 28.3327 131.133 29.0106 130.931 29.6635C130.771 30.2092 130.492 30.7124 130.113 31.1366C129.729 31.5658 129.242 31.8902 128.697 32.0792C128.057 32.279 127.386 32.3591 126.717 32.3154L123.591 32.1916L123.968 23.0384L127.06 23.14ZM126.841 31.2117C127.014 31.2193 127.186 31.217 127.358 31.2049C127.581 31.1876 127.801 31.1446 128.014 31.0765C128.26 30.9975 128.494 30.8869 128.711 30.7475C128.954 30.5881 129.165 30.3847 129.334 30.1478C129.549 29.8553 129.713 29.528 129.818 29.1802C129.961 28.7155 130.037 28.2328 130.043 27.7467C130.068 27.2557 130.036 26.7635 129.947 26.2799C129.873 25.8787 129.707 25.4998 129.464 25.1721C129.229 24.8518 128.914 24.5987 128.55 24.4381C128.105 24.2561 127.63 24.1558 127.149 24.142L125.089 24.1321L124.823 31.1467L126.841 31.2117Z" fill="#FF570F"/>
<path d="M139.747 24.3445L139.59 25.3733L134.555 24.7249L134.181 27.5993L138.87 28.2079L138.745 29.2187L134.044 28.6068L133.672 31.7198L138.781 32.3881L138.656 33.3989L132.369 32.5869L133.476 23.5234L139.747 24.3445Z" fill="#FF570F"/>
<path d="M160.253 30.0111C160.614 30.1123 160.952 30.2845 161.246 30.5176C161.539 30.7507 161.784 31.0401 161.965 31.3688C162.099 31.7068 162.165 32.0681 162.158 32.4317C162.151 32.7953 162.072 33.154 161.926 33.4869C161.815 33.8314 161.638 34.1505 161.403 34.4257C161.168 34.7009 160.881 34.9267 160.558 35.0901C160.205 35.228 159.828 35.2914 159.45 35.2765C159.072 35.2616 158.701 35.1687 158.36 35.0036L155.771 34.0586L154.439 37.5489L153.313 37.1148L156.523 28.5885L160.253 30.0111ZM158.325 33.9498C158.81 34.1897 159.367 34.24 159.887 34.0907C160.099 33.9973 160.288 33.8592 160.442 33.6859C160.596 33.5126 160.71 33.3081 160.777 33.0866C160.869 32.8781 160.916 32.6527 160.916 32.4249C160.915 32.1971 160.867 31.972 160.775 31.7638C160.477 31.3106 160.026 30.9789 159.505 30.8287L157.289 29.9706L156.106 33.104L158.325 33.9498Z" fill="#FF570F"/>
<path d="M168.644 33.7269C169.323 34.0064 169.876 34.5262 170.196 35.1872C170.319 35.4903 170.373 35.8169 170.354 36.1433C170.335 36.4698 170.244 36.788 170.087 37.0749C169.874 37.5403 169.538 37.9393 169.117 38.2295C168.677 38.4949 168.152 38.5814 167.65 38.4712C167.845 38.6017 168.007 38.7764 168.122 38.9809C168.216 39.1541 168.273 39.3449 168.289 39.5413C168.3 39.7408 168.282 39.9408 168.236 40.1352C168.193 40.3438 168.138 40.5498 168.07 40.7519C168.014 40.9616 167.893 41.1671 167.809 41.3825C167.714 41.589 167.631 41.8006 167.56 42.0164C167.491 42.2226 167.435 42.4327 167.391 42.6455C167.363 42.8474 167.375 43.053 167.428 43.2501L166.263 42.6606C166.232 42.5221 166.238 42.3776 166.283 42.2427C166.312 42.066 166.359 41.8925 166.422 41.7247C166.475 41.5273 166.527 41.33 166.673 41.1311C166.749 40.9183 166.808 40.6997 166.848 40.4773C166.917 40.2711 166.973 40.0611 167.017 39.8483C167.058 39.6836 167.072 39.5133 167.06 39.3441C167.025 39.1568 166.945 38.9809 166.827 38.8322C166.664 38.6486 166.465 38.5008 166.242 38.398L163.579 37.0893L161.872 40.5981L160.782 40.0284L164.773 31.8435L168.644 33.7269ZM167.065 37.5476C167.293 37.625 167.535 37.6492 167.773 37.6183C168.002 37.5966 168.221 37.5136 168.406 37.3781C168.629 37.2062 168.803 36.9797 168.913 36.7206C169.109 36.362 169.164 35.9435 169.069 35.5462C168.988 35.3342 168.864 35.1414 168.705 34.9802C168.545 34.8191 168.354 34.6932 168.143 34.6106L165.43 33.2888L164.04 36.1554L166.311 37.253C166.551 37.3791 166.803 37.4779 167.065 37.5476Z" fill="#FF570F"/>
<path d="M174.065 36.6337L169.561 44.5621L168.506 43.962L173.022 36.0369L174.065 36.6337Z" fill="#FF570F"/>
<path d="M178.864 39.5985C179.893 40.1789 180.652 41.1424 180.974 42.2794C181.066 42.8682 181.034 43.4697 180.88 44.0453C180.725 44.621 180.453 45.158 180.079 45.6221C179.704 46.1998 179.252 46.7237 178.736 47.1793C178.292 47.5566 177.767 47.8274 177.202 47.9712C176.663 48.1127 176.099 48.1202 175.557 47.9931C174.906 47.8357 174.289 47.5585 173.74 47.1758L171.222 45.47L176.254 37.8417L178.864 39.5985ZM174.5 46.3615L174.936 46.6104C175.14 46.7088 175.354 46.7881 175.573 46.8473C175.823 46.9014 176.078 46.9255 176.334 46.9189C176.628 46.918 176.919 46.8564 177.188 46.7382C177.521 46.5905 177.828 46.3919 178.1 46.1495C178.455 45.8352 178.766 45.4735 179.022 45.0746C179.304 44.6678 179.533 44.2273 179.704 43.7634C179.844 43.3801 179.9 42.9711 179.867 42.5643C179.831 42.1681 179.691 41.7884 179.461 41.464C179.175 41.0731 178.814 40.7427 178.399 40.4921L176.693 39.3607L172.796 45.2704L174.5 46.3615Z" fill="#FF570F"/>
<path d="M189.115 47.2236L188.479 48.0183L184.506 44.8384L182.68 47.1123L186.385 50.0615L185.749 50.8562L182.044 47.9069L180.064 50.3641L184.071 53.5662L183.435 54.3609L178.483 50.3902L184.173 43.2685L189.115 47.2236Z" fill="#FF570F"/>
<path d="M203.698 62.712C203.958 62.9925 204.16 63.3223 204.291 63.6821C204.421 64.0419 204.478 64.4242 204.459 64.8064C204.398 65.1647 204.265 65.5072 204.07 65.8135C203.874 66.1199 203.619 66.3839 203.32 66.5901C203.047 66.8284 202.729 67.01 202.385 67.1244C202.041 67.2388 201.678 67.2837 201.317 67.2564C200.943 67.1879 200.588 67.0445 200.271 66.8347C199.955 66.625 199.684 66.3532 199.476 66.036L197.766 63.8327L194.775 66.1118L194.03 65.1452L201.239 59.5545L203.698 62.712ZM199.997 65.0783C200.286 65.5336 200.734 65.8655 201.254 66.0101C201.484 66.0421 201.718 66.0231 201.94 65.9545C202.161 65.886 202.365 65.7696 202.537 65.6135C202.73 65.4878 202.892 65.3202 203.011 65.1233C203.13 64.9263 203.203 64.705 203.225 64.4759C203.225 63.9274 203.017 63.3993 202.643 62.9979L201.191 61.1149L198.551 63.1706L199.997 65.0783Z" fill="#FF570F"/>
<path d="M208.936 70.2501C209.367 70.8481 209.565 71.5827 209.493 72.3163C209.44 72.6405 209.316 72.9488 209.13 73.219C208.943 73.4891 208.698 73.7142 208.414 73.8779C207.984 74.1622 207.484 74.3211 206.969 74.3368C206.456 74.3395 205.964 74.141 205.596 73.784C205.688 73.9784 205.735 74.1906 205.734 74.4054C205.734 74.6201 205.686 74.8321 205.594 75.0261C205.495 75.2018 205.376 75.3651 205.239 75.5127C205.088 75.6663 204.926 75.8085 204.755 75.9382C204.585 76.0778 204.403 76.2142 204.209 76.3472C204.023 76.4734 203.844 76.6111 203.675 76.7595C203.511 76.9051 203.358 77.063 203.218 77.2319C203.09 77.3845 202.994 77.5608 202.934 77.7506L202.206 76.6171C202.246 76.4811 202.325 76.3597 202.432 76.2677C202.566 76.1423 202.707 76.0257 202.856 75.9186L203.389 75.559C203.574 75.4232 203.75 75.2762 203.917 75.1187L204.379 74.6743C204.511 74.5327 204.613 74.3672 204.682 74.1868C204.756 74.0091 204.78 73.8148 204.753 73.6243C204.709 73.3857 204.617 73.1587 204.483 72.9568L202.858 70.4855L199.647 72.5998L198.983 71.5757L206.661 66.6527L208.936 70.2501ZM205.633 72.7098C205.789 72.8943 205.985 73.0415 206.205 73.1407C206.405 73.253 206.63 73.3132 206.859 73.3159C207.139 73.2832 207.406 73.1824 207.638 73.0223C207.988 72.8129 208.25 72.4839 208.375 72.0962C208.419 71.8728 208.415 71.6426 208.363 71.4211C208.31 71.1996 208.211 70.9918 208.072 70.8117L206.439 68.2721L203.767 70.0021L205.093 72.01C205.238 72.2516 205.402 72.4812 205.584 72.6966L205.633 72.7098Z" fill="#FF570F"/>
<path d="M212.071 75.5717L204.091 80.0436L203.502 78.9867L211.482 74.5148L212.071 75.5717Z" fill="#FF570F"/>
<path d="M214.596 80.5578C215.174 81.5892 215.323 82.807 215.01 83.9473C214.784 84.4978 214.449 84.9964 214.024 85.4122C213.599 85.828 213.093 86.1524 212.537 86.3652C211.921 86.6654 211.267 86.8815 210.594 87.0078C210.029 87.1069 209.449 87.0781 208.898 86.9235C208.363 86.7716 207.875 86.4863 207.48 86.0943C207.003 85.6277 206.617 85.076 206.343 84.4675L205 81.6354L213.249 77.738L214.596 80.5578ZM207.325 84.1092C207.399 84.2639 207.483 84.4142 207.574 84.5595C207.697 84.7455 207.836 84.92 207.99 85.0807C208.174 85.2628 208.38 85.4203 208.605 85.5494C208.866 85.6807 209.151 85.7572 209.443 85.7742C209.8 85.8297 210.164 85.8243 210.519 85.7582C211.018 85.678 211.503 85.5277 211.96 85.3116C212.408 85.1055 212.828 84.8452 213.212 84.5366C213.493 84.2775 213.721 83.9655 213.881 83.6186C214.055 83.2642 214.134 82.8703 214.108 82.4763C214.073 81.9808 213.943 81.4967 213.723 81.0511L212.893 79.2158L206.504 82.2369L207.325 84.1092Z" fill="#FF570F"/>
<path d="M219.464 92.3857L218.507 92.7506L216.686 87.9528L213.99 88.9359L215.638 93.3436L214.681 93.7085L213.033 89.3008L210.097 90.3913L211.862 95.2005L210.908 95.5531L208.702 89.674L217.255 86.5189L219.464 92.3857Z" fill="#FF570F"/>
<path d="M223.881 113.201C223.955 113.572 223.953 113.954 223.874 114.324C223.795 114.694 223.642 115.044 223.424 115.353C222.918 115.873 222.248 116.203 221.527 116.287C220.806 116.37 220.079 116.203 219.467 115.813C219.184 115.561 218.955 115.254 218.795 114.911C218.634 114.568 218.546 114.196 218.534 113.818L218.196 111.083L214.49 111.544L214.352 110.331L223.411 109.281L223.881 113.201ZM219.48 113.344C219.487 113.895 219.699 114.423 220.075 114.826C220.252 114.975 220.46 115.083 220.684 115.143C220.908 115.203 221.142 115.213 221.37 115.173C221.6 115.157 221.824 115.093 222.028 114.987C222.232 114.88 222.411 114.731 222.555 114.551C222.819 114.077 222.907 113.524 222.801 112.991L222.529 110.552L219.201 110.982L219.48 113.344Z" fill="#FF570F"/>
<path d="M224.452 122.371C224.524 123.102 224.328 123.834 223.9 124.431C223.687 124.679 223.421 124.878 223.122 125.013C222.823 125.148 222.499 125.215 222.171 125.21C221.66 125.211 221.158 125.076 220.715 124.82C220.278 124.553 219.961 124.127 219.831 123.631C219.801 123.868 219.718 124.094 219.587 124.293C219.48 124.455 219.339 124.593 219.175 124.698C219.004 124.801 218.819 124.876 218.626 124.921C218.418 124.977 218.207 125.022 217.995 125.056L217.318 125.113C217.091 125.12 216.863 125.143 216.639 125.182C216.427 125.222 216.218 125.276 216.014 125.345C215.82 125.415 215.64 125.519 215.482 125.652L215.442 124.319C215.549 124.226 215.68 124.164 215.82 124.143C216.001 124.104 216.185 124.078 216.37 124.065L217.015 124.027C217.241 124.009 217.466 123.976 217.688 123.93C217.901 123.896 218.112 123.851 218.319 123.795C218.501 123.736 218.672 123.648 218.826 123.534C218.977 123.414 219.099 123.261 219.183 123.088C219.266 122.86 219.304 122.619 219.294 122.377L219.152 119.404L215.266 119.5L215.234 118.288L224.344 118.085L224.452 122.371ZM220.388 122.736C220.421 122.975 220.509 123.202 220.646 123.4C220.777 123.592 220.953 123.748 221.159 123.855C221.411 123.97 221.688 124.022 221.965 124.005C222.376 124.016 222.776 123.867 223.081 123.59C223.227 123.426 223.338 123.233 223.408 123.025C223.477 122.816 223.504 122.595 223.485 122.376L223.406 119.367L220.227 119.441L220.289 121.969C220.28 122.22 220.293 122.471 220.326 122.72L220.388 122.736Z" fill="#FF570F"/>
<path d="M224.333 128.486L215.177 128.122L215.225 126.905L224.378 127.282L224.333 128.486Z" fill="#FF570F"/>
<path d="M223.947 134.121C223.898 135.302 223.39 136.418 222.532 137.232C222.052 137.592 221.502 137.848 220.917 137.983C220.332 138.118 219.726 138.128 219.136 138.014C218.457 137.929 217.793 137.751 217.163 137.485C216.63 137.283 216.151 136.96 215.763 136.542C215.386 136.129 215.116 135.63 214.976 135.088C214.824 134.433 214.786 133.756 214.864 133.088L215.195 129.978L224.258 130.938L223.947 134.121ZM215.885 133.375C215.863 133.543 215.853 133.713 215.854 133.882C215.861 134.108 215.89 134.332 215.939 134.553C216.002 134.802 216.098 135.041 216.224 135.264C216.36 135.525 216.552 135.752 216.786 135.93C217.066 136.163 217.383 136.346 217.725 136.472C218.17 136.662 218.639 136.788 219.119 136.846C219.607 136.899 220.099 136.897 220.587 136.843C220.992 136.789 221.381 136.65 221.728 136.434C222.061 136.222 222.332 135.925 222.513 135.574C222.73 135.139 222.857 134.665 222.887 134.18L223.101 132.149L216.066 131.414L215.885 133.375Z" fill="#FF570F"/>
<path d="M221.915 146.69L220.928 146.426L221.917 141.403L219.08 140.841L218.165 145.487L217.158 145.297L218.073 140.651L214.982 140.047L213.993 145.07L213.007 144.806L214.24 138.526L223.193 140.291L221.915 146.69Z" fill="#FF570F"/>
<path d="M214.945 166.782C214.814 167.137 214.612 167.463 214.352 167.739C214.092 168.014 213.778 168.234 213.431 168.386C213.088 168.502 212.726 168.546 212.365 168.515C212.005 168.484 211.655 168.38 211.337 168.208C210.999 168.077 210.69 167.879 210.428 167.628C210.166 167.376 209.957 167.075 209.813 166.742C209.596 166.012 209.679 165.225 210.042 164.556L211.196 162.023L207.83 160.473L208.338 159.367L216.583 163.136L214.945 166.782ZM211.14 164.599C210.873 165.068 210.787 165.619 210.898 166.147C210.975 166.367 211.099 166.568 211.262 166.735C211.425 166.902 211.623 167.031 211.842 167.114C212.041 167.218 212.26 167.279 212.485 167.291C212.71 167.304 212.935 167.267 213.144 167.185C213.621 166.921 213.985 166.492 214.168 165.979L215.143 163.821L212.121 162.469L211.14 164.599Z" fill="#FF570F"/>
<path d="M210.685 174.934C210.354 175.593 209.798 176.11 209.118 176.392C208.806 176.492 208.476 176.524 208.151 176.485C207.826 176.446 207.514 176.337 207.235 176.165C206.8 175.916 206.44 175.555 206.193 175.119C206.073 174.896 205.997 174.652 205.972 174.4C205.946 174.148 205.971 173.894 206.044 173.651C205.898 173.834 205.713 173.983 205.504 174.088C205.328 174.169 205.136 174.212 204.942 174.215C204.739 174.215 204.537 174.187 204.342 174.134C204.133 174.09 203.928 174.035 203.725 173.968L203.117 173.673C202.914 173.566 202.706 173.471 202.493 173.387C202.287 173.319 202.077 173.262 201.864 173.218C201.668 173.178 201.465 173.178 201.269 173.218L201.92 172.07C202.063 172.073 202.203 172.11 202.327 172.179L202.826 172.392L203.406 172.693C203.603 172.8 203.809 172.891 204.021 172.964L204.65 173.132C204.835 173.182 205.028 173.198 205.219 173.179C205.41 173.155 205.591 173.086 205.749 172.977C205.941 172.829 206.099 172.641 206.214 172.427L207.685 169.847L204.239 167.906L204.852 166.854L212.764 171.367L210.685 174.934ZM206.958 173.103C206.869 173.329 206.831 173.571 206.847 173.813C206.857 174.042 206.925 174.265 207.044 174.461C207.203 174.691 207.416 174.879 207.663 175.01C208.011 175.23 208.43 175.309 208.834 175.231C209.051 175.168 209.253 175.059 209.425 174.911C209.597 174.763 209.735 174.58 209.83 174.375L211.324 171.761L208.559 170.187L207.286 172.371C207.161 172.607 207.051 172.852 206.958 173.103Z" fill="#FF570F"/>
<path d="M207.425 180.142L199.806 175.126L200.473 174.115L208.092 179.131L207.425 180.142Z" fill="#FF570F"/>
<path d="M204.161 184.728C203.506 185.699 202.499 186.377 201.353 186.619C200.762 186.677 200.165 186.611 199.6 186.425C199.035 186.24 198.515 185.939 198.073 185.542C197.516 185.138 197.022 184.654 196.607 184.105C196.251 183.664 196.004 183.145 195.889 182.591C195.781 182.04 195.81 181.471 195.976 180.935C196.18 180.298 196.496 179.702 196.91 179.176L198.807 176.683L206.068 182.198L204.161 184.728ZM197.65 179.916C197.617 180.039 197.479 180.161 197.364 180.342C197.253 180.537 197.163 180.743 197.094 180.957C197.018 181.202 196.972 181.457 196.957 181.713C196.954 182.005 197.002 182.295 197.097 182.571C197.219 182.913 197.397 183.233 197.624 183.518C197.921 183.905 198.276 184.246 198.675 184.527C199.06 184.829 199.48 185.083 199.926 185.285C200.309 185.483 200.73 185.595 201.16 185.616C201.552 185.597 201.932 185.481 202.268 185.278C202.691 185.011 203.051 184.657 203.326 184.24L204.568 182.616L198.931 178.342L197.65 179.916Z" fill="#FF570F"/>
<path d="M195.897 194.451L195.144 193.76L198.555 190.007L196.419 188.113L193.222 191.606L192.469 190.915L195.665 187.422L193.328 185.288L189.879 189.084L189.125 188.393L193.395 183.707L200.131 189.848L195.897 194.451Z" fill="#FF570F"/>
<path d="M182.596 205.853C182.308 206.098 181.972 206.283 181.611 206.395C181.249 206.507 180.868 206.544 180.491 206.505C179.792 206.323 179.176 205.906 178.747 205.324C178.318 204.742 178.102 204.031 178.135 203.309C178.211 202.938 178.363 202.586 178.58 202.276C178.797 201.966 179.076 201.704 179.398 201.505L181.65 199.861L179.442 196.851L180.415 196.133L185.811 203.475L182.596 205.853ZM180.339 202.088C179.87 202.359 179.524 202.802 179.374 203.323C179.334 203.551 179.346 203.784 179.407 204.006C179.469 204.228 179.579 204.434 179.73 204.609C179.851 204.807 180.015 204.975 180.21 205.101C180.406 205.227 180.627 205.306 180.858 205.334C181.398 205.342 181.922 205.148 182.326 204.789L184.252 203.374L182.323 200.703L180.339 202.088Z" fill="#FF570F"/>
<path d="M174.919 210.869C174.313 211.288 173.573 211.467 172.842 211.37C172.52 211.311 172.216 211.181 171.951 210.989C171.687 210.797 171.469 210.548 171.315 210.26C171.044 209.828 170.894 209.331 170.881 208.821C170.892 208.308 171.103 207.819 171.47 207.459C171.251 207.544 171.016 207.58 170.781 207.565C170.587 207.558 170.397 207.508 170.226 207.416C170.047 207.326 169.887 207.203 169.755 207.052C169.601 206.902 169.459 206.74 169.329 206.568L168.939 206.001C168.818 205.812 168.686 205.631 168.543 205.458C168.398 205.295 168.246 205.14 168.086 204.992C167.934 204.862 167.759 204.761 167.57 204.695L168.725 203.987C168.858 204.037 168.977 204.119 169.071 204.225C169.194 204.364 169.305 204.513 169.402 204.67L169.761 205.203C169.883 205.396 170.02 205.578 170.17 205.749L170.599 206.221C170.74 206.354 170.904 206.46 171.083 206.536C171.251 206.624 171.436 206.673 171.626 206.681C171.869 206.653 172.101 206.565 172.302 206.426L174.84 204.898L172.827 201.556L173.866 200.936L178.582 208.743L174.919 210.869ZM172.567 207.462C172.381 207.615 172.228 207.803 172.115 208.015C172.008 208.217 171.948 208.44 171.939 208.669C171.965 208.95 172.061 209.221 172.217 209.457C172.412 209.816 172.737 210.087 173.124 210.216C173.345 210.268 173.575 210.272 173.797 210.226C174.019 210.181 174.229 210.087 174.411 209.952L176.984 208.394L175.348 205.669L173.185 206.98C172.963 207.119 172.756 207.281 172.567 207.462Z" fill="#FF570F"/>
<path d="M169.523 213.838L165.292 205.75L166.37 205.18L170.573 213.274L169.523 213.838Z" fill="#FF570F"/>
<path d="M164.47 216.265C163.421 216.812 162.199 216.926 161.067 216.583C160.518 216.349 160.024 216.002 159.617 215.565C159.211 215.128 158.9 214.611 158.706 214.046C158.421 213.421 158.225 212.758 158.123 212.079C158.033 211.515 158.074 210.938 158.244 210.393C158.42 209.865 158.72 209.388 159.119 209.001C159.608 208.54 160.177 208.173 160.798 207.917L163.659 206.661L167.335 214.997L164.47 216.265ZM161.156 208.899L160.709 209.136C160.514 209.249 160.334 209.388 160.176 209.549C159.981 209.719 159.815 209.92 159.685 210.144C159.538 210.393 159.438 210.666 159.39 210.951C159.331 211.313 159.325 211.681 159.375 212.044C159.454 212.536 159.591 213.017 159.784 213.476C159.98 213.928 160.23 214.354 160.528 214.746C160.771 215.074 161.081 215.346 161.438 215.545C161.786 215.737 162.175 215.841 162.572 215.849C163.061 215.817 163.54 215.699 163.988 215.501L165.848 214.678L163.008 208.205L161.156 208.899Z" fill="#FF570F"/>
<path d="M152.506 220.754L152.182 219.794L156.995 218.162L156.09 215.421L151.598 216.941L151.277 215.969L155.769 214.449L154.757 211.468L149.903 213.102L149.578 212.143L155.582 210.116L158.552 218.765L152.506 220.754Z" fill="#FF570F"/>
<path d="M135.398 224.261C135.028 224.335 134.646 224.335 134.276 224.261C133.905 224.187 133.553 224.039 133.24 223.828C132.963 223.595 132.735 223.309 132.572 222.985C132.408 222.662 132.312 222.309 132.29 221.947C132.203 221.582 132.2 221.203 132.282 220.837C132.365 220.471 132.53 220.129 132.765 219.837C133.001 219.545 133.3 219.311 133.64 219.153C133.979 218.995 134.351 218.917 134.726 218.925L137.467 218.562L137.003 214.868L138.207 214.715L139.356 223.748L135.398 224.261ZM135.252 219.872C134.699 219.884 134.17 220.1 133.767 220.479C133.622 220.658 133.516 220.866 133.456 221.09C133.396 221.313 133.384 221.546 133.42 221.774C133.434 222.003 133.497 222.226 133.605 222.428C133.713 222.63 133.863 222.807 134.045 222.946C134.522 223.206 135.076 223.289 135.608 223.18L137.961 222.885L137.531 219.557L135.252 219.872Z" fill="#FF570F"/>
<path d="M126.215 224.933C125.484 225.004 124.753 224.808 124.155 224.381C123.888 224.175 123.672 223.91 123.524 223.606C123.376 223.303 123.3 222.97 123.302 222.632C123.268 222.125 123.376 221.618 123.615 221.169C123.876 220.727 124.299 220.405 124.794 220.269C124.558 220.254 124.328 220.192 124.116 220.087C123.954 219.979 123.816 219.839 123.711 219.675C123.601 219.506 123.521 219.319 123.475 219.122C123.419 218.915 123.374 218.704 123.341 218.491L123.284 217.815C123.266 217.585 123.232 217.365 123.199 217.145C123.152 216.932 123.094 216.722 123.024 216.516C122.96 216.322 122.854 216.144 122.713 215.996L124.049 215.945C124.142 216.052 124.203 216.183 124.226 216.322C124.269 216.499 124.296 216.678 124.307 216.86L124.358 217.508C124.376 217.734 124.408 217.959 124.455 218.182L124.605 218.804C124.663 218.989 124.75 219.164 124.863 219.322C124.987 219.465 125.142 219.579 125.316 219.655C125.544 219.752 125.792 219.791 126.039 219.769L129.002 219.664L128.857 215.765L130.068 215.733L130.392 224.836L126.215 224.933ZM125.8 220.856C125.562 220.9 125.335 220.992 125.133 221.126C124.945 221.259 124.793 221.436 124.691 221.643C124.58 221.897 124.533 222.175 124.553 222.452C124.551 222.865 124.704 223.264 124.98 223.571C125.152 223.708 125.35 223.808 125.563 223.865C125.775 223.922 125.997 223.934 126.214 223.902L129.23 223.797L129.116 220.62L126.593 220.711C126.331 220.72 126.07 220.752 125.814 220.806L125.8 220.856Z" fill="#FF570F"/>
<path d="M120.052 224.895L120.298 215.786L121.518 215.822L121.244 224.936L120.052 224.895Z" fill="#FF570F"/>
<path d="M114.472 224.55C113.288 224.517 112.163 224.021 111.339 223.168C110.978 222.696 110.719 222.155 110.578 221.577C110.437 221 110.417 220.4 110.519 219.815C110.577 219.128 110.726 218.453 110.965 217.806C111.167 217.27 111.486 216.787 111.899 216.391C112.31 216.017 112.804 215.746 113.341 215.6C113.99 215.434 114.666 215.391 115.331 215.473L118.452 215.767L117.594 224.791L114.472 224.55ZM115.129 216.476L114.618 216.458C114.396 216.463 114.175 216.493 113.96 216.546C113.71 216.614 113.47 216.715 113.245 216.844C112.987 216.984 112.761 217.175 112.579 217.406C112.357 217.692 112.178 218.009 112.049 218.348C111.878 218.801 111.777 219.278 111.75 219.761C111.694 220.251 111.7 220.745 111.765 221.233C111.818 221.641 111.962 222.032 112.186 222.377C112.394 222.711 112.685 222.984 113.03 223.172C113.467 223.383 113.94 223.51 114.424 223.545L116.45 223.731L117.12 216.692L115.129 216.476Z" fill="#FF570F"/>
<path d="M101.829 222.643L102.007 221.633L107.044 222.572L107.581 219.729L102.921 218.863L103.099 217.854L107.759 218.719L108.338 215.622L103.301 214.682L103.492 213.675L109.711 214.839L108.051 223.794L101.829 222.643Z" fill="#FF570F"/>
<path d="M85.1785 217.388C84.8176 217.273 84.4832 217.088 84.1948 216.843C83.9064 216.598 83.6698 216.297 83.4988 215.96C83.2451 215.274 83.2724 214.517 83.5746 213.851C83.6906 213.505 83.8747 213.186 84.116 212.913C84.3573 212.639 84.651 212.416 84.9798 212.258C85.3363 212.13 85.7148 212.076 86.0928 212.098C86.4708 212.12 86.8405 212.217 87.18 212.385L89.7584 213.419L91.1486 209.958L92.2717 210.404L88.8923 218.872L85.1785 217.388ZM87.1771 213.481C86.6987 213.23 86.1423 213.171 85.6218 213.316C85.2144 213.51 84.8919 213.846 84.715 214.261C84.538 214.676 84.5187 215.142 84.6608 215.57C84.9428 216.029 85.3835 216.368 85.8992 216.523L88.1085 217.406L89.3502 214.302L87.1771 213.481Z" fill="#FF570F"/>
<path d="M76.8527 213.478C76.1806 213.179 75.6378 212.649 75.3229 211.984C75.2068 211.678 75.16 211.349 75.1859 211.022C75.2117 210.696 75.3096 210.379 75.4724 210.094C75.6911 209.631 76.0345 209.238 76.4641 208.958C76.9035 208.698 77.4274 208.62 77.9236 208.741C77.7312 208.609 77.5746 208.431 77.4677 208.223C77.3694 208.051 77.3122 207.859 77.3006 207.662C77.2881 207.463 77.3104 207.263 77.3663 207.072C77.4045 206.858 77.4609 206.647 77.5348 206.443C77.591 206.233 77.7089 206.04 77.8054 205.828C77.9002 205.621 77.9833 205.41 78.0545 205.194C78.123 204.988 78.1793 204.778 78.2231 204.565C78.2556 204.365 78.2475 204.16 78.1991 203.963L79.3599 204.565C79.3904 204.704 79.3837 204.848 79.3405 204.983C79.3037 205.163 79.2562 205.34 79.1984 205.513C79.1488 205.699 79.0186 205.888 78.9254 206.088C78.8478 206.305 78.7881 206.528 78.7469 206.754C78.6796 206.956 78.6244 207.162 78.5817 207.371C78.5327 207.559 78.5251 207.755 78.5596 207.947C78.5923 208.134 78.6666 208.312 78.777 208.468C78.9357 208.656 79.1357 208.804 79.3613 208.902L81.9993 210.257L83.7679 206.764L84.849 207.318L80.7099 215.464L76.8527 213.478ZM78.5057 209.677C78.2762 209.595 78.031 209.565 77.7885 209.591C77.5628 209.612 77.3462 209.691 77.159 209.819C76.9342 209.99 76.7558 210.215 76.64 210.473C76.5218 210.656 76.4472 210.863 76.422 211.079C76.3968 211.295 76.4216 211.514 76.4945 211.719C76.5674 211.923 76.6865 212.109 76.8425 212.26C76.9985 212.412 77.1873 212.525 77.3942 212.592L80.0692 213.957L81.5138 211.131L79.2564 209.984C79.0127 209.869 78.7563 209.782 78.4925 209.727L78.5057 209.677Z" fill="#FF570F"/>
<path d="M71.4728 210.516L76.1174 202.705L77.1696 203.317L72.5151 211.166L71.4728 210.516Z" fill="#FF570F"/>
<path d="M66.7225 207.472C65.7022 206.87 64.9581 205.892 64.6496 204.748C64.5601 204.159 64.5936 203.558 64.7477 202.983C64.9019 202.408 65.1734 201.871 65.5452 201.406C65.9287 200.834 66.3875 200.316 66.9093 199.867C67.3527 199.497 67.8755 199.235 68.4369 199.1C68.979 198.964 69.5467 198.966 70.0878 199.106C70.7329 199.278 71.3411 199.566 71.8825 199.957L74.4641 201.72L69.3131 209.25L66.7225 207.472ZM71.1725 200.732L70.7401 200.471C70.5322 200.393 70.3174 200.336 70.0987 200.299C69.8479 200.236 69.5907 200.203 69.3322 200.199C69.0397 200.196 68.7497 200.253 68.4806 200.368C68.1453 200.509 67.8347 200.702 67.5603 200.941C67.1934 201.25 66.8706 201.609 66.6007 202.006C66.3171 202.412 66.084 202.851 65.9065 203.314C65.7592 203.693 65.6953 204.1 65.7192 204.506C65.7494 204.901 65.8795 205.281 66.0971 205.612C66.382 206.008 66.7401 206.347 67.1521 206.609L68.8395 207.761L72.8854 201.839L71.1725 200.732Z" fill="#FF570F"/>
<path d="M56.6066 199.685L57.2672 198.897L61.1871 202.128L63.0274 199.898L59.3762 196.897L60.0246 196.106L63.6724 199.119L65.6462 196.686L61.696 193.42L62.3566 192.632L67.2544 196.655L61.4057 203.681L56.6066 199.685Z" fill="#FF570F"/>
<path d="M44.6166 186.953C44.3577 186.679 44.1561 186.355 44.0238 186.002C43.8914 185.649 43.8309 185.273 43.8458 184.896C43.8971 184.535 44.0216 184.189 44.2117 183.879C44.4018 183.568 44.6534 183.3 44.9511 183.09C45.2184 182.845 45.532 182.656 45.8735 182.534C46.2149 182.412 46.5773 182.36 46.9393 182.38C47.3139 182.442 47.6722 182.578 47.9925 182.782C48.3128 182.986 48.5884 183.253 48.8026 183.567L50.5505 185.727L53.4454 183.409L54.2101 184.355L47.1225 190.084L44.6166 186.953ZM48.266 184.533C47.9692 184.075 47.508 183.748 46.9773 183.62C46.7477 183.592 46.515 183.615 46.295 183.686C46.0751 183.757 45.8732 183.875 45.7034 184.032C45.5162 184.162 45.3606 184.333 45.248 184.532C45.1353 184.73 45.0684 184.952 45.0522 185.179C45.0614 185.733 45.278 186.263 45.6591 186.664L47.1491 188.504L49.7526 186.386L48.266 184.533Z" fill="#FF570F"/>
<path d="M39.2112 179.595C38.7619 179.009 38.5439 178.278 38.5984 177.541C38.644 177.216 38.7616 176.905 38.9425 176.631C39.1234 176.357 39.3631 176.127 39.6441 175.957C40.0711 175.659 40.5753 175.491 41.0957 175.473C41.6106 175.457 42.1113 175.643 42.4902 175.992C42.3944 175.776 42.3446 175.542 42.3438 175.305C42.3505 175.111 42.4014 174.922 42.4925 174.75C42.5797 174.57 42.6954 174.404 42.8353 174.26C42.9756 174.098 43.1305 173.95 43.2981 173.816C43.4677 173.676 43.6497 173.54 43.844 173.407C44.0259 173.271 44.1988 173.119 44.3685 172.979C44.5248 172.828 44.6733 172.669 44.8132 172.503C44.9375 172.344 45.0309 172.163 45.0886 171.969L45.8473 173.084C45.8069 173.224 45.7274 173.35 45.6182 173.446C45.4927 173.577 45.3548 173.695 45.2065 173.798L44.6829 174.174C44.502 174.311 44.3299 174.459 44.1674 174.617C44.0046 174.759 43.8528 174.913 43.7136 175.077C43.5772 175.215 43.4737 175.382 43.4112 175.565C43.3492 175.747 43.329 175.94 43.3521 176.131C43.3991 176.368 43.4968 176.593 43.6384 176.789L45.2913 179.255L48.5184 177.079L49.186 178.091L41.6228 183.177L39.2112 179.595ZM42.5309 177.074C42.3632 176.899 42.1623 176.76 41.9399 176.665C41.745 176.552 41.5237 176.492 41.2985 176.493C41.0209 176.533 40.7569 176.639 40.5282 176.802C40.1757 177.013 39.9157 177.349 39.7999 177.744C39.7607 177.968 39.77 178.198 39.8272 178.419C39.8844 178.639 39.9882 178.845 40.1315 179.022L41.8148 181.523L44.4591 179.746L43.0385 177.646C42.8825 177.421 42.7101 177.206 42.5227 177.006L42.5309 177.074Z" fill="#FF570F"/>
<path d="M35.9952 174.278L43.8383 169.677L44.4556 170.728L36.6125 175.33L35.9952 174.278Z" fill="#FF570F"/>
<path d="M33.3368 169.349C32.7667 168.324 32.616 167.118 32.9164 165.984C33.1265 165.425 33.4505 164.916 33.8677 164.488C34.2849 164.06 34.7863 163.724 35.3402 163.5C35.9512 163.186 36.6037 162.96 37.2782 162.83C37.8343 162.714 38.4096 162.728 38.9595 162.871C39.4983 163.015 39.992 163.293 40.3956 163.678C40.887 164.141 41.2819 164.696 41.5576 165.312L42.9633 168.108L34.8009 172.174L33.3368 169.349ZM40.5421 165.648L40.2926 165.198C40.1685 165.011 40.0238 164.839 39.8613 164.685C39.6744 164.509 39.4669 164.356 39.2433 164.229C38.9794 164.104 38.6953 164.028 38.4045 164.004C38.0424 163.962 37.6758 163.98 37.3195 164.057C36.8408 164.146 36.3784 164.307 35.9485 164.536C35.5112 164.756 35.0986 165.022 34.7178 165.33C34.4 165.591 34.1447 165.92 33.9706 166.293C33.8044 166.652 33.7348 167.048 33.7685 167.442C33.8132 167.941 33.9522 168.427 34.1781 168.874L35.0889 170.704L41.4208 167.549L40.5421 165.648Z" fill="#FF570F"/>
<path d="M28.2808 157.629L29.2412 157.252L31.0912 161.992L33.7881 160.956L32.0536 156.525L33.0107 156.16L34.7328 160.588L37.6823 159.448L35.8142 154.677L36.7623 154.297L39.0666 160.202L30.5885 163.523L28.2808 157.629Z" fill="#FF570F"/>
<path d="M23.9469 140.696C23.7778 139.974 23.8961 139.214 24.2768 138.577C24.4941 138.288 24.7682 138.046 25.0823 137.866C25.3964 137.687 25.7439 137.573 26.1034 137.533C26.4569 137.448 26.8241 137.434 27.1828 137.494C27.5416 137.554 27.8846 137.685 28.1915 137.881C28.4892 138.115 28.7362 138.407 28.9175 138.74C29.0988 139.073 29.2106 139.439 29.2462 139.816L29.72 142.587L33.3952 141.946L33.6043 143.139L24.6322 144.701L23.9469 140.696ZM28.3267 140.336C28.2865 139.794 28.0454 139.286 27.6506 138.912C27.4609 138.779 27.2448 138.688 27.0168 138.645C26.7888 138.602 26.5543 138.609 26.329 138.664C26.1003 138.686 25.8794 138.759 25.6828 138.878C25.4861 138.997 25.3188 139.159 25.1931 139.351C24.9515 139.837 24.8916 140.393 25.0242 140.919L25.4434 143.252L28.7459 142.67L28.3267 140.336Z" fill="#FF570F"/>
<path d="M22.8458 131.583C22.7428 130.855 22.9083 130.115 23.3114 129.5C23.5096 129.238 23.7642 129.024 24.0562 128.874C24.3482 128.723 24.6703 128.64 24.9987 128.63C25.5056 128.576 26.0177 128.662 26.4782 128.881C26.717 128.992 26.9304 129.151 27.1051 129.348C27.2798 129.545 27.412 129.776 27.4936 130.026C27.5017 129.793 27.5627 129.565 27.672 129.36C27.7684 129.19 27.9022 129.045 28.0633 128.936C28.224 128.816 28.4049 128.726 28.5974 128.669C28.8018 128.6 29.0108 128.546 29.2228 128.506L29.8966 128.409C30.1213 128.379 30.3442 128.337 30.5647 128.284C30.7752 128.234 30.9822 128.17 31.1843 128.093C31.3691 128.015 31.538 127.903 31.6824 127.764L31.7959 129.116C31.694 129.219 31.5649 129.29 31.4239 129.321C31.2498 129.371 31.0721 129.407 30.8923 129.429L30.2498 129.508C30.0243 129.533 29.801 129.575 29.5817 129.634L28.9621 129.824C28.7803 129.884 28.6116 129.978 28.4649 130.101C28.3231 130.231 28.2124 130.391 28.1411 130.57C28.0606 130.801 28.0352 131.047 28.067 131.29L28.321 134.24L32.1915 133.955L32.2921 135.159L23.2033 135.923L22.8458 131.583ZM26.9692 130.996C26.9134 130.761 26.8107 130.54 26.6673 130.347C26.5303 130.16 26.3454 130.015 26.1323 129.926C25.8725 129.822 25.5903 129.787 25.3131 129.825C24.9033 129.844 24.5146 130.013 24.221 130.299C24.0853 130.472 23.9861 130.67 23.9292 130.882C23.8724 131.094 23.8592 131.315 23.8905 131.533L24.1436 134.535L27.3198 134.276L27.0991 131.745C27.0708 131.489 27.0191 131.236 26.9446 130.989L26.9692 130.996Z" fill="#FF570F"/>
<path d="M22.5777 125.43L31.7004 125.23L31.7203 126.439L22.5977 126.638L22.5777 125.43Z" fill="#FF570F"/>
<path d="M22.6566 119.806C22.6501 118.623 23.1023 117.484 23.9181 116.627C24.3731 116.243 24.9029 115.956 25.474 115.786C26.0452 115.616 26.6454 115.566 27.2368 115.639C27.9241 115.657 28.6049 115.777 29.2566 115.996C29.8008 116.17 30.3002 116.462 30.7198 116.85C31.1161 117.241 31.4092 117.724 31.5728 118.255C31.7725 118.895 31.8526 119.567 31.8089 120.236L31.6201 123.358L22.4834 122.919L22.6566 119.806ZM30.7554 120.072C30.7617 119.904 30.7583 119.735 30.7453 119.567C30.7281 119.345 30.685 119.124 30.617 118.912C30.5429 118.664 30.4376 118.427 30.3036 118.206C30.1411 117.96 29.9409 117.742 29.7104 117.558C29.4146 117.348 29.0883 117.185 28.7428 117.074C28.2688 116.956 27.7813 116.901 27.2928 116.91C26.8018 116.883 26.3093 116.916 25.8261 117.007C25.4244 117.08 25.0433 117.239 24.7093 117.474C24.3889 117.709 24.1358 118.024 23.9753 118.388C23.7825 118.829 23.6777 119.304 23.6668 119.786L23.5705 121.822L30.646 122.158L30.7554 120.072Z" fill="#FF570F"/>
<path d="M23.9573 107.106L24.9648 107.244L24.2595 112.343L27.1274 112.742L27.7762 108.05L28.7837 108.188L28.1472 112.883L31.2717 113.31L31.9646 108.207L32.9845 108.349L32.1231 114.622L23.096 113.38L23.9573 107.106Z" fill="#FF570F"/>
<path d="M29.7565 86.6485C29.8631 86.2751 30.0453 85.9275 30.2917 85.6274C30.5381 85.3273 30.8436 85.081 31.1891 84.9039C31.5233 84.7645 31.8832 84.6978 32.2451 84.7082C32.607 84.7185 32.9626 84.8057 33.2882 84.964C33.6342 85.0744 33.9543 85.2536 34.2292 85.4908C34.5041 85.7281 34.7283 86.0185 34.8882 86.3445C35.0252 86.6971 35.0871 87.0743 35.0701 87.4522C35.0531 87.8301 34.9575 88.2002 34.7893 88.539L33.7752 91.189L37.2498 92.5298L36.8125 93.6686L28.3093 90.3722L29.7565 86.6485ZM33.6763 88.5977C33.9244 88.1168 33.9792 87.5592 33.8295 87.0391C33.7374 86.828 33.6017 86.6388 33.4314 86.4838C33.261 86.3288 33.0598 86.2115 32.841 86.1397C32.6343 86.0413 32.4083 85.9905 32.1794 85.9909C31.9505 85.9913 31.7246 86.0431 31.5183 86.1422C31.0603 86.4251 30.7213 86.8655 30.5651 87.3807L29.7036 89.6089L32.8181 90.8136L33.6763 88.5977Z" fill="#FF570F"/>
<path d="M33.5405 78.2492C33.8202 77.5587 34.3478 76.9975 35.0198 76.6758C35.3252 76.5535 35.6539 76.5002 35.9823 76.5196C36.3108 76.5391 36.6309 76.6308 36.9198 76.7883C37.3831 77.007 37.7763 77.3504 38.0554 77.78C38.3221 78.2182 38.4046 78.7441 38.2848 79.2428C38.4201 79.0527 38.5977 78.8967 38.8036 78.7869C38.983 78.7016 39.18 78.6593 39.3787 78.6634C39.5782 78.6463 39.7792 78.6644 39.9725 78.7168C40.1812 78.7596 40.3871 78.8148 40.5893 78.882L41.2166 79.1559C41.4292 79.2324 41.6479 79.291 41.8703 79.331C42.0746 79.4056 42.2851 79.462 42.4994 79.4996C42.6984 79.5495 42.9047 79.5645 43.1089 79.5439L42.5193 80.708C42.3808 80.7385 42.2366 80.7318 42.1015 80.6886C41.9206 80.6579 41.743 80.6103 41.5711 80.5464L40.9808 80.2825C40.7682 80.2059 40.5495 80.1473 40.327 80.1073L39.7103 79.9421C39.5215 79.8981 39.3261 79.8906 39.1345 79.92C38.9446 79.9559 38.7654 80.0345 38.6103 80.1497C38.4267 80.3124 38.2789 80.5114 38.1761 80.734L36.81 83.3161L40.3088 85.0601L39.7794 86.1477L31.6111 82.0949L33.5405 78.2492ZM37.3636 79.8685C37.4299 79.6345 37.455 79.3907 37.4376 79.148C37.393 78.9418 37.3055 78.7472 37.1809 78.5769C37.007 78.3562 36.7811 78.1821 36.5234 78.0702C36.3481 77.9669 36.1538 77.8998 35.952 77.873C35.7503 77.8462 35.5452 77.8602 35.349 77.9141C35.1352 77.9888 34.9401 78.1088 34.7771 78.266C34.614 78.4231 34.4869 78.6136 34.4044 78.8244L33.0933 81.4477L35.941 82.8585L37.0633 80.5945C37.1795 80.3595 37.2799 80.117 37.3636 79.8685Z" fill="#FF570F"/>
<path d="M36.4934 72.8534L44.3773 77.4248L43.7805 78.468L35.881 73.9055L36.4934 72.8534Z" fill="#FF570F"/>
<path d="M39.4537 68.1207C40.0471 67.0976 41.0168 66.3469 42.1559 66.0289C42.7448 65.9347 43.3468 65.9658 43.9228 66.1201C44.4988 66.2744 45.0358 66.5485 45.4986 66.9245C46.0725 67.2981 46.5924 67.7487 47.0435 68.2639C47.4208 68.7084 47.6916 69.2331 47.8354 69.7981C47.9723 70.3365 47.9756 70.9001 47.845 71.44C47.6828 72.0906 47.4015 72.7055 47.0153 73.2536L45.2741 75.8542L37.696 70.783L39.4537 68.1207ZM46.1935 72.5707C46.2859 72.4262 46.3702 72.2767 46.4458 72.1227C46.5356 71.919 46.5936 71.7027 46.6177 71.4813C46.71 71.2328 46.7706 70.9736 46.7979 70.7099C46.7913 70.4162 46.73 70.1263 46.6171 69.8551C46.4712 69.5186 46.2737 69.207 46.0317 68.9314C45.7199 68.5714 45.3592 68.2567 44.9602 67.9965C44.5569 67.7177 44.1206 67.4898 43.6614 67.318C43.2581 67.1585 42.8241 67.0919 42.3915 67.1232C41.9992 67.1628 41.6226 67.2979 41.2946 67.5167C40.9023 67.8038 40.5683 68.163 40.3103 68.575L39.1665 70.278L45.054 74.2088L46.1935 72.5707Z" fill="#FF570F"/>
<path d="M47.1432 57.9257L47.9379 58.5616L44.7366 62.5161L46.9982 64.3383L49.9688 60.6526L50.7602 61.3009L47.7895 64.9866L50.2343 66.9637L53.4546 62.988L54.2492 63.6239L50.2851 68.5506L43.189 62.8153L47.1432 57.9257Z" fill="#FF570F"/>
<path d="M59.744 45.7814C60.018 45.5219 60.3412 45.3199 60.6946 45.1876C61.048 45.0552 61.4243 44.995 61.8014 45.0106C62.1615 45.0566 62.5083 45.1763 62.8201 45.3622C63.132 45.5481 63.4022 45.7962 63.6139 46.0912C63.8622 46.3549 64.0546 46.6663 64.1793 47.0065C64.304 47.3466 64.3585 47.7085 64.3395 48.0703C64.2831 48.4447 64.151 48.8036 63.9512 49.1251C63.7514 49.4466 63.4881 49.724 63.1774 49.9403L61.0349 51.7195L63.412 54.5906L62.4758 55.371L56.6653 48.3408L59.744 45.7814ZM62.2107 49.4037C62.6624 49.1011 62.9841 48.64 63.1122 48.1116C63.1307 47.6522 62.9789 47.2022 62.6858 46.8479C62.3928 46.4936 61.9791 46.2602 61.5244 46.1923C60.9687 46.2065 60.4381 46.4273 60.0364 46.8116L58.2019 48.3295L60.3392 50.9117L62.2107 49.4037Z" fill="#FF570F"/>
<path d="M67.1151 40.3267C67.6977 39.8751 68.4251 39.6516 69.1608 39.6983C69.4844 39.7419 69.7945 39.856 70.0693 40.0324C70.3441 40.2088 70.5769 40.4433 70.7513 40.7194C71.0512 41.1496 71.227 41.6541 71.2595 42.1776C71.2776 42.6884 71.0921 43.1856 70.7437 43.5597C70.9553 43.4572 71.1867 43.4019 71.4217 43.3977C71.6148 43.4102 71.8034 43.4607 71.9768 43.5464C72.1604 43.6363 72.3296 43.7529 72.479 43.8925C72.6388 44.0351 72.7873 44.1899 72.9234 44.3553L73.3357 44.8888C73.4721 45.0708 73.624 45.2437 73.776 45.4166C73.924 45.5732 74.0842 45.7178 74.2551 45.849C74.4138 45.9744 74.5952 46.0679 74.7894 46.1244L73.6739 46.8831C73.5352 46.8548 73.4106 46.7794 73.3213 46.6697C73.1866 46.5434 73.0645 46.4044 72.9565 46.2547L72.5993 45.7623C72.4623 45.5814 72.3142 45.4093 72.1557 45.2469C72.0061 45.0866 71.8484 44.934 71.6833 44.7898C71.5401 44.6622 71.3734 44.5637 71.1926 44.4996C71.0131 44.4406 70.8221 44.4257 70.6357 44.4562C70.3933 44.4976 70.1638 44.5944 69.965 44.7392L67.5174 46.4234L69.7181 49.6571L68.7154 50.3403L63.5496 42.7293L67.1151 40.3267ZM69.6488 43.6497C69.8254 43.4879 69.9678 43.2923 70.0673 43.0744C70.1537 42.8599 70.1843 42.627 70.1562 42.3975C70.1253 42.1174 70.0184 41.851 69.847 41.6272C69.6314 41.281 69.2925 41.0295 68.8986 40.9236C68.6744 40.8844 68.4444 40.8952 68.2249 40.9553C68.0054 41.0153 67.8019 41.1231 67.6289 41.2709L65.1377 42.9698L66.9525 45.5713L69.0304 44.1318C69.2665 43.9751 69.4811 43.7882 69.6686 43.5757L69.6488 43.6497Z" fill="#FF570F"/>
<path d="M72.3341 37.0319L76.997 44.8914L75.9581 45.512L71.2953 37.6525L72.3341 37.0319Z" fill="#FF570F"/>
<path d="M77.2365 34.3264C78.251 33.7166 79.4642 33.529 80.6155 33.804C81.1759 34.0071 81.6881 34.3244 82.1195 34.7359C82.5509 35.1473 82.8921 35.6439 83.1215 36.1941C83.4395 36.8242 83.669 37.4952 83.8035 38.188C83.9227 38.7444 83.913 39.3206 83.7751 39.8727C83.6338 40.4155 83.3592 40.9145 82.9763 41.3244C82.5067 41.8121 81.952 42.21 81.3396 42.4987L78.5527 43.9201L74.396 35.7995L77.2365 34.3264ZM81.0652 41.4998C81.1871 41.4399 81.3311 41.3463 81.5065 41.2346C81.6954 41.1139 81.8676 40.969 82.0186 40.8034C82.1928 40.6163 82.3421 40.4074 82.4627 40.182C82.5872 39.9181 82.6633 39.634 82.6875 39.3433C82.7177 38.9792 82.6957 38.6127 82.6222 38.2549C82.5207 37.7838 82.3532 37.3294 82.1245 36.9053C81.9051 36.4598 81.63 36.0441 81.3058 35.668C81.0429 35.3536 80.7126 35.1025 80.3394 34.9331C79.9782 34.7711 79.5812 34.7057 79.1872 34.7433C78.7057 34.8012 78.2397 34.95 77.8137 35.1818L76.0079 36.0992L79.2257 42.395L81.0652 41.4998Z" fill="#FF570F"/>
<path d="M88.9089 29.1517L89.2927 30.0875L84.577 31.9968L85.6464 34.7159L90.0839 32.9567L90.4644 33.9048L86.027 35.6639L87.1915 38.62L91.9475 36.7083L92.328 37.6564L86.4026 40.0347L82.9826 31.5828L88.9089 29.1517Z" fill="#FF570F"/>
<path d="M122.183 111.652L124.097 104.51L119.804 103.36L117.867 110.588L115.844 110.046L118.323 100.795L126.711 103.042L124.242 112.256L122.183 111.652Z" fill="#292929"/>
<path d="M135.131 113.31C134.899 113.608 134.612 113.859 134.285 114.048C133.957 114.235 133.597 114.359 133.223 114.411C132.836 114.468 132.442 114.443 132.066 114.339L125.898 112.687L128.377 103.436L130.425 103.984L129.456 107.599L133.576 108.702C133.954 108.801 134.308 108.977 134.614 109.219C135.217 109.686 135.613 110.371 135.716 111.127C135.77 111.511 135.745 111.903 135.645 112.278C135.544 112.653 135.37 113.004 135.131 113.31ZM133.418 112.547L133.851 110.931L128.917 109.609L128.484 111.225L133.418 112.547ZM138.023 115.936L136 115.394L138.479 106.143L140.502 106.685L138.023 115.936Z" fill="#292929"/>
<path d="M146.435 110.495L144.498 117.723L142.475 117.181L144.412 109.953L141.242 109.104L141.8 107.019L150.163 109.26L149.605 111.344L146.435 110.495Z" fill="#292929"/>
<path d="M87.1735 114.275L86.1985 117.914L84.1633 117.368L86.6421 108.117L88.6773 108.663L87.7188 112.24L90.2598 112.92L92.6614 109.73L94.6967 110.275L91.6137 114.381L92.2302 119.53L90.195 118.984L89.7145 114.956L87.1735 114.275Z" fill="#292929"/>
<path d="M103.158 112.543L104.38 122.785L102.357 122.243L101.87 118.239L97.7376 117.132L95.3137 120.356L93.2785 119.811L99.4577 111.551L103.158 112.543ZM101.213 112.749L101.052 112.706L99.1004 115.303L101.567 115.964L101.213 112.749Z" fill="#292929"/>
<path d="M112.276 118.873L113.248 115.246L115.271 115.788L112.792 125.039L110.769 124.497L111.741 120.871L107.683 119.783C107.305 119.685 106.951 119.509 106.644 119.267C106.353 119.033 106.107 118.747 105.918 118.425C105.73 118.098 105.606 117.737 105.555 117.363C105.499 116.98 105.522 116.59 105.624 116.218L106.377 113.405L108.376 113.941L107.404 117.567L112.276 118.873Z" fill="#292929"/>
<path d="M117.554 122.415L117.124 124.019L123.501 125.727L122.956 127.763L114.519 125.502L116.998 116.251L125.422 118.508L124.867 120.581L118.502 118.875L118.086 120.429L121.145 121.249L120.599 123.284L117.554 122.415Z" fill="#292929"/>
<path d="M125.208 121.478C125.985 120.502 127.103 119.857 128.336 119.672C129.044 119.579 129.763 119.643 130.443 119.859C131.124 120.076 131.748 120.44 132.271 120.925C132.832 121.445 133.257 122.094 133.509 122.817L127.07 121.092L125.662 126.346L132.101 128.071C131.517 128.563 130.826 128.912 130.083 129.091C129.316 129.273 128.514 129.259 127.754 129.048C127.133 128.887 126.553 128.596 126.053 128.196C125.567 127.817 125.158 127.348 124.849 126.816C124.542 126.279 124.336 125.691 124.243 125.08C124.075 123.799 124.422 122.504 125.208 121.478Z" fill="#292929"/>
<path d="M139.545 124.514L137.608 131.742L135.585 131.2L137.522 123.972L134.352 123.122L134.911 121.038L143.286 123.282L142.727 125.366L139.545 124.514Z" fill="#292929"/>
<path d="M150.721 125.287C151.095 125.384 151.444 125.559 151.747 125.8C152.346 126.265 152.742 126.945 152.851 127.696C152.908 128.082 152.883 128.476 152.779 128.853C152.69 129.185 152.543 129.5 152.346 129.781C152.146 130.054 151.904 130.293 151.627 130.488C151.776 130.788 151.869 131.113 151.899 131.446C151.929 131.793 151.898 132.143 151.808 132.479C151.709 132.853 151.534 133.202 151.295 133.505C150.828 134.108 150.142 134.504 149.387 134.607C149.004 134.665 148.614 134.641 148.242 134.538L142.074 132.886L144.553 123.635L150.721 125.287ZM150.57 129.107L150.979 127.578L146.046 126.255L145.619 127.847L150.57 129.107ZM145.094 129.808L144.661 131.424L149.595 132.746L150.028 131.13L145.094 129.808Z" fill="#292929"/>
<path d="M160.9 128.398C161.382 128.784 161.789 129.256 162.1 129.79C162.411 130.322 162.613 130.911 162.693 131.522C162.785 132.157 162.747 132.803 162.581 133.423C162.415 134.042 162.125 134.621 161.728 135.124C161.351 135.611 160.882 136.02 160.348 136.328C159.813 136.631 159.225 136.832 158.616 136.921C157.982 137.013 157.335 136.975 156.716 136.809C156.097 136.643 155.518 136.353 155.014 135.956C154.529 135.577 154.12 135.109 153.811 134.576C153.503 134.04 153.298 133.451 153.205 132.84C153.039 131.582 153.376 130.309 154.142 129.297C154.908 128.285 156.042 127.615 157.298 127.433C158.579 127.265 159.874 127.612 160.9 128.398ZM156.032 128.852L154.624 134.106L159.879 135.514L161.287 130.26L156.032 128.852Z" fill="#292929"/>
<path d="M81.8863 124.928L79.9495 132.157L77.9266 131.615L79.8634 124.386L76.6934 123.537L77.252 121.452L85.6272 123.697L85.0687 125.781L81.8863 124.928Z" fill="#292929"/>
<path d="M87.4347 130.222L86.463 133.849L84.4401 133.307L86.9189 124.056L93.0863 125.708C93.4604 125.805 93.81 125.98 94.1123 126.221C94.7116 126.687 95.1076 127.366 95.2172 128.117C95.2709 128.501 95.2467 128.893 95.1462 129.268C95.0457 129.643 94.8709 129.994 94.6322 130.3C94.3939 130.602 94.0983 130.853 93.7623 131.04C93.4264 131.227 93.0567 131.345 92.6748 131.389C92.2925 131.446 91.9024 131.423 91.5298 131.32L87.4347 130.222ZM87.9701 128.224L92.904 129.546L93.3205 127.992L88.3866 126.67L87.9701 128.224Z" fill="#292929"/>
<path d="M102.227 128.158L103.448 138.4L101.425 137.858L100.938 133.854L96.806 132.747L94.3821 135.971L92.3469 135.426L98.5261 127.166L102.227 128.158ZM100.281 128.363L100.108 128.317L98.1564 130.914L100.623 131.575L100.281 128.363Z" fill="#292929"/>
<path d="M115.092 131.605L116.057 139.597L117.722 140.043L117.177 142.078L104.324 138.635L104.869 136.599L106.571 137.055L111.391 130.613L115.092 131.605ZM113.146 131.81L112.998 131.771L108.619 137.604L114.022 139.052L113.146 131.81Z" fill="#292929"/>
<path d="M128.08 145L126.045 144.455L128.342 135.882L128.182 135.839L122.48 143.5L118.471 142.426L120.95 133.175L122.985 133.72L120.672 142.354L120.845 142.4L126.6 134.688L130.559 135.749L128.08 145Z" fill="#292929"/>
<path d="M129.807 145.463L132.286 136.212L134.309 136.754L132.372 143.982L136.677 145.136L138.614 137.907L140.637 138.449L138.7 145.678L140.291 146.104L139.749 148.127L129.807 145.463Z" fill="#292929"/>
<path d="M150.616 151.039L148.58 150.494L150.877 141.921L150.68 141.868L144.942 149.519L140.982 148.458L143.461 139.207L145.496 139.752L143.183 148.386L143.355 148.432L149.11 140.72L153.07 141.781L150.616 151.039Z" fill="#292929"/>
<path d="M161.952 154.076L159.916 153.531L162.214 144.958L162.053 144.915L156.315 152.566L152.343 151.501L154.822 142.25L156.857 142.796L154.543 151.43L154.716 151.476L160.471 143.764L164.431 144.825L161.952 154.076Z" fill="#292929"/>
<path d="M114.121 99.9992C115.097 100.776 115.742 101.894 115.927 103.127C116.095 104.408 115.747 105.704 114.961 106.729C114.575 107.211 114.103 107.618 113.569 107.929C113.035 108.236 112.447 108.437 111.837 108.522C111.202 108.614 110.556 108.576 109.937 108.41C109.318 108.244 108.739 107.954 108.235 107.557C107.246 106.792 106.597 105.669 106.429 104.429C106.337 103.795 106.375 103.149 106.541 102.529C106.707 101.91 106.997 101.331 107.394 100.828C107.773 100.342 108.242 99.9337 108.774 99.6243C109.31 99.3169 109.899 99.1115 110.51 99.0185C111.791 98.8505 113.086 99.1976 114.112 99.9836L114.121 99.9992ZM109.253 100.453L107.845 105.708L113.1 107.116L114.507 101.861L109.253 100.453Z" fill="#292929"/>
</g>
<defs>
<clipPath id="clip0">
<rect x="52.3438" y="0.673828" width="201.585" height="201.598" transform="rotate(15 52.3438 0.673828)" fill="white"/>
</clipPath>
</defs>
</svg>
