<svg width="748" height="167" viewBox="0 0 748 167" fill="none" xmlns="http://www.w3.org/2000/svg">
<path d="M130.316 97.36L129.922 96.4408L129.914 96.4444L130.316 97.36ZM146.376 86.58L145.669 85.8729L146.376 86.58ZM157.156 70.74L158.072 71.142L158.075 71.1339L157.156 70.74ZM157.156 31.8L156.237 32.1939L156.24 32.202L157.156 31.8ZM130.316 4.95999L129.914 5.87567L129.922 5.87914L130.316 4.95999ZM1.39609 0.999989V-1.33514e-05H0.396088V0.999989H1.39609ZM1.39609 166H0.396088V167H1.39609V166ZM37.4761 166V167H38.4761V166H37.4761ZM37.4761 101.32V100.32H36.4761V101.32H37.4761ZM37.4761 36.86V35.86H36.4761V36.86H37.4761ZM125.476 36.86H126.476V35.86H125.476V36.86ZM125.476 65.68V66.68H126.476V65.68H125.476ZM37.4761 65.68H36.4761V66.68H37.4761V65.68ZM110.956 102.32C117.981 102.32 124.572 100.974 130.718 98.2757L129.914 96.4444C124.034 99.026 117.718 100.32 110.956 100.32V102.32ZM130.71 98.2791C136.982 95.5912 142.443 91.9275 147.083 87.2871L145.669 85.8729C141.216 90.3258 135.97 93.8488 129.922 96.4409L130.71 98.2791ZM147.083 87.2871C151.72 82.6507 155.383 77.2666 158.072 71.142L156.24 70.338C153.649 76.24 150.126 81.416 145.669 85.8729L147.083 87.2871ZM158.075 71.1339C160.77 64.8458 162.116 58.1848 162.116 51.16H160.116C160.116 57.9219 158.822 64.3141 156.237 70.3461L158.075 71.1339ZM162.116 51.16C162.116 44.1353 160.77 37.5443 158.072 31.398L156.24 32.202C158.822 38.0823 160.116 44.398 160.116 51.16H162.116ZM158.075 31.4061C155.387 25.1342 151.724 19.6733 147.083 15.0329L145.669 16.4471C150.122 20.9 153.645 26.1458 156.237 32.1939L158.075 31.4061ZM147.083 15.0329C142.443 10.3925 136.982 6.7288 130.71 4.04084L129.922 5.87914C135.97 8.47118 141.216 11.9942 145.669 16.4471L147.083 15.0329ZM130.718 4.04435C124.572 1.34596 117.981 -1.33514e-05 110.956 -1.33514e-05V1.99999C117.718 1.99999 124.034 3.29401 129.914 5.87563L130.718 4.04435ZM110.956 -1.33514e-05H1.39609V1.99999H110.956V-1.33514e-05ZM0.396088 0.999989V166H2.39609V0.999989H0.396088ZM1.39609 167H37.4761V165H1.39609V167ZM38.4761 166V101.32H36.4761V166H38.4761ZM37.4761 102.32H110.956V100.32H37.4761V102.32ZM37.4761 37.86H125.476V35.86H37.4761V37.86ZM124.476 36.86V65.68H126.476V36.86H124.476ZM125.476 64.68H37.4761V66.68H125.476V64.68ZM38.4761 65.68V36.86H36.4761V65.68H38.4761ZM300.311 166L299.382 166.371L299.633 167H300.311V166ZM336.391 166V167H337.866L337.32 165.63L336.391 166ZM309.991 99.78L309.723 98.8165L308.649 99.1148L309.062 100.15L309.991 99.78ZM324.731 93.18L325.273 94.0203L325.282 94.0142L325.292 94.0079L324.731 93.18ZM336.391 82.18L335.597 81.5716L335.594 81.5756L336.391 82.18ZM344.311 67.88L345.248 68.2282L345.251 68.2196L344.311 67.88ZM343.211 31.8L342.292 32.1939L342.295 32.202L343.211 31.8ZM316.371 4.95999L315.969 5.87567L315.977 5.87914L316.371 4.95999ZM187.451 0.999989V-1.33514e-05H186.451V0.999989H187.451ZM187.451 166H186.451V167H187.451V166ZM223.531 166V167H224.531V166H223.531ZM223.531 101.54V100.54H222.531V101.54H223.531ZM274.571 101.54L275.499 101.169L275.248 100.54H274.571V101.54ZM223.531 65.68H222.531V66.68H223.531V65.68ZM223.531 36.86V35.86H222.531V36.86H223.531ZM311.531 36.86H312.531V35.86H311.531V36.86ZM311.531 65.68V66.68H312.531V65.68H311.531ZM300.311 167H336.391V165H300.311V167ZM337.32 165.63L310.92 99.4097L309.062 100.15L335.462 166.37L337.32 165.63ZM310.258 100.744C315.634 99.2502 320.64 97.009 325.273 94.0203L324.189 92.3397C319.728 95.2176 314.907 97.3764 309.723 98.8165L310.258 100.744ZM325.292 94.0079C329.926 90.8685 333.893 87.1271 337.188 82.7844L335.594 81.5756C332.435 85.7396 328.629 89.3315 324.17 92.3521L325.292 94.0079ZM337.184 82.7884C340.618 78.3103 343.306 73.4561 345.248 68.2282L343.373 67.5318C341.502 72.5705 338.911 77.2497 335.597 81.5716L337.184 82.7884ZM345.251 68.2196C347.199 62.8259 348.171 57.1372 348.171 51.16H346.171C346.171 56.9161 345.236 62.3741 343.37 67.5404L345.251 68.2196ZM348.171 51.16C348.171 44.1353 346.825 37.5443 344.126 31.398L342.295 32.202C344.877 38.0823 346.171 44.398 346.171 51.16H348.171ZM344.13 31.4061C341.442 25.1342 337.778 19.6733 333.138 15.0329L331.724 16.4471C336.177 20.9 339.7 26.1458 342.292 32.1939L344.13 31.4061ZM333.138 15.0329C328.497 10.3925 323.037 6.7288 316.765 4.04084L315.977 5.87914C322.025 8.47118 327.271 11.9942 331.724 16.4471L333.138 15.0329ZM316.773 4.04435C310.626 1.34596 304.036 -1.33514e-05 297.011 -1.33514e-05V1.99999C303.773 1.99999 310.088 3.29401 315.969 5.87563L316.773 4.04435ZM297.011 -1.33514e-05H187.451V1.99999H297.011V-1.33514e-05ZM186.451 0.999989V166H188.451V0.999989H186.451ZM187.451 167H223.531V165H187.451V167ZM224.531 166V101.54H222.531V166H224.531ZM223.531 102.54H274.571V100.54H223.531V102.54ZM273.642 101.911L299.382 166.371L301.24 165.629L275.499 101.169L273.642 101.911ZM224.531 65.68V36.86H222.531V65.68H224.531ZM223.531 37.86H311.531V35.86H223.531V37.86ZM310.531 36.86V65.68H312.531V36.86H310.531ZM311.531 64.68H223.531V66.68H311.531V64.68ZM373.505 0.999989V-1.33514e-05H372.505V0.999989H373.505ZM373.505 166H372.505V167H373.505V166ZM409.585 166V167H410.585V166H409.585ZM409.585 0.999989H410.585V-1.33514e-05H409.585V0.999989ZM372.505 0.999989V166H374.505V0.999989H372.505ZM373.505 167H409.585V165H373.505V167ZM410.585 166V0.999989H408.585V166H410.585ZM409.585 -1.33514e-05H373.505V1.99999H409.585V-1.33514e-05ZM550.322 159.4L550.714 160.32L550.726 160.315L550.322 159.4ZM576.502 141.58L575.795 140.873L576.502 141.58ZM594.102 115.4L593.187 114.996L593.182 115.008L594.102 115.4ZM594.102 51.38L593.182 51.7723L593.187 51.7836L594.102 51.38ZM550.322 7.59999L549.918 8.51498L549.93 8.51984L550.322 7.59999ZM440.322 0.999989V-1.33514e-05H439.322V0.999989H440.322ZM440.322 166H439.322V167H440.322V166ZM476.622 166V167H477.622V166H476.622ZM476.622 165.78V164.78H475.622V165.78H476.622ZM565.062 130.14V131.14H566.062V130.14H565.062ZM476.622 130.14H475.622V131.14H476.622V130.14ZM476.622 36.64V35.64H475.622V36.64H476.622ZM565.062 36.64H566.062V35.64H565.062V36.64ZM518.422 166.78C529.844 166.78 540.612 164.628 550.714 160.32L549.93 158.48C540.085 162.678 529.586 164.78 518.422 164.78V166.78ZM550.726 160.315C560.808 155.867 569.639 149.857 577.209 142.287L575.795 140.873C568.405 148.263 559.782 154.133 549.918 158.485L550.726 160.315ZM577.209 142.287C584.782 134.714 590.72 125.88 595.022 115.792L593.182 115.008C588.978 124.866 583.182 133.486 575.795 140.873L577.209 142.287ZM595.017 115.804C599.476 105.697 601.702 94.852 601.702 83.28H599.702C599.702 94.588 597.528 105.156 593.187 114.996L595.017 115.804ZM601.702 83.28C601.702 71.8528 599.475 61.0815 595.017 50.9764L593.187 51.7836C597.529 61.6252 599.702 72.1205 599.702 83.28H601.702ZM595.022 50.9877C590.72 40.8998 584.782 32.0655 577.209 24.4929L575.795 25.9071C583.182 33.2944 588.978 41.9135 593.182 51.7723L595.022 50.9877ZM577.209 24.4929C569.636 16.9202 560.802 10.9823 550.714 6.68015L549.93 8.51984C559.788 12.7243 568.407 18.5198 575.795 25.9071L577.209 24.4929ZM550.726 6.68508C540.62 2.22693 529.849 -1.33514e-05 518.422 -1.33514e-05V1.99999C529.581 1.99999 540.077 4.17305 549.918 8.51491L550.726 6.68508ZM518.422 -1.33514e-05H440.322V1.99999H518.422V-1.33514e-05ZM439.322 0.999989V166H441.322V0.999989H439.322ZM440.322 167H476.622V165H440.322V167ZM477.622 166V165.78H475.622V166H477.622ZM476.622 166.78H518.422V164.78H476.622V166.78ZM565.062 129.14H476.622V131.14H565.062V129.14ZM477.622 130.14V36.64H475.622V130.14H477.622ZM476.622 37.64H565.062V35.64H476.622V37.64ZM564.062 36.64V130.14H566.062V36.64H564.062ZM714.658 101.1V102.1H715.658V101.1H714.658ZM714.658 64.8H715.658V63.8H714.658V64.8ZM660.098 64.8H659.098V65.8H660.098V64.8ZM660.098 37.08V36.08H659.098V37.08H660.098ZM774.058 37.08V38.08H775.058V37.08H774.058ZM774.058 0.999989H775.058V-1.33514e-05H774.058V0.999989ZM623.798 0.999989V-1.33514e-05H622.798V0.999989H623.798ZM623.798 166H622.798V167H623.798V166ZM773.839 166V167H774.839V166H773.839ZM773.839 129.7H774.839V128.7H773.839V129.7ZM660.098 129.7H659.098V130.7H660.098V129.7ZM660.098 101.1V100.1H659.098V101.1H660.098ZM715.658 101.1V64.8H713.658V101.1H715.658ZM714.658 63.8H660.098V65.8H714.658V63.8ZM661.098 64.8V37.08H659.098V64.8H661.098ZM660.098 38.08H774.058V36.08H660.098V38.08ZM775.058 37.08V0.999989H773.058V37.08H775.058ZM774.058 -1.33514e-05H623.798V1.99999H774.058V-1.33514e-05ZM622.798 0.999989V166H624.798V0.999989H622.798ZM623.798 167H773.839V165H623.798V167ZM774.839 166V129.7H772.839V166H774.839ZM773.839 128.7H660.098V130.7H773.839V128.7ZM661.098 129.7V101.1H659.098V129.7H661.098ZM660.098 102.1H714.658V100.1H660.098V102.1Z" fill="#FF570F"/>
</svg>
