<svg width="92" height="82" viewBox="0 0 92 82" fill="none" xmlns="http://www.w3.org/2000/svg">
<path d="M42.2822 20.4062L41.9671 19.9054C41.2109 18.6535 39.9507 17.7772 38.4383 17.4016L38.1233 17.339V11.7054L38.8164 8.38784L38.7534 8.32525L37.5562 5.69624V1.62754L38.4383 1.56494L38.8794 4.56952C38.8794 4.63212 38.8794 4.69471 38.9425 4.69471C38.9425 4.69471 38.9425 4.75731 39.0055 4.75731L39.0685 4.8199L42.5972 13.5207L43.2274 19.4046L42.2822 20.4062ZM39.0055 16.6504C40.2657 17.026 41.4 17.7772 42.2192 18.7787L41.652 13.771L39.6356 8.76341V8.82601L39.0055 11.8306V16.6504Z" fill="#FF570F"/>
<path d="M28.7343 80.623C28.2302 80.623 27.7891 80.4978 27.474 80.31C26.9699 79.9344 26.5918 79.1833 26.3398 78.1818C26.1507 77.2428 26.0877 76.3039 26.0877 75.6154C26.0877 74.9894 25.8987 74.3008 25.7726 73.5497L25.5836 72.736C25.1425 70.6703 24.5124 67.4779 24.5124 62.0947V60.2795C24.7014 50.452 25.6466 46.6337 26.5918 43.5039C26.9069 42.5024 27.0329 41.626 27.0329 40.7497C27.0329 38.7466 26.0877 36.9314 24.3863 35.4917C24.1343 35.3039 23.9452 35.1161 23.6932 34.9283C23.4411 34.7405 23.2521 34.5527 23 34.4276C22.3069 33.9268 21.9288 33.6138 21.6137 33.3008C21.2987 32.9879 21.1096 32.6749 21.1096 32.4245L21.1726 32.1115L21.2987 31.9863C21.3617 31.8611 21.4877 31.736 21.6137 31.6734C21.7398 31.6108 21.9918 31.6108 22.2439 31.6108C22.685 31.6734 23.3151 31.7985 24.3233 32.1115C25.0795 32.3619 25.8356 32.5497 26.7178 32.7375L27.285 32.8627C28.4822 33.1131 29.3644 33.0505 29.9315 32.6749C30.1836 32.4871 30.3096 32.2367 30.4356 31.9237C30.4987 31.6108 30.5617 31.2978 30.5617 31.11C30.5617 30.797 30.4987 30.2963 30.4987 29.9207L30.4356 29.4199L30.9398 29.4825C31.3809 29.5451 32.074 29.6077 32.8302 29.7329C33.3343 29.7955 33.7124 29.9207 34.0904 29.9833C34.3425 30.0459 34.5315 30.1085 34.6576 30.1711L34.9726 30.2963L34.9096 30.6092C34.9096 30.797 34.8466 31.0474 34.8466 31.2978C34.8466 31.6108 34.7836 32.2367 34.7836 32.8627C34.7836 33.6138 34.9096 34.1146 35.1617 34.365L35.2877 34.4902C35.4137 34.5527 35.5398 34.6153 35.6028 34.7405C35.6658 34.8657 35.7288 35.0535 35.7288 35.3039C35.7288 35.6795 35.6028 36.1802 35.4137 36.8062C35.2247 37.4321 34.9096 38.2459 34.4685 39.31C33.3343 41.7512 32.011 45.7573 31.0028 49.7008C29.8055 54.2703 29.1124 58.339 29.1124 61.0306C29.1124 64.3482 29.6795 67.2902 30.1836 69.168C30.4356 70.2321 30.7507 71.1711 31.0658 72.0474C31.3178 72.736 31.6329 73.2993 31.8219 73.6123C31.948 73.8627 32.074 74.1757 32.2 74.6138C32.3261 75.1146 32.3891 75.7405 32.4521 76.3665C32.4521 77.3054 32.3261 78.0566 32.011 78.7451C31.5699 79.6841 30.8767 80.2474 29.9315 80.4978C29.3644 80.5604 29.0493 80.623 28.7343 80.623ZM22.1178 32.4871C22.1809 32.5497 22.1809 32.6123 22.3069 32.6749C22.5589 32.9253 23 33.2382 23.5672 33.6764C23.8192 33.8642 24.0713 34.052 24.2603 34.2398C24.5124 34.4276 24.7014 34.6153 24.8904 34.7405L24.9535 34.8031C26.9069 36.4306 27.9781 38.4963 27.9781 40.7497C27.9781 41.6886 27.8521 42.6276 27.537 43.6917C26.5918 46.7589 25.7096 50.5772 25.4576 60.2169V62.0321C25.4576 67.4153 26.0877 70.3573 26.5288 72.5482L26.7178 73.3619C26.9069 74.1757 27.0959 74.9268 27.0959 75.6154C27.0959 76.2413 27.1589 77.1176 27.348 77.994C27.537 78.8077 27.7891 79.3711 28.1041 79.6215C28.1672 79.6841 28.6082 79.9344 29.6165 79.6841C30.3096 79.4963 30.8137 79.1207 31.1288 78.4321C31.3809 77.9314 31.5069 77.2428 31.5069 76.4291C31.4439 75.7405 31.3809 75.1772 31.3178 74.8642C31.1918 74.426 31.1288 74.2383 31.0658 74.1131C30.7507 73.6749 30.4356 72.9237 30.2466 72.423C29.9315 71.5466 29.6165 70.5451 29.3644 69.481C28.8603 67.5405 28.2932 64.536 28.2932 61.0932C28.2932 58.2764 28.9863 54.2077 30.1836 49.5131C31.2548 45.5069 32.5781 41.5008 33.7124 38.997C34.1535 37.9955 34.4685 37.1818 34.6576 36.5558C34.9096 35.8673 34.9096 35.4917 34.9096 35.3039C34.9096 35.2413 34.9096 35.2413 34.9096 35.1787L34.5315 35.0535L34.4055 34.9283C34.0274 34.5527 33.8384 33.8642 33.8384 32.8627C33.8384 32.2367 33.9014 31.5482 33.9014 31.2352C33.9014 31.11 33.9014 30.9848 33.9644 30.8596C33.9014 30.8596 33.8384 30.797 33.7754 30.797C33.4603 30.7344 33.0822 30.6092 32.6411 30.5466C32.263 30.484 31.8219 30.4214 31.3809 30.3589C31.3809 30.6092 31.4439 30.9222 31.4439 31.11C31.4439 31.4856 31.3809 31.8611 31.3178 32.1741C31.1918 32.7375 30.8767 33.1131 30.4987 33.426C29.6795 33.9894 28.5452 34.1146 27.0959 33.8016L26.4658 33.6138C25.5836 33.3634 24.7644 33.1756 24.0082 32.9253C23.1261 32.6749 22.5589 32.5497 22.1178 32.4871Z" fill="#FF570F"/>
<path d="M37.241 24.8504C36.6739 24.8504 36.1068 24.6626 35.7917 24.2244C35.4766 23.8489 35.2876 23.4107 35.2876 22.9099C35.2876 22.4092 35.4766 21.9084 35.8547 21.5328C36.6109 20.7817 37.8081 20.7817 38.5643 21.5328C38.9424 21.9084 39.1314 22.4092 39.1314 22.9099C39.1314 23.4107 38.9424 23.9115 38.5643 24.287C38.1862 24.6626 37.7451 24.8504 37.241 24.8504ZM37.241 21.8458C36.989 21.8458 36.7369 21.971 36.4849 22.1588C36.2958 22.3466 36.1698 22.6596 36.1698 22.9099C36.1698 23.2229 36.2328 23.4733 36.4218 23.6611C36.6109 23.8489 36.926 23.9741 37.241 23.9741C37.4931 23.9741 37.7451 23.8489 37.9972 23.6611C38.1862 23.4733 38.3123 23.1603 38.3123 22.9099C38.3123 22.6596 38.1862 22.4092 37.9972 22.1588C37.8081 21.971 37.4931 21.8458 37.241 21.8458Z" fill="#FF570F"/>
<path d="M32.1998 20.3435L31.2546 19.4046L31.9478 13.3954L35.4766 4.75725L35.5396 4.69466L36.0437 1.4397L36.9259 1.50229V5.63359L35.7286 8.38779L35.2875 8.57557L35.7286 8.45038L35.7916 8.57557L36.4218 11.7679V17.3389L36.0437 17.4015C34.5944 17.7145 33.3341 18.5908 32.4519 19.9053L32.1998 20.3435ZM32.767 13.7084L32.1998 18.7786C33.082 17.7145 34.2163 16.9634 35.4766 16.6504V11.8305L34.8464 8.82596V8.76336C34.8464 8.70077 34.8464 8.70077 34.7834 8.63817L32.767 13.7084Z" fill="#FF570F"/>
<path d="M37.6822 10.8915H36.8L36.2959 8.51291L37.2411 6.44727L38.1863 8.51291L37.6822 10.8915ZM37.2411 8.63811V8.7007V8.63811Z" fill="#FF570F"/>
<path d="M37.241 27.8549C34.4684 27.8549 32.2629 25.6015 32.2629 22.9099C32.2629 22.2213 32.389 21.658 32.704 21.032C33.5232 19.1542 35.3506 17.9648 37.4301 17.9648C39.5095 17.9648 41.2739 19.1542 42.1561 21.032C42.4081 21.5328 42.5342 22.1587 42.5972 22.8473V22.9099V22.9725C42.2191 25.7267 39.9506 27.8549 37.241 27.8549ZM33.5232 21.345C33.2712 21.8458 33.1451 22.2839 33.1451 22.8473C33.1451 25.1007 34.9725 26.916 37.241 26.916C39.4465 26.916 41.3369 25.1007 41.652 22.8473C41.589 22.2213 41.5259 21.7832 41.3369 21.345C40.6438 19.7175 39.1314 18.716 37.4301 18.716C35.7287 18.7786 34.2164 19.7801 33.5232 21.345ZM37.304 26.29C35.2876 26.29 33.8383 24.8503 33.8383 22.9099C33.8383 20.9694 35.2876 19.5297 37.241 19.5297C39.1944 19.5297 40.6438 20.9694 40.6438 22.9099C40.5807 24.7251 39.1314 26.1648 37.304 26.29ZM37.241 20.3435C35.7917 20.3435 34.7205 21.4076 34.7205 22.8473C34.7205 24.287 35.7917 25.3511 37.241 25.3511C38.6273 25.2885 39.6986 24.2244 39.7616 22.8473H40.2027H39.7616C39.7616 21.4702 38.6903 20.3435 37.241 20.3435Z" fill="#FF570F"/>
<path d="M35.0986 29.4197L34.7205 29.2946C34.2164 29.1068 33.5232 28.9816 32.7041 28.8564C32.0739 28.7938 31.4438 28.6686 30.8767 28.6686H30.3726L31.0657 24.9129L31.8219 24.4121L32.0109 24.9129C32.578 26.3526 33.7123 27.4793 35.1616 27.98L35.6027 28.1678L35.0986 29.4197ZM31.4438 27.7923C31.8849 27.8549 32.389 27.9175 32.8301 27.98C33.0821 28.0426 33.3342 28.0426 33.5232 28.1052C32.8301 27.6045 32.2 26.9785 31.7589 26.2274L31.4438 27.7923Z" fill="#FF570F"/>
<path d="M45.7479 80.4978C45.4959 80.4978 45.1808 80.4352 44.8027 80.31C43.8575 80.0596 43.1644 79.4337 42.7233 78.5573C42.3452 77.7436 42.2822 76.8672 42.2822 76.2413C42.2191 75.4901 42.3452 74.8642 42.4082 74.4886C42.4712 74.2382 42.5342 74.0504 42.5972 73.9253C42.6602 73.8001 42.7233 73.6749 42.7233 73.6749L43.0383 73.8627L42.7863 73.5497C42.9753 73.2993 43.2274 72.7359 43.5424 71.9848C43.8575 71.1711 44.1726 70.1695 44.4246 69.1054C44.8657 67.2275 45.4328 64.2856 45.4959 60.968C45.4959 58.2138 44.8657 54.2077 43.6685 49.6382C42.6602 45.6947 41.2739 41.6886 40.1397 39.2474C39.2575 37.3069 38.8164 36.055 38.8164 35.2413C38.8164 34.9909 38.8794 34.8031 38.9424 34.6779C39.0054 34.6153 39.0054 34.5527 39.0685 34.5527C39.1315 34.4901 39.1945 34.4275 39.1945 34.4275L39.3205 34.3024C39.5726 34.052 39.6986 33.5512 39.6986 32.8001C39.6986 31.7985 39.5726 30.6718 39.5096 30.2962L39.4465 29.9207L39.7616 29.7955C40.2657 29.6077 41.0219 29.4825 41.589 29.4199C42.1561 29.3573 42.8493 29.2321 43.4794 29.1695L44.0465 29.1069L43.9835 29.6703C43.9835 29.7955 43.9205 29.9207 43.9205 30.0459C43.9205 30.2962 43.8575 30.5466 43.9205 30.8596C43.9205 31.2978 43.9205 32.0489 44.4876 32.4871C45.0548 32.8627 46 32.9879 47.1342 32.6749C48.0794 32.4871 49.0876 32.2367 50.0959 31.8611C50.9781 31.5482 51.6082 31.3604 52.1123 31.3604C52.3644 31.3604 52.5534 31.3604 52.7424 31.423C52.9315 31.4856 53.0575 31.6108 53.1205 31.7359L53.2465 31.8611V32.0489C53.2465 32.0489 53.2465 32.1115 53.2465 32.1741V32.2367C53.2465 32.2993 53.1835 32.4245 53.1205 32.4871C53.0575 32.6123 52.9315 32.7375 52.7424 32.9253C52.4904 33.1756 52.1753 33.4886 51.7342 33.8016L51.4191 34.1146C51.1671 34.3024 50.915 34.4901 50.726 34.6153C50.4739 34.8031 50.2219 34.9909 50.0328 35.1787C48.2055 36.681 47.3863 38.3711 47.3863 40.4367C47.3863 41.2504 47.5123 42.1268 47.8274 43.1909C48.7726 46.3207 49.7178 50.2016 49.9068 59.9665C49.9698 60.2795 49.9698 60.655 49.9068 60.9054V61.2184C49.9068 61.4062 49.9068 61.6566 49.9068 61.8443C49.9068 67.4153 49.2767 70.6703 48.7726 72.9237C48.5835 73.8001 48.3945 74.6764 48.3315 75.365C48.3315 75.9909 48.2685 76.9924 48.0794 77.8688C47.8274 78.9329 47.5123 79.6214 47.0082 79.997C46.7561 80.2474 46.3781 80.4978 45.7479 80.4978ZM43.4164 74.113C43.4164 74.113 43.4164 74.1756 43.3534 74.1756C43.2904 74.3008 43.2274 74.426 43.2274 74.6138C43.1013 75.052 43.1013 75.6153 43.1013 76.1161C43.1013 76.6795 43.1644 77.4306 43.4794 78.1192C43.7945 78.8077 44.2986 79.2459 44.9918 79.4337C45.6219 79.6214 46.063 79.6214 46.315 79.3711L46.3781 79.3085C46.6301 79.1207 46.9452 78.6825 47.1342 77.681C47.3233 76.9298 47.3863 76.0535 47.3863 75.3024C47.4493 74.4886 47.6383 73.6123 47.8274 72.7359C48.3315 70.5451 48.9616 67.3527 48.9616 61.8443C48.9616 61.6566 48.9616 61.4062 48.9616 61.2184V60.9054C48.9616 60.655 48.9616 60.342 48.9616 60.0917V60.0291C48.7726 50.3894 47.8274 46.5711 46.8822 43.5039C46.5671 42.3772 46.4411 41.4382 46.4411 40.4993C46.4411 38.2459 47.4493 36.2428 49.4027 34.5527L49.4657 34.4901C49.6548 34.3649 49.9068 34.1772 50.0959 33.9894C50.3479 33.8016 50.6 33.5512 50.852 33.426L51.1671 33.1756C51.6082 32.8001 51.9233 32.5497 52.1123 32.2993C52.1753 32.2367 52.1753 32.2367 52.2383 32.1741H52.1753C51.7342 32.2367 51.0411 32.4245 50.3479 32.6749C49.2767 33.0504 48.2685 33.3008 47.2602 33.4886C45.8109 33.8016 44.6767 33.6764 43.9205 33.113C42.9753 32.4245 42.9753 31.2978 42.9753 30.8596C42.9123 30.6092 42.9753 30.2962 42.9753 30.0459C42.5342 30.1085 42.0931 30.1711 41.715 30.2337C41.2109 30.2962 40.7698 30.4214 40.3917 30.484C40.4548 30.9848 40.5178 31.9237 40.5178 32.6749C40.5178 33.739 40.3287 34.3649 39.8876 34.8031L39.8246 34.8657V35.0535C39.7616 35.0535 39.6986 35.1161 39.6986 35.1787V35.2413C39.6986 35.9298 40.0767 37.1191 40.8959 38.8718C42.0301 41.3756 43.4164 45.3817 44.4876 49.3879C45.6849 54.0199 46.3781 58.0886 46.3781 60.9054C46.315 64.2856 45.7479 67.2901 45.3068 69.2306C45.0548 70.2947 44.7397 71.3588 44.4246 72.1726C44.0465 73.1115 43.7315 73.7375 43.4164 74.113Z" fill="#FF570F"/>
<path d="M39.3205 29.4824L38.7534 28.2305L39.1945 28.0427C40.7068 27.4794 41.8411 26.2901 42.4082 24.8504L42.5973 24.3496L43.2904 24.7878L43.9836 28.5435L43.4794 28.6061C42.7863 28.6687 42.2192 28.7313 41.652 28.7939C40.7699 28.9191 40.1397 29.1069 39.6356 29.2946L39.3205 29.4824ZM42.7233 26.2901C42.2822 26.9786 41.7151 27.6046 41.0219 28.0427C41.211 27.9801 41.4 27.9801 41.589 27.9175C42.0301 27.855 42.4712 27.7924 42.9753 27.7298L42.7233 26.2901Z" fill="#FF570F"/>
<path d="M71.4576 55.3344L70.1343 53.5817V52.0794L70.5124 52.0168C71.3946 51.829 72.0247 51.0779 72.0247 50.2015C72.0247 49.2626 71.3946 48.5115 70.5124 48.3863L70.1343 48.3237V29.3573L71.0165 29.2947L74.2302 51.0779L74.0411 51.2031C73.663 51.5786 73.222 52.0794 72.9699 52.3924C72.5918 52.8306 72.2767 53.2687 72.2137 53.3939C72.0877 53.6443 71.8356 54.0825 71.7096 54.5206L71.4576 55.3344ZM71.0165 53.3313L71.2055 53.5191C71.2685 53.3313 71.3946 53.1435 71.4576 53.0183C71.5836 52.8306 71.8987 52.455 72.2137 52.0168C71.8987 52.3298 71.5206 52.6428 71.0795 52.768L71.0165 53.3313ZM71.0165 47.6351C72.1507 48.0107 72.9069 49.0122 72.9069 50.2641C72.9069 50.8275 72.7178 51.3283 72.4028 51.7664C72.6548 51.4535 72.9699 51.0779 73.285 50.7649L71.0165 35.3664V47.6351Z" fill="#FF570F"/>
<path d="M68.1808 55.3343L67.9288 54.5205C67.8027 54.145 67.6137 53.7068 67.4246 53.3938C67.3616 53.3312 67.2986 53.206 67.1726 53.0809C67.0466 52.8931 66.8575 52.7053 66.6685 52.4549C66.4164 52.1419 65.9753 51.6412 65.5972 51.2656L65.4082 51.1404L68.6219 29.6702L69.5041 29.7328V48.3862L69.126 48.4488C68.2438 48.6366 67.5507 49.3877 67.6137 50.2641C67.6137 51.203 68.2438 51.9541 69.126 52.0793L69.5041 52.1419V53.6442L68.1808 55.3343ZM67.7397 52.2671C67.8027 52.3297 67.8657 52.4549 67.9288 52.5175C68.1178 52.7679 68.1808 52.8931 68.2438 52.9557C68.3068 53.1434 68.4329 53.2686 68.4959 53.4564L68.6849 53.206V52.7053C68.3068 52.7053 67.9918 52.5175 67.7397 52.2671ZM66.4164 50.7648C66.6685 51.0152 66.9205 51.2656 67.1096 51.516C66.9205 51.1404 66.7945 50.7022 66.7945 50.2015C66.7315 49.0121 67.4877 47.948 68.6849 47.6351V35.6793L66.4164 50.7648Z" fill="#FF570F"/>
<path d="M78.3259 80.6228C77.9478 80.6228 77.6957 80.435 77.5067 80.122C77.3177 79.8716 77.2546 79.4961 77.2546 78.9953C77.2546 78.6197 77.3177 78.119 77.5067 77.493C77.6327 77.0548 77.7588 76.6167 77.8848 76.1785L77.9478 76.0533C78.0738 75.6777 78.1999 75.177 78.2629 74.864C78.4519 73.6747 78.5779 72.4228 78.641 70.7953C78.704 67.9159 77.7588 64.7235 76.1204 62.1571C75.6163 61.406 74.9231 60.9052 74.293 60.3419L74.104 60.2167C73.3478 59.5907 72.6546 59.0274 72.2135 58.2136C71.8985 57.5877 71.8355 56.9617 71.9615 56.148C72.0875 55.522 72.3396 54.8335 72.6546 54.2075L72.7177 54.1449C72.8437 54.0197 73.0327 53.8319 73.2218 53.519L73.5368 53.1434C74.104 52.5174 74.482 52.0793 74.7971 51.7663C74.8601 51.7037 74.9862 51.5785 75.0492 51.5785L75.3642 51.3281L76.3725 52.3297C76.4355 52.3922 76.4985 52.4548 76.5615 52.5174L76.6875 52.7052V52.8304C76.6875 52.893 76.6875 52.9556 76.6875 53.0182V53.0808H76.2464L76.6875 53.1434C76.6875 53.1434 76.6875 53.206 76.6875 53.2686V53.3312C76.2464 54.9587 77.1286 56.0854 78.0108 57.2121L78.1999 57.4625C79.1451 58.7144 79.9012 60.0289 80.4053 61.2808C81.4136 63.7846 82.0437 66.4136 82.2958 69.1678C82.5478 71.4839 82.6738 75.7403 80.9094 78.6823C80.5944 79.1205 80.0273 79.809 79.3971 80.1846C78.893 80.5602 78.641 80.6228 78.3259 80.6228ZM73.3478 54.7709C73.0957 55.2716 72.9067 55.835 72.7807 56.3984C72.7177 56.9617 72.7807 57.4625 72.9697 57.9006C73.2848 58.5266 73.9149 59.0274 74.6081 59.5907L74.7971 59.7159C75.4903 60.2793 76.2464 60.9052 76.8136 61.719C78.5779 64.4106 79.5231 67.7281 79.4601 70.8579C79.3971 72.548 79.2711 73.7999 79.082 75.0518C79.019 75.3648 78.893 75.8029 78.767 76.3037L78.704 76.4289C78.5779 76.8671 78.4519 77.3052 78.3259 77.7434C78.1999 78.3067 78.1368 78.7449 78.1368 79.0579C78.1368 79.4961 78.1999 79.6213 78.1999 79.6839C78.2629 79.7464 78.2629 79.7464 78.2629 79.7464C78.3889 79.7464 78.5149 79.6838 78.704 79.5587C79.2081 79.2457 79.7122 78.7449 79.9012 78.3693C81.5396 75.6777 81.4136 71.609 81.1615 69.4182C80.9725 66.7892 80.3423 64.2228 79.3341 61.7816C78.83 60.5922 78.1368 59.3403 77.2546 58.151L77.0656 57.9006C76.1204 56.7739 74.9862 55.3342 75.5533 53.2686C75.5533 53.206 75.5533 53.206 75.5533 53.1434V53.0808L75.1122 52.6426C74.7971 53.0182 74.356 53.4564 74.0409 53.8319L73.7259 54.2075C73.5998 54.3953 73.4108 54.6457 73.3478 54.7709Z" fill="#FF570F"/>
<path d="M60.9342 80.6228C60.6821 80.6228 60.3671 80.4976 60.052 80.3099C59.4218 79.9343 58.8547 79.2457 58.5397 78.8076C56.7753 75.8656 56.9013 71.6091 57.1533 69.2931C57.3424 66.5389 57.9725 63.9099 59.0438 61.406C59.5479 60.1541 60.304 58.8396 61.2492 57.5877L61.5013 57.3373C62.3835 56.2106 63.3287 55.0839 62.8246 53.4564V53.3938C62.8246 53.3312 62.8246 53.3312 62.8246 53.2686V53.1434C62.8246 53.0809 62.8246 53.0183 62.8246 52.9557V52.8305L62.9506 52.6427C63.0136 52.5801 63.0136 52.5175 63.1397 52.4549L63.8958 51.7038L64.1479 51.4534L64.4629 51.7038C64.526 51.7663 64.589 51.8289 64.715 51.8915C65.0931 52.2671 65.5972 52.8305 65.9753 53.2686L66.2903 53.6442C66.5424 53.9572 66.7314 54.145 66.7945 54.2702L66.8575 54.3328C67.1725 54.8961 67.4246 55.5847 67.5506 56.2106C67.6766 57.0244 67.5506 57.6503 67.2986 58.2763C66.8575 59.09 66.2273 59.6534 65.4082 60.2793L65.2191 60.4045C64.526 60.9679 63.8328 61.4686 63.3917 62.2198C61.7534 64.7236 60.8081 67.9786 60.8712 70.8579C60.9342 72.4854 61.0602 73.7373 61.2492 74.9266C61.3123 75.2396 61.4383 75.6152 61.5643 76.0534V76.1786C61.6903 76.6167 61.8164 77.1175 61.9424 77.5557C62.0684 78.1816 62.1314 78.6198 62.1944 79.058C62.1944 79.5587 62.1314 79.9343 61.9424 80.1847C61.5013 80.4976 61.2492 80.6228 60.9342 80.6228ZM63.5808 53.2686C64.1479 55.3343 63.0136 56.7114 62.0684 57.9007L61.8794 58.1511C60.9972 59.2778 60.241 60.5297 59.7999 61.719C58.7917 64.1602 58.2246 66.7267 57.9725 69.3557C57.7205 71.5465 57.5944 75.6778 59.2328 78.3694C59.4849 78.745 59.989 79.3083 60.4301 79.5587C60.6191 79.6839 60.8081 79.7465 60.8712 79.7465C60.8712 79.7465 60.9342 79.7465 60.9342 79.6839C60.9342 79.6213 61.0602 79.4961 61.0602 79.058C61.0602 78.6824 60.9972 78.3068 60.8712 77.7434C60.7451 77.3053 60.6191 76.8671 60.4931 76.4289L60.4301 76.3038C60.304 75.803 60.178 75.3648 60.115 75.0518C59.926 73.7999 59.7999 72.548 59.7369 70.8579C59.6739 67.7282 60.6821 64.4106 62.3835 61.719C62.9506 60.8427 63.7068 60.2793 64.3999 59.716L64.526 59.5908C65.2191 59.0274 65.8492 58.5267 66.1643 57.8381C66.3534 57.3999 66.4164 56.8992 66.3534 56.3358C66.2273 55.8351 66.0383 55.2717 65.7862 54.7709C65.6602 54.6457 65.5342 54.4579 65.3451 54.2702L65.0301 53.8946C64.715 53.519 64.3369 53.0809 63.9588 52.7053L63.5177 53.1434V53.206C63.5808 53.206 63.5808 53.206 63.5808 53.2686ZM63.2657 53.0183H63.1397H63.2657Z" fill="#FF570F"/>
</svg>
