<svg width="152" height="153" viewBox="0 0 152 153" fill="none" xmlns="http://www.w3.org/2000/svg">
<rect x="135.626" y="64.4144" width="82.8858" height="3.6" transform="rotate(90 135.626 64.4144)" stroke="#FF570F" stroke-width="1.4"/>
<path d="M137.626 41.7L137.626 60.8348L135.893 64.3L131.758 64.3L130.026 60.8348L130.026 41.7L137.626 41.7Z" stroke="#FF570F" stroke-width="1.4"/>
<path d="M77.218 53.7417L72.4973 53.7417L72.4973 76.676L72.4973 146.712C72.4973 146.918 72.6074 147.182 72.8344 147.409C73.0614 147.636 73.3259 147.746 73.5319 147.746L80.9041 147.746C81.1101 147.746 81.3747 147.636 81.6017 147.409C81.8287 147.182 81.9387 146.918 81.9387 146.712L81.9387 76.676L81.9387 53.7417L77.218 53.7417Z" stroke="#FF570F" stroke-width="1.4"/>
<path d="M60.8954 32.5048L60.8969 32.5281L60.8969 32.5514V37.9721L60.8969 44.2601L60.8969 45.8013L65.8003 48.5472L71.6888 48.5472H77.1027L82.625 48.4389L82.625 48.4387L82.6387 48.4387L88.5388 48.4387L93.4361 45.8921L93.5389 37.9729L93.4369 31.3389L88.5303 28.5913L77.1161 28.6979L77.1161 28.698L77.1096 28.698L65.7915 28.698L60.8171 31.3314L60.8954 32.5048Z" stroke="#FF570F" stroke-width="1.4"/>
<path d="M60.3642 37.9721L60.3642 33.2514L54.8257 33.2514L54.8257 43.5601H60.3642L60.3642 37.9721Z" stroke="#FF570F" stroke-width="1.4"/>
<path d="M54.5097 32.118L55.2097 32.118L54.5097 32.118C54.5097 30.7699 53.5221 29.7824 52.1741 29.7824L47.6455 29.7824C46.3536 29.8804 45.2851 31.0167 45.2851 32.118L45.2851 44.694C45.2851 46.0421 46.2727 47.0296 47.6207 47.0296L52.1741 47.0296C53.5221 47.0296 54.5097 46.0421 54.5097 44.694L54.5097 44.2604L54.5097 32.5516L54.5097 32.118Z" stroke="#FF570F" stroke-width="1.4"/>
<path d="M93.7768 37.6696L93.5618 43.0443C94.6891 41.4655 96.6008 39.8758 99.6551 39.8742C104.017 39.819 108.512 41.764 111.863 43.665C113.55 44.6222 114.971 45.5821 115.97 46.303C116.053 46.3624 116.133 46.4203 116.209 46.4764C115.069 40.6785 109.862 36.9381 104.49 34.5875C101.589 33.3181 98.7086 32.4859 96.5488 31.9709C95.4702 31.7138 94.5746 31.5365 93.9502 31.4237C93.89 31.4128 93.8324 31.4026 93.7774 31.3929L93.7774 37.6416L93.7774 37.6556L93.7768 37.6696Z" stroke="#FF570F" stroke-width="1.4"/>
</svg>
