<svg width="95" height="123" viewBox="0 0 95 123" fill="none" xmlns="http://www.w3.org/2000/svg">
<rect x="42.46" y="0.7" width="9.98667" height="14.0533" stroke="#FF570F" stroke-width="1.4"/>
<path d="M22.3869 101.78L19.0585 87.7266H75.8706L72.912 101.78H22.3869Z" stroke="#FF570F" stroke-width="1.4"/>
<rect x="43.7" y="14.7" width="7.6" height="72.6" stroke="#FF570F" stroke-width="1.4"/>
<rect x="44.0867" y="102.367" width="6.73333" height="16.4933" stroke="#FF570F" stroke-width="1.4"/>
<path d="M47.4534 121.187L46.0446 119.357L48.8621 119.357L47.4534 121.187Z" fill="#FF570F"/>
<path d="M41.3533 21.96C41.3533 21.96 41.5686 19.3632 40.9467 17.8933C40.2888 16.3386 38.8967 14.5736 38.1 14.64C37.3033 14.7064 36.5797 14.7667 35.8988 14.8234C33.322 15.0382 31.3548 15.2021 28.34 15.4533V19.1133C28.34 19.1133 30.5 19.5 32.4067 20.3333C33.0575 20.6178 33.44 21.42 33.22 21.96C33 22.5 32.6648 23.5 32.6648 23.5C32.6648 23.5 27.3941 37.9013 24.2734 45.14C18.115 59.4246 10.5559 66.3487 6.38002 81.3333C2.06651 96.8119 1.5 117.527 1.5 117.527V118.34V118.747" stroke="#FF570F" stroke-width="1.4"/>
<path d="M41.3533 21.5535L41.3533 21.9601C41.3533 21.9601 40.3735 37.7202 36.4733 46.7668C30.3149 61.0514 21.5358 67.1622 17.36 82.1468C13.9704 94.3099 11.0035 106.299 9.94511 111.692C9.6566 113.162 9.86667 112.1 9.5 114C9.13333 115.9 10.3333 117.054 11.6667 117.527C13 118 15.3267 117.933 15.3267 117.933V120.78C15.3267 120.78 12.2285 121.152 10.2433 121.39C8.25817 121.628 7 122 5.16 122C3.32 122 3 121.5 2.31333 120.373C1.86821 119.643 1.5 118.5 1.5 118.5" stroke="#FF570F" stroke-width="1.4"/>
<rect x="15.1111" y="57.7273" width="11.6811" height="45.3885" rx="5.84057" transform="rotate(-12.8808 15.1111 57.7273)" fill="white" stroke="#FF570F" stroke-width="1.4"/>
<circle cx="30.5" cy="45.5" r="5.8" stroke="#FF570F" stroke-width="1.4"/>
<path d="M54.036 21.96C54.036 21.96 53.8207 19.3632 54.4427 17.8933C55.1005 16.3386 56.4926 14.5736 57.2893 14.64C58.0861 14.7064 58.8096 14.7667 59.4906 14.8234C62.0674 15.0382 64.0345 15.2021 67.0493 15.4533V19.1133C67.0493 19.1133 64.8893 19.5 62.9827 20.3333C62.3319 20.6178 61.9493 21.42 62.1693 21.96C62.3893 22.5 62.7245 23.5 62.7245 23.5C62.7245 23.5 67.9952 37.9013 71.116 45.14C77.2744 59.4246 84.8335 66.3487 89.0093 81.3333C93.3228 96.8119 93.8893 117.527 93.8893 117.527V118.34V118.747" stroke="#FF570F" stroke-width="1.4"/>
<path d="M54.036 21.5535L54.036 21.9601C54.036 21.9601 55.0158 37.7202 58.916 46.7668C65.0744 61.0514 73.8535 67.1622 78.0293 82.1468C81.4189 94.3099 84.3858 106.299 85.4442 111.692C85.7327 113.162 85.5227 112.1 85.8893 114C86.256 115.9 85.056 117.054 83.7227 117.527C82.3893 118 80.0627 117.933 80.0627 117.933V120.78C80.0627 120.78 83.1608 121.152 85.146 121.39C87.1312 121.628 88.3893 122 90.2293 122C92.0693 122 92.3893 121.5 93.076 120.373C93.5211 119.643 93.8893 118.5 93.8893 118.5" stroke="#FF570F" stroke-width="1.4"/>
<rect x="-0.838431" y="0.526339" width="11.6811" height="45.3885" rx="5.84057" transform="matrix(-0.974836 -0.222923 -0.222923 0.974836 79.5783 57.0273)" fill="white" stroke="#FF570F" stroke-width="1.4"/>
<circle r="5.8" transform="matrix(-1 0 0 1 64.8893 45.5)" stroke="#FF570F" stroke-width="1.4"/>
</svg>
