<svg width="195" height="145" viewBox="0 0 195 145" fill="none" xmlns="http://www.w3.org/2000/svg">
<path d="M98.5068 20.6641L98.5068 63.5271L95.9068 63.5271L95.9068 20.6641L98.5068 20.6641Z" stroke="#FF570F" stroke-width="1.4"/>
<path d="M107.442 69.6255L107.428 69.6255L107.413 69.6261L104.891 69.7358L104.249 69.7637L104.249 70.4059L104.249 80.276L104.249 80.9468L104.92 80.9468L105.578 80.9468C107.182 80.9468 108.417 82.1818 108.417 83.7854L108.417 129.188C108.417 133.423 104.988 136.852 100.753 136.852L93.734 136.852C89.4985 136.852 86.0701 133.423 86.0701 129.188L86.0701 129.186L85.9604 83.6757C85.9604 83.6755 85.9604 83.6753 85.9604 83.6752C85.9607 82.0719 87.1956 80.8371 88.799 80.8371L89.457 80.8371L90.1278 80.8371L90.1278 80.1663L90.1278 70.2963L90.1278 69.6255L89.457 69.6255L87.0443 69.6255C86.8238 69.6255 86.5472 69.5085 86.3123 69.2736C86.0775 69.0387 85.9604 68.7621 85.9604 68.5416L85.9604 67.0062C85.9604 66.7857 86.0775 66.5091 86.3123 66.2742C86.5472 66.0394 86.8238 65.9223 87.0443 65.9223L95.1597 65.9224L99.3271 65.9224L107.442 65.9223C107.663 65.9223 107.94 66.0394 108.174 66.2742C108.409 66.5091 108.526 66.7857 108.526 67.0062L108.526 68.5416C108.526 68.7621 108.409 69.0387 108.174 69.2736C107.94 69.5085 107.663 69.6255 107.442 69.6255ZM92.5277 84.9789L92.5054 84.9789L92.4831 84.9804L90.8929 85.0864C89.4701 84.9651 88.4572 86.1144 88.4572 87.5141L88.4572 127.399C88.3208 128.834 89.4752 129.859 90.8827 129.859L92.418 129.859C93.1271 129.859 93.7693 129.608 94.2358 129.141C94.7023 128.675 94.9532 128.032 94.9532 127.323L94.9532 87.4386C95.0896 86.0032 93.9352 84.9789 92.5277 84.9789ZM106.03 87.5159L106.03 87.5141C106.03 86.805 105.779 86.1628 105.312 85.6963C104.846 85.2298 104.203 84.9789 103.494 84.9789L101.993 84.9789C100.558 84.8425 99.5336 85.9969 99.5336 87.4044L99.5336 127.289C99.3972 128.725 100.552 129.749 101.959 129.749L103.46 129.749C104.895 129.885 105.92 128.731 105.92 127.324C105.92 127.324 105.92 127.324 105.92 127.323L106.03 87.5159Z" stroke="#FF570F" stroke-width="1.4"/>
<path d="M101.459 14.4484L98.9733 18.0817L95.5135 18.0817L93.0276 14.4484L95.6948 2.75386L98.7921 2.75386L101.459 14.4484Z" stroke="#FF570F" stroke-width="1.4"/>
<path d="M150.16 66.1592H129.16C126.398 66.1592 124.16 68.3978 124.16 71.1592V137.159" stroke="#FF570F" stroke-width="1.4"/>
</svg>
