<svg width="100" height="91" viewBox="0 0 100 91" fill="none" xmlns="http://www.w3.org/2000/svg">
<path d="M99.3 23.3L99.3 15.7L96.7 15.7L96.7 23.3L99.3 23.3Z" stroke="#FF570F" stroke-width="1.4"/>
<path d="M96.3 21.3L96.3 17.7L90.2 17.7L90.2 21.3L96.3 21.3Z" stroke="#FF570F" stroke-width="1.4"/>
<path d="M85.5756 25.779L90.0671 23.6736L90.0672 17.3064L90.0672 14.7932L85.5756 12.5474L85.5756 25.779Z" stroke="#FF570F" stroke-width="1.4"/>
<path d="M82.8869 26.1802L82.8869 12.1148L77.4747 12.1148L77.4747 26.1802L82.8869 26.1802Z" stroke="#FF570F" stroke-width="1.4"/>
<path d="M75.1541 26.1802L75.1541 12.1148L69.1896 12.1148L69.1896 26.1802L75.1541 26.1802Z" stroke="#FF570F" stroke-width="1.4"/>
<path d="M37.0065 37.5953L54.9594 37.5953L66.8691 26.5744L66.8691 11.7209L54.9594 0.699999L8.10093 0.699996C4.8178 0.699996 2.1729 3.31976 2.1729 6.81214L2.17289 31.6673C2.17289 34.988 4.82995 37.7794 8.10092 37.7794L12.0037 37.7794L12.0037 37.5953L12.7037 37.5953L37.0065 37.5953ZM11.5234 12.5561L12.2234 12.5561L12.2234 13.2561L12.2234 25.0392L12.2234 25.7392L11.5234 25.7392L8.28505 25.7392C7.87328 25.7392 7.52009 25.5404 7.28376 25.3041C7.04744 25.0677 6.8486 24.7146 6.8486 24.3028L6.8486 13.9925C6.8486 13.5807 7.04744 13.2275 7.28377 12.9912C7.52009 12.7549 7.87328 12.5561 8.28505 12.5561L11.5234 12.5561ZM18.1072 12.5561L18.8072 12.5561L18.8072 13.2561L18.8072 25.0392L18.8072 25.7392L18.1072 25.7392L13.5446 25.7392L12.8446 25.7392L12.8446 25.0392L12.8446 13.2561L12.8446 12.5561L13.5446 12.5561L18.1072 12.5561ZM24.3028 12.5561L25.0028 12.5561L25.0028 13.2561L25.0028 25.0392L25.0028 25.7392L24.3028 25.7392L20.2902 25.7392L19.5902 25.7392L19.5902 25.0392L19.5902 13.2561L19.5902 12.5561L20.2902 12.5561L24.3028 12.5561Z" stroke="#FF570F" stroke-width="1.4"/>
<path d="M3.98806 73.2812L3.84483 73.7924L3.31402 73.7924C2.06881 73.7924 0.867225 74.931 0.700004 76.2634L0.700004 78.6522L3.31402 78.6522L25.4074 78.6522L33.3607 78.6522L33.3607 76.2223C33.3607 74.9519 32.2012 73.7924 30.9308 73.7924C28.5778 73.7924 27.0112 71.459 27.6812 69.2142L35.8959 40.284L13.2345 40.284L3.98806 73.2812Z" stroke="#FF570F" stroke-width="1.4"/>
<path d="M33.5448 83.9548L33.5448 81.525L25.5915 81.525L3.68215 81.5249L1.06814 81.5249L1.06814 83.9548C1.06814 87.2756 3.72519 90.067 6.99617 90.067L27.6167 90.067C30.8998 90.067 33.5448 87.4472 33.5448 83.9548Z" stroke="#FF570F" stroke-width="1.4"/>
</svg>
