<svg width="63" height="142" viewBox="0 0 63 142" fill="none" xmlns="http://www.w3.org/2000/svg">
<path d="M56.0313 74.5166C56.3937 74.3991 56.6259 74.2389 56.7683 74.0377L56.7683 73.9524L56.8091 73.8382L58.3456 69.5352L58.4744 69.1746L58.8475 69.0885L62.2336 68.307L61.7608 64.1697L58.5439 64.1697L58.2107 64.1697L58.0006 63.9111L56.026 61.4804C55.8718 61.3268 55.6241 61.0875 55.3135 60.8952C54.9856 60.6922 54.6591 60.5863 54.3519 60.6265L53.3732 60.8044L56.0313 74.5166ZM9.76344 96.2616L9.76179 96.2814L9.75901 96.3011L3.41775 141.3L3.53414 141.3L7.22195 141.3L7.26139 141.3L9.76206 128.648L9.85395 128.183L10.3198 128.096L17.6954 126.712L17.7103 126.71L17.7254 126.707C18.4717 126.601 19.0399 126.083 19.2907 125.251L21.5885 110.236L21.6825 109.622L22.3031 109.642L27.0542 109.796C27.9331 109.789 28.9969 108.977 29.1132 107.813L29.1166 107.779L29.1233 107.746C29.2229 107.248 29.032 106.681 28.6351 106.152C28.4629 105.922 28.2266 105.714 27.9758 105.567C27.7184 105.415 27.4956 105.356 27.3512 105.356L27.3142 105.356L27.2774 105.352L17.1359 104.276L16.4074 104.199L16.5177 103.475L18.9763 87.3383L19.0527 86.8367L19.5532 86.7532L25.4847 85.7645L26.0409 80.7582L26.0995 80.23L26.6241 80.1446L33.2314 79.0688L33.7782 78.9798L33.9905 79.4915L39.9797 93.9292C41.1068 96.458 43.4786 98.116 46.2512 98.116L49.3244 98.116L49.3262 98.116L49.328 98.116L49.3298 98.116L49.3316 98.116L49.3333 98.116L49.3351 98.116L49.3369 98.116L49.3387 98.116L49.3405 98.116L49.3422 98.116L49.344 98.116L49.3457 98.116L49.3475 98.116L49.3493 98.116L49.351 98.116L49.3528 98.116L49.3545 98.116L49.3562 98.116L49.358 98.116L49.3597 98.116L49.3614 98.116L49.3632 98.116L49.3649 98.116L49.3666 98.116L49.3683 98.116L49.3701 98.116L49.3718 98.116L49.3735 98.116L49.3752 98.116L49.3769 98.116L49.3786 98.116L49.3803 98.116L49.382 98.116L49.3837 98.116L49.3854 98.116L49.387 98.116L49.3887 98.116L49.3904 98.116L49.3921 98.116L49.3937 98.116L49.3954 98.116L49.3971 98.116L49.3987 98.116L49.4004 98.116L49.4021 98.116L49.4037 98.116L49.4054 98.116L49.407 98.116L49.4087 98.116L49.4103 98.116L49.4119 98.116L49.4136 98.116L49.4152 98.116L49.4169 98.116L49.4185 98.116L49.4201 98.116L49.4217 98.116L49.4234 98.116L49.425 98.116L49.4266 98.116L49.4282 98.116L49.4298 98.116L49.4314 98.116L49.433 98.116L49.4346 98.116L49.4362 98.116L49.4378 98.116L49.4394 98.116L49.441 98.116L49.4426 98.116L49.4442 98.116L49.4458 98.116L49.4474 98.116L49.4489 98.116L49.4505 98.116L49.4521 98.116L49.4537 98.116L49.4552 98.116L49.4568 98.116L49.4584 98.116L49.4599 98.116L49.4615 98.116L49.463 98.116L49.4646 98.116L49.4661 98.116L49.4677 98.116L49.4692 98.116L49.4708 98.116L49.4723 98.116L49.4739 98.116L49.4754 98.116L49.4769 98.116L49.4785 98.116L49.48 98.116L49.4815 98.116L49.4831 98.116L49.4846 98.116L49.4861 98.116L49.4876 98.116L49.4892 98.116L49.4907 98.116L49.4922 98.116L49.4937 98.116L49.4952 98.116L49.4967 98.116L49.4982 98.116L49.4997 98.116L49.5012 98.116L49.5027 98.116L49.5042 98.116L49.5057 98.116L49.5072 98.116L49.5087 98.116L49.5102 98.116L49.5117 98.116L49.5132 98.116L49.5147 98.116L49.5161 98.116L49.5176 98.116L49.5191 98.116L49.5206 98.116L49.5221 98.116L49.5235 98.116L49.525 98.116L49.5265 98.116L49.5279 98.116L49.5294 98.116L49.5309 98.116L49.5323 98.116L49.5338 98.116L49.5352 98.116L49.5367 98.116L49.5382 98.116L49.5396 98.116L49.5411 98.116L49.5425 98.116L49.544 98.116L49.5454 98.116L49.5469 98.116L49.5483 98.116L49.5497 98.116L49.5512 98.116L49.5526 98.116L49.5541 98.116L49.5555 98.116L49.5569 98.116L49.5584 98.116L49.5598 98.116L49.5612 98.116L49.5626 98.116L49.5641 98.116L49.5655 98.116L49.5669 98.116L49.5683 98.116L49.5698 98.116L49.5712 98.116L49.5726 98.116L49.574 98.116L49.5754 98.116L49.5769 98.116L49.5783 98.116L49.5797 98.116L49.5811 98.116L49.5825 98.116L49.5839 98.116L49.5853 98.116L49.5867 98.116L49.5881 98.116L49.5895 98.116L49.5909 98.116L49.5923 98.116L49.5937 98.116L49.5951 98.116L49.5965 98.116L49.5979 98.116L49.5993 98.116L49.6007 98.116L49.6021 98.116L49.6035 98.116L49.6049 98.116L49.6063 98.116L49.6077 98.116L49.6091 98.116L49.6104 98.116L49.6118 98.116L49.6132 98.116L49.6146 98.116L49.616 98.116L49.6174 98.116L49.6187 98.116L49.6201 98.116L49.6215 98.116L49.6229 98.116L49.6243 98.116L49.6256 98.116L49.627 98.116L49.6284 98.116L49.6298 98.116L49.6311 98.116L49.6325 98.116L49.6339 98.116L49.6352 98.116L49.6366 98.116L49.638 98.116L49.6394 98.116L49.6407 98.116L49.6421 98.116L49.6435 98.116L49.6448 98.116L49.6462 98.116L49.6475 98.116L49.6489 98.116L49.6503 98.116L49.6516 98.116L49.653 98.116L49.6544 98.116L49.6557 98.116L49.6571 98.116L49.6584 98.116L49.6598 98.116L49.6612 98.116L49.6625 98.116L49.6639 98.116L49.6652 98.116L49.6666 98.116L49.668 98.116L49.6693 98.116L49.6707 98.116L49.672 98.116L49.6734 98.116L49.6747 98.116L49.6761 98.116L49.6774 98.116L49.6788 98.116L49.6801 98.116L49.6815 98.116L49.6829 98.116L49.6842 98.116L49.6856 98.116L49.6869 98.116L49.6883 98.116L49.6896 98.116L49.691 98.116L49.6923 98.116L49.6937 98.116L49.695 98.116L49.6964 98.116L49.6977 98.116L49.6991 98.116L49.7004 98.116L49.7018 98.116L49.7031 98.116L49.7045 98.116L49.7058 98.116L49.7072 98.116L49.7085 98.116L49.7099 98.116L49.7112 98.116L49.7126 98.116L49.7139 98.116L49.7153 98.116L49.7166 98.116L49.718 98.116L49.7193 98.116L49.7207 98.116L49.722 98.116L49.7234 98.116L49.7247 98.116L49.7261 98.116L49.7274 98.116L49.7288 98.116L49.7301 98.116L49.7315 98.116L49.7329 98.116L49.7342 98.116L49.7356 98.116L49.7369 98.116L49.7383 98.116L49.7396 98.116L49.741 98.116L49.7423 98.116L49.7437 98.116L49.745 98.116L49.7464 98.116L49.7478 98.116L49.7491 98.116L49.7505 98.116L49.7518 98.116L49.7532 98.116L49.7545 98.116L49.7559 98.116L49.7573 98.116L49.7586 98.116L49.76 98.116L49.7613 98.116L49.7627 98.116L49.7641 98.116L49.7654 98.116L49.7668 98.116L49.7681 98.116L49.7695 98.116L49.7709 98.116L49.7722 98.116L49.7736 98.116L49.775 98.116L49.7763 98.116L49.7777 98.116L49.7791 98.116L49.7804 98.116L49.7818 98.116L49.7832 98.116L49.7846 98.116L49.7859 98.116L49.7873 98.116L49.7887 98.116L49.7901 98.116L49.7914 98.116L49.7928 98.116L49.7942 98.116L49.7956 98.116L49.7969 98.116L49.7983 98.116L49.7997 98.116L49.8011 98.116L49.8025 98.116L49.8039 98.116L49.8052 98.116L49.8066 98.116L49.808 98.116L49.8094 98.116L49.8108 98.116L49.8122 98.116L49.8136 98.116L49.815 98.116L49.8163 98.116L49.8177 98.116L49.8191 98.116L49.8205 98.116L49.8219 98.116L49.8233 98.116L49.8247 98.116L49.8261 98.116L49.8275 98.116L49.8289 98.116L49.8303 98.116L49.8317 98.116L49.8332 98.116L49.8346 98.116L49.836 98.116L49.8374 98.116L49.8388 98.116L49.8402 98.116L49.8416 98.116L49.843 98.116L49.8445 98.116L49.8459 98.116L49.8473 98.116L49.8487 98.116L49.8501 98.116L49.8516 98.116L49.853 98.116L49.8544 98.116L49.8558 98.116L49.8573 98.116L49.8587 98.116L49.8601 98.116L49.8616 98.116L49.863 98.116L49.8644 98.116L49.8659 98.116L49.8673 98.116L49.8688 98.116L49.8702 98.116L49.8717 98.116L49.8731 98.116L49.8745 98.116L49.876 98.116L49.8775 98.116L49.8789 98.116L49.8804 98.116L49.8818 98.116L49.8833 98.116L49.8847 98.116L49.8862 98.116L49.8877 98.116L49.8891 98.116L49.8906 98.116L49.8921 98.116L49.8935 98.116L49.895 98.116L49.8965 98.116L49.898 98.116L49.8994 98.116L49.9009 98.116L49.9024 98.116L49.9039 98.116L49.9054 98.116L49.9069 98.116L49.9083 98.116L49.9098 98.116L49.9113 98.116L49.9128 98.116L49.9143 98.116L49.9158 98.116L49.9173 98.116L49.9188 98.116L49.9203 98.116L49.9219 98.116L49.9234 98.116L49.9249 98.116L49.9264 98.116L49.9279 98.116L49.9294 98.116L49.9309 98.116L49.9325 98.116L49.934 98.116L49.9355 98.116L49.937 98.116L49.9386 98.116L49.9401 98.116L49.9417 98.116L49.9432 98.116L49.9447 98.116L49.9463 98.116L49.9478 98.116L49.9494 98.116L49.9509 98.116L49.9525 98.116L49.954 98.116L49.9556 98.116L49.9571 98.116L49.9587 98.116L49.9603 98.116L49.9618 98.116L49.9634 98.116L49.965 98.116L49.9666 98.116L49.9681 98.116L49.9697 98.116L49.9713 98.116L49.9729 98.116L49.9745 98.116L49.976 98.116L49.9776 98.116L49.9792 98.116L49.9808 98.116L49.9824 98.116L49.984 98.116L49.9856 98.116L49.9872 98.116L49.9889 98.116L49.9905 98.116L49.9921 98.116L49.9937 98.116L49.9953 98.116L49.997 98.116L49.9986 98.116L50.0002 98.116L50.0018 98.116L50.0035 98.116L50.0051 98.116L50.0068 98.116L50.0084 98.116L50.01 98.116L50.0117 98.116L50.0133 98.116L50.015 98.116L50.0167 98.116L50.0183 98.116L50.02 98.116L50.0216 98.116L50.0233 98.116L50.025 98.116L50.0267 98.116L50.0283 98.116L50.03 98.116L50.0317 98.116L50.0334 98.116L50.0351 98.116L50.0368 98.116L50.0372 98.116C50.8547 97.9804 51.1878 97.6831 51.339 97.4612C51.5089 97.212 51.5439 96.9216 51.5439 96.6645C51.5439 96.3571 51.4798 95.9741 51.2277 95.674C50.9949 95.3968 50.4903 95.0593 49.3244 95.0593L46.2512 95.0593C45.9455 95.0593 45.6848 94.9351 45.4931 94.8072C45.2956 94.6755 45.1155 94.503 44.9561 94.3208C44.6366 93.9555 44.3366 93.4782 44.0885 92.9818L44.0758 92.9564L44.0652 92.93L38.3798 78.7915L38.0646 78.0075L38.8935 77.8436L51.4253 75.366L48.7646 61.5005L46.5141 61.8559L45.9283 61.9484L45.7408 61.3858C45.7041 61.2758 45.6537 61.1356 45.5936 60.9683C45.429 60.5106 45.1917 59.8502 44.9635 59.0516L44.7794 58.4072L45.4152 58.1952L46.1451 57.9519L43.7396 50.3097L43.6377 49.986L43.8288 49.7055L50.8589 39.3833L43.491 16.245L15.0167 25.1994L22.3878 48.3476L33.6113 52.9873L33.9134 53.1122L34.0116 53.424L36.4259 61.0939L37.6302 60.7928L38.2362 60.6413L38.4554 61.2261L38.9164 62.4555L39.2089 63.2357L38.39 63.3893L33.4729 64.3114L32.9701 64.4057L32.7276 63.9552L28.4569 56.0229C27.9411 55.4056 27.2817 55.1611 26.8739 55.2427L26.8427 55.2489L26.8112 55.2523L26.7366 54.5563L26.8111 55.2523L26.811 55.2523L26.8105 55.2524L26.8082 55.2526L26.7991 55.2536L26.7631 55.2575L26.6244 55.2725C26.504 55.2857 26.3299 55.3048 26.1157 55.3288C25.6871 55.3767 25.0983 55.4437 24.4571 55.5203C23.1666 55.6744 21.6897 55.8642 20.8691 56.0134L20.8611 56.0148L20.8531 56.0161C19.4687 56.2347 18.5633 56.6238 17.9419 57.1337C17.3398 57.6278 16.9444 58.2847 16.6657 59.1669C16.6614 59.1914 16.6576 59.2079 16.6567 59.212C16.6488 59.249 16.6386 59.2915 16.6287 59.3323C16.6223 59.3584 16.6155 59.3857 16.6084 59.4145C16.5916 59.4824 16.5727 59.5589 16.5513 59.6494C16.4916 59.9021 16.4197 60.2353 16.3661 60.6103C16.2581 61.3667 16.2377 62.2087 16.4707 62.8838C16.6973 63.3083 17.0904 63.5381 17.3634 63.5381C17.7635 63.5381 18.0259 63.3625 18.2565 63.0098C18.5119 62.6192 18.6818 62.071 18.8355 61.4558L18.8395 61.44L18.8442 61.4244C19.1385 60.4433 19.7204 59.9315 20.3828 59.6831C20.6872 59.5689 20.9888 59.5174 21.2358 59.4839C21.3392 59.4699 21.4255 59.4596 21.5017 59.4506C21.6317 59.4351 21.7319 59.4231 21.8359 59.4023L21.8657 59.3964L21.8959 59.393C22.7664 59.2963 23.3857 59.5369 23.7937 59.979C23.979 60.1798 24.0926 60.3929 24.1666 60.5564C24.2015 60.6335 24.2303 60.7058 24.2508 60.7575L24.2538 60.765C24.265 60.793 24.2728 60.8126 24.2798 60.8292C24.2863 60.8448 24.2893 60.8509 24.2895 60.8515L24.2895 60.8515L24.309 60.8905L24.3235 60.9316L25.2322 63.5064C25.428 63.9174 25.4904 64.3437 25.3598 64.75C25.2285 65.1588 24.9393 65.4289 24.6711 65.5983C24.1943 65.8995 23.6034 66.0004 23.2701 66.0126L12.3266 67.9097L11.9142 72.4465L11.8627 73.0133L11.2973 73.0785L7.30221 73.5395L6.77069 73.6009L6.57201 73.1041C6.38061 72.6255 5.91355 72.2007 5.01816 72.3076C4.65908 72.3696 4.31604 72.5143 4.06757 72.7628C3.83091 72.9995 3.61952 73.3897 3.61952 74.0736L3.61952 77.1472C3.61952 77.9901 4.38182 78.7524 5.2244 78.7524C6.02369 78.7524 6.74145 78.1733 6.83631 77.5092L6.91191 76.98L7.44244 76.9136L11.1302 76.4526L12.0233 76.3409L11.9117 77.234L11.4507 80.9223L11.3814 81.4764L10.8258 81.532L0.700005 82.5447L0.700004 89.5039L7.23112 91.066L7.2734 91.0761L7.31411 91.0913C8.18699 91.4187 8.82973 92.2767 9.22597 93.1735C9.63379 94.0967 9.85086 95.2124 9.76344 96.2616ZM10.1346 22.174L45.2249 11.0679L42.101 0.879686L6.87364 11.9823L10.1346 22.174ZM25.4219 71.9221C25.4219 70.5688 26.5498 69.6853 27.6585 69.6853C29.0119 69.6853 29.8951 70.8134 29.8951 71.9221C29.8951 72.5339 29.5963 73.0872 29.2099 73.4736C28.8236 73.86 28.2704 74.1589 27.6585 74.1589C26.5498 74.1589 25.4219 73.2754 25.4219 71.9221ZM17.1244 79.9134C17.1244 78.4511 18.206 77.3693 19.6683 77.3693C21.1306 77.3693 22.2122 78.4511 22.2122 79.9134C22.2122 81.3757 21.1306 82.4576 19.6683 82.4576C18.206 82.4576 17.1244 81.3757 17.1244 79.9134Z" stroke="#FF570F" stroke-width="1.4"/>
</svg>
