<svg width="66" height="138" viewBox="0 0 66 138" fill="none" xmlns="http://www.w3.org/2000/svg">
<path d="M4.73339 102.066L3.80006 18.0667L11.8 18.0667L10.8667 102.066L4.73339 102.066Z" stroke="#FF570F" stroke-width="1.4" stroke-miterlimit="10"/>
<path d="M12.6 111.533L12.6 102.067L3.13333 102.067L3.13333 111.533L12.6 111.533Z" stroke="#FF570F" stroke-width="1.4" stroke-miterlimit="10"/>
<path d="M3.9334 135.8L3.9334 111.667L11.8 111.667L11.8 135.8C10.8667 136.066 9.53339 136.466 7.93339 136.466C6.20006 136.466 4.73339 136.066 3.9334 135.8Z" stroke="#FF570F" stroke-width="1.4" stroke-miterlimit="10"/>
<path d="M1 18.0666L1 5.13332C2.33333 2.6 4.99999 1 7.93332 1C10.7333 1 13.2666 2.6 14.6 5.13333C14.6 9.39998 14.6 13.8 14.6 18.0666L1 18.0666Z" stroke="#FF570F" stroke-width="1.4" stroke-miterlimit="10"/>
<path d="M4.06679 7.93328C4.06679 9.99514 5.73826 11.6666 7.80012 11.6666C9.86198 11.6666 11.5334 9.99514 11.5334 7.93328C11.5334 5.87142 9.86198 4.19995 7.80012 4.19995C5.73826 4.19995 4.06679 5.87142 4.06679 7.93328Z" stroke="#FF570F" stroke-width="1.4" stroke-miterlimit="10"/>
<path d="M11.8 128.6L3.9334 128.6" stroke="#FF570F" stroke-width="1.4" stroke-miterlimit="10"/>
<path d="M12.6 106.866L3.13333 106.866" stroke="#FF570F" stroke-width="1.4" stroke-miterlimit="10"/>
<path d="M11.8 132.333L3.80006 132.333" stroke="#FF570F" stroke-width="1.4" stroke-miterlimit="10"/>
<path d="M29.7334 102.066L28.8001 18.0667L36.8 18.0667L35.8667 102.066L29.7334 102.066Z" stroke="#FF570F" stroke-width="1.4" stroke-miterlimit="10"/>
<path d="M37.6 111.533L37.6 102.067L28.1333 102.067L28.1333 111.533L37.6 111.533Z" stroke="#FF570F" stroke-width="1.4" stroke-miterlimit="10"/>
<path d="M28.9334 135.8L28.9334 111.667L36.8 111.667L36.8 135.8C35.8667 136.066 34.5334 136.466 32.9334 136.466C31.2001 136.466 29.7334 136.066 28.9334 135.8Z" stroke="#FF570F" stroke-width="1.4" stroke-miterlimit="10"/>
<path d="M26 18.0666L26 5.13332C27.3333 2.6 30 1 32.9333 1C35.7333 1 38.2666 2.6 39.6 5.13333C39.6 9.39998 39.6 13.8 39.6 18.0666L26 18.0666Z" stroke="#FF570F" stroke-width="1.4" stroke-miterlimit="10"/>
<path d="M29.0668 7.93328C29.0668 9.99514 30.7383 11.6666 32.8001 11.6666C34.862 11.6666 36.5334 9.99514 36.5334 7.93328C36.5334 5.87142 34.862 4.19995 32.8001 4.19995C30.7383 4.19995 29.0668 5.87142 29.0668 7.93328Z" stroke="#FF570F" stroke-width="1.4" stroke-miterlimit="10"/>
<path d="M36.8 128.6L28.9334 128.6" stroke="#FF570F" stroke-width="1.4" stroke-miterlimit="10"/>
<path d="M37.6 106.866L28.1333 106.866" stroke="#FF570F" stroke-width="1.4" stroke-miterlimit="10"/>
<path d="M36.8 132.333L28.8001 132.333" stroke="#FF570F" stroke-width="1.4" stroke-miterlimit="10"/>
<path d="M54.7334 102.066L53.8001 18.0667L61.8 18.0667L60.8667 102.066L54.7334 102.066Z" stroke="#FF570F" stroke-width="1.4" stroke-miterlimit="10"/>
<path d="M62.6 111.533L62.6 102.067L53.1333 102.067L53.1333 111.533L62.6 111.533Z" stroke="#FF570F" stroke-width="1.4" stroke-miterlimit="10"/>
<path d="M53.9334 135.8L53.9334 111.667L61.8 111.667L61.8 135.8C60.8667 136.066 59.5334 136.466 57.9334 136.466C56.2001 136.466 54.7334 136.066 53.9334 135.8Z" stroke="#FF570F" stroke-width="1.4" stroke-miterlimit="10"/>
<path d="M51 18.0666L51 5.13332C52.3333 2.6 55 1 57.9333 1C60.7333 1 63.2666 2.6 64.6 5.13333C64.6 9.39998 64.6 13.8 64.6 18.0666L51 18.0666Z" stroke="#FF570F" stroke-width="1.4" stroke-miterlimit="10"/>
<path d="M54.0668 7.93328C54.0668 9.99514 55.7383 11.6666 57.8001 11.6666C59.862 11.6666 61.5334 9.99514 61.5334 7.93328C61.5334 5.87142 59.862 4.19995 57.8001 4.19995C55.7383 4.19995 54.0668 5.87142 54.0668 7.93328Z" stroke="#FF570F" stroke-width="1.4" stroke-miterlimit="10"/>
<path d="M61.8 128.6L53.9334 128.6" stroke="#FF570F" stroke-width="1.4" stroke-miterlimit="10"/>
<path d="M62.6 106.866L53.1333 106.866" stroke="#FF570F" stroke-width="1.4" stroke-miterlimit="10"/>
<path d="M61.8 132.333L53.8001 132.333" stroke="#FF570F" stroke-width="1.4" stroke-miterlimit="10"/>
</svg>
