<svg width="140" height="75" viewBox="0 0 140 75" fill="none" xmlns="http://www.w3.org/2000/svg">
<path d="M96.7289 39.9371L122.009 14.6364L125.342 17.75L101.214 41.8975L99.0543 40.9367C99.0338 40.9264 99.0132 40.9161 98.9925 40.9058C98.2989 40.5584 97.5323 40.1746 96.7289 39.9371Z" stroke="#FF570F" stroke-width="1.4"/>
<path d="M124.507 9.11042L124.315 9.30248L124.752 9.73853L124.78 9.76637C124.778 9.75186 124.777 9.73499 124.774 9.71616C124.755 9.57146 124.696 9.31076 124.507 9.11042ZM134.857 1.07632L138.924 5.14609C139.183 5.40553 139.296 5.86433 138.872 6.53384L130.27 15.1435L124.869 9.73853L124.994 9.6133L125.845 8.76164L128.732 5.87284L133.472 1.12805C134.141 0.703806 134.599 0.817261 134.857 1.07632Z" stroke="#FF570F" stroke-width="1.4"/>
<path d="M51.0064 14.5936C49.4303 13.0309 47.2341 12.0907 45.0206 12.0907C43.9111 12.0907 42.7207 12.3274 41.6773 12.8093C40.6671 13.2759 39.7493 13.9952 39.2143 15.0009L36.3356 18.1036L33.4716 8.54888H55.4051L53.0737 16.2488L51.0064 14.5936Z" stroke="#FF570F" stroke-width="1.4"/>
<path d="M57.1972 3.44409L57.0956 3.49494L57.0152 3.57532C56.944 3.64659 56.8053 3.74584 56.6173 3.82648C56.4323 3.90583 56.2359 3.95148 56.0581 3.95148H32.2407C31.8429 3.95148 31.5277 3.80652 31.3066 3.56309C31.0818 3.31559 30.9075 2.91302 30.9075 2.3259C30.9075 2.14772 30.9532 1.95097 31.0325 1.76569C31.1132 1.57741 31.2124 1.43846 31.2836 1.36718C31.3548 1.29591 31.4936 1.19666 31.6816 1.11602C31.8666 1.03667 32.063 0.991016 32.2407 0.991016H56.0581C56.3913 0.991016 56.7146 1.15593 56.9725 1.46567C57.2334 1.77903 57.3913 2.20282 57.3913 2.6166C57.3913 2.93137 57.3862 3.11789 57.3456 3.26019C57.3288 3.31907 57.3102 3.35124 57.2948 3.3709C57.281 3.38861 57.2554 3.41497 57.1972 3.44409Z" stroke="#FF570F" stroke-width="1.4"/>
<path d="M47.1397 18.518L47.1476 18.5259L47.1557 18.5335L69.3939 39.4162H49.0764L37.6608 28.5624L37.6443 28.5467L37.6268 28.5322C36.2074 27.3483 36.2149 25.5012 37.3832 24.3319L37.3895 24.3256L37.3957 24.3191L42.9079 18.512C44.0872 17.3381 45.9629 17.3402 47.1397 18.518ZM48.0445 26.1628C48.0445 24.6725 46.9163 23.1372 45.0208 23.1372C43.5304 23.1372 41.9972 24.2671 41.9972 26.1628C41.9972 27.653 43.1253 29.1883 45.0208 29.1883C46.9163 29.1883 48.0445 27.653 48.0445 26.1628Z" stroke="#FF570F" stroke-width="1.4"/>
<path d="M96.3334 45.9315L96.373 45.9579L96.4159 45.9788L115.558 55.2842C111.923 57.6456 109.658 61.8628 109.384 66.5291L109.383 66.5496V66.5701C109.383 67.531 109.564 68.6506 109.781 69.6492H21.8038C22.0158 68.7332 22.1937 67.7403 22.1937 66.5701C22.1937 61.8283 19.9048 57.8494 16.5001 55.3324L35.7 45.999C36.5303 45.7252 37.5927 45.4678 38.6306 45.4678H93.5269C94.7492 45.4678 95.6727 45.4907 96.3334 45.9315ZM35.607 54.6515C35.607 56.4448 37.037 58.2585 39.2115 58.2585C40.2306 58.2585 41.2097 57.9193 41.9041 57.2706C42.6033 56.6175 42.9783 55.6788 42.8156 54.5935C42.7851 52.8194 41.3626 51.0446 39.2115 51.0446C37.4183 51.0446 35.607 52.4766 35.607 54.6515ZM89.3414 54.6515C89.3414 56.4448 90.7714 58.2585 92.946 58.2585C93.965 58.2585 94.9441 57.9193 95.6385 57.2706C96.3378 56.6175 96.7128 55.6787 96.55 54.5935C96.5196 52.8193 95.0971 51.0446 92.946 51.0446C91.1528 51.0446 89.3414 52.4766 89.3414 54.6515Z" stroke="#FF570F" stroke-width="1.4"/>
<path d="M115.43 66.2793C115.43 61.7235 118.893 58.2583 123.444 58.2583C127.98 58.2583 131.458 61.9989 131.458 66.2793C131.458 70.8351 127.995 74.3002 123.444 74.3002C118.893 74.3002 115.43 70.8351 115.43 66.2793ZM120.13 66.2793C120.13 68.1188 121.605 69.5956 123.444 69.5956C124.306 69.5956 125.128 69.3369 125.748 68.812C126.379 68.2773 126.758 67.4995 126.758 66.57C126.758 64.7304 125.283 63.2537 123.444 63.2537C122.583 63.2537 121.76 63.5124 121.14 64.0372C120.509 64.5719 120.13 65.3498 120.13 66.2793Z" stroke="#FF570F" stroke-width="1.4"/>
<path d="M0.7 66.2793C0.7 61.7235 4.16308 58.2583 8.71369 58.2583C13.2492 58.2583 16.7274 61.9989 16.7274 66.2793C16.7274 70.8351 13.2643 74.3002 8.71369 74.3002C4.16308 74.3002 0.7 70.8351 0.7 66.2793ZM5.39958 66.2793C5.39958 68.1188 6.87426 69.5956 8.71369 69.5956C9.57518 69.5956 10.398 69.3369 11.0177 68.812C11.6491 68.2773 12.0278 67.4995 12.0278 66.57C12.0278 64.7304 10.5531 63.2537 8.71369 63.2537C7.85221 63.2537 7.02943 63.5124 6.40965 64.0372C5.77828 64.5719 5.39958 65.3498 5.39958 66.2793Z" stroke="#FF570F" stroke-width="1.4"/>
</svg>
