<svg width="93" height="120" viewBox="0 0 93 120" fill="none" xmlns="http://www.w3.org/2000/svg">
<mask id="mask0" mask-type="alpha" maskUnits="userSpaceOnUse" x="0" y="0" width="93" height="120">
<rect width="93" height="120" fill="#C4C4C4"/>
</mask>
<g mask="url(#mask0)">
<rect x="90.6257" y="36.4144" width="82.8858" height="3.6" transform="rotate(90 90.6257 36.4144)" stroke="#FF570F" stroke-width="1.4"/>
<path d="M92.6257 13.7L92.6257 32.8348L90.8931 36.3L86.7583 36.3L85.0257 32.8348L85.0257 13.7L92.6257 13.7Z" stroke="#FF570F" stroke-width="1.4"/>
<path d="M32.218 25.7417L27.4973 25.7417L27.4973 48.676L27.4973 118.712C27.4973 118.918 27.6074 119.182 27.8344 119.409C28.0614 119.636 28.3259 119.746 28.5319 119.746L35.9041 119.746C36.1101 119.746 36.3747 119.636 36.6017 119.409C36.8287 119.182 36.9387 118.918 36.9387 118.712L36.9387 48.676L36.9387 25.7417L32.218 25.7417Z" stroke="#FF570F" stroke-width="1.4"/>
<path d="M15.8954 4.50479L15.8969 4.52805L15.8969 4.55136V9.97207L15.8969 16.2601L15.8969 17.8013L20.8003 20.5472L26.6888 20.5472H32.1027L37.625 20.4389L37.625 20.4387L37.6387 20.4387L43.5388 20.4387L48.4361 17.8921L48.5389 9.97291L48.4369 3.33895L43.5303 0.591254L32.1161 0.697929L32.1161 0.697961L32.1096 0.69796L20.7915 0.697958L15.8171 3.33144L15.8954 4.50479Z" stroke="#FF570F" stroke-width="1.4"/>
<path d="M15.3642 9.9721L15.3642 5.25139L9.82569 5.25139L9.82569 15.5601H15.3642L15.3642 9.9721Z" stroke="#FF570F" stroke-width="1.4"/>
<path d="M9.5097 4.11798L10.2097 4.11798L9.5097 4.11798C9.5097 2.76995 8.52214 1.78238 7.17411 1.78238L2.64552 1.78238C1.35356 1.88035 0.285111 3.01666 0.28511 4.11798L0.285106 16.694C0.285107 18.0421 1.27268 19.0296 2.62071 19.0296L7.17411 19.0296C8.52214 19.0296 9.50971 18.0421 9.50971 16.694L9.50971 16.2604L9.50971 4.55164L9.5097 4.11798Z" stroke="#FF570F" stroke-width="1.4"/>
<path d="M48.7768 9.66959L48.5618 15.0443C49.6891 13.4655 51.6008 11.8758 54.6551 11.8742C59.0171 11.819 63.5122 13.764 66.8629 15.665C68.5501 16.6222 69.9709 17.5821 70.9705 18.303C71.0529 18.3624 71.1325 18.4203 71.2092 18.4764C70.0689 12.6785 64.8617 8.93811 59.49 6.58746C56.5894 5.31813 53.7086 4.48587 51.5488 3.97094C50.4702 3.71377 49.5746 3.53648 48.9502 3.42372C48.89 3.41285 48.8324 3.40258 48.7774 3.3929L48.7774 9.64161L48.7774 9.65561L48.7768 9.66959Z" stroke="#FF570F" stroke-width="1.4"/>
</g>
</svg>
