<svg width="122" height="128" viewBox="0 0 122 128" fill="none" xmlns="http://www.w3.org/2000/svg">
<mask id="mask0" mask-type="alpha" maskUnits="userSpaceOnUse" x="0" y="0" width="122" height="128">
<rect width="122" height="128" fill="#C4C4C4"/>
</mask>
<g mask="url(#mask0)">
<circle cx="88.3608" cy="90.0608" r="31.8" stroke="#FF570F" stroke-width="1.4"/>
<circle cx="88.3608" cy="90.0608" r="28.8" stroke="#FF570F" stroke-width="1.4"/>
<circle cx="88.3608" cy="90.0608" r="25.8" stroke="#FF570F" stroke-width="1.4"/>
<circle cx="88.3608" cy="90.0608" r="22.8" stroke="#FF570F" stroke-width="1.4"/>
<circle cx="88.3608" cy="90.0608" r="9.8" stroke="#FF570F" stroke-width="1.4"/>
<circle cx="88.361" cy="90.061" r="5.03529" stroke="#FF570F" stroke-width="1.4"/>
<circle cx="88.3609" cy="82.4139" r="0.637255" fill="#FF570F"/>
<circle cx="88.3609" cy="97.7078" r="0.637255" fill="#FF570F"/>
<circle cx="96.0079" cy="90.0608" r="0.637255" fill="#FF570F"/>
<circle cx="80.7139" cy="90.0608" r="0.637255" fill="#FF570F"/>
<g clip-path="url(#clip0)">
<path d="M43.8699 119.662L36.5194 117.212L36.2823 117.133L36.0488 117.222L24.2898 121.701L12.5392 121.701H12.3728L12.2242 121.776L4.11753 125.861L4.11753 96.1993L20.1592 81.9477L31.7725 81.9477L32.4725 81.9477V81.2477L32.4725 67.3813L43.8014 67.3813L43.8699 119.662ZM38.1365 70.5068C36.1942 70.5068 34.6788 72.0223 34.6788 73.9645C34.6788 75.9068 36.1942 77.4223 38.1365 77.4223C40.0787 77.4223 41.5942 75.9068 41.5942 73.9645C41.5942 72.0223 40.0787 70.5068 38.1365 70.5068ZM18.1253 110.303H30.8533C34.7754 110.303 37.9172 107.161 37.9172 103.239C37.9172 99.3166 34.7754 96.1748 30.8533 96.1748L18.1254 96.1748C14.2032 96.1748 11.0614 99.3166 11.0614 103.239C11.0614 107.161 14.2032 110.303 18.1253 110.303Z" stroke="#FF570F" stroke-width="1.4"/>
<path d="M7.73084 9.4127L1.35977 9.4127L1.35977 1.62031L8.01368 1.62031V1.62044L8.0274 1.62017L11.6257 1.54962L35.3059 1.62031L35.308 1.62031L42.6619 1.62031L43.8004 1.62031L43.8004 62.3097L36.0787 62.3695L36.0787 10.042V9.34199H35.3787L11.6199 9.34199H10.9199V10.042L10.9199 83.6895L8.68501 85.6614L8.64285 83.4265L8.63806 83.1729L8.47195 82.9812L7.02739 81.3144L8.26371 79.8631L8.66559 79.3913L8.24599 78.9352L7.05567 77.6414L8.24599 76.3476L8.66559 75.8915L8.2637 75.4197L7.03924 73.9823L8.24599 72.6706L8.66419 72.216L8.2652 71.7445L7.09217 70.3582L8.26521 68.9719L8.6478 68.5197L8.2652 68.0676L7.09217 66.6812L8.26521 65.2949L8.6478 64.8428L8.26521 64.3906L7.09216 63.0043L8.2652 61.618L8.66419 61.1464L8.24599 60.6919L7.03924 59.3802L8.26371 57.9428L8.66559 57.471L8.24599 57.0149L7.05567 55.7211L8.24599 54.4273L8.66559 53.9712L8.2637 53.4994L7.03924 52.062L8.24599 50.7503L8.66419 50.2957L8.26521 49.8242L7.09217 48.4379L8.26521 47.0516L8.6478 46.5994L8.26521 46.1472L7.09217 44.7609L8.26521 43.3746L8.6478 42.9225L8.26521 42.4703L7.09217 41.084L8.26521 39.6977L8.66419 39.2261L8.24599 38.7716L7.03925 37.4599L8.26371 36.0225L8.66559 35.5507L8.24599 35.0946L7.05567 33.8008L8.24599 32.5069L8.66559 32.0509L8.26371 31.5791L7.03924 30.1417L8.24599 28.83L8.66419 28.3754L8.26521 27.9039L7.09217 26.5176L8.26521 25.1313L8.6478 24.6791L8.26521 24.2269L7.09217 22.8406L8.26521 21.4543L8.6478 21.0021L8.26521 20.55L7.09217 19.1637L8.26521 17.7773L8.66419 17.3058L8.24599 16.8512L7.03925 15.5396L8.26371 14.1022L8.66559 13.6304L8.24599 13.1743L7.05567 11.8805L8.24599 10.5866L9.32601 9.4127L7.73084 9.4127Z" stroke="#FF570F" stroke-width="1.4"/>
</g>
</g>
<defs>
<clipPath id="clip0">
<rect x="22.5801" y="-21" width="115.6" height="118.2" transform="rotate(45 22.5801 -21)" fill="white"/>
</clipPath>
</defs>
</svg>
