<svg width="160" height="100" viewBox="0 0 160 100" fill="none" xmlns="http://www.w3.org/2000/svg">
<path d="M64.2096 93.2727L109.869 93.2727L109.869 82.8951L64.2096 82.8951L64.2096 93.2727Z" stroke="#FF570F" stroke-width="1.4" stroke-miterlimit="10"/>
<path d="M109.869 95.6711L123.9 95.6711L123.9 80.6432L109.869 80.6432L109.869 95.6711Z" stroke="#FF570F" stroke-width="1.4" stroke-miterlimit="10"/>
<path d="M123.9 83.7273C125.953 83.6294 129.424 83.1399 132.993 81.035C134.655 80.056 135.926 78.979 136.903 78C141.89 78 146.876 78 151.911 78C155.822 79.8112 158.316 83.7273 158.364 88.035C158.413 92.3916 155.871 96.4546 151.911 98.3147C146.73 98.3147 141.596 98.3147 136.415 98.3147C135.535 97.2378 134.215 95.8182 132.21 94.6434C128.837 92.5874 125.513 92.2937 123.9 92.2448C123.9 85.4895 123.9 90.5315 123.9 83.7273Z" stroke="#FF570F" stroke-width="1.4" stroke-miterlimit="10"/>
<path d="M6.18195 81.0839C15.0792 80.2517 24.8565 78.6573 35.367 78.6573C45.682 78.6573 55.2637 80.3007 64.0143 81.0839C64.0143 85.7343 64.0143 90.4336 64.0143 95.0839C56.2903 96.6014 46.7575 97.8252 35.8559 97.8741C24.2698 97.9231 14.2482 96.6503 6.13306 95.0839C3.10212 94.1049 1.00002 91.2657 1.00002 88.0839C1.0489 84.9021 3.15101 82.0629 6.18195 81.0839Z" stroke="#FF570F" stroke-width="1.4" stroke-miterlimit="10"/>
<path d="M113.291 93.4685L113.291 82.8461" stroke="#FF570F" stroke-width="1.4" stroke-miterlimit="10"/>
<path d="M115.905 93.4685L115.905 82.8461" stroke="#FF570F" stroke-width="1.4" stroke-miterlimit="10"/>
<path d="M118.567 93.4685L118.567 82.8461" stroke="#FF570F" stroke-width="1.4" stroke-miterlimit="10"/>
<path d="M148.978 83.0418C146.197 83.0418 143.943 85.2992 143.943 88.0838C143.943 90.8684 146.197 93.1257 148.978 93.1257C151.759 93.1257 154.014 90.8684 154.014 88.0838C154.014 85.2992 151.759 83.0418 148.978 83.0418Z" stroke="#FF570F" stroke-width="1.4" stroke-miterlimit="10"/>
<path d="M10.5328 84.1678C8.3729 84.1678 6.62193 85.9211 6.62193 88.0839C6.62193 90.2467 8.3729 92 10.5328 92C12.6928 92 14.4437 90.2467 14.4437 88.0839C14.4437 85.9211 12.6928 84.1678 10.5328 84.1678Z" stroke="#FF570F" stroke-width="1.4" stroke-miterlimit="10"/>
<path d="M148.978 85.1469C147.358 85.1469 146.045 86.4618 146.045 88.0839C146.045 89.706 147.358 91.021 148.978 91.021C150.598 91.021 151.911 89.706 151.911 88.0839C151.911 86.4618 150.598 85.1469 148.978 85.1469Z" stroke="#FF570F" stroke-width="1.4" stroke-miterlimit="10"/>
<rect x="90.2417" y="41.8667" width="25.5167" height="14.4333" stroke="#FF570F" stroke-width="1.4"/>
<rect x="84.7" y="22.8667" width="36.6" height="18.3917" stroke="#FF570F" stroke-width="1.4"/>
<rect x="4.7" y="33.7" width="16.6" height="22.6" stroke="#FF570F" stroke-width="1.4"/>
<rect x="1.7" y="0.7" width="22.6" height="32.6" stroke="#FF570F" stroke-width="1.4"/>
<rect x="60.9316" y="30.2473" width="12.8105" height="17.5474" transform="rotate(-180 60.9316 30.2473)" stroke="#FF570F" stroke-width="1.4"/>
<rect x="63.3" y="56.3" width="17.6" height="25.6" transform="rotate(-180 63.3 56.3)" stroke="#FF570F" stroke-width="1.4"/>
</svg>
