<svg width="153" height="182" viewBox="0 0 153 182" fill="none" xmlns="http://www.w3.org/2000/svg">
<path d="M52.717 44.3115L52.8401 44.4346L53.0075 44.4823L54.0641 44.7834L44.1681 49.1698C43.926 47.7253 43.5873 45.2109 43.7495 42.3111C43.9337 39.0189 44.7612 35.28 47.0664 32.061L52.3766 43.9089L52.4271 44.0216L52.5144 44.1089L52.515 44.1095L52.5156 44.1101L52.5162 44.1107L52.5168 44.1113L52.5173 44.1118L52.5179 44.1124L52.5185 44.113L52.5191 44.1136L52.5197 44.1142L52.5202 44.1147L52.5208 44.1153L52.5214 44.1159L52.5219 44.1164L52.5225 44.117L52.5231 44.1175L52.5236 44.1181L52.5242 44.1187L52.5247 44.1192L52.5253 44.1198L52.5258 44.1203L52.5264 44.1209L52.5269 44.1214L52.5275 44.122L52.528 44.1225L52.5285 44.123L52.5291 44.1236L52.5296 44.1241L52.5301 44.1246L52.5307 44.1252L52.5312 44.1257L52.5317 44.1262L52.5323 44.1268L52.5328 44.1273L52.5333 44.1278L52.5338 44.1283L52.5343 44.1288L52.5349 44.1294L52.5354 44.1299L52.5359 44.1304L52.5364 44.1309L52.5369 44.1314L52.5374 44.1319L52.5379 44.1324L52.5384 44.1329L52.5389 44.1334L52.5394 44.1339L52.5399 44.1344L52.5404 44.1349L52.5409 44.1354L52.5414 44.1359L52.5419 44.1364L52.5423 44.1368L52.5428 44.1373L52.5433 44.1378L52.5438 44.1383L52.5443 44.1388L52.5447 44.1392L52.5452 44.1397L52.5457 44.1402L52.5462 44.1407L52.5466 44.1411L52.5471 44.1416L52.5476 44.1421L52.548 44.1425L52.5485 44.143L52.549 44.1435L52.5494 44.1439L52.5499 44.1444L52.5503 44.1448L52.5508 44.1453L52.5512 44.1457L52.5517 44.1462L52.5521 44.1466L52.5526 44.1471L52.553 44.1475L52.5535 44.148L52.5539 44.1484L52.5544 44.1489L52.5548 44.1493L52.5552 44.1497L52.5557 44.1502L52.5561 44.1506L52.5565 44.151L52.557 44.1515L52.5574 44.1519L52.5578 44.1523L52.5583 44.1528L52.5587 44.1532L52.5591 44.1536L52.5595 44.154L52.56 44.1545L52.5604 44.1549L52.5608 44.1553L52.5612 44.1557L52.5616 44.1561L52.562 44.1565L52.5624 44.1569L52.5629 44.1574L52.5633 44.1578L52.5637 44.1582L52.5641 44.1586L52.5645 44.159L52.5649 44.1594L52.5653 44.1598L52.5657 44.1602L52.5661 44.1606L52.5665 44.161L52.5669 44.1614L52.5673 44.1618L52.5677 44.1622L52.5681 44.1626L52.5685 44.163L52.5689 44.1633L52.5692 44.1637L52.5696 44.1641L52.57 44.1645L52.5704 44.1649L52.5708 44.1653L52.5712 44.1657L52.5715 44.166L52.5719 44.1664L52.5723 44.1668L52.5727 44.1672L52.5731 44.1676L52.5734 44.1679L52.5738 44.1683L52.5742 44.1687L52.5746 44.1691L52.5749 44.1694L52.5753 44.1698L52.5757 44.1702L52.576 44.1705L52.5764 44.1709L52.5768 44.1713L52.5771 44.1716L52.5775 44.172L52.5778 44.1723L52.5782 44.1727L52.5786 44.1731L52.5789 44.1734L52.5793 44.1738L52.5796 44.1741L52.58 44.1745L52.5803 44.1748L52.5807 44.1752L52.581 44.1755L52.5814 44.1759L52.5818 44.1763L52.5821 44.1766L52.5824 44.1769L52.5828 44.1773L52.5831 44.1776L52.5835 44.178L52.5838 44.1783L52.5842 44.1787L52.5845 44.179L52.5849 44.1794L52.5852 44.1797L52.5855 44.18L52.5859 44.1804L52.5862 44.1807L52.5866 44.1811L52.5869 44.1814L52.5872 44.1817L52.5876 44.1821L52.5879 44.1824L52.5882 44.1827L52.5886 44.1831L52.5889 44.1834L52.5892 44.1837L52.5896 44.1841L52.5899 44.1844L52.5902 44.1847L52.5905 44.185L52.5909 44.1854L52.5912 44.1857L52.5915 44.186L52.5918 44.1863L52.5922 44.1867L52.5925 44.187L52.5928 44.1873L52.5931 44.1876L52.5935 44.188L52.5938 44.1883L52.5941 44.1886L52.5944 44.1889L52.5947 44.1892L52.595 44.1895L52.5954 44.1899L52.5957 44.1902L52.596 44.1905L52.5963 44.1908L52.5966 44.1911L52.5969 44.1914L52.5973 44.1918L52.5976 44.1921L52.5979 44.1924L52.5982 44.1927L52.5985 44.193L52.5988 44.1933L52.5991 44.1936L52.5994 44.1939L52.5998 44.1942L52.6001 44.1946L52.6004 44.1949L52.6007 44.1952L52.601 44.1955L52.6013 44.1958L52.6016 44.1961L52.6019 44.1964L52.6022 44.1967L52.6025 44.197L52.6028 44.1973L52.6031 44.1976L52.6034 44.1979L52.6037 44.1982L52.604 44.1985L52.6043 44.1988L52.6046 44.1991L52.6049 44.1994L52.6053 44.1998L52.6056 44.2001L52.6059 44.2004L52.6062 44.2007L52.6065 44.201L52.6068 44.2013L52.6071 44.2016L52.6074 44.2019L52.6077 44.2022L52.608 44.2025L52.6083 44.2028L52.6086 44.2031L52.6089 44.2034L52.6092 44.2037L52.6095 44.204L52.6098 44.2043L52.6101 44.2046L52.6104 44.2049L52.6107 44.2052L52.611 44.2054L52.6112 44.2057L52.6115 44.206L52.6118 44.2063L52.6121 44.2066L52.6124 44.2069L52.6127 44.2072L52.613 44.2075L52.6133 44.2078L52.6136 44.2081L52.6139 44.2084L52.6142 44.2087L52.6145 44.209L52.6148 44.2093L52.6151 44.2096L52.6154 44.2099L52.6157 44.2102L52.616 44.2105L52.6163 44.2108L52.6166 44.2111L52.6169 44.2114L52.6172 44.2117L52.6175 44.212L52.6178 44.2123L52.6181 44.2126L52.6184 44.2129L52.6187 44.2132L52.619 44.2135L52.6193 44.2138L52.6196 44.2141L52.6199 44.2144L52.6202 44.2147L52.6205 44.215L52.6208 44.2153L52.6211 44.2156L52.6214 44.2159L52.6217 44.2162L52.622 44.2165L52.6223 44.2167L52.6225 44.217L52.6228 44.2173L52.6231 44.2176L52.6234 44.2179L52.6237 44.2182L52.624 44.2185L52.6243 44.2188L52.6246 44.2191L52.625 44.2194L52.6253 44.2198L52.6256 44.2201L52.6259 44.2204L52.6262 44.2207L52.6265 44.221L52.6268 44.2213L52.6271 44.2216L52.6274 44.2219L52.6277 44.2222L52.628 44.2225L52.6283 44.2228L52.6286 44.2231L52.6289 44.2234L52.6292 44.2237L52.6295 44.224L52.6298 44.2243L52.6301 44.2246L52.6304 44.2249L52.6307 44.2252L52.631 44.2255L52.6313 44.2258L52.6317 44.2262L52.632 44.2265L52.6323 44.2268L52.6326 44.2271L52.6329 44.2274L52.6332 44.2277L52.6335 44.228L52.6338 44.2283L52.6342 44.2287L52.6345 44.229L52.6348 44.2293L52.6351 44.2296L52.6354 44.2299L52.6357 44.2302L52.636 44.2305L52.6364 44.2309L52.6367 44.2312L52.637 44.2315L52.6373 44.2318L52.6376 44.2321L52.638 44.2325L52.6383 44.2328L52.6386 44.2331L52.6389 44.2334L52.6392 44.2337L52.6396 44.2341L52.6399 44.2344L52.6402 44.2347L52.6405 44.235L52.6409 44.2354L52.6412 44.2357L52.6415 44.236L52.6419 44.2364L52.6422 44.2367L52.6425 44.237L52.6429 44.2373L52.6432 44.2377L52.6435 44.238L52.6438 44.2383L52.6442 44.2387L52.6445 44.239L52.6449 44.2394L52.6452 44.2397L52.6455 44.24L52.6459 44.2404L52.6462 44.2407L52.6466 44.2411L52.6469 44.2414L52.6472 44.2417L52.6476 44.2421L52.6479 44.2424L52.6483 44.2428L52.6486 44.2431L52.649 44.2435L52.6493 44.2438L52.6497 44.2442L52.65 44.2445L52.6504 44.2449L52.6507 44.2452L52.6511 44.2456L52.6514 44.2459L52.6518 44.2463L52.6521 44.2466L52.6525 44.247L52.6528 44.2473L52.6532 44.2477L52.6536 44.2481L52.6539 44.2484L52.6543 44.2488L52.6547 44.2492L52.655 44.2495L52.6554 44.2499L52.6558 44.2503L52.6561 44.2506L52.6565 44.251L52.6569 44.2514L52.6572 44.2517L52.6576 44.2521L52.658 44.2525L52.6584 44.2529L52.6587 44.2532L52.6591 44.2536L52.6595 44.254L52.6599 44.2544L52.6602 44.2547L52.6606 44.2551L52.661 44.2555L52.6614 44.2559L52.6618 44.2563L52.6622 44.2567L52.6626 44.2571L52.6629 44.2574L52.6633 44.2578L52.6637 44.2582L52.6641 44.2586L52.6645 44.259L52.6649 44.2594L52.6653 44.2598L52.6657 44.2602L52.6661 44.2606L52.6665 44.261L52.6669 44.2614L52.6673 44.2618L52.6677 44.2622L52.6681 44.2626L52.6686 44.263L52.669 44.2635L52.6694 44.2639L52.6698 44.2643L52.6702 44.2647L52.6706 44.2651L52.671 44.2655L52.6715 44.266L52.6719 44.2664L52.6723 44.2668L52.6727 44.2672L52.6731 44.2676L52.6736 44.2681L52.674 44.2685L52.6744 44.2689L52.6749 44.2694L52.6753 44.2698L52.6757 44.2702L52.6762 44.2707L52.6766 44.2711L52.677 44.2715L52.6775 44.272L52.6779 44.2724L52.6784 44.2729L52.6788 44.2733L52.6793 44.2738L52.6797 44.2742L52.6802 44.2747L52.6806 44.2751L52.6811 44.2756L52.6815 44.276L52.682 44.2765L52.6824 44.2769L52.6829 44.2774L52.6834 44.2779L52.6838 44.2783L52.6843 44.2788L52.6848 44.2793L52.6852 44.2797L52.6857 44.2802L52.6862 44.2807L52.6867 44.2812L52.6871 44.2816L52.6876 44.2821L52.6881 44.2826L52.6886 44.2831L52.6891 44.2836L52.6895 44.284L52.69 44.2845L52.6905 44.285L52.691 44.2855L52.6915 44.286L52.692 44.2865L52.6925 44.287L52.693 44.2875L52.6935 44.288L52.694 44.2885L52.6945 44.289L52.695 44.2895L52.6955 44.29L52.696 44.2905L52.6966 44.2911L52.6971 44.2916L52.6976 44.2921L52.6981 44.2926L52.6986 44.2931L52.6991 44.2936L52.6997 44.2942L52.7002 44.2947L52.7007 44.2952L52.7013 44.2958L52.7018 44.2963L52.7023 44.2968L52.7029 44.2974L52.7034 44.2979L52.7039 44.2984L52.7045 44.299L52.705 44.2995L52.7056 44.3001L52.7061 44.3006L52.7067 44.3012L52.7072 44.3017L52.7078 44.3023L52.7084 44.3029L52.7089 44.3034L52.7095 44.304L52.71 44.3045L52.7106 44.3051L52.7112 44.3057L52.7118 44.3063L52.7123 44.3068L52.7129 44.3074L52.7135 44.308L52.7141 44.3086L52.7147 44.3091L52.7152 44.3097L52.7158 44.3103L52.7164 44.3109L52.717 44.3115Z" stroke="#FF570F" stroke-width="1.4"/>
<path d="M57.7352 138.988L57.7575 138.99L57.7798 138.99C59.0311 138.989 59.946 139.904 59.945 141.155C59.944 142.407 59.0264 143.324 57.7744 143.325C56.5232 143.326 55.6083 142.411 55.6092 141.16C55.6102 139.882 56.6441 138.916 57.7352 138.988Z" stroke="#FF570F" stroke-width="1.4"/>
<path d="M60.595 93.6236L60.6068 93.6189L60.6185 93.6138L62.9465 92.5938L64.0996 143.896C64.0954 144.747 63.464 145.38 62.6827 145.453C62.6817 145.453 62.6808 145.453 62.6798 145.453L54.0675 146.169L54.0476 146.171L54.0277 146.174C53.5002 146.249 53.1118 146.095 52.8743 145.858L52.8273 145.811L52.7719 145.774C52.4024 145.528 52.2607 145.165 52.261 144.711H52.2611L52.261 144.703L51.6953 97.2989L51.9937 97.1709L51.9938 97.171L52.0039 97.1664L54.9306 95.8526L60.595 93.6236ZM57.7749 145.478C60.1726 145.476 62.0959 143.553 62.0978 141.155C62.0996 138.757 60.1781 136.835 57.7796 136.837C55.3819 136.839 53.4586 138.762 53.4567 141.16C53.4549 143.558 55.3764 145.48 57.7749 145.478Z" stroke="#FF570F" stroke-width="1.4"/>
<path d="M59.1721 91.8434L55.6463 93.3148L55.6663 67.6192L59.191 67.6165L59.1721 91.8434Z" stroke="#FF570F" stroke-width="1.4"/>
<path d="M65.932 42.7794L66.1282 42.5831L66.1284 42.3056L66.1285 42.2965C66.1285 42.2541 66.1286 42.1999 66.1261 42.1515C66.1233 42.0978 66.1158 42.0061 66.0816 41.9033C66.0398 41.7776 65.9686 41.6773 65.9125 41.6117L59.6355 28.8577C62.5318 29.4005 68.1525 31.3054 71.564 37.5523L71.5647 37.5535C75.2978 44.3563 71.9164 49.8904 68.3319 55.7235C67.4021 57.0677 66.5798 58.5068 65.8671 59.8291L65.8623 59.838L65.8577 59.8471L65.6575 60.2471C62.3272 66.5982 61.421 68.3711 61.4183 71.8091L61.4033 91.0354L61.3255 91.0687L61.3446 66.5394C61.3449 66.2198 61.192 65.9562 61.0217 65.7859C60.8513 65.6155 60.5878 65.4626 60.2681 65.4629L55.1489 65.4669L62.7884 61.8726L62.8944 61.8228L62.9771 61.74C62.9805 61.7366 62.984 61.7331 62.9877 61.7295C63.0849 61.6327 63.2937 61.4249 63.3577 61.0741C63.3788 61.0249 63.3953 60.9726 63.4064 60.9175C63.439 60.7549 63.415 60.6123 63.3805 60.5088C63.3537 60.4283 63.3183 60.3636 63.2879 60.3167L58.8628 50.6489L58.8126 50.5391L58.7272 50.4538C58.7178 50.4444 58.7124 50.4382 58.7077 50.4327L58.7018 50.4256L58.6911 50.413L58.6904 50.4121C58.6842 50.4048 58.6605 50.3769 58.6295 50.3476C58.6024 50.322 58.5143 50.2404 58.3731 50.193C58.1956 50.1335 58.022 50.155 57.8859 50.2138C57.7827 50.2584 57.7147 50.3189 57.6973 50.3345L57.6965 50.3352C57.6751 50.3543 57.6554 50.3743 57.6553 50.3744C57.6532 50.3765 57.6538 50.3779 57.6326 50.3918C57.603 50.4112 57.5319 50.4527 57.3908 50.5103L57.3835 50.5133L57.3764 50.5164L48.7561 54.2742L48.6396 54.325L48.5498 54.4148L48.5492 54.4154L48.5486 54.416L48.548 54.4166L48.5474 54.4172L48.5468 54.4178L48.5463 54.4183L48.5457 54.4189L48.5451 54.4195L48.5445 54.4201L48.544 54.4206L48.5434 54.4212L48.5428 54.4218L48.5423 54.4224L48.5417 54.4229L48.5411 54.4235L48.5406 54.424L48.54 54.4246L48.5395 54.4251L48.5389 54.4257L48.5383 54.4263L48.5378 54.4268L48.5373 54.4273L48.5367 54.4279L48.5362 54.4284L48.5356 54.429L48.5351 54.4295L48.5346 54.43L48.534 54.4306L48.5335 54.4311L48.533 54.4316L48.5324 54.4322L48.5319 54.4327L48.5314 54.4332L48.5309 54.4337L48.5303 54.4343L48.5298 54.4348L48.5293 54.4353L48.5288 54.4358L48.5283 54.4363L48.5278 54.4368L48.5273 54.4373L48.5268 54.4378L48.5263 54.4384L48.5257 54.4389L48.5252 54.4394L48.5247 54.4399L48.5243 54.4403L48.5238 54.4408L48.5233 54.4413L48.5228 54.4418L48.5223 54.4423L48.5218 54.4428L48.5213 54.4433L48.5208 54.4438L48.5204 54.4443L48.5199 54.4447L48.5194 54.4452L48.5189 54.4457L48.5184 54.4462L48.518 54.4466L48.5175 54.4471L48.517 54.4476L48.5166 54.448L48.5161 54.4485L48.5156 54.449L48.5152 54.4494L48.5147 54.4499L48.5143 54.4503L48.5138 54.4508L48.5133 54.4513L48.5129 54.4517L48.5124 54.4522L48.512 54.4526L48.5115 54.4531L48.5111 54.4535L48.5106 54.454L48.5102 54.4544L48.5098 54.4548L48.5093 54.4553L48.5089 54.4557L48.5084 54.4562L48.508 54.4566L48.5076 54.457L48.5071 54.4575L48.5067 54.4579L48.5063 54.4583L48.5059 54.4587L48.5054 54.4592L48.505 54.4596L48.5046 54.46L48.5042 54.4604L48.5037 54.4609L48.5033 54.4613L48.5029 54.4617L48.5025 54.4621L48.5021 54.4625L48.5017 54.4629L48.5013 54.4633L48.5008 54.4638L48.5004 54.4642L48.5 54.4646L48.4996 54.465L48.4992 54.4654L48.4988 54.4658L48.4984 54.4662L48.498 54.4666L48.4976 54.467L48.4972 54.4674L48.4968 54.4678L48.4964 54.4682L48.496 54.4686L48.4956 54.469L48.4953 54.4693L48.4949 54.4697L48.4945 54.4701L48.4941 54.4705L48.4937 54.4709L48.4933 54.4713L48.4929 54.4717L48.4926 54.472L48.4922 54.4724L48.4918 54.4728L48.4914 54.4732L48.491 54.4736L48.4907 54.4739L48.4903 54.4743L48.4899 54.4747L48.4895 54.4751L48.4892 54.4754L48.4888 54.4758L48.4884 54.4762L48.4881 54.4765L48.4877 54.4769L48.4873 54.4773L48.487 54.4776L48.4866 54.478L48.4862 54.4784L48.4859 54.4787L48.4855 54.4791L48.4852 54.4794L48.4848 54.4798L48.4845 54.4801L48.4841 54.4805L48.4837 54.4809L48.4834 54.4812L48.483 54.4816L48.4827 54.4819L48.4823 54.4823L48.482 54.4826L48.4816 54.483L48.4813 54.4833L48.4809 54.4837L48.4806 54.484L48.4803 54.4844L48.4799 54.4847L48.4796 54.485L48.4792 54.4854L48.4789 54.4857L48.4785 54.4861L48.4782 54.4864L48.4779 54.4867L48.4775 54.4871L48.4772 54.4874L48.4768 54.4878L48.4765 54.4881L48.4762 54.4884L48.4758 54.4888L48.4755 54.4891L48.4752 54.4894L48.4749 54.4897L48.4745 54.4901L48.4742 54.4904L48.4739 54.4907L48.4735 54.4911L48.4732 54.4914L48.4729 54.4917L48.4726 54.492L48.4722 54.4924L48.4719 54.4927L48.4716 54.493L48.4713 54.4933L48.4709 54.4937L48.4706 54.494L48.4703 54.4943L48.47 54.4946L48.4697 54.4949L48.4693 54.4953L48.469 54.4956L48.4687 54.4959L48.4684 54.4962L48.4681 54.4965L48.4677 54.4969L48.4674 54.4972L48.4671 54.4975L48.4668 54.4978L48.4665 54.4981L48.4662 54.4984L48.4659 54.4987L48.4656 54.4991L48.4652 54.4994L48.4649 54.4997L48.4646 54.5L48.4643 54.5003L48.464 54.5006L48.4637 54.5009L48.4634 54.5012L48.4631 54.5015L48.4628 54.5018L48.4625 54.5021L48.4621 54.5025L48.4618 54.5028L48.4615 54.5031L48.4612 54.5034L48.4609 54.5037L48.4606 54.504L48.4603 54.5043L48.46 54.5046L48.4597 54.5049L48.4594 54.5052L48.4591 54.5055L48.4588 54.5058L48.4585 54.5061L48.4582 54.5064L48.4579 54.5067L48.4576 54.507L48.4573 54.5073L48.457 54.5076L48.4567 54.5079L48.4564 54.5082L48.4561 54.5085L48.4558 54.5088L48.4555 54.5091L48.4552 54.5094L48.4549 54.5097L48.4546 54.51L48.4543 54.5103L48.454 54.5106L48.4537 54.5109L48.4534 54.5112L48.4531 54.5115L48.4528 54.5118L48.4525 54.5121L48.4522 54.5124L48.4519 54.5127L48.4516 54.513L48.4513 54.5133L48.451 54.5136L48.4507 54.5139L48.4504 54.5142L48.4501 54.5145L48.4498 54.5148L48.4495 54.5151L48.4492 54.5154L48.4489 54.5157L48.4486 54.516L48.4483 54.5163L48.448 54.5166L48.4477 54.5169L48.4474 54.5172L48.4471 54.5175L48.4468 54.5178L48.4465 54.5181L48.4462 54.5184L48.4459 54.5187L48.4457 54.519L48.4454 54.5192L48.4451 54.5195L48.4448 54.5198L48.4445 54.5201L48.4442 54.5204L48.4439 54.5207L48.4436 54.521L48.4433 54.5213L48.443 54.5216L48.4427 54.5219L48.4424 54.5222L48.4421 54.5225L48.4418 54.5228L48.4415 54.5231L48.4412 54.5234L48.4409 54.5237L48.4406 54.524L48.4403 54.5243L48.44 54.5246L48.4397 54.5249L48.4394 54.5252L48.4391 54.5255L48.4388 54.5258L48.4385 54.5261L48.4382 54.5264L48.4379 54.5267L48.4376 54.527L48.4373 54.5273L48.4369 54.5277L48.4366 54.528L48.4363 54.5283L48.436 54.5286L48.4357 54.5289L48.4354 54.5292L48.4351 54.5295L48.4348 54.5298L48.4345 54.5301L48.4342 54.5304L48.4339 54.5307L48.4336 54.531L48.4333 54.5313L48.433 54.5316L48.4327 54.5319L48.4323 54.5323L48.432 54.5326L48.4317 54.5329L48.4314 54.5332L48.4311 54.5335L48.4308 54.5338L48.4305 54.5341L48.4302 54.5344L48.4299 54.5347L48.4295 54.5351L48.4292 54.5354L48.4289 54.5357L48.4286 54.536L48.4283 54.5363L48.428 54.5366L48.4276 54.537L48.4273 54.5373L48.427 54.5376L48.4267 54.5379L48.4264 54.5382L48.426 54.5386L48.4257 54.5389L48.4254 54.5392L48.4251 54.5395L48.4247 54.5399L48.4244 54.5402L48.4241 54.5405L48.4238 54.5408L48.4234 54.5412L48.4231 54.5415L48.4228 54.5418L48.4225 54.5421L48.4221 54.5425L48.4218 54.5428L48.4215 54.5431L48.4211 54.5435L48.4208 54.5438L48.4205 54.5441L48.4201 54.5445L48.4198 54.5448L48.4195 54.5451L48.4191 54.5455L48.4188 54.5458L48.4185 54.5461L48.4181 54.5465L48.4178 54.5468L48.4174 54.5472L48.4171 54.5475L48.4167 54.5479L48.4164 54.5482L48.4161 54.5485L48.4157 54.5489L48.4154 54.5492L48.415 54.5496L48.4147 54.5499L48.4143 54.5503L48.414 54.5506L48.4136 54.551L48.4133 54.5513L48.4129 54.5517L48.4126 54.552L48.4122 54.5524L48.4118 54.5528L48.4115 54.5531L48.4111 54.5535L48.4108 54.5538L48.4104 54.5542L48.41 54.5546L48.4097 54.5549L48.4093 54.5553L48.409 54.5556L48.4086 54.556L48.4082 54.5564L48.4079 54.5568L48.4075 54.5571L48.4071 54.5575L48.4067 54.5579L48.4064 54.5582L48.406 54.5586L48.4056 54.559L48.4052 54.5594L48.4049 54.5597L48.4045 54.5601L48.4041 54.5605L48.4037 54.5609L48.4033 54.5613L48.4029 54.5617L48.4026 54.562L48.4022 54.5624L48.4018 54.5628L48.4014 54.5632L48.401 54.5636L48.4006 54.564L48.4002 54.5644L48.3998 54.5648L48.3994 54.5652L48.399 54.5656L48.3986 54.566L48.3982 54.5664L48.3978 54.5668L48.3974 54.5672L48.397 54.5676L48.3966 54.568L48.3962 54.5684L48.3958 54.5688L48.3954 54.5692L48.395 54.5696L48.3946 54.57L48.3942 54.5704L48.3937 54.5709L48.3933 54.5713L48.3929 54.5717L48.3925 54.5721L48.3921 54.5725L48.3916 54.573L48.3912 54.5734L48.3908 54.5738L48.3904 54.5742L48.3899 54.5747L48.3895 54.5751L48.3891 54.5755L48.3886 54.576L48.3882 54.5764L48.3878 54.5768L48.3873 54.5773L48.3869 54.5777L48.3864 54.5782L48.386 54.5786L48.3856 54.579L48.3851 54.5795L48.3847 54.5799L48.3842 54.5804L48.3838 54.5808L48.3833 54.5813L48.3829 54.5817L48.3824 54.5822L48.3819 54.5827L48.3815 54.5831L48.381 54.5836L48.3806 54.584L48.3801 54.5845L48.3796 54.585L48.3792 54.5854L48.3787 54.5859L48.3782 54.5864L48.3777 54.5869L48.3773 54.5873L48.3768 54.5878L48.3763 54.5883L48.3758 54.5888L48.3753 54.5893L48.3749 54.5897L48.3744 54.5902L48.3739 54.5907L48.3734 54.5912L48.3729 54.5917L48.3724 54.5922L48.3719 54.5927L48.3714 54.5932L48.3709 54.5937L48.3704 54.5942L48.3699 54.5947L48.3694 54.5952L48.3689 54.5957L48.3684 54.5962L48.3679 54.5967L48.3674 54.5973L48.3668 54.5978L48.3663 54.5983L48.3658 54.5988L48.3653 54.5993L48.3648 54.5998L48.3642 54.6004L48.3637 54.6009L48.3632 54.6014L48.3626 54.602L48.3621 54.6025L48.3616 54.603L48.361 54.6036L48.3605 54.6041L48.3599 54.6047L48.3594 54.6052L48.3589 54.6057L48.3583 54.6063L48.3578 54.6068L48.3572 54.6074L48.3566 54.608L48.3561 54.6085L48.3555 54.6091L48.355 54.6096L48.3544 54.6102L48.3538 54.6108L48.3533 54.6113L48.3527 54.6119L48.3521 54.6125L48.3515 54.6131L48.351 54.6136L48.3504 54.6142L48.3498 54.6148L48.3492 54.6154L48.3486 54.616L48.3481 54.6165L48.3475 54.6171L48.3469 54.6177L48.8056 55.0764C48.3469 54.6177 48.3466 54.618 48.3464 54.6182L48.3459 54.6187L48.345 54.6196L48.3431 54.6216L48.339 54.6257L48.3302 54.6349C48.3241 54.6415 48.3174 54.6489 48.3102 54.6572C48.2959 54.6737 48.279 54.6945 48.2612 54.7195C48.2274 54.7667 48.1805 54.8424 48.1469 54.9429C48.1124 55.0462 48.088 55.1887 48.1205 55.3515C48.1429 55.4642 48.1883 55.565 48.2486 55.6519L52.9745 65.4173L53.0238 65.5193L53.104 65.5994C53.1813 65.6768 53.2719 65.7384 53.3636 65.7864C53.3508 65.7992 53.3381 65.8125 53.3256 65.8261C53.142 66.0268 53.0295 66.2808 52.9665 66.5623L52.9498 66.6368L52.9503 66.7131L53.1283 94.4496L52.7054 94.6288L52.724 70.7028C52.7245 70.1278 52.5601 69.475 52.2852 68.7689C52.0074 68.0556 51.6003 67.2469 51.0773 66.3487C50.0316 64.5526 48.4932 62.3485 46.5115 59.756L46.507 59.7501L46.5024 59.7444C45.2785 58.214 44.0561 56.7875 43.041 55.62C42.7627 55.2998 42.5015 55.0008 42.2607 54.7253C41.9309 54.3478 41.6396 54.0143 41.3953 53.7306L65.5247 43.122L65.64 43.0714L65.7291 42.9823L65.7296 42.9817L65.7302 42.9811L65.7308 42.9805L65.7314 42.9799L65.732 42.9794L65.7326 42.9788L65.7332 42.9782L65.7337 42.9776L65.7343 42.977L65.7349 42.9765L65.7355 42.9759L65.736 42.9753L65.7366 42.9748L65.7372 42.9742L65.7377 42.9736L65.7383 42.9731L65.7388 42.9725L65.7394 42.972L65.7399 42.9714L65.7405 42.9709L65.741 42.9703L65.7416 42.9698L65.7421 42.9692L65.7427 42.9687L65.7432 42.9681L65.7438 42.9676L65.7443 42.9671L65.7448 42.9665L65.7454 42.966L65.7459 42.9655L65.7464 42.9649L65.7469 42.9644L65.7475 42.9639L65.748 42.9634L65.7485 42.9629L65.749 42.9623L65.7495 42.9618L65.7501 42.9613L65.7506 42.9608L65.7511 42.9603L65.7516 42.9598L65.7521 42.9593L65.7526 42.9588L65.7531 42.9583L65.7536 42.9578L65.7541 42.9573L65.7546 42.9568L65.7551 42.9563L65.7556 42.9558L65.7561 42.9553L65.7566 42.9548L65.757 42.9543L65.7575 42.9538L65.758 42.9534L65.7585 42.9529L65.759 42.9524L65.7595 42.9519L65.7599 42.9514L65.7604 42.951L65.7609 42.9505L65.7613 42.95L65.7618 42.9495L65.7623 42.9491L65.7627 42.9486L65.7632 42.9482L65.7637 42.9477L65.7641 42.9472L65.7646 42.9468L65.765 42.9463L65.7655 42.9459L65.766 42.9454L65.7664 42.945L65.7669 42.9445L65.7673 42.9441L65.7677 42.9436L65.7682 42.9432L65.7686 42.9427L65.7691 42.9423L65.7695 42.9418L65.77 42.9414L65.7704 42.941L65.7708 42.9405L65.7713 42.9401L65.7717 42.9397L65.7721 42.9392L65.7726 42.9388L65.773 42.9384L65.7734 42.938L65.7738 42.9375L65.7743 42.9371L65.7747 42.9367L65.7751 42.9363L65.7755 42.9358L65.7759 42.9354L65.7764 42.935L65.7768 42.9346L65.7772 42.9342L65.7776 42.9338L65.778 42.9334L65.7784 42.933L65.7788 42.9325L65.7792 42.9321L65.7796 42.9317L65.78 42.9313L65.7804 42.9309L65.7808 42.9305L65.7812 42.9301L65.7816 42.9297L65.782 42.9293L65.7824 42.9289L65.7828 42.9286L65.7832 42.9282L65.7836 42.9278L65.784 42.9274L65.7844 42.927L65.7848 42.9266L65.7851 42.9262L65.7855 42.9258L65.7859 42.9255L65.7863 42.9251L65.7867 42.9247L65.787 42.9243L65.7874 42.9239L65.7878 42.9236L65.7882 42.9232L65.7886 42.9228L65.7889 42.9224L65.7893 42.9221L65.7897 42.9217L65.79 42.9213L65.7904 42.921L65.7908 42.9206L65.7911 42.9202L65.7915 42.9199L65.7919 42.9195L65.7922 42.9191L65.7926 42.9188L65.793 42.9184L65.7933 42.918L65.7937 42.9177L65.794 42.9173L65.7944 42.917L65.7947 42.9166L65.7951 42.9163L65.7955 42.9159L65.7958 42.9156L65.7962 42.9152L65.7965 42.9149L65.7969 42.9145L65.7972 42.9142L65.7976 42.9138L65.7979 42.9135L65.7982 42.9131L65.7986 42.9128L65.7989 42.9124L65.7993 42.9121L65.7996 42.9117L65.8 42.9114L65.8003 42.9111L65.8006 42.9107L65.801 42.9104L65.8013 42.91L65.8017 42.9097L65.802 42.9094L65.8023 42.909L65.8027 42.9087L65.803 42.9084L65.8033 42.908L65.8037 42.9077L65.804 42.9074L65.8043 42.907L65.8047 42.9067L65.805 42.9064L65.8053 42.9061L65.8056 42.9057L65.806 42.9054L65.8063 42.9051L65.8066 42.9047L65.8069 42.9044L65.8073 42.9041L65.8076 42.9038L65.8079 42.9035L65.8082 42.9031L65.8086 42.9028L65.8089 42.9025L65.8092 42.9022L65.8095 42.9019L65.8098 42.9015L65.8101 42.9012L65.8105 42.9009L65.8108 42.9006L65.8111 42.9003L65.8114 42.8999L65.8117 42.8996L65.812 42.8993L65.8124 42.899L65.8127 42.8987L65.813 42.8984L65.8133 42.8981L65.8136 42.8978L65.8139 42.8974L65.8142 42.8971L65.8145 42.8968L65.8148 42.8965L65.8152 42.8962L65.8155 42.8959L65.8158 42.8956L65.8161 42.8953L65.8164 42.895L65.8167 42.8947L65.817 42.8944L65.8173 42.8941L65.8176 42.8937L65.8179 42.8934L65.8182 42.8931L65.8185 42.8928L65.8188 42.8925L65.8191 42.8922L65.8194 42.8919L65.8197 42.8916L65.82 42.8913L65.8204 42.891L65.8207 42.8907L65.821 42.8904L65.8213 42.8901L65.8216 42.8898L65.8219 42.8895L65.8222 42.8892L65.8225 42.8889L65.8228 42.8886L65.8231 42.8883L65.8234 42.888L65.8237 42.8877L65.824 42.8874L65.8243 42.8871L65.8246 42.8868L65.8249 42.8865L65.8252 42.8862L65.8255 42.8859L65.8258 42.8856L65.8261 42.8853L65.8264 42.885L65.8266 42.8847L65.8269 42.8844L65.8272 42.8841L65.8275 42.8838L65.8278 42.8835L65.8281 42.8832L65.8284 42.8829L65.8287 42.8826L65.829 42.8823L65.8293 42.882L65.8296 42.8817L65.8299 42.8814L65.8302 42.8811L65.8305 42.8808L65.8308 42.8805L65.8311 42.8803L65.8314 42.88L65.8317 42.8797L65.832 42.8794L65.8323 42.8791L65.8326 42.8788L65.8329 42.8785L65.8332 42.8782L65.8335 42.8779L65.8338 42.8776L65.8341 42.8773L65.8344 42.877L65.8347 42.8767L65.835 42.8764L65.8353 42.8761L65.8356 42.8758L65.8359 42.8755L65.8362 42.8752L65.8365 42.8749L65.8368 42.8746L65.8371 42.8743L65.8374 42.874L65.8377 42.8737L65.838 42.8734L65.8383 42.8731L65.8386 42.8728L65.8389 42.8725L65.8392 42.8722L65.8395 42.8719L65.8398 42.8716L65.8401 42.8713L65.8404 42.871L65.8407 42.8707L65.841 42.8704L65.8413 42.8701L65.8416 42.8698L65.8419 42.8695L65.8422 42.8692L65.8425 42.8689L65.8428 42.8686L65.8431 42.8682L65.8434 42.8679L65.8437 42.8676L65.844 42.8673L65.8443 42.867L65.8446 42.8667L65.845 42.8664L65.8453 42.8661L65.8456 42.8658L65.8459 42.8655L65.8462 42.8652L65.8465 42.8649L65.8468 42.8646L65.8471 42.8642L65.8474 42.8639L65.8477 42.8636L65.8481 42.8633L65.8484 42.863L65.8487 42.8627L65.849 42.8624L65.8493 42.8621L65.8496 42.8617L65.8499 42.8614L65.8503 42.8611L65.8506 42.8608L65.8509 42.8605L65.8512 42.8602L65.8515 42.8598L65.8518 42.8595L65.8522 42.8592L65.8525 42.8589L65.8528 42.8586L65.8531 42.8582L65.8534 42.8579L65.8538 42.8576L65.8541 42.8573L65.8544 42.8569L65.8547 42.8566L65.8551 42.8563L65.8554 42.856L65.8557 42.8556L65.8561 42.8553L65.8564 42.855L65.8567 42.8547L65.857 42.8543L65.8574 42.854L65.8577 42.8537L65.858 42.8533L65.8584 42.853L65.8587 42.8527L65.859 42.8523L65.8594 42.852L65.8597 42.8516L65.8601 42.8513L65.8604 42.851L65.8607 42.8506L65.8611 42.8503L65.8614 42.85L65.8618 42.8496L65.8621 42.8493L65.8624 42.8489L65.8628 42.8486L65.8631 42.8482L65.8635 42.8479L65.8638 42.8475L65.8642 42.8472L65.8645 42.8468L65.8649 42.8465L65.8652 42.8461L65.8656 42.8458L65.8659 42.8454L65.8663 42.8451L65.8666 42.8447L65.867 42.8444L65.8674 42.844L65.8677 42.8436L65.8681 42.8433L65.8684 42.8429L65.8688 42.8426L65.8692 42.8422L65.8695 42.8418L65.8699 42.8415L65.8703 42.8411L65.8706 42.8407L65.871 42.8404L65.8714 42.84L65.8717 42.8396L65.8721 42.8393L65.8725 42.8389L65.8729 42.8385L65.8732 42.8381L65.8736 42.8378L65.874 42.8374L65.8744 42.837L65.8747 42.8366L65.8751 42.8362L65.8755 42.8359L65.8759 42.8355L65.8763 42.8351L65.8767 42.8347L65.8771 42.8343L65.8774 42.8339L65.8778 42.8335L65.8782 42.8331L65.8786 42.8327L65.879 42.8323L65.8794 42.832L65.8798 42.8316L65.8802 42.8312L65.8806 42.8308L65.881 42.8304L65.8814 42.83L65.8818 42.8295L65.8822 42.8291L65.8826 42.8287L65.883 42.8283L65.8834 42.8279L65.8839 42.8275L65.8843 42.8271L65.8847 42.8267L65.8851 42.8263L65.8855 42.8258L65.8859 42.8254L65.8864 42.825L65.8868 42.8246L65.8872 42.8242L65.8876 42.8237L65.888 42.8233L65.8885 42.8229L65.8889 42.8225L65.8893 42.822L65.8898 42.8216L65.8902 42.8212L65.8906 42.8207L65.8911 42.8203L65.8915 42.8198L65.892 42.8194L65.8924 42.819L65.8928 42.8185L65.8933 42.8181L65.8937 42.8176L65.8942 42.8172L65.8946 42.8167L65.8951 42.8163L65.8955 42.8158L65.896 42.8154L65.8964 42.8149L65.8969 42.8145L65.8974 42.814L65.8978 42.8135L65.8983 42.8131L65.8988 42.8126L65.8992 42.8121L65.8997 42.8117L65.9002 42.8112L65.9006 42.8107L65.9011 42.8103L65.9016 42.8098L65.9021 42.8093L65.9025 42.8088L65.903 42.8083L65.9035 42.8079L65.904 42.8074L65.9045 42.8069L65.905 42.8064L65.9055 42.8059L65.9059 42.8054L65.9064 42.8049L65.9069 42.8044L65.9074 42.8039L65.9079 42.8034L65.9084 42.8029L65.9089 42.8024L65.9094 42.8019L65.91 42.8014L65.9105 42.8009L65.911 42.8004L65.9115 42.7999L65.912 42.7994L65.9125 42.7988L65.913 42.7983L65.9136 42.7978L65.9141 42.7973L65.9146 42.7967L65.9151 42.7962L65.9157 42.7957L65.9162 42.7952L65.9167 42.7946L65.9173 42.7941L65.9178 42.7935L65.9184 42.793L65.9189 42.7925L65.9194 42.7919L65.92 42.7914L65.9205 42.7908L65.9211 42.7903L65.9216 42.7897L65.9222 42.7892L65.9228 42.7886L65.9233 42.788L65.9239 42.7875L65.9244 42.7869L65.925 42.7864L65.9256 42.7858L65.9261 42.7852L65.9267 42.7846L65.9273 42.7841L65.9279 42.7835L65.9285 42.7829L65.929 42.7823L65.9296 42.7817L65.9302 42.7812L65.9308 42.7806L65.9314 42.78L65.932 42.7794Z" stroke="#FF570F" stroke-width="1.4"/>
<path d="M101.61 75.6635L101.612 75.2886L101.926 75.0828C105.379 72.8152 107.706 69.0005 107.739 64.7041C107.772 60.3643 105.509 56.6053 102.074 54.5455L102.017 61.8654C101.991 65.2434 99.1382 68.0717 95.6283 68.0988C92.1116 68.1259 89.2887 65.3304 89.3131 61.9448C89.3131 61.9438 89.3131 61.9428 89.3132 61.9418L89.3034 54.4434C85.8933 56.6266 83.5816 60.4265 83.5482 64.7553C83.5138 69.2153 85.7077 72.8958 89.1742 75.0181L89.5124 75.2251L89.5087 75.6215L89.013 129.71L89.0103 130.012L88.7889 130.217C86.7724 132.086 85.4445 134.589 85.4205 137.503C85.455 142.851 89.7403 147.123 94.9926 147.085C100.352 146.968 104.704 142.6 104.745 137.337C104.768 134.404 103.544 131.863 101.517 130.13L101.27 129.919L101.272 129.594L101.61 75.6635ZM89.7724 134.705L89.7755 134.303L90.1249 134.103L94.8556 131.398L95.1999 131.201L95.5458 131.395L100.235 134.028L100.596 134.23L100.593 134.643L100.55 140.139L100.547 140.541L100.198 140.741L95.467 143.446L95.1227 143.643L94.7768 143.449L90.0873 140.816L89.7268 140.614L89.73 140.2L89.7724 134.705Z" stroke="#FF570F" stroke-width="1.4"/>
</svg>
