<svg width="143" height="133" viewBox="0 0 143 133" fill="none" xmlns="http://www.w3.org/2000/svg">
<path d="M133.361 50.4771H89.024V130.301H133.361V50.4771Z" stroke="#FF570F" stroke-width="1.4" stroke-miterlimit="10"/>
<path d="M118.325 19H103.675V33.6536H118.325V19Z" stroke="#FF570F" stroke-width="1.4" stroke-miterlimit="10"/>
<path d="M79 50.4771H143" stroke="#FF570F" stroke-width="1.4" stroke-miterlimit="10"/>
<path d="M132.976 50.2355H89.024L97.506 33.6538H123.337L132.976 50.2355Z" stroke="#FF570F" stroke-width="1.4" stroke-miterlimit="10"/>
<path d="M65 51.1045H25V130.104H65V51.1045Z" stroke="#FF570F" stroke-width="1.4" stroke-miterlimit="10"/>
<path d="M6.86384 15.164H4.15023C1.91549 15.164 0 13.2485 0 11.0138C0 8.61939 1.75587 6.86353 4.15023 6.86353H6.86384C7.34271 6.86353 7.66196 7.18277 7.66196 7.66165C7.66196 8.14052 7.34271 8.45977 6.86384 8.45977H4.15023C2.71361 8.45977 1.59624 9.57714 1.59624 11.0138C1.59624 12.61 2.87324 13.5677 4.15023 13.5677H6.86384C7.34271 13.5677 7.66196 13.887 7.66196 14.3659C7.66196 14.8447 7.34271 15.164 6.86384 15.164Z" fill="#FF570F"/>
<path d="M4.94832 51.7181C3.67132 51.7181 2.8732 50.9199 2.55396 49.6429C2.55396 49.4833 2.55395 49.1641 2.71358 49.0044C9.09855 41.0232 12.9295 30.8073 12.7699 21.3894C12.7699 20.9106 13.0892 20.5913 13.568 20.5913C13.8873 20.5913 14.3661 20.9106 14.3661 21.3894C14.5258 30.9669 10.6948 41.5021 4.1502 49.6429C4.30982 50.1218 4.46945 50.1218 5.10794 50.1218C17.0798 47.7274 25.061 33.8401 26.8168 21.2298C26.8168 20.751 27.2957 20.4317 27.7746 20.5913C28.2535 20.5913 28.5727 21.0702 28.4131 21.5491C26.6572 34.6383 18.1971 49.1641 5.42719 51.7181C5.26757 51.7181 5.10794 51.7181 4.94832 51.7181Z" fill="#FF570F" stroke="#FF570F" stroke-width="0.25" stroke-miterlimit="10"/>
<path d="M36.3946 37.6713C35.9157 37.6713 35.5964 37.3521 35.5964 36.8732V21.3897C35.5964 20.9108 35.9157 20.5916 36.3946 20.5916C36.8734 20.5916 37.1927 20.9108 37.1927 21.3897V36.8732C37.1927 37.3521 36.8734 37.6713 36.3946 37.6713Z" fill="#FF570F"/>
<path d="M53.7935 37.6711C53.3146 37.6711 52.9954 37.3519 52.9954 36.873V21.3894C52.9954 20.9106 53.3146 20.5913 53.7935 20.5913C54.2724 20.5913 54.5916 20.9106 54.5916 21.3894V36.873C54.5916 37.3519 54.2724 37.6711 53.7935 37.6711Z" fill="#FF570F"/>
<path d="M53.7935 51.7178H36.3944C35.9156 51.7178 35.5963 51.3986 35.5963 50.9197C35.5963 50.4408 35.9156 50.1216 36.3944 50.1216H53.7935C54.2723 50.1216 54.5916 50.4408 54.5916 50.9197C54.5916 51.3986 54.2723 51.7178 53.7935 51.7178Z" fill="#FF570F"/>
<path d="M67.2019 22.0281H6.86392C6.38504 22.0281 6.0658 21.7089 6.0658 21.23V0.798121C6.0658 0.319248 6.38504 0 6.86392 0H50.601C61.2958 0 68 8.14083 68 21.23C68 21.7089 67.6807 22.0281 67.2019 22.0281ZM7.66204 20.4319H66.4038C66.2441 11.1737 61.9343 1.59624 50.601 1.59624H7.66204V20.4319Z" fill="#FF570F"/>
<path d="M58.2628 51.7182H53.7934C53.3145 51.7182 52.9952 51.3989 52.9952 50.92C52.9952 50.4412 53.3145 50.1219 53.7934 50.1219H58.2628C58.7417 50.1219 59.2206 49.6431 59.2206 49.1642V38.7886C59.2206 38.3097 58.7417 37.8309 58.2628 37.8309H31.9248C31.446 37.8309 30.9671 38.3097 30.9671 38.7886V49.1642C30.9671 49.6431 31.446 50.1219 31.9248 50.1219H52.1971C52.676 50.1219 52.9952 50.4412 52.9952 50.92C52.9952 51.3989 52.676 51.7182 52.1971 51.7182H31.9248C30.4882 51.7182 29.3708 50.6008 29.3708 49.1642V38.7886C29.3708 37.352 30.4882 36.2346 31.9248 36.2346H58.2628C59.6995 36.2346 60.8168 37.352 60.8168 38.7886V49.1642C60.8168 50.6008 59.6995 51.7182 58.2628 51.7182Z" fill="#FF570F"/>
</svg>
