<svg width="138" height="114" viewBox="0 0 138 114" fill="none" xmlns="http://www.w3.org/2000/svg">
<g clip-path="url(#clip0)">
<path d="M119.425 11.8672V5.79346H133.122L137.249 11.8672" stroke="#FF570F" stroke-width="1.4" stroke-miterlimit="10"/>
<path d="M101.788 48.4033V77.2771" stroke="#FF570F" stroke-width="1.4" stroke-miterlimit="10"/>
<path d="M124.866 104.562H105.822L113.233 81.2952H127.774L125.523 99.423" stroke="#FF570F" stroke-width="1.4" stroke-miterlimit="10"/>
<path d="M124.866 104.562H135.467L137.156 95.218H125.992" stroke="#FF570F" stroke-width="1.4" stroke-miterlimit="10"/>
<path d="M106.103 103.534H100.568V77.2771" stroke="#FF570F" stroke-width="1.4" stroke-miterlimit="10"/>
<path d="M135.279 95.1245L133.497 77.8376C133.309 76.2491 133.309 74.754 133.403 73.1655L137.249 11.7737H119.425C119.425 11.7737 119.05 39.3393 101.788 42.5163V48.3097H95.6899V77.1835H101.788" stroke="#FF570F" stroke-width="1.4" stroke-miterlimit="10"/>
<path d="M101.788 77.277H130.401V73.0721H103.195C103.195 73.0721 102.257 73.0721 101.788 69.895" stroke="#FF570F" stroke-width="1.4" stroke-miterlimit="10"/>
<path d="M101.882 67.559H130.401V63.3541H103.195C103.195 63.3541 101.882 62.8868 101.694 60.177" stroke="#FF570F" stroke-width="1.4" stroke-miterlimit="10"/>
<path d="M47.0946 71.2968H18.5752V67.0918H45.7812C45.7812 67.0918 46.7193 67.0918 47.1884 63.9148" stroke="#FF570F" stroke-width="1.4" stroke-miterlimit="10"/>
<path d="M47.0006 61.5787H18.4812V57.3738H45.6872C45.6872 57.3738 47.0006 56.9066 47.1882 54.1968" stroke="#FF570F" stroke-width="1.4" stroke-miterlimit="10"/>
<path d="M107.417 99.4229H125.898H125.992L125.335 104.562" stroke="#FF570F" stroke-width="1.4" stroke-miterlimit="10"/>
<path d="M27.1121 104.749H16.5112L14.8225 95.3115H25.8925H30.1141" stroke="#FF570F" stroke-width="1.4" stroke-miterlimit="10"/>
<path d="M28.8009 99.6098H47.2822H47.376L46.7193 104.562L46.2502 104.749H27.2061L34.6173 81.4819H49.0647L46.8131 99.6098" stroke="#FF570F" stroke-width="1.4" stroke-miterlimit="10"/>
<path d="M128.525 104.562C128.525 109.328 124.679 113.159 119.894 113.159C115.11 113.159 111.263 109.328 111.263 104.562" stroke="#FF570F" stroke-width="1.4" stroke-miterlimit="10"/>
<path d="M41.7471 104.656C41.7471 109.421 37.9008 113.252 33.1163 113.252C28.3318 113.252 24.3916 109.421 24.3916 104.656" stroke="#FF570F" stroke-width="1.4" stroke-miterlimit="10"/>
<path d="M101.788 48.4033L103.476 51.8607H123.646C125.992 51.8607 128.337 52.982 129.557 55.0378C130.12 55.8787 130.401 56.8132 130.495 57.9345H103.664H101.788" stroke="#FF570F" stroke-width="1.4" stroke-miterlimit="10"/>
<path d="M95.6899 76.8098H47.1882" stroke="#FF570F" stroke-width="1.4" stroke-miterlimit="10"/>
<path d="M101.788 42.9836H47.0945" stroke="#FF570F" stroke-width="1.4" stroke-miterlimit="10"/>
<path d="M93.3447 33.5459C93.3447 33.5459 94.2829 34.7607 95.5024 35.7885C96.9097 37.0967 98.7859 37.7508 100.662 37.7508H103.946H110.7" stroke="#FF570F" stroke-width="1.4" stroke-miterlimit="10"/>
<path d="M93.3447 24.7622C93.3447 24.7622 94.189 25.3229 95.4086 26.3507C96.8158 27.6589 98.6921 28.313 100.568 28.313H103.758H116.329" stroke="#FF570F" stroke-width="1.4" stroke-miterlimit="10"/>
<path d="M118.862 18.5017H98.6921V28.2197" stroke="#FF570F" stroke-width="1.4" stroke-miterlimit="10"/>
<path d="M98.6921 22.9868H93.3447V33.6393" stroke="#FF570F" stroke-width="1.4" stroke-miterlimit="10"/>
<path d="M86.2149 39.2458H51.2224C48.877 39.2458 47.0007 37.377 47.0007 35.0409V24.295C47.0007 21.9589 48.877 20.0901 51.2224 20.0901H86.2149C88.5602 20.0901 90.4365 21.9589 90.4365 24.295V35.0409C90.4365 37.377 88.4664 39.2458 86.2149 39.2458Z" stroke="#FF570F" stroke-width="1.4" stroke-miterlimit="10"/>
<path d="M51.7852 20.0901V39.2458" stroke="#FF570F" stroke-width="1.4" stroke-miterlimit="10"/>
<path d="M56.6636 20.0901V39.2458" stroke="#FF570F" stroke-width="1.4" stroke-miterlimit="10"/>
<path d="M61.5417 20.0901V39.2458" stroke="#FF570F" stroke-width="1.4" stroke-miterlimit="10"/>
<path d="M66.4202 20.0901V39.2458" stroke="#FF570F" stroke-width="1.4" stroke-miterlimit="10"/>
<path d="M71.2983 20.0901V39.2458" stroke="#FF570F" stroke-width="1.4" stroke-miterlimit="10"/>
<path d="M76.1768 20.0901V39.2458" stroke="#FF570F" stroke-width="1.4" stroke-miterlimit="10"/>
<path d="M81.0552 20.0901V39.2458" stroke="#FF570F" stroke-width="1.4" stroke-miterlimit="10"/>
<path d="M85.8396 20.0901V39.2458" stroke="#FF570F" stroke-width="1.4" stroke-miterlimit="10"/>
<path d="M90.4365 25.5098H93.3447" stroke="#FF570F" stroke-width="1.4" stroke-miterlimit="10"/>
<path d="M90.4365 33.3591H93.3447" stroke="#FF570F" stroke-width="1.4" stroke-miterlimit="10"/>
<path d="M32.178 42.5164V7.66229C32.178 6.82131 32.8347 6.16721 33.679 6.16721H51.4098V2.52295H31.709C29.9265 2.52295 28.5193 3.92459 28.5193 5.7V43.4508" stroke="#FF570F" stroke-width="1.4" stroke-miterlimit="10"/>
<path d="M53.8491 7.75569C52.4419 7.75569 51.3162 6.63438 51.3162 5.23274V3.177C51.3162 1.77536 52.4419 0.654053 53.8491 0.654053C55.2563 0.654053 56.3821 1.77536 56.3821 3.177V5.32618C56.3821 6.63438 55.2563 7.75569 53.8491 7.75569Z" stroke="#FF570F" stroke-width="1.4" stroke-miterlimit="10"/>
<path d="M47.1882 41.9558V77.3706H9.85034V50.646H20.2637C22.5152 50.646 24.5791 49.2443 25.4234 47.1886C26.4554 44.4788 28.9883 42.7033 31.8966 42.6099L47.1882 41.9558Z" stroke="#FF570F" stroke-width="1.4" stroke-miterlimit="10"/>
<path d="M9.85034 77.3706V103.067H16.042" stroke="#FF570F" stroke-width="1.4" stroke-miterlimit="10"/>
<path d="M47.1882 77.3706C47.1882 77.3706 44.8429 79.146 44.6553 81.5755" stroke="#FF570F" stroke-width="1.4" stroke-miterlimit="10"/>
<path d="M9.56891 53.5427H5.15967V85.687H9.94417" stroke="#FF570F" stroke-width="1.4" stroke-miterlimit="10"/>
<path d="M6.09793 84.9395C3.0959 84.9395 0.656738 78.0247 0.656738 69.428C0.656738 60.8313 3.0959 53.9165 6.09793 53.9165" stroke="#FF570F" stroke-width="1.4" stroke-miterlimit="10"/>
</g>
<defs>
<clipPath id="clip0">
<rect width="138" height="114" fill="white"/>
</clipPath>
</defs>
</svg>
