<svg width="182" height="166" viewBox="0 0 182 166" fill="none" xmlns="http://www.w3.org/2000/svg">
<circle cx="149.361" cy="111.061" r="31.8" stroke="#FF570F" stroke-width="1.4"/>
<circle cx="149.361" cy="111.061" r="28.8" stroke="#FF570F" stroke-width="1.4"/>
<circle cx="149.361" cy="111.061" r="25.8" stroke="#FF570F" stroke-width="1.4"/>
<circle cx="149.361" cy="111.061" r="22.8" stroke="#FF570F" stroke-width="1.4"/>
<circle cx="149.361" cy="111.061" r="9.8" stroke="#FF570F" stroke-width="1.4"/>
<circle cx="149.361" cy="111.061" r="5.03529" stroke="#FF570F" stroke-width="1.4"/>
<circle cx="149.361" cy="103.414" r="0.637255" fill="#FF570F"/>
<circle cx="149.361" cy="118.708" r="0.637255" fill="#FF570F"/>
<circle cx="157.008" cy="111.061" r="0.637255" fill="#FF570F"/>
<circle cx="141.714" cy="111.061" r="0.637255" fill="#FF570F"/>
<g clip-path="url(#clip0)">
<path d="M104.87 140.662L97.5194 138.212L97.2823 138.133L97.0488 138.222L85.2898 142.701L73.5392 142.701H73.3728L73.2242 142.776L65.1175 146.861L65.1175 117.199L81.1592 102.948L92.7725 102.948L93.4725 102.948V102.248L93.4725 88.3813L104.801 88.3813L104.87 140.662ZM99.1365 91.5068C97.1942 91.5068 95.6788 93.0223 95.6788 94.9645C95.6788 96.9068 97.1942 98.4223 99.1365 98.4223C101.079 98.4223 102.594 96.9068 102.594 94.9645C102.594 93.0223 101.079 91.5068 99.1365 91.5068ZM79.1253 131.303H91.8533C95.7754 131.303 98.9172 128.161 98.9172 124.239C98.9172 120.317 95.7754 117.175 91.8533 117.175L79.1254 117.175C75.2032 117.175 72.0614 120.317 72.0614 124.239C72.0614 128.161 75.2032 131.303 79.1253 131.303Z" stroke="#FF570F" stroke-width="1.4"/>
<path d="M68.7308 30.4127L62.3598 30.4127L62.3598 22.6203L69.0137 22.6203V22.6204L69.0274 22.6202L72.6257 22.5496L96.3059 22.6203L96.308 22.6203L103.662 22.6203L104.8 22.6203L104.8 83.3097L97.0787 83.3695L97.0787 31.042V30.342H96.3787L72.6199 30.342H71.9199V31.042L71.9199 104.689L69.685 106.661L69.6428 104.426L69.6381 104.173L69.472 103.981L68.0274 102.314L69.2637 100.863L69.6656 100.391L69.246 99.9352L68.0557 98.6414L69.246 97.3476L69.6656 96.8915L69.2637 96.4197L68.0392 94.9823L69.246 93.6706L69.6642 93.216L69.2652 92.7445L68.0922 91.3582L69.2652 89.9719L69.6478 89.5197L69.2652 89.0676L68.0922 87.6812L69.2652 86.2949L69.6478 85.8428L69.2652 85.3906L68.0922 84.0043L69.2652 82.618L69.6642 82.1464L69.246 81.6919L68.0392 80.3802L69.2637 78.9428L69.6656 78.471L69.246 78.0149L68.0557 76.7211L69.246 75.4273L69.6656 74.9712L69.2637 74.4994L68.0392 73.062L69.246 71.7503L69.6642 71.2957L69.2652 70.8242L68.0922 69.4379L69.2652 68.0516L69.6478 67.5994L69.2652 67.1472L68.0922 65.7609L69.2652 64.3746L69.6478 63.9225L69.2652 63.4703L68.0922 62.084L69.2652 60.6977L69.6642 60.2261L69.246 59.7716L68.0392 58.4599L69.2637 57.0225L69.6656 56.5507L69.246 56.0946L68.0557 54.8008L69.246 53.5069L69.6656 53.0509L69.2637 52.5791L68.0392 51.1417L69.246 49.83L69.6642 49.3754L69.2652 48.9039L68.0922 47.5176L69.2652 46.1313L69.6478 45.6791L69.2652 45.2269L68.0922 43.8406L69.2652 42.4543L69.6478 42.0021L69.2652 41.55L68.0922 40.1637L69.2652 38.7773L69.6642 38.3058L69.246 37.8512L68.0392 36.5396L69.2637 35.1022L69.6656 34.6304L69.246 34.1743L68.0557 32.8805L69.246 31.5866L70.326 30.4127L68.7308 30.4127Z" stroke="#FF570F" stroke-width="1.4"/>
</g>
<defs>
<clipPath id="clip0">
<rect x="83.5801" width="115.6" height="118.2" transform="rotate(45 83.5801 0)" fill="white"/>
</clipPath>
</defs>
</svg>
