<svg width="49" height="86" viewBox="0 0 49 86" fill="none" xmlns="http://www.w3.org/2000/svg">
<path d="M2.43591 15.9764L2.36427 15.3316C2.0777 13.6121 1.93441 11.8927 2.0777 10.3166C2.14934 7.30755 3.00906 4.7284 4.44192 2.65076L4.94342 1.93433L9.17036 11.2479L9.242 11.3196L11.3196 11.8927L2.43591 15.9764ZM4.80013 4.01197C3.72549 5.80305 3.15234 7.8807 3.00906 10.3166C2.93741 11.6061 3.00906 13.039 3.22398 14.4719L8.59721 12.1076L8.31064 11.8211L4.80013 4.01197Z" fill="#FF570F"/>
<path d="M12.5375 83.1776C11.9644 83.1776 11.4629 82.9627 11.1046 82.6044C10.7464 82.2462 10.5315 81.6731 10.5315 81.1716C10.5315 80.5984 10.7464 80.0253 11.1763 79.6671C11.5345 79.3089 12.1076 79.0939 12.6091 79.1656C13.1106 79.1656 13.6838 79.3805 14.042 79.7387C14.4002 80.0969 14.6151 80.6701 14.6151 81.1716C14.6151 82.3179 13.7554 83.1776 12.5375 83.1776ZM12.4659 80.0969C12.2509 80.0969 12.036 80.1686 11.8927 80.3119C11.6778 80.5268 11.5345 80.8134 11.5345 81.0999C11.5345 81.3865 11.6061 81.6731 11.8211 81.888C12.036 82.1029 12.2509 82.1746 12.6091 82.1746C13.2539 82.1746 13.6838 81.7447 13.6838 81.0999C13.6838 80.8134 13.6121 80.5268 13.3972 80.3119C13.1823 80.0969 12.9674 80.0253 12.6091 80.0253L12.4659 80.0969Z" fill="#FF570F"/>
<path d="M9.67178 85.2552C9.31356 85.2552 8.95535 85.1119 8.66877 84.897C8.3822 84.7537 8.09563 84.3955 8.09563 83.7507L7.66577 49.4337L8.16727 49.2188L10.2449 48.2874L14.3286 46.7113L16.6928 45.7083L17.5525 83.1776C17.5525 84.0373 16.9077 84.7537 16.048 84.8253L9.88671 85.3268C9.88671 85.2552 9.74342 85.2552 9.67178 85.2552ZM9.09863 82.1029V83.6791C9.09863 83.894 9.17027 83.9656 9.24192 84.0373L9.3852 84.1089C9.52849 84.2522 9.67178 84.2522 9.81506 84.2522L10.6031 84.1806C10.3882 84.0373 10.1733 83.894 10.03 83.6791C9.60013 83.2492 9.24192 82.6761 9.09863 82.1029ZM12.5375 77.5178C13.4689 77.5178 14.4002 77.876 15.045 78.5924C15.6898 79.2372 16.1196 80.1685 16.1196 81.1716C16.1196 82.2462 15.6898 83.1776 14.9017 83.8223L15.9764 83.7507C16.2629 83.7507 16.5495 83.5358 16.5495 83.1059L15.7614 47.0695L14.7584 47.4993L10.6748 49.0755L8.66877 50.0068L9.02699 80.2402C9.45685 78.7357 10.8897 77.5178 12.5375 77.5178ZM12.5375 78.5208C11.1046 78.5208 9.95835 79.667 9.95835 81.0999C9.95835 81.8163 10.2449 82.4611 10.7464 82.9626C11.2479 83.4641 11.8927 83.7507 12.6091 83.7507C14.042 83.7507 15.1883 82.6044 15.1883 81.1716C15.1883 80.4551 14.9017 79.8103 14.4002 79.3088C13.8987 78.8073 13.2539 78.5208 12.5375 78.5208Z" fill="#FF570F"/>
<path d="M10.5315 47.6426V28.0125H14.042V46.2098L10.5315 47.6426ZM11.5345 28.9438V46.0665L13.039 45.4217V28.8722L11.5345 28.9438Z" fill="#FF570F"/>
<path d="M8.45388 48.574V30.6632C8.45388 30.3766 8.38223 29.9468 8.1673 29.4453C7.95238 28.9438 7.73745 28.4423 7.30759 27.7975C6.59116 26.5796 5.51651 25.0034 4.08365 23.1407C3.15229 21.9944 2.29258 20.9914 1.64779 20.2033L1.07465 19.5585C0.859716 19.272 0.644787 19.057 0.429858 18.8421L0 18.3406L17.9108 10.3882L17.9824 10.3166V10.245L17.9108 10.1733V10.03L12.9674 0L13.9704 0.214929C15.7615 0.573144 20.2033 1.86272 22.8541 6.6628C25.6482 11.8211 23.0691 16.048 20.5615 20.2033C19.9884 20.9914 19.4153 21.9228 18.8421 23.1407L18.6272 23.3556C16.263 27.8691 15.6182 29.0154 15.6182 31.3796V45.4933L14.6152 45.9232L14.5435 45.2067V27.6542C14.5435 27.5826 14.4719 27.5109 14.4719 27.4393C14.4719 27.4393 14.4002 27.3676 14.257 27.3676H10.6032L10.3882 26.4363L15.8331 23.8571C15.9048 23.7855 15.9764 23.7138 15.9764 23.6422V23.5706V23.4989L12.8241 16.4779L12.7525 16.5495C12.7525 16.5495 12.6808 16.6212 12.4659 16.6928L6.08966 19.5585V19.7018L9.45688 26.7228C9.45688 26.7228 9.45688 26.7228 9.52852 26.7945L10.1733 27.1527L9.67181 27.6542C9.60017 27.7258 9.52852 27.7975 9.52852 27.9408L9.74345 48.0008L8.45388 48.574ZM1.64779 18.6988C1.71943 18.7705 1.79108 18.8421 1.79108 18.9138L2.36422 19.5585C3.08065 20.3466 3.94037 21.4213 4.87173 22.4959C6.37623 24.4303 7.45087 26.0064 8.1673 27.296C8.31059 27.5826 8.45388 27.7975 8.59716 28.0124V27.7258V27.5826C8.59716 27.4393 8.66881 27.296 8.74045 27.1527L5.30158 20.06C5.22994 19.9168 5.1583 19.8451 5.1583 19.7018C5.1583 19.5585 5.1583 19.3436 5.1583 19.2003L5.01501 19.057L5.87473 18.4123L12.036 15.6898C12.1077 15.6898 12.1077 15.6898 12.1077 15.6182C12.1793 15.5465 12.251 15.4749 12.3942 15.4749C12.6092 15.4032 12.8957 15.3316 13.1107 15.4749C13.254 15.5465 13.3972 15.6182 13.4689 15.6898L13.7555 16.048L16.9078 22.9258C16.9794 22.9974 16.9794 23.0691 16.9794 23.1407C17.051 23.284 17.051 23.4989 16.9794 23.7138C16.9794 23.7855 16.9794 23.7855 16.9078 23.8571C16.8361 24.2153 16.6212 24.4303 16.4779 24.5736L16.1913 24.7885L12.8957 26.4363H14.3286C14.6868 26.4363 14.9734 26.5796 15.1883 26.7945C15.3316 26.9378 15.4749 27.1527 15.5465 27.3676C16.048 26.2213 16.7645 24.9318 17.7675 22.9974L17.9108 22.7108C18.5555 21.4929 19.1287 20.4899 19.7018 19.7018C22.2093 15.6898 24.5019 11.8211 21.9944 7.23595C19.9884 3.51051 16.7645 2.07765 14.8301 1.5045L18.8421 9.67181C18.9138 9.74345 18.9854 9.88674 18.9854 9.95838C18.9854 10.03 19.057 10.1733 19.057 10.245V10.8181L18.3406 11.4629L1.64779 18.6988Z" fill="#FF570F"/>
<path d="M39.1888 85.8999C37.2545 85.8999 35.3917 85.1118 34.0305 83.7506C32.6693 82.3894 31.8812 80.5267 31.8812 78.5207C31.8812 76.3714 32.8126 74.5087 34.4604 72.9325L34.8186 34.1736C32.0962 32.5258 30.52 29.6601 30.52 26.3645C30.52 23.2123 32.1678 20.2749 34.8902 18.5555L35.6783 18.054V24.3585C35.6783 25.3615 36.1082 26.3645 36.8246 27.081C37.6127 27.869 38.6157 28.2273 39.6903 28.2273C41.9113 28.2273 43.774 26.4362 43.774 24.2869L43.8456 18.1972L44.6337 18.6271C47.3561 20.2749 48.9323 23.1406 48.9323 26.3645C48.9323 29.5168 47.2845 32.4542 44.5621 34.2453L44.3471 72.8609C45.9949 74.2221 46.8546 76.2281 46.8546 78.3774C46.7113 82.461 43.3441 85.7566 39.1888 85.8999ZM34.6753 19.9883C32.741 21.5645 31.5947 23.9287 31.523 26.4362C31.523 29.3736 32.8842 31.8811 35.3201 33.3856L35.8216 33.6721L35.4634 73.434L35.1768 73.7206C34.1738 74.6519 32.9559 76.2997 32.9559 78.5923C32.9559 80.3117 33.6007 81.8879 34.8186 83.1058C36.0365 84.3238 37.541 84.9685 39.2605 84.9685C39.2605 84.9685 39.2605 84.9685 39.3321 84.9685C42.9143 84.8969 45.78 81.9595 45.8516 78.449C45.8516 76.5863 45.1352 74.8669 43.7023 73.6489L43.3441 73.3624V72.8609L43.4874 33.6721L43.9173 33.3856C46.3531 31.8094 47.8576 29.1586 47.8576 26.3645C47.8576 23.857 46.7113 21.4928 44.777 20.06V24.3585C44.777 27.081 42.4844 29.3019 39.6903 29.3019C38.3291 29.3019 37.0395 28.8004 36.1082 27.8691C35.1768 26.9377 34.6753 25.7198 34.6753 24.4302V19.9883ZM39.3321 83.464L34.9619 81.0282L35.0335 75.9415L39.4038 73.434L43.774 75.8699L43.7023 80.9565L39.3321 83.464ZM35.9649 80.455L39.3321 82.3177L42.6993 80.3834V76.443L39.3321 74.5803L35.9649 76.5147V80.455Z" fill="#FF570F"/>
</svg>
