<svg width="65" height="136" viewBox="0 0 65 136" fill="none" xmlns="http://www.w3.org/2000/svg">
<mask id="mask0" mask-type="alpha" maskUnits="userSpaceOnUse" x="0" y="0" width="65" height="136">
<rect width="65" height="136" fill="#C4C4C4"/>
</mask>
<g mask="url(#mask0)">
<path d="M13.5068 19.6641L13.5068 62.5271L10.9068 62.5271L10.9068 19.6641L13.5068 19.6641Z" stroke="#FF570F" stroke-width="1.4"/>
<path d="M22.4425 68.6255L22.4279 68.6255L22.4133 68.6261L19.891 68.7358L19.2493 68.7637L19.2493 69.4059L19.2493 79.276L19.2493 79.9468L19.9201 79.9468L20.5781 79.9468C22.1817 79.9468 23.4167 81.1818 23.4167 82.7854L23.4167 128.188C23.4167 132.423 19.9883 135.852 15.7528 135.852L8.73405 135.852C4.49848 135.852 1.07011 132.423 1.07012 128.188L1.07011 128.186L0.960447 82.6757C0.960447 82.6755 0.960447 82.6753 0.960447 82.6752C0.960716 81.0719 2.19564 79.8371 3.79901 79.8371L4.45702 79.8371L5.12781 79.8371L5.12781 79.1663L5.12781 69.2963L5.12781 68.6255L4.45702 68.6255L2.04434 68.6255C1.82383 68.6255 1.54717 68.5085 1.31232 68.2736C1.07746 68.0387 0.960449 67.7621 0.960446 67.5416L0.960446 66.0062C0.960449 65.7857 1.07745 65.5091 1.31232 65.2742C1.54718 65.0394 1.82383 64.9223 2.04433 64.9223L10.1597 64.9224L14.3271 64.9224L22.4425 64.9223C22.663 64.9223 22.9396 65.0394 23.1745 65.2742C23.4094 65.5091 23.5264 65.7857 23.5264 66.0062L23.5264 67.5416C23.5264 67.7621 23.4094 68.0387 23.1745 68.2736C22.9396 68.5085 22.663 68.6255 22.4425 68.6255ZM7.52771 83.9789L7.50537 83.9789L7.48309 83.9804L5.89292 84.0864C4.47012 83.9651 3.45722 85.1144 3.45722 86.5141L3.45723 126.399C3.32078 127.834 4.47519 128.859 5.8827 128.859L7.41804 128.859C8.12706 128.859 8.76931 128.608 9.23579 128.141C9.70227 127.675 9.95318 127.032 9.95318 126.323L9.95318 86.4386C10.0896 85.0032 8.9352 83.9789 7.52771 83.9789ZM21.0296 86.5159L21.0296 86.5141C21.0296 85.805 20.7787 85.1628 20.3122 84.6963C19.8457 84.2298 19.2035 83.9789 18.4945 83.9789L16.9934 83.9789C15.558 83.8425 14.5336 84.9969 14.5336 86.4044L14.5336 126.289C14.3972 127.725 15.5516 128.749 16.9591 128.749L18.4602 128.749C19.8953 128.885 20.9195 127.731 20.9199 126.324C20.9199 126.324 20.9199 126.324 20.9199 126.323L21.0296 86.5159Z" stroke="#FF570F" stroke-width="1.4"/>
<path d="M16.4592 13.4484L13.9733 17.0817L10.5135 17.0817L8.02758 13.4484L10.6948 1.75386L13.7921 1.75386L16.4592 13.4484Z" stroke="#FF570F" stroke-width="1.4"/>
<path d="M65.1597 65.1592H44.1597C41.3982 65.1592 39.1597 67.3978 39.1597 70.1592L39.1597 136.159" stroke="#FF570F" stroke-width="1.4"/>
</g>
</svg>
