<svg width="108" height="111" viewBox="0 0 108 111" fill="none" xmlns="http://www.w3.org/2000/svg">
<mask id="path-1-inside-1" fill="white">
<path d="M106.39 51.2041C106.737 51.2041 107.07 51.0663 107.315 50.8211C107.56 50.5759 107.698 50.2433 107.698 49.8965V40.158C107.708 40.0666 107.708 39.9743 107.698 39.8828C107.681 39.7283 107.614 39.5835 107.509 39.4698C107.459 39.3951 107.401 39.3259 107.336 39.2634L103.276 35.8222V6.17684C103.276 5.83003 103.138 5.49743 102.893 5.2522C102.648 5.00697 102.315 4.86921 101.968 4.86921H78.2761V1.30763C78.2761 0.960826 78.1383 0.628225 77.8931 0.382997C77.6479 0.137768 77.3153 0 76.9685 0H30.6508C30.304 0 29.9714 0.137768 29.7261 0.382997C29.4809 0.628225 29.3431 0.960826 29.3431 1.30763V4.88641H5.73695C5.56523 4.88641 5.39519 4.92024 5.23655 4.98595C5.0779 5.05166 4.93374 5.14798 4.81232 5.26941C4.69089 5.39083 4.59457 5.53498 4.52886 5.69363C4.46314 5.85228 4.42932 6.02232 4.42932 6.19404V35.7534L0.368783 39.1945C0.304307 39.2571 0.246633 39.3263 0.196726 39.401C0.0908923 39.5147 0.0245238 39.6595 0.00746216 39.8139C-0.00248739 39.9054 -0.00248739 39.9977 0.00746216 40.0892V49.8965C0.00746216 50.0682 0.0412855 50.2382 0.107 50.3969C0.172715 50.5555 0.269034 50.6997 0.390459 50.8211C0.511884 50.9425 0.656038 51.0388 0.814687 51.1046C0.973336 51.1703 1.14337 51.2041 1.31509 51.2041H5.11755L6.1843 58.9294L0.472016 63.661C0.40754 63.7236 0.349866 63.7928 0.299959 63.8675C0.194125 63.9812 0.12776 64.126 0.110699 64.2804C0.100749 64.3719 0.100749 64.4642 0.110699 64.5557V86.7682C0.110699 86.9399 0.144519 87.11 0.210233 87.2686C0.275948 87.4273 0.372267 87.5714 0.493692 87.6929C0.615117 87.8143 0.759271 87.9106 0.91792 87.9763C1.07657 88.042 1.24661 88.0759 1.41833 88.0759H8.42104V108.809C8.42104 109.155 8.5588 109.488 8.80403 109.733C9.04926 109.979 9.38186 110.116 9.72867 110.116H98.0798C98.2515 110.116 98.4216 110.082 98.5802 110.017C98.7389 109.951 98.883 109.855 99.0045 109.733C99.1259 109.612 99.2222 109.468 99.2879 109.309C99.3536 109.15 99.3874 108.98 99.3874 108.809V88.0759H106.39C106.737 88.0759 107.07 87.9381 107.315 87.6929C107.56 87.4476 107.698 87.115 107.698 86.7682V64.7278C107.708 64.6363 107.708 64.544 107.698 64.4525C107.681 64.298 107.614 64.1533 107.509 64.0395C107.459 63.9648 107.401 63.8956 107.336 63.8331L101.624 59.0327L102.691 51.3073L106.39 51.2041ZM31.9412 2.59806H75.678V9.75562H31.9412V2.59806ZM7.04458 7.48447H29.412V11.0633C29.412 11.4101 29.5497 11.7427 29.795 11.9879C30.0402 12.2331 30.3728 12.3709 30.7196 12.3709H76.9685C77.3153 12.3709 77.6479 12.2331 77.8931 11.9879C78.1383 11.7427 78.2761 11.4101 78.2761 11.0633V7.48447H100.643V33.5683L98.2691 31.5724C98.0334 31.3729 97.7348 31.2632 97.426 31.2627H10.262C9.95327 31.2632 9.65461 31.3729 9.41897 31.5724L7.04458 33.5683V7.48447ZM10.7954 33.8608H96.8238L102.76 38.8504H4.68741L10.7954 33.8608ZM2.5367 48.606V41.4485H52.4332V48.606H2.5367ZM10.2793 55.8324C10.1135 55.8356 9.94996 55.8706 9.79749 55.9356L9.64264 56.0217L9.43617 56.1421L8.47265 56.9508L7.68119 51.2041H99.9552L99.1638 56.9508L98.2003 56.1421C97.9646 55.9426 97.6659 55.8329 97.3572 55.8324H10.2793ZM52.502 58.4993V63.4889H11.5697V58.4993H52.502ZM8.95441 59.9962V63.4373H4.80785L8.95441 59.9962ZM96.8238 107.518H10.7954V88.0759H96.8238V107.518ZM105.083 85.4606H2.5367V66.0354H105.083V85.4606ZM102.811 63.4201H55.1517L55.2893 58.4305H96.8238L102.811 63.4201ZM55.1172 48.606V41.4485H105.014V48.606H55.1172Z"/>
</mask>
<path d="M106.39 51.2041C106.737 51.2041 107.07 51.0663 107.315 50.8211C107.56 50.5759 107.698 50.2433 107.698 49.8965V40.158C107.708 40.0666 107.708 39.9743 107.698 39.8828C107.681 39.7283 107.614 39.5835 107.509 39.4698C107.459 39.3951 107.401 39.3259 107.336 39.2634L103.276 35.8222V6.17684C103.276 5.83003 103.138 5.49743 102.893 5.2522C102.648 5.00697 102.315 4.86921 101.968 4.86921H78.2761V1.30763C78.2761 0.960826 78.1383 0.628225 77.8931 0.382997C77.6479 0.137768 77.3153 0 76.9685 0H30.6508C30.304 0 29.9714 0.137768 29.7261 0.382997C29.4809 0.628225 29.3431 0.960826 29.3431 1.30763V4.88641H5.73695C5.56523 4.88641 5.39519 4.92024 5.23655 4.98595C5.0779 5.05166 4.93374 5.14798 4.81232 5.26941C4.69089 5.39083 4.59457 5.53498 4.52886 5.69363C4.46314 5.85228 4.42932 6.02232 4.42932 6.19404V35.7534L0.368783 39.1945C0.304307 39.2571 0.246633 39.3263 0.196726 39.401C0.0908923 39.5147 0.0245238 39.6595 0.00746216 39.8139C-0.00248739 39.9054 -0.00248739 39.9977 0.00746216 40.0892V49.8965C0.00746216 50.0682 0.0412855 50.2382 0.107 50.3969C0.172715 50.5555 0.269034 50.6997 0.390459 50.8211C0.511884 50.9425 0.656038 51.0388 0.814687 51.1046C0.973336 51.1703 1.14337 51.2041 1.31509 51.2041H5.11755L6.1843 58.9294L0.472016 63.661C0.40754 63.7236 0.349866 63.7928 0.299959 63.8675C0.194125 63.9812 0.12776 64.126 0.110699 64.2804C0.100749 64.3719 0.100749 64.4642 0.110699 64.5557V86.7682C0.110699 86.9399 0.144519 87.11 0.210233 87.2686C0.275948 87.4273 0.372267 87.5714 0.493692 87.6929C0.615117 87.8143 0.759271 87.9106 0.91792 87.9763C1.07657 88.042 1.24661 88.0759 1.41833 88.0759H8.42104V108.809C8.42104 109.155 8.5588 109.488 8.80403 109.733C9.04926 109.979 9.38186 110.116 9.72867 110.116H98.0798C98.2515 110.116 98.4216 110.082 98.5802 110.017C98.7389 109.951 98.883 109.855 99.0045 109.733C99.1259 109.612 99.2222 109.468 99.2879 109.309C99.3536 109.15 99.3874 108.98 99.3874 108.809V88.0759H106.39C106.737 88.0759 107.07 87.9381 107.315 87.6929C107.56 87.4476 107.698 87.115 107.698 86.7682V64.7278C107.708 64.6363 107.708 64.544 107.698 64.4525C107.681 64.298 107.614 64.1533 107.509 64.0395C107.459 63.9648 107.401 63.8956 107.336 63.8331L101.624 59.0327L102.691 51.3073L106.39 51.2041ZM31.9412 2.59806H75.678V9.75562H31.9412V2.59806ZM7.04458 7.48447H29.412V11.0633C29.412 11.4101 29.5497 11.7427 29.795 11.9879C30.0402 12.2331 30.3728 12.3709 30.7196 12.3709H76.9685C77.3153 12.3709 77.6479 12.2331 77.8931 11.9879C78.1383 11.7427 78.2761 11.4101 78.2761 11.0633V7.48447H100.643V33.5683L98.2691 31.5724C98.0334 31.3729 97.7348 31.2632 97.426 31.2627H10.262C9.95327 31.2632 9.65461 31.3729 9.41897 31.5724L7.04458 33.5683V7.48447ZM10.7954 33.8608H96.8238L102.76 38.8504H4.68741L10.7954 33.8608ZM2.5367 48.606V41.4485H52.4332V48.606H2.5367ZM10.2793 55.8324C10.1135 55.8356 9.94996 55.8706 9.79749 55.9356L9.64264 56.0217L9.43617 56.1421L8.47265 56.9508L7.68119 51.2041H99.9552L99.1638 56.9508L98.2003 56.1421C97.9646 55.9426 97.6659 55.8329 97.3572 55.8324H10.2793ZM52.502 58.4993V63.4889H11.5697V58.4993H52.502ZM8.95441 59.9962V63.4373H4.80785L8.95441 59.9962ZM96.8238 107.518H10.7954V88.0759H96.8238V107.518ZM105.083 85.4606H2.5367V66.0354H105.083V85.4606ZM102.811 63.4201H55.1517L55.2893 58.4305H96.8238L102.811 63.4201ZM55.1172 48.606V41.4485H105.014V48.606H55.1172Z" fill="#FF570F" stroke="white" stroke-width="1.2" mask="url(#path-1-inside-1)"/>
<path d="M18.4348 80.8072H18.4348C18.1698 80.8072 17.9155 80.7029 17.7269 80.5168C17.5388 80.3311 17.4312 80.0789 17.4272 79.8147V71.6785C17.4272 71.4112 17.5334 71.1549 17.7223 70.966C17.9113 70.777 18.1676 70.6708 18.4348 70.6708H45.0004C45.2676 70.6708 45.5239 70.777 45.7129 70.966C45.9019 71.1549 46.008 71.4112 46.008 71.6785V79.7996C46.008 80.0668 45.9019 80.3231 45.7129 80.5121C45.5239 80.701 45.2676 80.8072 45.0004 80.8072H18.4348ZM19.7425 72.6689H19.4425V72.9689V78.4919V78.7919H19.7425H43.6928H43.9928V78.4919V72.9689V72.6689H43.6928H19.7425Z" fill="#FF570F" stroke="white" stroke-width="0.6"/>
<path d="M62.6192 80.8072H62.6191C62.3542 80.8072 62.0999 80.7029 61.9113 80.5168C61.7231 80.3311 61.6155 80.0789 61.6115 79.8147V71.6785C61.6115 71.4112 61.7177 71.1549 61.9067 70.966C62.0956 70.777 62.3519 70.6708 62.6192 70.6708H89.1847C89.452 70.6708 89.7083 70.777 89.8972 70.966C90.0862 71.1549 90.1924 71.4112 90.1924 71.6785V79.7996C90.1924 80.0668 90.0862 80.3231 89.8972 80.5121C89.7083 80.701 89.452 80.8072 89.1847 80.8072H62.6192ZM63.9268 72.6689H63.6268V72.9689V78.4919V78.7919H63.9268H87.8771H88.1771V78.4919V72.9689V72.6689H87.8771H63.9268Z" fill="#FF570F" stroke="white" stroke-width="0.6"/>
<path d="M23.2178 35.6767C23.3787 35.4961 23.5991 35.3796 23.8386 35.3481H86.7058C86.9453 35.3796 87.1657 35.4961 87.3266 35.6767C87.4912 35.8612 87.5821 36.0999 87.5821 36.3471C87.5821 36.5944 87.4912 36.833 87.3266 37.0176C87.1657 37.1982 86.9453 37.3147 86.7058 37.3462H23.8386C23.5991 37.3147 23.3787 37.1982 23.2178 37.0176C23.0533 36.833 22.9624 36.5944 22.9624 36.3471C22.9624 36.0999 23.0533 35.8612 23.2178 35.6767Z" fill="#FF570F" stroke="white" stroke-width="0.6"/>
<path d="M76.5046 96.0327C76.3436 96.2133 76.1232 96.3298 75.8838 96.3613H31.7363C31.4968 96.3298 31.2764 96.2133 31.1155 96.0327C30.951 95.8482 30.8601 95.6095 30.8601 95.3623C30.8601 95.115 30.951 94.8764 31.1155 94.6918C31.2764 94.5112 31.4968 94.3947 31.7363 94.3632H75.8838C76.1232 94.3947 76.3436 94.5112 76.5046 94.6918C76.6691 94.8764 76.76 95.115 76.76 95.3623C76.76 95.6095 76.6691 95.8482 76.5046 96.0327Z" fill="#FF570F" stroke="white" stroke-width="0.6"/>
</svg>
