<svg width="98" height="129" viewBox="0 0 98 129" fill="none" xmlns="http://www.w3.org/2000/svg">
<mask id="mask0" mask-type="alpha" maskUnits="userSpaceOnUse" x="0" y="0" width="98" height="129">
<rect width="98" height="129" fill="#C4C4C4"/>
</mask>
<g mask="url(#mask0)">
<g clip-path="url(#clip0)">
<path d="M27.9589 7.19319L27.9542 7.17115L27.9509 7.14885L27.2843 2.61039L27.2843 8.96298L29.1429 13.0082C29.1757 13.0583 29.2146 13.1282 29.2438 13.2159C29.2804 13.3255 29.3059 13.4762 29.2715 13.6481C29.2561 13.7253 29.2305 13.7973 29.1969 13.8635L28.2031 18.8327V27.1629C30.7114 27.8014 32.868 29.2917 34.2171 31.5025L34.8104 30.9091L33.8234 21.807L28.2642 8.07927C28.1998 7.97856 28.1621 7.88321 28.145 7.83963L28.1445 7.8384C28.1048 7.7378 28.0715 7.63039 28.046 7.54112C28.0199 7.44936 27.9984 7.3635 27.9836 7.30141C27.9761 7.27005 27.9702 7.244 27.966 7.22537L27.961 7.20308L27.9596 7.1965L27.9592 7.19442L27.959 7.1937L27.959 7.19342L27.9589 7.1933C27.9589 7.19324 27.9589 7.19319 28.6435 7.04712L27.9589 7.19319Z" stroke="#FF570F" stroke-width="1.4"/>
<path d="M22.5961 55.6816L22.4945 55.6308L22.4141 55.5505L22.4135 55.5498L22.4128 55.5491L22.4121 55.5485L22.4115 55.5478L22.4108 55.5472L22.4101 55.5465L22.4095 55.5458L22.4088 55.5452L22.4082 55.5445L22.4075 55.5439L22.4069 55.5432L22.4062 55.5426L22.4056 55.542L22.405 55.5413L22.4043 55.5407L22.4037 55.5401L22.4031 55.5394L22.4024 55.5388L22.4018 55.5382L22.4012 55.5375L22.4006 55.5369L22.4 55.5363L22.3993 55.5357L22.3987 55.5351L22.3981 55.5345L22.3975 55.5339L22.3969 55.5332L22.3963 55.5326L22.3957 55.532L22.3951 55.5314L22.3945 55.5308L22.3939 55.5302L22.3933 55.5297L22.3927 55.5291L22.3921 55.5285L22.3915 55.5279L22.3909 55.5273L22.3904 55.5267L22.3898 55.5261L22.3892 55.5256L22.3886 55.525L22.3881 55.5244L22.3875 55.5238L22.3869 55.5233L22.3864 55.5227L22.3858 55.5221L22.3852 55.5216L22.3847 55.521L22.3841 55.5205L22.3836 55.5199L22.383 55.5194L22.3825 55.5188L22.3819 55.5183L22.3814 55.5177L22.3808 55.5172L22.3803 55.5166L22.3797 55.5161L22.3792 55.5155L22.3787 55.515L22.3781 55.5145L22.3776 55.5139L22.3771 55.5134L22.3765 55.5129L22.376 55.5124L22.3755 55.5118L22.375 55.5113L22.3744 55.5108L22.3739 55.5103L22.3734 55.5098L22.3729 55.5092L22.3724 55.5087L22.3719 55.5082L22.3714 55.5077L22.3708 55.5072L22.3703 55.5067L22.3698 55.5062L22.3693 55.5057L22.3688 55.5052L22.3683 55.5047L22.3678 55.5042L22.3673 55.5037L22.3669 55.5032L22.3664 55.5027L22.3659 55.5022L22.3654 55.5017L22.3649 55.5012L22.3644 55.5008L22.3639 55.5003L22.3634 55.4998L22.363 55.4993L22.3625 55.4988L22.362 55.4984L22.3615 55.4979L22.3611 55.4974L22.3606 55.497L22.3601 55.4965L22.3597 55.496L22.3592 55.4956L22.3587 55.4951L22.3583 55.4946L22.3578 55.4942L22.3574 55.4937L22.3569 55.4933L22.3564 55.4928L22.356 55.4923L22.3555 55.4919L22.3551 55.4914L22.3546 55.491L22.3542 55.4905L22.3537 55.4901L22.3533 55.4896L22.3529 55.4892L22.3524 55.4888L22.352 55.4883L22.3515 55.4879L22.3511 55.4874L22.3507 55.487L22.3502 55.4866L22.3498 55.4861L22.3494 55.4857L22.3489 55.4853L22.3485 55.4848L22.3481 55.4844L22.3476 55.484L22.3472 55.4836L22.3468 55.4831L22.3464 55.4827L22.3459 55.4823L22.3455 55.4819L22.3451 55.4815L22.3447 55.481L22.3443 55.4806L22.3439 55.4802L22.3434 55.4798L22.343 55.4794L22.3426 55.479L22.3422 55.4786L22.3418 55.4782L22.3414 55.4778L22.341 55.4773L22.3406 55.4769L22.3402 55.4765L22.3398 55.4761L22.3394 55.4757L22.339 55.4753L22.3386 55.4749L22.3382 55.4745L22.3378 55.4741L22.3374 55.4737L22.337 55.4733L22.3366 55.473L22.3362 55.4726L22.3358 55.4722L22.3354 55.4718L22.335 55.4714L22.3346 55.471L22.3343 55.4706L22.3339 55.4702L22.3335 55.4698L22.3331 55.4695L22.3327 55.4691L22.3323 55.4687L22.332 55.4683L22.3316 55.4679L22.3312 55.4675L22.3308 55.4672L22.3304 55.4668L22.3301 55.4664L22.3297 55.466L22.3293 55.4657L22.3289 55.4653L22.3286 55.4649L22.3282 55.4645L22.3278 55.4642L22.3275 55.4638L22.3271 55.4634L22.3267 55.4631L22.3263 55.4627L22.326 55.4623L22.3256 55.462L22.3252 55.4616L22.3249 55.4612L22.3245 55.4609L22.3242 55.4605L22.3238 55.4601L22.3234 55.4598L22.3231 55.4594L22.3227 55.4591L22.3223 55.4587L22.322 55.4583L22.3216 55.458L22.3213 55.4576L22.3209 55.4573L22.3206 55.4569L22.3202 55.4566L22.3198 55.4562L22.3195 55.4558L22.3191 55.4555L22.3188 55.4551L22.3184 55.4548L22.3181 55.4544L22.3177 55.4541L22.3174 55.4537L22.317 55.4534L22.3167 55.453L22.3163 55.4527L22.316 55.4523L22.3156 55.452L22.3153 55.4516L22.3149 55.4513L22.3146 55.4509L22.3142 55.4506L22.3139 55.4502L22.3135 55.4499L22.3132 55.4496L22.3129 55.4492L22.3125 55.4489L22.3122 55.4485L22.3118 55.4482L22.3115 55.4478L22.3111 55.4475L22.3108 55.4471L22.3105 55.4468L22.3101 55.4465L22.3098 55.4461L22.3094 55.4458L22.3091 55.4454L22.3087 55.4451L22.3084 55.4448L22.3081 55.4444L22.3077 55.4441L22.3074 55.4437L22.307 55.4434L22.3067 55.4431L22.3064 55.4427L22.306 55.4424L22.3057 55.442L22.3054 55.4417L22.305 55.4414L22.3047 55.441L22.3043 55.4407L22.304 55.4404L22.3037 55.44L22.3033 55.4397L22.303 55.4393L22.3027 55.439L22.3023 55.4387L22.302 55.4383L22.3016 55.438L22.3013 55.4377L22.301 55.4373L22.3006 55.437L22.3003 55.4367L22.3 55.4363L22.2996 55.436L22.2993 55.4356L22.299 55.4353L22.2986 55.435L22.2983 55.4346L22.2979 55.4343L22.2976 55.434L22.2973 55.4336L22.2969 55.4333L22.2966 55.433L22.2963 55.4326L22.2959 55.4323L22.2956 55.4319L22.2953 55.4316L22.2949 55.4313L22.2946 55.4309L22.2942 55.4306L22.2939 55.4303L22.2936 55.4299L22.2932 55.4296L22.2929 55.4292L22.2925 55.4289L22.2922 55.4286L22.2919 55.4282L22.2915 55.4279L22.2912 55.4275L22.2909 55.4272L22.2905 55.4269L22.2902 55.4265L22.2898 55.4262L22.2895 55.4258L22.2891 55.4255L22.2888 55.4252L22.2885 55.4248L22.2881 55.4245L22.2878 55.4241L22.2874 55.4238L22.2871 55.4235L22.2868 55.4231L22.2864 55.4228L22.2861 55.4224L22.2857 55.4221L22.2854 55.4217L22.285 55.4214L22.2847 55.421L22.2843 55.4207L22.284 55.4203L22.2836 55.42L22.2833 55.4197L22.283 55.4193L22.2826 55.419L22.2823 55.4186L22.2819 55.4183L22.2816 55.4179L22.2812 55.4176L22.2809 55.4172L22.2805 55.4169L22.2801 55.4165L22.2798 55.4161L22.2794 55.4158L22.2791 55.4154L22.2787 55.4151L22.2784 55.4147L22.278 55.4144L22.2777 55.414L22.2773 55.4137L22.277 55.4133L22.2766 55.4129L22.2762 55.4126L22.2759 55.4122L22.2755 55.4119L22.2752 55.4115L22.2748 55.4111L22.2744 55.4108L22.2741 55.4104L22.2737 55.4101L22.2733 55.4097L22.273 55.4093L22.2726 55.409L22.2722 55.4086L22.2719 55.4082L22.2715 55.4079L22.2711 55.4075L22.2708 55.4071L22.2704 55.4067L22.27 55.4064L22.2696 55.406L22.2693 55.4056L22.2689 55.4052L22.2685 55.4049L22.2681 55.4045L22.2678 55.4041L22.2674 55.4037L22.267 55.4034L22.2666 55.403L22.2662 55.4026L22.2659 55.4022L22.2655 55.4018L22.2651 55.4014L22.2647 55.4011L22.2643 55.4007L22.2639 55.4003L22.2635 55.3999L22.2632 55.3995L22.2628 55.3991L22.2624 55.3987L22.262 55.3983L22.2616 55.3979L22.2612 55.3975L22.2608 55.3972L22.2604 55.3968L22.26 55.3964L22.2596 55.396L22.2592 55.3956L22.2588 55.3952L22.2584 55.3948L22.258 55.3943L22.2576 55.3939L22.2572 55.3935L22.2568 55.3931L22.2564 55.3927L22.256 55.3923L22.2555 55.3919L22.2551 55.3915L22.2547 55.3911L22.2543 55.3907L22.2539 55.3902L22.2535 55.3898L22.2531 55.3894L22.2526 55.389L22.2522 55.3886L22.2518 55.3881L22.2514 55.3877L22.2509 55.3873L22.2505 55.3869L22.2501 55.3864L22.2497 55.386L22.2492 55.3856L22.2488 55.3851L22.2484 55.3847L22.2479 55.3843L22.2475 55.3838L22.2471 55.3834L22.2466 55.383L22.2462 55.3825L22.2457 55.3821L22.2453 55.3816L22.2448 55.3812L22.2444 55.3807L22.2439 55.3803L22.2435 55.3798L22.243 55.3794L22.2426 55.3789L22.2421 55.3785L22.2417 55.378L22.2412 55.3776L22.2408 55.3771L22.2403 55.3767L22.2398 55.3762L22.2394 55.3757L22.2389 55.3753L22.2384 55.3748L22.238 55.3743L22.2375 55.3739L22.237 55.3734L22.2366 55.3729L22.2361 55.3724L22.2356 55.372L22.2351 55.3715L22.2347 55.371L22.2342 55.3705L22.2337 55.37L22.2332 55.3696L22.2327 55.3691L22.2322 55.3686L22.2317 55.3681L22.2312 55.3676L22.2307 55.3671L22.2302 55.3666L22.2298 55.3661L22.2292 55.3656L22.2287 55.3651L22.2282 55.3646L22.2277 55.3641L22.2272 55.3636L22.2267 55.3631L22.2262 55.3626L22.2257 55.362L22.2252 55.3615L22.2247 55.361L22.2241 55.3605L22.2236 55.36L22.2231 55.3595L22.2226 55.3589L22.2221 55.3584L22.2215 55.3579L22.221 55.3573L22.2205 55.3568L22.2199 55.3563L22.2194 55.3557L22.2188 55.3552L22.2183 55.3547L22.2178 55.3541L22.2172 55.3536L22.2167 55.353L22.2161 55.3525L22.2156 55.3519L22.215 55.3514L22.2145 55.3508L22.2139 55.3503L22.2133 55.3497L22.2128 55.3491L22.2122 55.3486L22.2117 55.348L22.2111 55.3474L22.2105 55.3469L22.2099 55.3463L22.2094 55.3457L22.2088 55.3451L22.2082 55.3446L22.2076 55.344L22.207 55.3434L22.2065 55.3428L22.2059 55.3422L22.2053 55.3416L22.2047 55.341L22.2041 55.3404L22.2035 55.3398L22.2029 55.3392L22.2023 55.3386L22.2017 55.338L22.2011 55.3374L22.2005 55.3368L22.1999 55.3362L22.1992 55.3356L22.1986 55.335L22.198 55.3344L22.1974 55.3337L22.1968 55.3331L22.1961 55.3325L22.1955 55.3319L22.1949 55.3312L22.1942 55.3306L22.1936 55.33L22.193 55.3293L22.1923 55.3287L22.1917 55.328L22.191 55.3274L22.1904 55.3267L22.1897 55.3261L22.1891 55.3254L22.1884 55.3248L22.1878 55.3241L22.1871 55.3235L22.1865 55.3228L22.1858 55.3221L22.1851 55.3215L22.1844 55.3208C21.6263 54.7626 21.4052 53.8143 21.4052 52.414L22.1052 52.414L21.4052 52.414C21.4052 51.5814 21.4644 50.6396 21.5375 49.8647C21.5741 49.4763 21.6148 49.1244 21.6543 48.8439C21.658 48.8177 21.6618 48.7914 21.6656 48.7652C21.4356 48.6626 21.1505 48.5601 20.8144 48.461C20.2578 48.2969 19.6071 48.1551 18.9265 48.0358C17.9174 47.8589 16.8666 47.7357 16.0015 47.6609C16.0799 48.4034 16.144 49.1212 16.144 49.6576C16.144 50.0336 16.1135 50.5906 15.9614 51.1482C15.8115 51.6977 15.5196 52.3342 14.932 52.7539C13.8933 53.4959 12.2755 53.6903 10.1239 53.2122L10.1149 53.2102L10.106 53.208C9.79588 53.1304 9.49409 53.0558 9.19982 52.9831C7.77593 52.6312 6.52782 52.3227 5.36197 51.935C3.91629 51.5304 2.89732 51.2663 2.18736 51.2018C1.83423 51.1697 1.62706 51.195 1.5113 51.2342C1.42563 51.2631 1.39663 51.2945 1.36944 51.3489L1.31864 51.4505L1.23832 51.5308C1.23123 51.5379 1.22671 51.5432 1.22399 51.5466C1.22287 51.5481 1.22206 51.5492 1.2215 51.55C1.22149 51.55 1.22147 51.5501 1.22146 51.5501C1.22038 51.5545 1.21769 51.5673 1.21588 51.5963C1.21388 51.6283 1.21365 51.6639 1.21365 51.7249C1.21365 51.8885 1.32014 52.1731 1.81256 52.6655C2.28518 53.1382 2.98452 53.6791 3.90466 54.3694C4.28102 54.6221 4.64911 54.93 4.99794 55.223L5.03591 55.2549C5.38644 55.5494 5.7264 55.835 6.0887 56.0938L6.10992 56.1089L6.12996 56.1256C9.01824 58.5325 10.6312 61.5903 10.6312 65.0473C10.6312 66.5077 10.3871 67.9524 9.9152 69.6039L9.91526 69.6039L9.91261 69.6127C8.55482 74.1387 6.95522 80.276 6.61153 96.1789V97.6643L6.61153 99.1574C6.61152 107.695 7.60887 112.621 8.29967 116.033C8.34577 116.261 8.39051 116.482 8.43349 116.697C8.4809 116.902 8.52916 117.106 8.57705 117.308C8.86416 118.521 9.1382 119.679 9.1382 120.749C9.1382 121.87 9.22295 123.335 9.52317 124.673C9.82985 126.039 10.3275 127.115 11.0336 127.649C11.6005 128.05 12.6182 128.201 14.0232 127.877L14.0264 127.876C15.5473 127.532 16.3948 126.596 16.8844 125.478C17.3841 124.338 17.4989 123.025 17.5003 122.031C17.4443 120.986 17.3067 120.085 17.145 119.385C16.9843 118.688 16.8103 118.235 16.6944 118.031C16.323 117.511 15.881 116.579 15.4298 115.385C14.9615 114.145 14.4621 112.565 14.0041 110.741C13.0887 107.094 12.3321 102.442 12.3321 97.5495C12.3321 92.6342 13.6142 85.7881 15.312 79.256C17.0109 72.7197 19.1459 66.4226 20.8905 62.5826C21.5746 60.9859 22.081 59.6897 22.4155 58.6583C22.7553 57.6107 22.8982 56.8933 22.8982 56.4337C22.8982 56.0128 22.8415 55.8744 22.8182 55.8335L22.8175 55.8323C22.8074 55.8145 22.7858 55.7765 22.5961 55.6816Z" stroke="#FF570F" stroke-width="1.4"/>
<path d="M23.724 36.5649L23.724 36.5882L23.7224 36.6115C23.6375 37.8855 24.6461 38.9659 26.1249 38.9659C26.7131 38.9659 27.3174 38.6893 27.7833 38.2234C28.2492 37.7575 28.5258 37.1531 28.5258 36.5649C28.5258 35.9768 28.2492 35.3724 27.7833 34.9065C27.3174 34.4406 26.7131 34.164 26.1249 34.164C25.5367 34.164 24.9324 34.4406 24.4664 34.9065C24.0005 35.3724 23.724 35.9768 23.724 36.5649Z" stroke="#FF570F" stroke-width="1.4"/>
<path d="M24.0606 7.61359L24.0259 7.84062L23.8635 8.00301L23.8629 8.00368L23.8622 8.00435L23.8615 8.00502L23.8609 8.00568L23.8602 8.00634L23.8596 8.007L23.8589 8.00766L23.8582 8.00831L23.8576 8.00896L23.857 8.00961L23.8563 8.01025L23.8557 8.0109L23.855 8.01154L23.8544 8.01218L23.8537 8.01281L23.8531 8.01344L23.8525 8.01407L23.8519 8.0147L23.8512 8.01533L23.8506 8.01595L23.85 8.01657L23.8494 8.01719L23.8492 8.01736L18.3116 21.6919L17.3246 30.7941L17.9466 31.4161C19.343 29.2884 21.4243 27.708 24.0468 27.1393L24.0468 18.8325L23.0512 13.8548C23.0351 13.822 23.0195 13.7852 23.006 13.7446C22.9694 13.635 22.9439 13.4843 22.9783 13.3124C23.0006 13.2008 23.0443 13.1 23.1024 13.0119L24.8507 8.85971L24.8507 2.43387L24.0606 7.61359Z" stroke="#FF570F" stroke-width="1.4"/>
<path d="M26.1249 11.9758L25.3621 13.6773L26.0733 17.233L26.8835 13.6681L26.1249 11.9758Z" stroke="#FF570F" stroke-width="1.4"/>
<path d="M19.5302 33.8607L19.5232 33.8764L19.5155 33.8918C19.1051 34.7128 18.9004 35.5243 18.9004 36.5648C18.9003 40.5425 22.1473 43.7894 26.1249 43.7894C30.0663 43.7894 33.3462 40.5807 33.8046 36.5654C33.6902 35.541 33.5781 34.6607 33.1937 33.8918L33.186 33.8764L33.179 33.8607C32.0171 31.22 29.4976 29.3403 26.3546 29.3403C23.2116 29.3403 20.6921 31.22 19.5302 33.8607ZM30.8446 36.5648L30.8446 36.5832L30.8436 36.6016C30.71 39.1414 28.7015 41.1499 26.1617 41.2835L26.1433 41.2845H26.1249C23.4413 41.2845 21.4052 39.2484 21.4052 36.5648C21.4052 33.8812 23.4413 31.8451 26.1249 31.8451C28.8085 31.8451 30.8446 33.8812 30.8446 36.5648Z" stroke="#FF570F" stroke-width="1.4"/>
<path d="M17.2482 40.0468L16.9932 40.2091L16.0565 45.08C16.8844 45.1269 17.9458 45.2329 19.0066 45.3904C20.1596 45.5617 21.3773 45.8028 22.3118 46.1197L22.6443 45.3715C20.1886 44.4432 18.2089 42.4873 17.2482 40.0468Z" stroke="#FF570F" stroke-width="1.4"/>
<path d="M37.2028 52.4094L37.1962 52.4047L37.1897 52.3998C35.9875 51.4981 35.9898 50.0304 35.9908 49.3677C35.9908 49.365 35.9908 49.3623 35.9909 49.3597C35.9297 48.88 35.9677 48.3931 36.025 47.9342C36.0533 47.7082 36.0825 47.5109 36.1113 47.3178C35.2482 47.3915 34.2018 47.5091 33.1945 47.6649C32.0888 47.8358 31.1009 48.043 30.449 48.2642C30.5705 49.2678 30.7297 50.9359 30.7297 52.2992C30.7297 53.6995 30.5086 54.6478 29.9504 55.206L29.9497 55.2066L29.9491 55.2073L29.9484 55.208L29.9477 55.2086L29.9471 55.2093L29.9464 55.21L29.9458 55.2106L29.9451 55.2113L29.9445 55.2119L29.9438 55.2126L29.9432 55.2132L29.9425 55.2139L29.9419 55.2145L29.9413 55.2151L29.9406 55.2158L29.94 55.2164L29.9393 55.217L29.9387 55.2177L29.9381 55.2183L29.9375 55.2189L29.9369 55.2195L29.9362 55.2202L29.9356 55.2208L29.935 55.2214L29.9344 55.222L29.9338 55.2226L29.9332 55.2232L29.9326 55.2238L29.932 55.2244L29.9314 55.225L29.9308 55.2256L29.9302 55.2262L29.9296 55.2268L29.929 55.2274L29.9284 55.228L29.9278 55.2286L29.9272 55.2292L29.9267 55.2297L29.9261 55.2303L29.9255 55.2309L29.9249 55.2315L29.9243 55.232L29.9238 55.2326L29.9232 55.2332L29.9226 55.2338L29.9221 55.2343L29.9215 55.2349L29.921 55.2354L29.9204 55.236L29.9198 55.2365L29.9193 55.2371L29.9187 55.2377L29.9182 55.2382L29.9176 55.2388L29.9171 55.2393L29.9166 55.2398L29.916 55.2404L29.9155 55.2409L29.9149 55.2415L29.9144 55.242L29.9139 55.2425L29.9133 55.2431L29.9128 55.2436L29.9123 55.2441L29.9118 55.2446L29.9112 55.2452L29.9107 55.2457L29.9102 55.2462L29.9097 55.2467L29.9092 55.2472L29.9087 55.2477L29.9081 55.2483L29.9076 55.2488L29.9071 55.2493L29.9066 55.2498L29.9061 55.2503L29.9056 55.2508L29.9051 55.2513L29.9046 55.2518L29.9041 55.2523L29.9036 55.2528L29.9031 55.2533L29.9026 55.2538L29.9022 55.2542L29.9017 55.2547L29.9012 55.2552L29.9007 55.2557L29.9002 55.2562L29.8997 55.2567L29.8993 55.2571L29.8988 55.2576L29.8983 55.2581L29.8978 55.2586L29.8974 55.259L29.8969 55.2595L29.8964 55.26L29.8959 55.2604L29.8955 55.2609L29.895 55.2614L29.8946 55.2618L29.8941 55.2623L29.8936 55.2628L29.8932 55.2632L29.8927 55.2637L29.8923 55.2641L29.8918 55.2646L29.8914 55.265L29.8909 55.2655L29.8905 55.2659L29.89 55.2664L29.8896 55.2668L29.8891 55.2673L29.8887 55.2677L29.8882 55.2681L29.8878 55.2686L29.8874 55.269L29.8869 55.2695L29.8865 55.2699L29.8861 55.2703L29.8856 55.2708L29.8852 55.2712L29.8848 55.2716L29.8843 55.272L29.8839 55.2725L29.8835 55.2729L29.8831 55.2733L29.8826 55.2737L29.8822 55.2742L29.8818 55.2746L29.8814 55.275L29.881 55.2754L29.8806 55.2758L29.8801 55.2763L29.8797 55.2767L29.8793 55.2771L29.8789 55.2775L29.8785 55.2779L29.8781 55.2783L29.8777 55.2787L29.8773 55.2791L29.8769 55.2795L29.8765 55.2799L29.8761 55.2803L29.8757 55.2807L29.8753 55.2811L29.8749 55.2815L29.8745 55.2819L29.8741 55.2823L29.8737 55.2827L29.8733 55.2831L29.8729 55.2835L29.8725 55.2839L29.8721 55.2843L29.8717 55.2847L29.8713 55.2851L29.8709 55.2855L29.8705 55.2859L29.8702 55.2862L29.8698 55.2866L29.8694 55.287L29.869 55.2874L29.8686 55.2878L29.8682 55.2882L29.8679 55.2885L29.8675 55.2889L29.8671 55.2893L29.8667 55.2897L29.8663 55.29L29.866 55.2904L29.8656 55.2908L29.8652 55.2912L29.8648 55.2915L29.8645 55.2919L29.8641 55.2923L29.8637 55.2927L29.8634 55.293L29.863 55.2934L29.8626 55.2938L29.8623 55.2941L29.8619 55.2945L29.8615 55.2949L29.8612 55.2952L29.8608 55.2956L29.8604 55.296L29.8601 55.2963L29.8597 55.2967L29.8593 55.297L29.859 55.2974L29.8586 55.2978L29.8583 55.2981L29.8579 55.2985L29.8576 55.2988L29.8572 55.2992L29.8568 55.2996L29.8565 55.2999L29.8561 55.3003L29.8558 55.3006L29.8554 55.301L29.8551 55.3013L29.8547 55.3017L29.8544 55.302L29.854 55.3024L29.8537 55.3027L29.8533 55.3031L29.853 55.3034L29.8526 55.3038L29.8523 55.3041L29.8519 55.3045L29.8516 55.3048L29.8512 55.3052L29.8509 55.3055L29.8505 55.3059L29.8502 55.3062L29.8498 55.3066L29.8495 55.3069L29.8491 55.3073L29.8488 55.3076L29.8485 55.3079L29.8481 55.3083L29.8478 55.3086L29.8474 55.309L29.8471 55.3093L29.8467 55.3097L29.8464 55.31L29.8461 55.3103L29.8457 55.3107L29.8454 55.311L29.845 55.3114L29.8447 55.3117L29.8443 55.312L29.844 55.3124L29.8437 55.3127L29.8433 55.3131L29.843 55.3134L29.8427 55.3137L29.8423 55.3141L29.842 55.3144L29.8416 55.3148L29.8413 55.3151L29.841 55.3154L29.8406 55.3158L29.8403 55.3161L29.8399 55.3164L29.8396 55.3168L29.8393 55.3171L29.8389 55.3175L29.8386 55.3178L29.8383 55.3181L29.8379 55.3185L29.8376 55.3188L29.8373 55.3191L29.8369 55.3195L29.8366 55.3198L29.8362 55.3202L29.8359 55.3205L29.8356 55.3208L29.8352 55.3212L29.8349 55.3215L29.8346 55.3218L29.8342 55.3222L29.8339 55.3225L29.8336 55.3228L29.8332 55.3232L29.8329 55.3235L29.8325 55.3239L29.8322 55.3242L29.8319 55.3245L29.8315 55.3249L29.8312 55.3252L29.8309 55.3255L29.8305 55.3259L29.8302 55.3262L29.8298 55.3266L29.8295 55.3269L29.8292 55.3272L29.8288 55.3276L29.8285 55.3279L29.8282 55.3282L29.8278 55.3286L29.8275 55.3289L29.8271 55.3293L29.8268 55.3296L29.8265 55.3299L29.8261 55.3303L29.8258 55.3306L29.8254 55.331L29.8251 55.3313L29.8247 55.3316L29.8244 55.332L29.8241 55.3323L29.8237 55.3327L29.8234 55.333L29.823 55.3334L29.8227 55.3337L29.8223 55.334L29.822 55.3344L29.8217 55.3347L29.8213 55.3351L29.821 55.3354L29.8206 55.3358L29.8203 55.3361L29.8199 55.3365L29.8196 55.3368L29.8192 55.3372L29.8189 55.3375L29.8185 55.3379L29.8182 55.3382L29.8178 55.3386L29.8175 55.3389L29.8171 55.3393L29.8168 55.3396L29.8164 55.34L29.8161 55.3403L29.8157 55.3407L29.8154 55.341L29.815 55.3414L29.8147 55.3417L29.8143 55.3421L29.8139 55.3424L29.8136 55.3428L29.8132 55.3432L29.8129 55.3435L29.8125 55.3439L29.8122 55.3442L29.8118 55.3446L29.8114 55.345L29.8111 55.3453L29.8107 55.3457L29.8103 55.3461L29.81 55.3464L29.8096 55.3468L29.8092 55.3471L29.8089 55.3475L29.8085 55.3479L29.8081 55.3482L29.8078 55.3486L29.8074 55.349L29.807 55.3494L29.8067 55.3497L29.8063 55.3501L29.8059 55.3505L29.8055 55.3508L29.8052 55.3512L29.8048 55.3516L29.8044 55.352L29.804 55.3524L29.8037 55.3527L29.8033 55.3531L29.8029 55.3535L29.8025 55.3539L29.8021 55.3543L29.8018 55.3546L29.8014 55.355L29.801 55.3554L29.8006 55.3558L29.8002 55.3562L29.7998 55.3566L29.7994 55.357L29.799 55.3573L29.7987 55.3577L29.7983 55.3581L29.7979 55.3585L29.7975 55.3589L29.7971 55.3593L29.7967 55.3597L29.7963 55.3601L29.7959 55.3605L29.7955 55.3609L29.7951 55.3613L29.7947 55.3617L29.7943 55.3621L29.7939 55.3625L29.7935 55.3629L29.7931 55.3633L29.7926 55.3637L29.7922 55.3642L29.7918 55.3646L29.7914 55.365L29.791 55.3654L29.7906 55.3658L29.7902 55.3662L29.7898 55.3666L29.7893 55.3671L29.7889 55.3675L29.7885 55.3679L29.7881 55.3683L29.7876 55.3687L29.7872 55.3692L29.7868 55.3696L29.7864 55.37L29.7859 55.3705L29.7855 55.3709L29.7851 55.3713L29.7846 55.3718L29.7842 55.3722L29.7838 55.3726L29.7833 55.3731L29.7829 55.3735L29.7825 55.3739L29.782 55.3744L29.7816 55.3748L29.7811 55.3753L29.7807 55.3757L29.7802 55.3762L29.7798 55.3766L29.7793 55.3771L29.7789 55.3775L29.7784 55.378L29.778 55.3784L29.7775 55.3789L29.777 55.3793L29.7766 55.3798L29.7761 55.3803L29.7757 55.3807L29.7752 55.3812L29.7747 55.3817L29.7743 55.3821L29.7738 55.3826L29.7733 55.3831L29.7728 55.3836L29.7724 55.384L29.7719 55.3845L29.7714 55.385L29.7709 55.3855L29.7704 55.3859L29.77 55.3864L29.7695 55.3869L29.769 55.3874L29.7685 55.3879L29.768 55.3884L29.7675 55.3889L29.767 55.3894L29.7665 55.3899L29.766 55.3904L29.7655 55.3909L29.765 55.3914L29.7645 55.3919L29.764 55.3924L29.7635 55.3929L29.763 55.3934L29.7625 55.3939L29.762 55.3944L29.7615 55.3949L29.7609 55.3954L29.7604 55.396L29.7599 55.3965L29.7594 55.397L29.7589 55.3975L29.7583 55.3981L29.7578 55.3986L29.7573 55.3991L29.7567 55.3997L29.7562 55.4002L29.7557 55.4007L29.7551 55.4013L29.7546 55.4018L29.754 55.4023L29.7535 55.4029L29.753 55.4034L29.7524 55.404L29.7519 55.4045L29.7513 55.4051L29.7507 55.4057L29.7502 55.4062L29.7496 55.4068L29.7491 55.4073L29.7485 55.4079L29.7479 55.4085L29.7474 55.409L29.7468 55.4096L29.7462 55.4102L29.7456 55.4107L29.7451 55.4113L29.7445 55.4119L29.7439 55.4125L29.7433 55.4131L29.7427 55.4137L29.7422 55.4142L29.7416 55.4148L29.741 55.4154L29.7404 55.416L29.7398 55.4166L29.7392 55.4172L29.7386 55.4178L29.738 55.4184L29.7374 55.419L29.7368 55.4196L29.7361 55.4203L29.7355 55.4209L29.7349 55.4215L29.7343 55.4221L29.7337 55.4227L29.733 55.4233L29.7324 55.424L29.7318 55.4246L29.7312 55.4252L29.7305 55.4259L29.7299 55.4265L29.7293 55.4271L29.7286 55.4278L29.728 55.4284L29.7273 55.4291L29.7267 55.4297L29.726 55.4304L29.7254 55.431L29.7247 55.4317L29.7241 55.4323L29.7234 55.433L29.7227 55.4337L29.7221 55.4343L29.7214 55.435L29.7207 55.4357C29.6455 55.5109 29.5559 55.5903 29.4945 55.6447C29.4741 55.6628 29.4568 55.6781 29.4442 55.6896C29.3775 55.7504 29.3475 55.7841 29.3275 55.8129C29.3045 55.8461 29.2367 55.9501 29.2367 56.3189C29.2367 57.5234 29.8561 59.4597 31.2393 62.4566C33.0435 66.3561 35.1806 72.6592 36.8662 79.1853C38.55 85.7045 39.8027 92.5208 39.8027 97.4347L39.8028 97.4347L39.8027 97.4431C39.7445 102.273 38.9886 106.921 38.0884 110.58C37.6382 112.41 37.15 114 36.6911 115.248C36.2406 116.473 35.7966 117.431 35.4178 117.947L35.3862 117.99L35.3483 118.028C35.3525 118.024 35.3519 118.025 35.347 118.033C35.3328 118.055 35.283 118.133 35.2135 118.302C35.1302 118.504 35.0404 118.783 34.9612 119.126C34.8028 119.812 34.6946 120.723 34.7484 121.746L34.7494 121.764L34.7494 121.783C34.7494 122.765 34.8879 124.06 35.4044 125.197C35.9104 126.31 36.7687 127.258 38.2495 127.653L38.2701 127.658L38.2904 127.665C39.5421 128.082 40.481 127.913 41.0196 127.375L41.0548 127.339L41.0945 127.31C41.7948 126.784 42.2704 125.691 42.5669 124.293C42.8554 122.933 42.94 121.463 42.9976 120.368L42.9987 120.347L43.001 120.327C43.1191 119.263 43.3538 117.858 43.7037 116.342L43.7037 116.342L43.7053 116.335C44.4977 113.052 45.5233 107.939 45.5233 98.8128C45.5233 98.5021 45.5364 98.166 45.5491 97.8379C45.5557 97.6693 45.5621 97.5028 45.5667 97.3429C45.5807 96.8514 45.5797 96.3726 45.5276 95.9041L45.5242 95.8731L45.5235 95.8419C45.1802 79.9334 43.5803 73.7949 42.2222 69.2682L42.2222 69.2682L42.2197 69.2594C41.7478 67.6079 41.5036 66.1632 41.5036 64.7028C41.5036 61.2488 42.9991 58.306 46.0028 55.7829L46.0238 55.7652L46.0462 55.7493C46.4085 55.4905 46.7484 55.2049 47.099 54.9104L47.1369 54.8785C47.4788 54.5913 47.8392 54.2899 48.2077 54.0401C48.3939 53.8772 48.5714 53.7228 48.7401 53.576C49.4045 52.9979 49.9322 52.5388 50.3223 52.1488C50.5678 51.9033 50.7298 51.713 50.8275 51.5638C50.9099 51.438 50.9202 51.3812 50.9212 51.3763C50.9212 51.3177 50.9209 51.283 50.919 51.2518C50.9172 51.2228 50.9145 51.2099 50.9134 51.2056C50.9134 51.2056 50.9134 51.2055 50.9134 51.2055C50.9114 51.2027 50.9065 51.1963 50.8965 51.1863L50.8272 51.117L50.7796 51.0312C50.7152 50.9153 50.6427 50.8567 50.5379 50.8175C50.4108 50.77 50.2017 50.7402 49.8614 50.7711C49.1664 50.8343 48.1813 51.1211 46.7892 51.5851C45.3917 52.0509 43.7578 52.5181 42.0035 52.8693C39.8557 53.3453 38.2404 53.1505 37.2028 52.4094Z" stroke="#FF570F" stroke-width="1.4"/>
<path d="M35.1439 40.1051L35.0103 40.0249C34.0451 42.4946 32.0346 44.4691 29.4847 45.4729L29.8008 46.1841C30.765 45.7897 32.0162 45.5286 33.1658 45.3483C34.2411 45.1796 35.2986 45.072 36.0859 45.0035L35.1439 40.1051Z" stroke="#FF570F" stroke-width="1.4"/>
</g>
<path d="M81.0268 85.0179L81.0343 85.0041L81.0423 84.9908C81.1759 84.7686 81.6819 84.082 82.2915 83.3329C82.827 82.6748 83.4799 81.922 84.0877 81.3409L79.0696 46.8973L79.043 76.6411C80.7405 76.9152 82.0112 78.4363 82.0096 80.2455C82.0081 81.9704 80.7014 83.4346 79.0366 83.7973L79.0352 85.3912L80.168 86.9052C80.408 86.2135 80.7252 85.5766 81.0268 85.0179Z" stroke="#FF570F" stroke-width="1.4"/>
<path d="M76.6308 76.5884L76.6569 47.3765L71.6483 81.3232C72.2549 81.9061 72.9057 82.6602 73.433 83.3131C73.7391 83.6922 74.0101 84.0453 74.215 84.3237C74.3951 84.5683 74.5627 84.8065 74.6342 84.9432C74.947 85.5261 75.2326 86.188 75.4597 86.8678L76.623 85.3205L76.6244 83.7698C74.9315 83.4964 73.6629 81.9828 73.6577 80.1799C73.5884 78.3779 74.9028 76.8954 76.6308 76.5884Z" stroke="#FF570F" stroke-width="1.4"/>
<path d="M93.7681 98.4029L93.7673 98.401C92.948 96.3468 91.712 94.2782 90.3313 92.4783C90.2178 92.3348 90.1019 92.1905 89.985 92.0448C88.5144 90.2126 86.8808 88.1774 87.7247 85.2351C87.7303 85.1539 87.7411 85.0805 87.7515 85.019C87.7591 84.9748 87.7673 84.9318 87.7744 84.8955L87.7759 84.8876C87.7826 84.8528 87.7883 84.8237 87.7934 84.7946C87.808 84.7123 87.8133 84.6574 87.8118 84.6136C87.8006 84.5967 87.7823 84.5711 87.7532 84.536C87.688 84.4575 87.6048 84.3734 87.4939 84.2622L87.4914 84.2597L87.4889 84.2573L87.4864 84.2548L87.4839 84.2523L87.4814 84.2498L87.4789 84.2473L87.4764 84.2448L87.4739 84.2423L87.4714 84.2398L87.4689 84.2373L87.4664 84.2348L87.4639 84.2322L87.4614 84.2297L87.4589 84.2272L87.4564 84.2247L87.4539 84.2222L87.4514 84.2197L87.4489 84.2172L87.4464 84.2146L87.4439 84.2121L87.4414 84.2096L87.4388 84.2071L87.4363 84.2046L87.4338 84.202L87.4313 84.1995L87.4288 84.197L87.4262 84.1944L87.4237 84.1919L87.4212 84.1894L87.4186 84.1868L87.4161 84.1843L87.4136 84.1817L87.411 84.1792L87.4085 84.1767L87.406 84.1741L87.4034 84.1716L87.4009 84.169L87.3984 84.1665L87.3958 84.1639L87.3933 84.1614L87.3907 84.1588L87.3882 84.1563L87.3856 84.1537L87.3831 84.1512L87.3805 84.1486L87.378 84.146L87.3754 84.1435L87.3728 84.1409L87.3703 84.1384L87.3677 84.1358L87.3652 84.1332L87.3626 84.1306L87.36 84.1281L87.3575 84.1255L87.3549 84.1229L87.3523 84.1204L87.3498 84.1178L87.3472 84.1152L87.3446 84.1126L87.3421 84.11L87.3395 84.1075L87.3369 84.1049L87.3343 84.1023L87.3317 84.0997L87.3292 84.0971L87.3266 84.0945L87.324 84.0919L87.3214 84.0894L87.3188 84.0868L87.3162 84.0842L87.3136 84.0816L87.3111 84.079L87.3085 84.0764L87.3059 84.0738L87.3033 84.0712L87.3007 84.0686L87.2981 84.066L87.2955 84.0634L87.2929 84.0607L87.2903 84.0581L87.2877 84.0555L87.2851 84.0529L87.2825 84.0503L87.2799 84.0477L87.2772 84.0451L87.2746 84.0425L87.272 84.0398L87.2694 84.0372L87.2668 84.0346L87.2642 84.032L87.2616 84.0294L87.2589 84.0267L87.2563 84.0241L87.2537 84.0215L87.2511 84.0188L87.2485 84.0162L87.2458 84.0136L87.2432 84.0109L87.2406 84.0083L87.2379 84.0057L87.2353 84.003L87.2327 84.0004L87.2301 83.9978L87.2274 83.9951L87.2248 83.9925L87.2221 83.9898L87.2195 83.9872L87.2169 83.9846L87.2142 83.9819L87.2116 83.9793L87.2089 83.9766L87.2063 83.974L87.2037 83.9713L87.201 83.9686L87.1984 83.966L87.1957 83.9633L87.1931 83.9607L87.1904 83.958L87.1878 83.9554L87.1851 83.9527L87.1824 83.95L87.1798 83.9474L87.1771 83.9447L87.1745 83.942L87.1718 83.9394L87.1691 83.9367L87.1665 83.934L87.1638 83.9314L87.1612 83.9287L87.1585 83.926L87.1558 83.9234L87.1532 83.9207L87.1505 83.918L87.1478 83.9153L87.1451 83.9126L87.1425 83.91L87.1398 83.9073L87.1371 83.9046L87.1344 83.9019L87.1318 83.8992L87.1291 83.8965L87.1264 83.8939L87.1237 83.8912L87.121 83.8885L87.1183 83.8858L87.1157 83.8831L87.113 83.8804L87.1103 83.8777L87.1076 83.875L87.1049 83.8723L87.1022 83.8696L87.0995 83.8669L87.0968 83.8642L87.0941 83.8615L87.0914 83.8588L87.0887 83.8561L87.086 83.8534L87.0833 83.8507L87.0807 83.848L87.0779 83.8453L87.0752 83.8426L87.0725 83.8399L87.0698 83.8372L87.0671 83.8344L87.0644 83.8317L87.0617 83.829L87.059 83.8263L87.0563 83.8236L87.0536 83.8209L87.0509 83.8181L87.0482 83.8154L87.0454 83.8127L87.0427 83.81L87.04 83.8073L87.0373 83.8045L87.0346 83.8018L87.0319 83.7991L87.0291 83.7964L87.0264 83.7936L87.0237 83.7909L87.021 83.7882L87.0182 83.7854L87.0155 83.7827L87.0128 83.78L87.0101 83.7772L87.0073 83.7745L87.0046 83.7718L87.0019 83.769L86.9991 83.7663L86.9964 83.7635L86.9937 83.7608L86.9909 83.7581L86.9882 83.7553L86.9855 83.7526L86.9827 83.7498L86.98 83.7471L86.9772 83.7443L86.9745 83.7416L86.9718 83.7388L86.969 83.7361L86.9663 83.7333L86.9635 83.7306L86.9608 83.7278L86.958 83.7251L86.9553 83.7223L86.9525 83.7196L86.9498 83.7168L86.947 83.714L86.9443 83.7113L86.9415 83.7085L86.9388 83.7058L86.936 83.703L86.9333 83.7002L86.9305 83.6975L86.9278 83.6947L86.925 83.6919L86.9222 83.6892L86.9195 83.6864L86.9167 83.6836L86.9139 83.6809L86.9112 83.6781L86.9084 83.6753L86.9057 83.6726L86.9029 83.6698L86.9001 83.667L86.8974 83.6642L86.8946 83.6615L86.8918 83.6587L86.889 83.6559L86.8863 83.6531L86.8835 83.6504L86.8807 83.6476L86.878 83.6448L86.8752 83.642L86.8724 83.6392L86.8696 83.6364L86.8668 83.6337L86.8641 83.6309L86.8613 83.6281L86.8585 83.6253L86.8557 83.6225L86.8529 83.6197L86.8502 83.6169L86.8474 83.6141L86.8446 83.6114L86.8418 83.6086L86.839 83.6058L86.8362 83.603L86.8334 83.6002L86.8307 83.5974L86.8279 83.5946L86.8251 83.5918L86.8223 83.589L86.8195 83.5862L86.8167 83.5834L86.8139 83.5806L86.8111 83.5778L86.8083 83.575L86.8055 83.5722L86.8027 83.5694L86.7999 83.5666L86.7971 83.5638L86.7943 83.561L86.7915 83.5582L86.7887 83.5553L86.7859 83.5525L86.7831 83.5497L86.7803 83.5469L86.7775 83.5441L86.7747 83.5413L86.7719 83.5385L86.7691 83.5357L86.7663 83.5329L86.7635 83.53L86.7607 83.5272L86.7579 83.5244L86.7551 83.5216L86.7523 83.5188L86.7494 83.516L86.7466 83.5131L86.7438 83.5103L86.741 83.5075L86.7382 83.5047L86.7354 83.5019L86.7326 83.499L86.7297 83.4962L86.7269 83.4934L86.7241 83.4906L86.7213 83.4877L86.7185 83.4849L86.7156 83.4821L86.7128 83.4793L86.71 83.4764L86.7072 83.4736L86.7044 83.4708L86.7015 83.4679L86.6987 83.4651L86.6959 83.4623L86.6931 83.4594L86.6902 83.4566L86.6874 83.4538L86.6846 83.4509L86.6817 83.4481L86.6789 83.4453L86.6761 83.4424L86.6733 83.4396L86.6704 83.4368L86.6676 83.4339L86.6648 83.4311L86.6619 83.4282L86.6591 83.4254L86.6563 83.4226L86.6534 83.4197L86.6506 83.4169L86.6478 83.414L86.6449 83.4112L86.6421 83.4083L86.6392 83.4055L86.6364 83.4026L86.6336 83.3998L86.6307 83.397L86.6279 83.3941L86.6251 83.3913L86.6222 83.3884L86.6194 83.3856L86.6165 83.3827L86.6137 83.3799L86.6108 83.377L86.608 83.3742L86.6051 83.3713L86.6023 83.3685L86.5995 83.3656L86.5966 83.3627L86.5938 83.3599L86.5909 83.357L86.5881 83.3542L86.5852 83.3513L86.5824 83.3485L86.5795 83.3456L86.5767 83.3428L86.5738 83.3399L86.571 83.337L86.5681 83.3342L86.5653 83.3313L86.5624 83.3285L86.5596 83.3256L86.5567 83.3227L86.5538 83.3199L86.551 83.317L86.5481 83.3142L86.5453 83.3113L86.5424 83.3084L86.5396 83.3056L86.5367 83.3027L86.5338 83.2998L86.531 83.297L86.5281 83.2941L86.5253 83.2912L86.5224 83.2884L86.5195 83.2855L86.5167 83.2826L86.5138 83.2798L86.511 83.2769L86.5081 83.274L86.5052 83.2711L86.5024 83.2683L86.4995 83.2654L86.4966 83.2625L86.4938 83.2597L86.4909 83.2568L86.488 83.2539L86.4852 83.251L86.4823 83.2482L86.4794 83.2453L86.4766 83.2424L86.4737 83.2395L86.4708 83.2367L86.468 83.2338L86.4651 83.2309L86.4622 83.228L86.4594 83.2252L86.4565 83.2223L86.4536 83.2194L86.4508 83.2165L86.4479 83.2136L86.445 83.2108L86.4421 83.2079L86.4393 83.205L86.4364 83.2021L86.4335 83.1992L86.4306 83.1964L86.4278 83.1935L86.4249 83.1906L86.422 83.1877L86.4191 83.1848L86.4163 83.182L86.4134 83.1791L86.4105 83.1762L86.4076 83.1733L86.4048 83.1704L86.4019 83.1675L86.399 83.1646L86.3961 83.1618L86.3932 83.1589L86.3904 83.156L86.3875 83.1531L86.3846 83.1502L86.3817 83.1473L86.3788 83.1444L86.376 83.1415L86.3731 83.1387L86.3702 83.1358L86.3673 83.1329L86.3644 83.13L86.3616 83.1271L86.3587 83.1242L86.3558 83.1213L86.3556 83.1211C86.2708 83.1903 86.1653 83.2853 86.0392 83.4111C85.4937 83.9552 84.7662 84.7838 84.1186 85.5361C83.9515 85.7302 83.7874 85.922 83.6328 86.1028C83.2709 86.5258 82.9611 86.8879 82.7875 87.075C82.3424 87.9183 81.9618 88.9421 81.7673 89.8958C81.6401 90.9287 81.7114 91.843 82.1289 92.7464C82.7267 93.9064 83.7427 94.7799 84.9137 95.7228C84.9972 95.79 85.0816 95.8576 85.1666 95.9258C86.2393 96.7858 87.4152 97.7285 88.2331 98.976L88.2331 98.976L88.2367 98.9816C90.8451 103.049 92.438 108.271 92.3608 113.149L92.3609 113.149L92.3605 113.16C92.2874 115.366 92.1428 117.517 91.7812 119.747C91.7023 120.256 91.5118 120.943 91.3086 121.665C91.2918 121.725 91.2748 121.785 91.2577 121.846C91.0627 122.538 90.8527 123.283 90.6813 124.025C90.4943 124.835 90.3612 125.609 90.3415 126.272C90.3212 126.954 90.4249 127.412 90.6056 127.678L90.6057 127.678L90.612 127.688C90.8352 128.03 91.0676 128.122 91.3029 128.129C91.5872 128.137 91.964 128.019 92.4076 127.751C93.2906 127.216 94.1555 126.26 94.571 125.592C96.9985 121.552 97.1696 115.524 96.6817 110.812L96.6809 110.805L96.6803 110.797C96.3359 106.55 95.365 102.372 93.7681 98.4029ZM86.5568 82.9821C86.5568 82.9821 86.5561 82.9824 86.5546 82.983C86.556 82.9825 86.5568 82.9821 86.5568 82.9821Z" stroke="#FF570F" stroke-width="1.4"/>
<path d="M61.1999 98.3989L61.2006 98.397C62.0186 96.3432 63.2532 94.2753 64.6329 92.4763C64.7463 92.3329 64.8621 92.1886 64.9789 92.043C66.4483 90.2118 68.0806 88.1776 67.2346 85.2344C67.229 85.1533 67.2182 85.0799 67.2077 85.0184C67.2001 84.9741 67.1918 84.9311 67.1848 84.8948L67.1833 84.8873C67.1765 84.8523 67.1709 84.8231 67.1656 84.7939C67.151 84.7116 67.1457 84.6567 67.1472 84.6128C67.1583 84.5959 67.1766 84.5703 67.2057 84.5353C67.2709 84.4568 67.354 84.3728 67.4649 84.2617L67.4673 84.2592L67.4698 84.2567L67.4723 84.2542L67.4748 84.2517L67.4773 84.2492L67.4798 84.2467L67.4823 84.2442L67.4848 84.2417L67.4873 84.2392L67.4898 84.2367L67.4923 84.2342L67.4948 84.2317L67.4973 84.2292L67.4998 84.2267L67.5023 84.2242L67.5048 84.2216L67.5073 84.2191L67.5098 84.2166L67.5123 84.2141L67.5148 84.2116L67.5173 84.2091L67.5199 84.2065L67.5224 84.204L67.5249 84.2015L67.5274 84.199L67.5299 84.1964L67.5325 84.1939L67.535 84.1914L67.5375 84.1888L67.54 84.1863L67.5426 84.1838L67.5451 84.1812L67.5476 84.1787L67.5502 84.1761L67.5527 84.1736L67.5552 84.1711L67.5578 84.1685L67.5603 84.166L67.5629 84.1634L67.5654 84.1609L67.568 84.1583L67.5705 84.1558L67.573 84.1532L67.5756 84.1507L67.5781 84.1481L67.5807 84.1455L67.5833 84.143L67.5858 84.1404L67.5884 84.1379L67.5909 84.1353L67.5935 84.1327L67.596 84.1302L67.5986 84.1276L67.6012 84.125L67.6037 84.1225L67.6063 84.1199L67.6089 84.1173L67.6114 84.1147L67.614 84.1121L67.6166 84.1096L67.6192 84.107L67.6217 84.1044L67.6243 84.1018L67.6269 84.0992L67.6295 84.0967L67.6321 84.0941L67.6346 84.0915L67.6372 84.0889L67.6398 84.0863L67.6424 84.0837L67.645 84.0811L67.6476 84.0785L67.6502 84.0759L67.6527 84.0733L67.6553 84.0707L67.6579 84.0681L67.6605 84.0655L67.6631 84.0629L67.6657 84.0603L67.6683 84.0577L67.6709 84.0551L67.6735 84.0525L67.6761 84.0499L67.6787 84.0473L67.6814 84.0446L67.684 84.042L67.6866 84.0394L67.6892 84.0368L67.6918 84.0342L67.6944 84.0315L67.697 84.0289L67.6996 84.0263L67.7023 84.0237L67.7049 84.0211L67.7075 84.0184L67.7101 84.0158L67.7127 84.0132L67.7154 84.0105L67.718 84.0079L67.7206 84.0053L67.7233 84.0026L67.7259 84L67.7285 83.9974L67.7311 83.9947L67.7338 83.9921L67.7364 83.9894L67.7391 83.9868L67.7417 83.9842L67.7443 83.9815L67.747 83.9789L67.7496 83.9762L67.7523 83.9736L67.7549 83.9709L67.7575 83.9683L67.7602 83.9656L67.7628 83.963L67.7655 83.9603L67.7681 83.9576L67.7708 83.955L67.7734 83.9523L67.7761 83.9497L67.7787 83.947L67.7814 83.9443L67.7841 83.9417L67.7867 83.939L67.7894 83.9363L67.792 83.9337L67.7947 83.931L67.7974 83.9283L67.8 83.9257L67.8027 83.923L67.8054 83.9203L67.808 83.9176L67.8107 83.915L67.8134 83.9123L67.816 83.9096L67.8187 83.9069L67.8214 83.9043L67.8241 83.9016L67.8268 83.8989L67.8294 83.8962L67.8321 83.8935L67.8348 83.8908L67.8375 83.8881L67.8402 83.8855L67.8428 83.8828L67.8455 83.8801L67.8482 83.8774L67.8509 83.8747L67.8536 83.872L67.8563 83.8693L67.859 83.8666L67.8617 83.8639L67.8643 83.8612L67.867 83.8585L67.8697 83.8558L67.8724 83.8531L67.8751 83.8504L67.8778 83.8477L67.8805 83.845L67.8832 83.8423L67.8859 83.8396L67.8886 83.8369L67.8913 83.8341L67.894 83.8314L67.8968 83.8287L67.8995 83.826L67.9022 83.8233L67.9049 83.8206L67.9076 83.8179L67.9103 83.8151L67.913 83.8124L67.9157 83.8097L67.9184 83.807L67.9212 83.8043L67.9239 83.8015L67.9266 83.7988L67.9293 83.7961L67.932 83.7933L67.9347 83.7906L67.9375 83.7879L67.9402 83.7852L67.9429 83.7824L67.9456 83.7797L67.9484 83.777L67.9511 83.7742L67.9538 83.7715L67.9566 83.7688L67.9593 83.766L67.962 83.7633L67.9648 83.7605L67.9675 83.7578L67.9702 83.7551L67.973 83.7523L67.9757 83.7496L67.9784 83.7468L67.9812 83.7441L67.9839 83.7413L67.9867 83.7386L67.9894 83.7358L67.9921 83.7331L67.9949 83.7303L67.9976 83.7276L68.0004 83.7248L68.0031 83.7221L68.0059 83.7193L68.0086 83.7166L68.0114 83.7138L68.0141 83.7111L68.0169 83.7083L68.0196 83.7055L68.0224 83.7028L68.0251 83.7L68.0279 83.6973L68.0306 83.6945L68.0334 83.6917L68.0361 83.689L68.0389 83.6862L68.0417 83.6834L68.0444 83.6807L68.0472 83.6779L68.05 83.6751L68.0527 83.6724L68.0555 83.6696L68.0582 83.6668L68.061 83.664L68.0638 83.6613L68.0665 83.6585L68.0693 83.6557L68.0721 83.6529L68.0749 83.6502L68.0776 83.6474L68.0804 83.6446L68.0832 83.6418L68.0859 83.6391L68.0887 83.6363L68.0915 83.6335L68.0943 83.6307L68.0971 83.6279L68.0998 83.6251L68.1026 83.6223L68.1054 83.6196L68.1082 83.6168L68.111 83.614L68.1137 83.6112L68.1165 83.6084L68.1193 83.6056L68.1221 83.6028L68.1249 83.6L68.1277 83.5972L68.1305 83.5944L68.1332 83.5916L68.136 83.5888L68.1388 83.586L68.1416 83.5833L68.1444 83.5805L68.1472 83.5777L68.15 83.5749L68.1528 83.572L68.1556 83.5692L68.1584 83.5664L68.1612 83.5636L68.164 83.5608L68.1668 83.558L68.1696 83.5552L68.1724 83.5524L68.1752 83.5496L68.178 83.5468L68.1808 83.544L68.1836 83.5412L68.1864 83.5384L68.1892 83.5356L68.192 83.5327L68.1948 83.5299L68.1976 83.5271L68.2004 83.5243L68.2032 83.5215L68.206 83.5187L68.2088 83.5159L68.2116 83.513L68.2145 83.5102L68.2173 83.5074L68.2201 83.5046L68.2229 83.5018L68.2257 83.4989L68.2285 83.4961L68.2313 83.4933L68.2342 83.4905L68.237 83.4877L68.2398 83.4848L68.2426 83.482L68.2454 83.4792L68.2483 83.4764L68.2511 83.4735L68.2539 83.4707L68.2567 83.4679L68.2595 83.465L68.2624 83.4622L68.2652 83.4594L68.268 83.4565L68.2708 83.4537L68.2737 83.4509L68.2765 83.448L68.2793 83.4452L68.2821 83.4424L68.285 83.4395L68.2878 83.4367L68.2906 83.4339L68.2935 83.431L68.2963 83.4282L68.2991 83.4254L68.302 83.4225L68.3048 83.4197L68.3076 83.4168L68.3105 83.414L68.3133 83.4112L68.3161 83.4083L68.319 83.4055L68.3218 83.4026L68.3246 83.3998L68.3275 83.3969L68.3303 83.3941L68.3331 83.3912L68.336 83.3884L68.3388 83.3856L68.3417 83.3827L68.3445 83.3799L68.3474 83.377L68.3502 83.3742L68.353 83.3713L68.3559 83.3685L68.3587 83.3656L68.3616 83.3628L68.3644 83.3599L68.3673 83.357L68.3701 83.3542L68.373 83.3513L68.3758 83.3485L68.3787 83.3456L68.3815 83.3428L68.3844 83.3399L68.3872 83.3371L68.3901 83.3342L68.3929 83.3313L68.3958 83.3285L68.3986 83.3256L68.4015 83.3228L68.4043 83.3199L68.4072 83.317L68.41 83.3142L68.4129 83.3113L68.4157 83.3085L68.4186 83.3056L68.4214 83.3027L68.4243 83.2999L68.4272 83.297L68.43 83.2941L68.4329 83.2913L68.4357 83.2884L68.4386 83.2855L68.4414 83.2827L68.4443 83.2798L68.4472 83.2769L68.45 83.2741L68.4529 83.2712L68.4558 83.2683L68.4586 83.2655L68.4615 83.2626L68.4643 83.2597L68.4672 83.2569L68.4701 83.254L68.4729 83.2511L68.4758 83.2482L68.4787 83.2454L68.4815 83.2425L68.4844 83.2396L68.4873 83.2367L68.4901 83.2339L68.493 83.231L68.4959 83.2281L68.4987 83.2253L68.5016 83.2224L68.5045 83.2195L68.5073 83.2166L68.5102 83.2137L68.5131 83.2109L68.516 83.208L68.5188 83.2051L68.5217 83.2022L68.5246 83.1994L68.5274 83.1965L68.5303 83.1936L68.5332 83.1907L68.5361 83.1878L68.5389 83.185L68.5418 83.1821L68.5447 83.1792L68.5476 83.1763L68.5504 83.1734L68.5533 83.1705L68.5562 83.1677L68.5591 83.1648L68.5619 83.1619L68.5648 83.159L68.5677 83.1561L68.5706 83.1532L68.5735 83.1504L68.5763 83.1475L68.5792 83.1446L68.5821 83.1417L68.585 83.1388L68.5878 83.1359L68.5907 83.133L68.5936 83.1301L68.5965 83.1273L68.5994 83.1244L68.6023 83.1215L68.6025 83.1213C68.6874 83.1905 68.7929 83.2856 68.9191 83.4115C69.4651 83.9561 70.1932 84.7853 70.8414 85.5381C71.0086 85.7323 71.1728 85.9243 71.3276 86.1052C71.6898 86.5285 71.9998 86.8909 72.1736 87.0781C72.6194 87.9218 73.0007 88.946 73.1959 89.8999C73.3238 90.933 73.253 91.8473 72.8361 92.7505C72.2391 93.9101 71.2236 94.7829 70.0532 95.725C69.9697 95.7922 69.8854 95.8598 69.8004 95.9279C68.7282 96.7872 67.5528 97.7291 66.7358 98.9761L66.7358 98.9761L66.7321 98.9818C64.1264 103.047 62.5369 108.269 62.6174 113.147L62.6173 113.147L62.6177 113.159C62.6923 115.364 62.8385 117.516 63.2016 119.747C63.2809 120.255 63.4719 120.943 63.6755 121.665C63.6924 121.725 63.7095 121.785 63.7266 121.846C63.9221 122.538 64.1326 123.283 64.3045 124.026C64.4921 124.836 64.6258 125.61 64.6459 126.273C64.6667 126.954 64.5633 127.413 64.3827 127.679L64.3826 127.679L64.3763 127.689C64.1533 128.03 63.921 128.122 63.6857 128.129C63.4013 128.137 63.0244 128.019 62.5806 127.75C61.6971 127.215 60.8315 126.258 60.4155 125.59C57.985 121.548 57.8098 115.519 58.2945 110.807L58.2953 110.8L58.2959 110.792C58.6374 106.544 59.6055 102.367 61.1999 98.3989ZM68.4012 82.9821C68.4012 82.9821 68.4019 82.9824 68.4034 82.983C68.4019 82.9825 68.4012 82.9822 68.4012 82.9821Z" stroke="#FF570F" stroke-width="1.4"/>
</g>
<defs>
<clipPath id="clip0">
<rect width="102" height="102" transform="matrix(-0.707107 -0.707107 -0.707107 0.707107 98.2498 71.364)" fill="white"/>
</clipPath>
</defs>
</svg>
