<svg width="183" height="190" viewBox="0 0 183 190" fill="none" xmlns="http://www.w3.org/2000/svg">
<g clip-path="url(#clip0)">
<path d="M66.959 21.1932L66.9543 21.1711L66.951 21.1489L66.2843 16.6104L66.2843 22.963L68.1429 27.0082C68.1758 27.0583 68.2147 27.1282 68.2439 27.2159C68.2804 27.3255 68.306 27.4762 68.2716 27.6481C68.2562 27.7253 68.2305 27.7973 68.197 27.8635L67.2031 32.8327V41.1629C69.7115 41.8014 71.868 43.2917 73.2171 45.5025L73.8104 44.9091L72.8235 35.807L67.2643 22.0793C67.1998 21.9786 67.1622 21.8832 67.145 21.8396L67.1445 21.8384C67.1048 21.7378 67.0715 21.6304 67.0461 21.5411C67.02 21.4494 66.9985 21.3635 66.9837 21.3014C66.9762 21.2701 66.9702 21.244 66.966 21.2254L66.9611 21.2031L66.9597 21.1965L66.9592 21.1944L66.9591 21.1937L66.959 21.1934L66.959 21.1933C66.959 21.1932 66.959 21.1932 67.6436 21.0471L66.959 21.1932Z" stroke="#FF570F" stroke-width="1.4"/>
<path d="M61.5961 69.6816L61.4945 69.6308L61.4142 69.5505L61.4135 69.5498L61.4129 69.5491L61.4122 69.5485L61.4115 69.5478L61.4109 69.5472L61.4102 69.5465L61.4095 69.5458L61.4089 69.5452L61.4082 69.5445L61.4076 69.5439L61.407 69.5432L61.4063 69.5426L61.4057 69.542L61.405 69.5413L61.4044 69.5407L61.4038 69.5401L61.4031 69.5394L61.4025 69.5388L61.4019 69.5382L61.4013 69.5375L61.4006 69.5369L61.4 69.5363L61.3994 69.5357L61.3988 69.5351L61.3982 69.5345L61.3976 69.5339L61.397 69.5332L61.3963 69.5326L61.3957 69.532L61.3951 69.5314L61.3945 69.5308L61.394 69.5302L61.3934 69.5297L61.3928 69.5291L61.3922 69.5285L61.3916 69.5279L61.391 69.5273L61.3904 69.5267L61.3899 69.5261L61.3893 69.5256L61.3887 69.525L61.3881 69.5244L61.3876 69.5238L61.387 69.5233L61.3864 69.5227L61.3859 69.5221L61.3853 69.5216L61.3847 69.521L61.3842 69.5205L61.3836 69.5199L61.3831 69.5194L61.3825 69.5188L61.382 69.5183L61.3814 69.5177L61.3809 69.5172L61.3803 69.5166L61.3798 69.5161L61.3793 69.5155L61.3787 69.515L61.3782 69.5145L61.3777 69.5139L61.3771 69.5134L61.3766 69.5129L61.3761 69.5124L61.3755 69.5118L61.375 69.5113L61.3745 69.5108L61.374 69.5103L61.3735 69.5098L61.3729 69.5092L61.3724 69.5087L61.3719 69.5082L61.3714 69.5077L61.3709 69.5072L61.3704 69.5067L61.3699 69.5062L61.3694 69.5057L61.3689 69.5052L61.3684 69.5047L61.3679 69.5042L61.3674 69.5037L61.3669 69.5032L61.3664 69.5027L61.3659 69.5022L61.3654 69.5017L61.365 69.5012L61.3645 69.5008L61.364 69.5003L61.3635 69.4998L61.363 69.4993L61.3626 69.4988L61.3621 69.4984L61.3616 69.4979L61.3611 69.4974L61.3607 69.497L61.3602 69.4965L61.3597 69.496L61.3593 69.4956L61.3588 69.4951L61.3583 69.4946L61.3579 69.4942L61.3574 69.4937L61.357 69.4933L61.3565 69.4928L61.356 69.4923L61.3556 69.4919L61.3551 69.4914L61.3547 69.491L61.3542 69.4905L61.3538 69.4901L61.3534 69.4896L61.3529 69.4892L61.3525 69.4888L61.352 69.4883L61.3516 69.4879L61.3512 69.4874L61.3507 69.487L61.3503 69.4866L61.3498 69.4861L61.3494 69.4857L61.349 69.4853L61.3486 69.4848L61.3481 69.4844L61.3477 69.484L61.3473 69.4836L61.3469 69.4831L61.3464 69.4827L61.346 69.4823L61.3456 69.4819L61.3452 69.4815L61.3448 69.481L61.3443 69.4806L61.3439 69.4802L61.3435 69.4798L61.3431 69.4794L61.3427 69.479L61.3423 69.4786L61.3419 69.4782L61.3415 69.4778L61.3411 69.4773L61.3406 69.4769L61.3402 69.4765L61.3398 69.4761L61.3394 69.4757L61.339 69.4753L61.3386 69.4749L61.3382 69.4745L61.3378 69.4741L61.3374 69.4737L61.3371 69.4733L61.3367 69.473L61.3363 69.4726L61.3359 69.4722L61.3355 69.4718L61.3351 69.4714L61.3347 69.471L61.3343 69.4706L61.3339 69.4702L61.3336 69.4698L61.3332 69.4695L61.3328 69.4691L61.3324 69.4687L61.332 69.4683L61.3316 69.4679L61.3313 69.4675L61.3309 69.4672L61.3305 69.4668L61.3301 69.4664L61.3298 69.466L61.3294 69.4657L61.329 69.4653L61.3286 69.4649L61.3283 69.4645L61.3279 69.4642L61.3275 69.4638L61.3271 69.4634L61.3268 69.4631L61.3264 69.4627L61.326 69.4623L61.3257 69.462L61.3253 69.4616L61.3249 69.4612L61.3246 69.4609L61.3242 69.4605L61.3239 69.4601L61.3235 69.4598L61.3231 69.4594L61.3228 69.4591L61.3224 69.4587L61.322 69.4583L61.3217 69.458L61.3213 69.4576L61.321 69.4573L61.3206 69.4569L61.3203 69.4566L61.3199 69.4562L61.3196 69.4558L61.3192 69.4555L61.3188 69.4551L61.3185 69.4548L61.3181 69.4544L61.3178 69.4541L61.3174 69.4537L61.3171 69.4534L61.3167 69.453L61.3164 69.4527L61.316 69.4523L61.3157 69.452L61.3153 69.4516L61.315 69.4513L61.3146 69.4509L61.3143 69.4506L61.314 69.4502L61.3136 69.4499L61.3133 69.4496L61.3129 69.4492L61.3126 69.4489L61.3122 69.4485L61.3119 69.4482L61.3115 69.4478L61.3112 69.4475L61.3109 69.4471L61.3105 69.4468L61.3102 69.4465L61.3098 69.4461L61.3095 69.4458L61.3092 69.4454L61.3088 69.4451L61.3085 69.4448L61.3081 69.4444L61.3078 69.4441L61.3075 69.4437L61.3071 69.4434L61.3068 69.4431L61.3064 69.4427L61.3061 69.4424L61.3058 69.442L61.3054 69.4417L61.3051 69.4414L61.3047 69.441L61.3044 69.4407L61.3041 69.4404L61.3037 69.44L61.3034 69.4397L61.3031 69.4393L61.3027 69.439L61.3024 69.4387L61.302 69.4383L61.3017 69.438L61.3014 69.4377L61.301 69.4373L61.3007 69.437L61.3004 69.4367L61.3 69.4363L61.2997 69.436L61.2994 69.4356L61.299 69.4353L61.2987 69.435L61.2983 69.4346L61.298 69.4343L61.2977 69.434L61.2973 69.4336L61.297 69.4333L61.2967 69.433L61.2963 69.4326L61.296 69.4323L61.2956 69.4319L61.2953 69.4316L61.295 69.4313L61.2946 69.4309L61.2943 69.4306L61.294 69.4303L61.2936 69.4299L61.2933 69.4296L61.2929 69.4292L61.2926 69.4289L61.2923 69.4286L61.2919 69.4282L61.2916 69.4279L61.2913 69.4275L61.2909 69.4272L61.2906 69.4269L61.2902 69.4265L61.2899 69.4262L61.2896 69.4258L61.2892 69.4255L61.2889 69.4252L61.2885 69.4248L61.2882 69.4245L61.2878 69.4241L61.2875 69.4238L61.2872 69.4235L61.2868 69.4231L61.2865 69.4228L61.2861 69.4224L61.2858 69.4221L61.2854 69.4217L61.2851 69.4214L61.2847 69.421L61.2844 69.4207L61.2841 69.4203L61.2837 69.42L61.2834 69.4197L61.283 69.4193L61.2827 69.419L61.2823 69.4186L61.282 69.4183L61.2816 69.4179L61.2813 69.4176L61.2809 69.4172L61.2806 69.4169L61.2802 69.4165L61.2799 69.4161L61.2795 69.4158L61.2791 69.4154L61.2788 69.4151L61.2784 69.4147L61.2781 69.4144L61.2777 69.414L61.2774 69.4137L61.277 69.4133L61.2767 69.4129L61.2763 69.4126L61.2759 69.4122L61.2756 69.4119L61.2752 69.4115L61.2748 69.4111L61.2745 69.4108L61.2741 69.4104L61.2738 69.4101L61.2734 69.4097L61.273 69.4093L61.2727 69.409L61.2723 69.4086L61.2719 69.4082L61.2716 69.4079L61.2712 69.4075L61.2708 69.4071L61.2704 69.4067L61.2701 69.4064L61.2697 69.406L61.2693 69.4056L61.269 69.4052L61.2686 69.4049L61.2682 69.4045L61.2678 69.4041L61.2674 69.4037L61.2671 69.4034L61.2667 69.403L61.2663 69.4026L61.2659 69.4022L61.2655 69.4018L61.2652 69.4014L61.2648 69.4011L61.2644 69.4007L61.264 69.4003L61.2636 69.3999L61.2632 69.3995L61.2628 69.3991L61.2624 69.3987L61.262 69.3983L61.2616 69.3979L61.2613 69.3975L61.2609 69.3972L61.2605 69.3968L61.2601 69.3964L61.2597 69.396L61.2593 69.3956L61.2589 69.3952L61.2585 69.3948L61.2581 69.3943L61.2577 69.3939L61.2572 69.3935L61.2568 69.3931L61.2564 69.3927L61.256 69.3923L61.2556 69.3919L61.2552 69.3915L61.2548 69.3911L61.2544 69.3907L61.254 69.3902L61.2535 69.3898L61.2531 69.3894L61.2527 69.389L61.2523 69.3886L61.2519 69.3881L61.2514 69.3877L61.251 69.3873L61.2506 69.3869L61.2501 69.3864L61.2497 69.386L61.2493 69.3856L61.2489 69.3851L61.2484 69.3847L61.248 69.3843L61.2476 69.3838L61.2471 69.3834L61.2467 69.383L61.2462 69.3825L61.2458 69.3821L61.2453 69.3816L61.2449 69.3812L61.2445 69.3807L61.244 69.3803L61.2436 69.3798L61.2431 69.3794L61.2427 69.3789L61.2422 69.3785L61.2417 69.378L61.2413 69.3776L61.2408 69.3771L61.2404 69.3767L61.2399 69.3762L61.2394 69.3757L61.239 69.3753L61.2385 69.3748L61.238 69.3743L61.2376 69.3739L61.2371 69.3734L61.2366 69.3729L61.2361 69.3724L61.2357 69.372L61.2352 69.3715L61.2347 69.371L61.2342 69.3705L61.2337 69.37L61.2333 69.3696L61.2328 69.3691L61.2323 69.3686L61.2318 69.3681L61.2313 69.3676L61.2308 69.3671L61.2303 69.3666L61.2298 69.3661L61.2293 69.3656L61.2288 69.3651L61.2283 69.3646L61.2278 69.3641L61.2273 69.3636L61.2268 69.3631L61.2263 69.3626L61.2258 69.362L61.2252 69.3615L61.2247 69.361L61.2242 69.3605L61.2237 69.36L61.2232 69.3595L61.2226 69.3589L61.2221 69.3584L61.2216 69.3579L61.2211 69.3573L61.2205 69.3568L61.22 69.3563L61.2194 69.3557L61.2189 69.3552L61.2184 69.3547L61.2178 69.3541L61.2173 69.3536L61.2167 69.353L61.2162 69.3525L61.2156 69.3519L61.2151 69.3514L61.2145 69.3508L61.214 69.3503L61.2134 69.3497L61.2128 69.3491L61.2123 69.3486L61.2117 69.348L61.2111 69.3474L61.2106 69.3469L61.21 69.3463L61.2094 69.3457L61.2089 69.3451L61.2083 69.3446L61.2077 69.344L61.2071 69.3434L61.2065 69.3428L61.2059 69.3422L61.2053 69.3416L61.2047 69.341L61.2042 69.3404L61.2036 69.3398L61.203 69.3392L61.2024 69.3386L61.2018 69.338L61.2011 69.3374L61.2005 69.3368L61.1999 69.3362L61.1993 69.3356L61.1987 69.335L61.1981 69.3344L61.1975 69.3337L61.1968 69.3331L61.1962 69.3325L61.1956 69.3319L61.1949 69.3312L61.1943 69.3306L61.1937 69.33L61.193 69.3293L61.1924 69.3287L61.1918 69.328L61.1911 69.3274L61.1905 69.3267L61.1898 69.3261L61.1892 69.3254L61.1885 69.3248L61.1878 69.3241L61.1872 69.3235L61.1865 69.3228L61.1858 69.3221L61.1852 69.3215L61.1845 69.3208C60.6263 68.7626 60.4052 67.8143 60.4052 66.414L61.1052 66.414L60.4052 66.414C60.4052 65.5814 60.4644 64.6396 60.5375 63.8647C60.5742 63.4763 60.6148 63.1244 60.6543 62.8439C60.658 62.8177 60.6618 62.7914 60.6657 62.7652C60.4357 62.6626 60.1506 62.5601 59.8144 62.461C59.2578 62.2969 58.6072 62.1551 57.9266 62.0358C56.9174 61.8589 55.8667 61.7357 55.0016 61.6609C55.0799 62.4034 55.144 63.1212 55.144 63.6576C55.144 64.0336 55.1135 64.5906 54.9614 65.1482C54.8116 65.6977 54.5197 66.3342 53.9321 66.7539C52.8934 67.4959 51.2755 67.6903 49.124 67.2122L49.115 67.2102L49.1061 67.208C48.7959 67.1304 48.4942 67.0558 48.1999 66.9831C46.776 66.6312 45.5279 66.3227 44.362 65.935C42.9163 65.5304 41.8974 65.2663 41.1874 65.2018C40.8343 65.1697 40.6271 65.195 40.5114 65.2342C40.4257 65.2631 40.3967 65.2945 40.3695 65.3489L40.3187 65.4505L40.2384 65.5308C40.2313 65.5379 40.2268 65.5432 40.224 65.5466C40.2229 65.5481 40.2221 65.5492 40.2216 65.55C40.2215 65.55 40.2215 65.5501 40.2215 65.5501C40.2204 65.5545 40.2177 65.5673 40.2159 65.5963C40.2139 65.6283 40.2137 65.6639 40.2137 65.7249C40.2137 65.8885 40.3202 66.1731 40.8126 66.6655C41.2852 67.1382 41.9846 67.6791 42.9047 68.3694C43.2811 68.6221 43.6492 68.93 43.998 69.223L44.036 69.2549C44.3865 69.5494 44.7265 69.835 45.0888 70.0938L45.11 70.1089L45.13 70.1256C48.0183 72.5325 49.6313 75.5903 49.6313 79.0473C49.6313 80.5077 49.3871 81.9524 48.9153 83.6039L48.9153 83.6039L48.9127 83.6127C47.5549 88.1387 45.9553 94.276 45.6116 110.179V111.664L45.6116 113.157C45.6116 121.695 46.6089 126.621 47.2997 130.033C47.3458 130.261 47.3906 130.482 47.4336 130.697C47.481 130.902 47.5292 131.106 47.5771 131.308C47.8642 132.521 48.1383 133.679 48.1383 134.749C48.1383 135.87 48.223 137.335 48.5232 138.673C48.8299 140.039 49.3276 141.115 50.0337 141.649C50.6006 142.05 51.6183 142.201 53.0233 141.877L53.0265 141.876C54.5473 141.532 55.3949 140.596 55.8845 139.478C56.3841 138.338 56.499 137.025 56.5004 136.031C56.4443 134.986 56.3068 134.085 56.145 133.385C55.9843 132.688 55.8103 132.235 55.6945 132.031C55.323 131.511 54.881 130.579 54.4298 129.385C53.9616 128.145 53.4621 126.565 53.0042 124.741C52.0887 121.094 51.3322 116.442 51.3322 111.549C51.3322 106.634 52.6143 99.7881 54.3121 93.256C56.0109 86.7197 58.146 80.4226 59.8905 76.5826C60.5747 74.9859 61.0811 73.6897 61.4156 72.6583C61.7553 71.6107 61.8983 70.8933 61.8983 70.4337C61.8983 70.0128 61.8416 69.8744 61.8182 69.8335L61.8176 69.8323C61.8074 69.8145 61.7859 69.7765 61.5961 69.6816Z" stroke="#FF570F" stroke-width="1.4"/>
<path d="M62.724 50.5649L62.724 50.5882L62.7225 50.6115C62.6375 51.8855 63.6461 52.9659 65.1249 52.9659C65.7131 52.9659 66.3175 52.6893 66.7834 52.2234C67.2493 51.7575 67.5259 51.1531 67.5259 50.5649C67.5259 49.9768 67.2493 49.3724 66.7834 48.9065C66.3175 48.4406 65.7131 48.164 65.1249 48.164C64.5368 48.164 63.9324 48.4406 63.4665 48.9065C63.0006 49.3724 62.724 49.9768 62.724 50.5649Z" stroke="#FF570F" stroke-width="1.4"/>
<path d="M63.0606 21.6136L63.026 21.8406L62.8636 22.003L62.8629 22.0037L62.8623 22.0044L62.8616 22.005L62.8609 22.0057L62.8603 22.0063L62.8596 22.007L62.859 22.0077L62.8583 22.0083L62.8577 22.009L62.857 22.0096L62.8564 22.0103L62.8557 22.0109L62.8551 22.0115L62.8544 22.0122L62.8538 22.0128L62.8532 22.0134L62.8525 22.0141L62.8519 22.0147L62.8513 22.0153L62.8507 22.0159L62.8501 22.0166L62.8494 22.0172L62.8493 22.0174L57.3116 35.6919L56.3246 44.7941L56.9466 45.4161C58.3431 43.2884 60.4244 41.708 63.0468 41.1393L63.0468 32.8325L62.0513 27.8548C62.0352 27.822 62.0196 27.7852 62.006 27.7446C61.9695 27.635 61.9439 27.4843 61.9783 27.3124C62.0006 27.2008 62.0443 27.1 62.1025 27.0119L63.8508 22.8597L63.8508 16.4339L63.0606 21.6136Z" stroke="#FF570F" stroke-width="1.4"/>
<path d="M65.1249 25.9758L64.3622 27.6773L65.0733 31.233L65.8835 27.6681L65.1249 25.9758Z" stroke="#FF570F" stroke-width="1.4"/>
<path d="M58.5302 47.8607L58.5233 47.8764L58.5156 47.8918C58.1051 48.7128 57.9004 49.5243 57.9004 50.5648C57.9004 54.5425 61.1473 57.7894 65.125 57.7894C69.0664 57.7894 72.3463 54.5807 72.8046 50.5654C72.6903 49.541 72.5782 48.6607 72.1937 47.8918L72.186 47.8764L72.1791 47.8607C71.0172 45.22 68.4977 43.3403 65.3547 43.3403C62.2116 43.3403 59.6921 45.22 58.5302 47.8607ZM69.8447 50.5648L69.8447 50.5832L69.8437 50.6016C69.71 53.1414 67.7015 55.1499 65.1618 55.2835L65.1434 55.2845H65.125C62.4414 55.2845 60.4053 53.2484 60.4053 50.5648C60.4053 47.8812 62.4414 45.8451 65.125 45.8451C67.8085 45.8451 69.8447 47.8812 69.8447 50.5648Z" stroke="#FF570F" stroke-width="1.4"/>
<path d="M56.2482 54.0468L55.9933 54.2091L55.0565 59.08C55.8845 59.1269 56.9458 59.2329 58.0067 59.3904C59.1597 59.5617 60.3774 59.8028 61.3118 60.1197L61.6444 59.3715C59.1887 58.4432 57.209 56.4873 56.2482 54.0468Z" stroke="#FF570F" stroke-width="1.4"/>
<path d="M76.2029 66.4094L76.1963 66.4047L76.1897 66.3998C74.9875 65.4981 74.9899 64.0304 74.9909 63.3677C74.9909 63.365 74.9909 63.3623 74.9909 63.3597C74.9298 62.88 74.9677 62.3931 75.0251 61.9342C75.0533 61.7082 75.0825 61.5109 75.1113 61.3178C74.2483 61.3915 73.2019 61.5091 72.1946 61.6649C71.0889 61.8358 70.1009 62.043 69.449 62.2642C69.5706 63.2678 69.7297 64.9359 69.7298 66.2992C69.7297 67.6995 69.5087 68.6478 68.9505 69.206L68.9498 69.2066L68.9491 69.2073L68.9485 69.208L68.9478 69.2086L68.9471 69.2093L68.9465 69.21L68.9458 69.2106L68.9452 69.2113L68.9445 69.2119L68.9439 69.2126L68.9432 69.2132L68.9426 69.2139L68.9419 69.2145L68.9413 69.2151L68.9407 69.2158L68.94 69.2164L68.9394 69.217L68.9388 69.2177L68.9382 69.2183L68.9375 69.2189L68.9369 69.2195L68.9363 69.2202L68.9357 69.2208L68.9351 69.2214L68.9345 69.222L68.9338 69.2226L68.9332 69.2232L68.9326 69.2238L68.932 69.2244L68.9314 69.225L68.9308 69.2256L68.9302 69.2262L68.9296 69.2268L68.9291 69.2274L68.9285 69.228L68.9279 69.2286L68.9273 69.2292L68.9267 69.2297L68.9261 69.2303L68.9256 69.2309L68.925 69.2315L68.9244 69.232L68.9238 69.2326L68.9233 69.2332L68.9227 69.2338L68.9221 69.2343L68.9216 69.2349L68.921 69.2354L68.9205 69.236L68.9199 69.2365L68.9194 69.2371L68.9188 69.2377L68.9183 69.2382L68.9177 69.2388L68.9172 69.2393L68.9166 69.2398L68.9161 69.2404L68.9155 69.2409L68.915 69.2415L68.9145 69.242L68.9139 69.2425L68.9134 69.2431L68.9129 69.2436L68.9123 69.2441L68.9118 69.2446L68.9113 69.2452L68.9108 69.2457L68.9103 69.2462L68.9097 69.2467L68.9092 69.2472L68.9087 69.2477L68.9082 69.2483L68.9077 69.2488L68.9072 69.2493L68.9067 69.2498L68.9062 69.2503L68.9057 69.2508L68.9052 69.2513L68.9047 69.2518L68.9042 69.2523L68.9037 69.2528L68.9032 69.2533L68.9027 69.2538L68.9022 69.2542L68.9017 69.2547L68.9012 69.2552L68.9008 69.2557L68.9003 69.2562L68.8998 69.2567L68.8993 69.2571L68.8988 69.2576L68.8984 69.2581L68.8979 69.2586L68.8974 69.259L68.8969 69.2595L68.8965 69.26L68.896 69.2604L68.8955 69.2609L68.8951 69.2614L68.8946 69.2618L68.8942 69.2623L68.8937 69.2628L68.8932 69.2632L68.8928 69.2637L68.8923 69.2641L68.8919 69.2646L68.8914 69.265L68.891 69.2655L68.8905 69.2659L68.8901 69.2664L68.8896 69.2668L68.8892 69.2673L68.8888 69.2677L68.8883 69.2681L68.8879 69.2686L68.8874 69.269L68.887 69.2695L68.8866 69.2699L68.8861 69.2703L68.8857 69.2708L68.8853 69.2712L68.8848 69.2716L68.8844 69.272L68.884 69.2725L68.8836 69.2729L68.8831 69.2733L68.8827 69.2737L68.8823 69.2742L68.8819 69.2746L68.8815 69.275L68.881 69.2754L68.8806 69.2758L68.8802 69.2763L68.8798 69.2767L68.8794 69.2771L68.879 69.2775L68.8786 69.2779L68.8781 69.2783L68.8777 69.2787L68.8773 69.2791L68.8769 69.2795L68.8765 69.2799L68.8761 69.2803L68.8757 69.2807L68.8753 69.2811L68.8749 69.2815L68.8745 69.2819L68.8741 69.2823L68.8737 69.2827L68.8733 69.2831L68.8729 69.2835L68.8725 69.2839L68.8722 69.2843L68.8718 69.2847L68.8714 69.2851L68.871 69.2855L68.8706 69.2859L68.8702 69.2862L68.8698 69.2866L68.8694 69.287L68.8691 69.2874L68.8687 69.2878L68.8683 69.2882L68.8679 69.2885L68.8675 69.2889L68.8672 69.2893L68.8668 69.2897L68.8664 69.29L68.866 69.2904L68.8657 69.2908L68.8653 69.2912L68.8649 69.2915L68.8645 69.2919L68.8642 69.2923L68.8638 69.2927L68.8634 69.293L68.8631 69.2934L68.8627 69.2938L68.8623 69.2941L68.862 69.2945L68.8616 69.2949L68.8612 69.2952L68.8609 69.2956L68.8605 69.296L68.8601 69.2963L68.8598 69.2967L68.8594 69.297L68.859 69.2974L68.8587 69.2978L68.8583 69.2981L68.858 69.2985L68.8576 69.2988L68.8573 69.2992L68.8569 69.2996L68.8565 69.2999L68.8562 69.3003L68.8558 69.3006L68.8555 69.301L68.8551 69.3013L68.8548 69.3017L68.8544 69.302L68.8541 69.3024L68.8537 69.3027L68.8534 69.3031L68.853 69.3034L68.8527 69.3038L68.8523 69.3041L68.852 69.3045L68.8516 69.3048L68.8513 69.3052L68.8509 69.3055L68.8506 69.3059L68.8502 69.3062L68.8499 69.3066L68.8495 69.3069L68.8492 69.3073L68.8489 69.3076L68.8485 69.3079L68.8482 69.3083L68.8478 69.3086L68.8475 69.309L68.8471 69.3093L68.8468 69.3097L68.8465 69.31L68.8461 69.3103L68.8458 69.3107L68.8454 69.311L68.8451 69.3114L68.8447 69.3117L68.8444 69.312L68.8441 69.3124L68.8437 69.3127L68.8434 69.3131L68.8431 69.3134L68.8427 69.3137L68.8424 69.3141L68.842 69.3144L68.8417 69.3148L68.8414 69.3151L68.841 69.3154L68.8407 69.3158L68.8403 69.3161L68.84 69.3164L68.8397 69.3168L68.8393 69.3171L68.839 69.3175L68.8387 69.3178L68.8383 69.3181L68.838 69.3185L68.8377 69.3188L68.8373 69.3191L68.837 69.3195L68.8366 69.3198L68.8363 69.3202L68.836 69.3205L68.8356 69.3208L68.8353 69.3212L68.835 69.3215L68.8346 69.3218L68.8343 69.3222L68.8339 69.3225L68.8336 69.3228L68.8333 69.3232L68.8329 69.3235L68.8326 69.3239L68.8323 69.3242L68.8319 69.3245L68.8316 69.3249L68.8313 69.3252L68.8309 69.3255L68.8306 69.3259L68.8302 69.3262L68.8299 69.3266L68.8296 69.3269L68.8292 69.3272L68.8289 69.3276L68.8286 69.3279L68.8282 69.3282L68.8279 69.3286L68.8275 69.3289L68.8272 69.3293L68.8269 69.3296L68.8265 69.3299L68.8262 69.3303L68.8258 69.3306L68.8255 69.331L68.8252 69.3313L68.8248 69.3316L68.8245 69.332L68.8241 69.3323L68.8238 69.3327L68.8234 69.333L68.8231 69.3334L68.8228 69.3337L68.8224 69.334L68.8221 69.3344L68.8217 69.3347L68.8214 69.3351L68.821 69.3354L68.8207 69.3358L68.8203 69.3361L68.82 69.3365L68.8196 69.3368L68.8193 69.3372L68.8189 69.3375L68.8186 69.3379L68.8182 69.3382L68.8179 69.3386L68.8175 69.3389L68.8172 69.3393L68.8168 69.3396L68.8165 69.34L68.8161 69.3403L68.8158 69.3407L68.8154 69.341L68.8151 69.3414L68.8147 69.3417L68.8144 69.3421L68.814 69.3424L68.8136 69.3428L68.8133 69.3432L68.8129 69.3435L68.8126 69.3439L68.8122 69.3442L68.8119 69.3446L68.8115 69.345L68.8111 69.3453L68.8108 69.3457L68.8104 69.3461L68.81 69.3464L68.8097 69.3468L68.8093 69.3471L68.8089 69.3475L68.8086 69.3479L68.8082 69.3482L68.8078 69.3486L68.8075 69.349L68.8071 69.3494L68.8067 69.3497L68.8064 69.3501L68.806 69.3505L68.8056 69.3508L68.8052 69.3512L68.8049 69.3516L68.8045 69.352L68.8041 69.3524L68.8037 69.3527L68.8033 69.3531L68.803 69.3535L68.8026 69.3539L68.8022 69.3543L68.8018 69.3546L68.8014 69.355L68.801 69.3554L68.8007 69.3558L68.8003 69.3562L68.7999 69.3566L68.7995 69.357L68.7991 69.3573L68.7987 69.3577L68.7983 69.3581L68.7979 69.3585L68.7975 69.3589L68.7971 69.3593L68.7967 69.3597L68.7963 69.3601L68.7959 69.3605L68.7955 69.3609L68.7951 69.3613L68.7947 69.3617L68.7943 69.3621L68.7939 69.3625L68.7935 69.3629L68.7931 69.3633L68.7927 69.3637L68.7923 69.3642L68.7919 69.3646L68.7915 69.365L68.7911 69.3654L68.7906 69.3658L68.7902 69.3662L68.7898 69.3666L68.7894 69.3671L68.789 69.3675L68.7886 69.3679L68.7881 69.3683L68.7877 69.3687L68.7873 69.3692L68.7869 69.3696L68.7864 69.37L68.786 69.3705L68.7856 69.3709L68.7851 69.3713L68.7847 69.3718L68.7843 69.3722L68.7838 69.3726L68.7834 69.3731L68.783 69.3735L68.7825 69.3739L68.7821 69.3744L68.7816 69.3748L68.7812 69.3753L68.7807 69.3757L68.7803 69.3762L68.7798 69.3766L68.7794 69.3771L68.7789 69.3775L68.7785 69.378L68.778 69.3784L68.7776 69.3789L68.7771 69.3793L68.7766 69.3798L68.7762 69.3803L68.7757 69.3807L68.7753 69.3812L68.7748 69.3817L68.7743 69.3821L68.7738 69.3826L68.7734 69.3831L68.7729 69.3836L68.7724 69.384L68.7719 69.3845L68.7715 69.385L68.771 69.3855L68.7705 69.3859L68.77 69.3864L68.7695 69.3869L68.7691 69.3874L68.7686 69.3879L68.7681 69.3884L68.7676 69.3889L68.7671 69.3894L68.7666 69.3899L68.7661 69.3904L68.7656 69.3909L68.7651 69.3914L68.7646 69.3919L68.7641 69.3924L68.7636 69.3929L68.7631 69.3934L68.7625 69.3939L68.762 69.3944L68.7615 69.3949L68.761 69.3954L68.7605 69.396L68.76 69.3965L68.7594 69.397L68.7589 69.3975L68.7584 69.3981L68.7579 69.3986L68.7573 69.3991L68.7568 69.3997L68.7563 69.4002L68.7557 69.4007L68.7552 69.4013L68.7546 69.4018L68.7541 69.4023L68.7536 69.4029L68.753 69.4034L68.7525 69.404L68.7519 69.4045L68.7514 69.4051L68.7508 69.4057L68.7502 69.4062L68.7497 69.4068L68.7491 69.4073L68.7486 69.4079L68.748 69.4085L68.7474 69.409L68.7469 69.4096L68.7463 69.4102L68.7457 69.4107L68.7451 69.4113L68.7446 69.4119L68.744 69.4125L68.7434 69.4131L68.7428 69.4137L68.7422 69.4142L68.7416 69.4148L68.741 69.4154L68.7404 69.416L68.7398 69.4166L68.7392 69.4172L68.7386 69.4178L68.738 69.4184L68.7374 69.419L68.7368 69.4196L68.7362 69.4203L68.7356 69.4209L68.735 69.4215L68.7344 69.4221L68.7337 69.4227L68.7331 69.4233L68.7325 69.424L68.7319 69.4246L68.7312 69.4252L68.7306 69.4259L68.73 69.4265L68.7293 69.4271L68.7287 69.4278L68.728 69.4284L68.7274 69.4291L68.7267 69.4297L68.7261 69.4304L68.7254 69.431L68.7248 69.4317L68.7241 69.4323L68.7235 69.433L68.7228 69.4337L68.7221 69.4343L68.7215 69.435L68.7208 69.4357C68.6456 69.5109 68.5559 69.5903 68.4945 69.6447C68.4741 69.6628 68.4568 69.6781 68.4442 69.6896C68.3775 69.7504 68.3476 69.7841 68.3276 69.8129C68.3046 69.8461 68.2367 69.9501 68.2367 70.3189C68.2367 71.5234 68.8562 73.4597 70.2394 76.4566C72.0436 80.3561 74.1807 86.6592 75.8663 93.1853C77.55 99.7045 78.8028 106.521 78.8028 111.435L78.8028 111.435L78.8027 111.443C78.7445 116.273 77.9887 120.921 77.0885 124.58C76.6382 126.41 76.15 128 75.6912 129.248C75.2407 130.473 74.7967 131.431 74.4179 131.947L74.3862 131.99L74.3484 132.028C74.3526 132.024 74.3519 132.025 74.3471 132.033C74.3329 132.055 74.283 132.133 74.2135 132.302C74.1303 132.504 74.0405 132.783 73.9612 133.126C73.8029 133.812 73.6947 134.723 73.7485 135.746L73.7494 135.764L73.7494 135.783C73.7494 136.765 73.888 138.06 74.4045 139.197C74.9105 140.31 75.7688 141.258 77.2495 141.653L77.2702 141.658L77.2905 141.665C78.5422 142.082 79.4811 141.913 80.0196 141.375L80.0548 141.339L80.0946 141.31C80.7949 140.784 81.2704 139.691 81.5669 138.293C81.8555 136.933 81.9401 135.463 81.9977 134.368L81.9988 134.347L82.001 134.327C82.1192 133.263 82.3539 131.858 82.7037 130.342L82.7037 130.342L82.7054 130.335C83.4978 127.052 84.5234 121.939 84.5234 112.813C84.5234 112.502 84.5364 112.166 84.5492 111.838C84.5557 111.669 84.5622 111.503 84.5668 111.343C84.5808 110.851 84.5797 110.373 84.5277 109.904L84.5242 109.873L84.5236 109.842C84.1802 93.9334 82.5803 87.7949 81.2223 83.2682L81.2222 83.2682L81.2197 83.2594C80.7479 81.6079 80.5037 80.1632 80.5037 78.7028C80.5037 75.2488 81.9991 72.306 85.0029 69.7829L85.0239 69.7652L85.0462 69.7493C85.4085 69.4905 85.7485 69.2049 86.099 68.9104L86.137 68.8785C86.4789 68.5913 86.8392 68.2899 87.2077 68.0401C87.394 67.8772 87.5715 67.7228 87.7401 67.576C88.4046 66.9979 88.9323 66.5388 89.3224 66.1488C89.5678 65.9033 89.7299 65.713 89.8276 65.5638C89.91 65.438 89.9203 65.3812 89.9213 65.3763C89.9213 65.3177 89.921 65.283 89.919 65.2518C89.9172 65.2228 89.9145 65.2099 89.9135 65.2056C89.9134 65.2056 89.9134 65.2055 89.9134 65.2055C89.9115 65.2027 89.9066 65.1963 89.8966 65.1863L89.8273 65.117L89.7797 65.0312C89.7153 64.9153 89.6427 64.8567 89.5379 64.8175C89.4109 64.77 89.2017 64.7402 88.8614 64.7711C88.1665 64.8343 87.1813 65.1211 85.7893 65.5851C84.3917 66.0509 82.7579 66.5181 81.0036 66.8693C78.8557 67.3453 77.2404 67.1505 76.2029 66.4094Z" stroke="#FF570F" stroke-width="1.4"/>
<path d="M74.1439 54.1051L74.0103 54.0249C73.0452 56.4946 71.0347 58.4691 68.4847 59.4729L68.8008 60.1841C69.7651 59.7897 71.0162 59.5286 72.1658 59.3483C73.2412 59.1796 74.2987 59.072 75.0859 59.0035L74.1439 54.1051Z" stroke="#FF570F" stroke-width="1.4"/>
</g>
<path d="M120.027 99.0179L120.034 99.0041L120.042 98.9908C120.176 98.7686 120.682 98.082 121.292 97.3329C121.827 96.6748 122.48 95.922 123.088 95.3409L118.07 60.8973L118.043 90.6411C119.741 90.9152 121.011 92.4363 121.01 94.2455C121.008 95.9704 119.701 97.4346 118.037 97.7973L118.035 99.3912L119.168 100.905C119.408 100.213 119.725 99.5766 120.027 99.0179Z" stroke="#FF570F" stroke-width="1.4"/>
<path d="M115.631 90.5884L115.657 61.3765L110.648 95.3232C111.255 95.9061 111.906 96.6602 112.433 97.3131C112.739 97.6922 113.01 98.0453 113.215 98.3237C113.395 98.5683 113.563 98.8065 113.634 98.9432C113.947 99.5261 114.233 100.188 114.46 100.868L115.623 99.3205L115.624 97.7698C113.932 97.4964 112.663 95.9828 112.658 94.1799C112.588 92.3779 113.903 90.8954 115.631 90.5884Z" stroke="#FF570F" stroke-width="1.4"/>
<path d="M132.768 112.403L132.767 112.401C131.948 110.347 130.712 108.278 129.331 106.478C129.218 106.335 129.102 106.19 128.985 106.045C127.514 104.213 125.881 102.177 126.725 99.2351C126.73 99.1539 126.741 99.0805 126.752 99.019C126.759 98.9748 126.767 98.9318 126.774 98.8955L126.776 98.8876C126.783 98.8528 126.788 98.8237 126.793 98.7946C126.808 98.7123 126.813 98.6574 126.812 98.6136C126.801 98.5967 126.782 98.5711 126.753 98.536C126.688 98.4575 126.605 98.3734 126.494 98.2622L126.491 98.2597L126.489 98.2573L126.486 98.2548L126.484 98.2523L126.481 98.2498L126.479 98.2473L126.477 98.2448L126.474 98.2423L126.472 98.2398L126.469 98.2373L126.467 98.2348L126.464 98.2322L126.462 98.2297L126.459 98.2272L126.456 98.2247L126.454 98.2222L126.451 98.2197L126.449 98.2172L126.446 98.2146L126.444 98.2121L126.441 98.2096L126.439 98.2071L126.436 98.2046L126.434 98.202L126.431 98.1995L126.429 98.197L126.426 98.1944L126.424 98.1919L126.421 98.1894L126.419 98.1868L126.416 98.1843L126.414 98.1817L126.411 98.1792L126.409 98.1767L126.406 98.1741L126.403 98.1716L126.401 98.169L126.398 98.1665L126.396 98.1639L126.393 98.1614L126.391 98.1588L126.388 98.1563L126.386 98.1537L126.383 98.1512L126.381 98.1486L126.378 98.146L126.375 98.1435L126.373 98.1409L126.37 98.1384L126.368 98.1358L126.365 98.1332L126.363 98.1306L126.36 98.1281L126.358 98.1255L126.355 98.1229L126.352 98.1204L126.35 98.1178L126.347 98.1152L126.345 98.1126L126.342 98.11L126.34 98.1075L126.337 98.1049L126.334 98.1023L126.332 98.0997L126.329 98.0971L126.327 98.0945L126.324 98.0919L126.321 98.0894L126.319 98.0868L126.316 98.0842L126.314 98.0816L126.311 98.079L126.309 98.0764L126.306 98.0738L126.303 98.0712L126.301 98.0686L126.298 98.066L126.296 98.0634L126.293 98.0607L126.29 98.0581L126.288 98.0555L126.285 98.0529L126.283 98.0503L126.28 98.0477L126.277 98.0451L126.275 98.0425L126.272 98.0398L126.269 98.0372L126.267 98.0346L126.264 98.032L126.262 98.0294L126.259 98.0267L126.256 98.0241L126.254 98.0215L126.251 98.0188L126.249 98.0162L126.246 98.0136L126.243 98.0109L126.241 98.0083L126.238 98.0057L126.235 98.003L126.233 98.0004L126.23 97.9978L126.227 97.9951L126.225 97.9925L126.222 97.9898L126.22 97.9872L126.217 97.9846L126.214 97.9819L126.212 97.9793L126.209 97.9766L126.206 97.974L126.204 97.9713L126.201 97.9686L126.198 97.966L126.196 97.9633L126.193 97.9607L126.19 97.958L126.188 97.9554L126.185 97.9527L126.183 97.95L126.18 97.9474L126.177 97.9447L126.175 97.942L126.172 97.9394L126.169 97.9367L126.167 97.934L126.164 97.9314L126.161 97.9287L126.159 97.926L126.156 97.9234L126.153 97.9207L126.151 97.918L126.148 97.9153L126.145 97.9126L126.143 97.91L126.14 97.9073L126.137 97.9046L126.134 97.9019L126.132 97.8992L126.129 97.8965L126.126 97.8939L126.124 97.8912L126.121 97.8885L126.118 97.8858L126.116 97.8831L126.113 97.8804L126.11 97.8777L126.108 97.875L126.105 97.8723L126.102 97.8696L126.1 97.8669L126.097 97.8642L126.094 97.8615L126.092 97.8588L126.089 97.8561L126.086 97.8534L126.083 97.8507L126.081 97.848L126.078 97.8453L126.075 97.8426L126.073 97.8399L126.07 97.8372L126.067 97.8344L126.064 97.8317L126.062 97.829L126.059 97.8263L126.056 97.8236L126.054 97.8209L126.051 97.8181L126.048 97.8154L126.046 97.8127L126.043 97.81L126.04 97.8073L126.037 97.8045L126.035 97.8018L126.032 97.7991L126.029 97.7964L126.026 97.7936L126.024 97.7909L126.021 97.7882L126.018 97.7854L126.016 97.7827L126.013 97.78L126.01 97.7772L126.007 97.7745L126.005 97.7718L126.002 97.769L125.999 97.7663L125.996 97.7635L125.994 97.7608L125.991 97.7581L125.988 97.7553L125.986 97.7526L125.983 97.7498L125.98 97.7471L125.977 97.7443L125.975 97.7416L125.972 97.7388L125.969 97.7361L125.966 97.7333L125.964 97.7306L125.961 97.7278L125.958 97.7251L125.955 97.7223L125.953 97.7196L125.95 97.7168L125.947 97.714L125.944 97.7113L125.942 97.7085L125.939 97.7058L125.936 97.703L125.933 97.7002L125.931 97.6975L125.928 97.6947L125.925 97.6919L125.922 97.6892L125.92 97.6864L125.917 97.6836L125.914 97.6809L125.911 97.6781L125.908 97.6753L125.906 97.6726L125.903 97.6698L125.9 97.667L125.897 97.6642L125.895 97.6615L125.892 97.6587L125.889 97.6559L125.886 97.6531L125.884 97.6504L125.881 97.6476L125.878 97.6448L125.875 97.642L125.872 97.6392L125.87 97.6364L125.867 97.6337L125.864 97.6309L125.861 97.6281L125.859 97.6253L125.856 97.6225L125.853 97.6197L125.85 97.6169L125.847 97.6141L125.845 97.6114L125.842 97.6086L125.839 97.6058L125.836 97.603L125.834 97.6002L125.831 97.5974L125.828 97.5946L125.825 97.5918L125.822 97.589L125.82 97.5862L125.817 97.5834L125.814 97.5806L125.811 97.5778L125.808 97.575L125.806 97.5722L125.803 97.5694L125.8 97.5666L125.797 97.5638L125.794 97.561L125.792 97.5582L125.789 97.5553L125.786 97.5525L125.783 97.5497L125.78 97.5469L125.778 97.5441L125.775 97.5413L125.772 97.5385L125.769 97.5357L125.766 97.5329L125.764 97.53L125.761 97.5272L125.758 97.5244L125.755 97.5216L125.752 97.5188L125.749 97.516L125.747 97.5131L125.744 97.5103L125.741 97.5075L125.738 97.5047L125.735 97.5019L125.733 97.499L125.73 97.4962L125.727 97.4934L125.724 97.4906L125.721 97.4877L125.719 97.4849L125.716 97.4821L125.713 97.4793L125.71 97.4764L125.707 97.4736L125.704 97.4708L125.702 97.4679L125.699 97.4651L125.696 97.4623L125.693 97.4594L125.69 97.4566L125.687 97.4538L125.685 97.4509L125.682 97.4481L125.679 97.4453L125.676 97.4424L125.673 97.4396L125.67 97.4368L125.668 97.4339L125.665 97.4311L125.662 97.4282L125.659 97.4254L125.656 97.4226L125.653 97.4197L125.651 97.4169L125.648 97.414L125.645 97.4112L125.642 97.4083L125.639 97.4055L125.636 97.4026L125.634 97.3998L125.631 97.397L125.628 97.3941L125.625 97.3913L125.622 97.3884L125.619 97.3856L125.617 97.3827L125.614 97.3799L125.611 97.377L125.608 97.3742L125.605 97.3713L125.602 97.3685L125.6 97.3656L125.597 97.3627L125.594 97.3599L125.591 97.357L125.588 97.3542L125.585 97.3513L125.582 97.3485L125.58 97.3456L125.577 97.3428L125.574 97.3399L125.571 97.337L125.568 97.3342L125.565 97.3313L125.562 97.3285L125.56 97.3256L125.557 97.3227L125.554 97.3199L125.551 97.317L125.548 97.3142L125.545 97.3113L125.542 97.3084L125.54 97.3056L125.537 97.3027L125.534 97.2998L125.531 97.297L125.528 97.2941L125.525 97.2912L125.522 97.2884L125.52 97.2855L125.517 97.2826L125.514 97.2798L125.511 97.2769L125.508 97.274L125.505 97.2711L125.502 97.2683L125.5 97.2654L125.497 97.2625L125.494 97.2597L125.491 97.2568L125.488 97.2539L125.485 97.251L125.482 97.2482L125.48 97.2453L125.477 97.2424L125.474 97.2395L125.471 97.2367L125.468 97.2338L125.465 97.2309L125.462 97.228L125.459 97.2252L125.457 97.2223L125.454 97.2194L125.451 97.2165L125.448 97.2136L125.445 97.2108L125.442 97.2079L125.439 97.205L125.436 97.2021L125.434 97.1992L125.431 97.1964L125.428 97.1935L125.425 97.1906L125.422 97.1877L125.419 97.1848L125.416 97.182L125.413 97.1791L125.411 97.1762L125.408 97.1733L125.405 97.1704L125.402 97.1675L125.399 97.1646L125.396 97.1618L125.393 97.1589L125.39 97.156L125.388 97.1531L125.385 97.1502L125.382 97.1473L125.379 97.1444L125.376 97.1415L125.373 97.1387L125.37 97.1358L125.367 97.1329L125.364 97.13L125.362 97.1271L125.359 97.1242L125.356 97.1213L125.356 97.1211C125.271 97.1903 125.165 97.2853 125.039 97.4111C124.494 97.9552 123.766 98.7838 123.119 99.5361C122.952 99.7302 122.787 99.922 122.633 100.103C122.271 100.526 121.961 100.888 121.788 101.075C121.342 101.918 120.962 102.942 120.767 103.896C120.64 104.929 120.711 105.843 121.129 106.746C121.727 107.906 122.743 108.78 123.914 109.723C123.997 109.79 124.082 109.858 124.167 109.926C125.239 110.786 126.415 111.728 127.233 112.976L127.233 112.976L127.237 112.982C129.845 117.049 131.438 122.271 131.361 127.149L131.361 127.149L131.361 127.16C131.287 129.366 131.143 131.517 130.781 133.747C130.702 134.256 130.512 134.943 130.309 135.665C130.292 135.725 130.275 135.785 130.258 135.846C130.063 136.538 129.853 137.283 129.681 138.025C129.494 138.835 129.361 139.609 129.342 140.272C129.321 140.954 129.425 141.412 129.606 141.678L129.606 141.678L129.612 141.688C129.835 142.03 130.068 142.122 130.303 142.129C130.587 142.137 130.964 142.019 131.408 141.751C132.291 141.216 133.156 140.26 133.571 139.592C135.999 135.552 136.17 129.524 135.682 124.812L135.681 124.805L135.68 124.797C135.336 120.55 134.365 116.372 132.768 112.403ZM125.557 96.9821C125.557 96.9821 125.556 96.9824 125.555 96.983C125.556 96.9825 125.557 96.9821 125.557 96.9821Z" stroke="#FF570F" stroke-width="1.4"/>
<path d="M100.2 112.399L100.201 112.397C101.019 110.343 102.253 108.275 103.633 106.476C103.746 106.333 103.862 106.189 103.979 106.043C105.448 104.212 107.081 102.178 106.235 99.2344C106.229 99.1533 106.218 99.0799 106.208 99.0184C106.2 98.9741 106.192 98.9311 106.185 98.8948L106.183 98.8873C106.177 98.8523 106.171 98.8231 106.166 98.7939C106.151 98.7116 106.146 98.6567 106.147 98.6128C106.158 98.5959 106.177 98.5703 106.206 98.5353C106.271 98.4568 106.354 98.3728 106.465 98.2617L106.467 98.2592L106.47 98.2567L106.472 98.2542L106.475 98.2517L106.477 98.2492L106.48 98.2467L106.482 98.2442L106.485 98.2417L106.487 98.2392L106.49 98.2367L106.492 98.2342L106.495 98.2317L106.497 98.2292L106.5 98.2267L106.502 98.2242L106.505 98.2216L106.507 98.2191L106.51 98.2166L106.512 98.2141L106.515 98.2116L106.517 98.2091L106.52 98.2065L106.522 98.204L106.525 98.2015L106.527 98.199L106.53 98.1964L106.533 98.1939L106.535 98.1914L106.538 98.1888L106.54 98.1863L106.543 98.1838L106.545 98.1812L106.548 98.1787L106.55 98.1761L106.553 98.1736L106.555 98.1711L106.558 98.1685L106.56 98.166L106.563 98.1634L106.565 98.1609L106.568 98.1583L106.571 98.1558L106.573 98.1532L106.576 98.1507L106.578 98.1481L106.581 98.1455L106.583 98.143L106.586 98.1404L106.588 98.1379L106.591 98.1353L106.594 98.1327L106.596 98.1302L106.599 98.1276L106.601 98.125L106.604 98.1225L106.606 98.1199L106.609 98.1173L106.612 98.1147L106.614 98.1121L106.617 98.1096L106.619 98.107L106.622 98.1044L106.624 98.1018L106.627 98.0992L106.63 98.0967L106.632 98.0941L106.635 98.0915L106.637 98.0889L106.64 98.0863L106.642 98.0837L106.645 98.0811L106.648 98.0785L106.65 98.0759L106.653 98.0733L106.655 98.0707L106.658 98.0681L106.661 98.0655L106.663 98.0629L106.666 98.0603L106.668 98.0577L106.671 98.0551L106.674 98.0525L106.676 98.0499L106.679 98.0473L106.681 98.0446L106.684 98.042L106.687 98.0394L106.689 98.0368L106.692 98.0342L106.694 98.0315L106.697 98.0289L106.7 98.0263L106.702 98.0237L106.705 98.0211L106.708 98.0184L106.71 98.0158L106.713 98.0132L106.715 98.0105L106.718 98.0079L106.721 98.0053L106.723 98.0026L106.726 98L106.729 97.9974L106.731 97.9947L106.734 97.9921L106.736 97.9894L106.739 97.9868L106.742 97.9842L106.744 97.9815L106.747 97.9789L106.75 97.9762L106.752 97.9736L106.755 97.9709L106.758 97.9683L106.76 97.9656L106.763 97.963L106.766 97.9603L106.768 97.9576L106.771 97.955L106.774 97.9523L106.776 97.9497L106.779 97.947L106.781 97.9443L106.784 97.9417L106.787 97.939L106.789 97.9363L106.792 97.9337L106.795 97.931L106.797 97.9283L106.8 97.9257L106.803 97.923L106.805 97.9203L106.808 97.9176L106.811 97.915L106.813 97.9123L106.816 97.9096L106.819 97.9069L106.821 97.9043L106.824 97.9016L106.827 97.8989L106.829 97.8962L106.832 97.8935L106.835 97.8908L106.838 97.8881L106.84 97.8855L106.843 97.8828L106.846 97.8801L106.848 97.8774L106.851 97.8747L106.854 97.872L106.856 97.8693L106.859 97.8666L106.862 97.8639L106.864 97.8612L106.867 97.8585L106.87 97.8558L106.872 97.8531L106.875 97.8504L106.878 97.8477L106.881 97.845L106.883 97.8423L106.886 97.8396L106.889 97.8369L106.891 97.8341L106.894 97.8314L106.897 97.8287L106.9 97.826L106.902 97.8233L106.905 97.8206L106.908 97.8179L106.91 97.8151L106.913 97.8124L106.916 97.8097L106.919 97.807L106.921 97.8043L106.924 97.8015L106.927 97.7988L106.929 97.7961L106.932 97.7933L106.935 97.7906L106.938 97.7879L106.94 97.7852L106.943 97.7824L106.946 97.7797L106.948 97.777L106.951 97.7742L106.954 97.7715L106.957 97.7688L106.959 97.766L106.962 97.7633L106.965 97.7605L106.968 97.7578L106.97 97.7551L106.973 97.7523L106.976 97.7496L106.978 97.7468L106.981 97.7441L106.984 97.7413L106.987 97.7386L106.989 97.7358L106.992 97.7331L106.995 97.7303L106.998 97.7276L107 97.7248L107.003 97.7221L107.006 97.7193L107.009 97.7166L107.011 97.7138L107.014 97.7111L107.017 97.7083L107.02 97.7055L107.022 97.7028L107.025 97.7L107.028 97.6973L107.031 97.6945L107.033 97.6917L107.036 97.689L107.039 97.6862L107.042 97.6834L107.044 97.6807L107.047 97.6779L107.05 97.6751L107.053 97.6724L107.056 97.6696L107.058 97.6668L107.061 97.664L107.064 97.6613L107.067 97.6585L107.069 97.6557L107.072 97.6529L107.075 97.6502L107.078 97.6474L107.08 97.6446L107.083 97.6418L107.086 97.6391L107.089 97.6363L107.092 97.6335L107.094 97.6307L107.097 97.6279L107.1 97.6251L107.103 97.6223L107.105 97.6196L107.108 97.6168L107.111 97.614L107.114 97.6112L107.117 97.6084L107.119 97.6056L107.122 97.6028L107.125 97.6L107.128 97.5972L107.131 97.5944L107.133 97.5916L107.136 97.5888L107.139 97.586L107.142 97.5833L107.144 97.5805L107.147 97.5777L107.15 97.5749L107.153 97.572L107.156 97.5692L107.158 97.5664L107.161 97.5636L107.164 97.5608L107.167 97.558L107.17 97.5552L107.172 97.5524L107.175 97.5496L107.178 97.5468L107.181 97.544L107.184 97.5412L107.186 97.5384L107.189 97.5356L107.192 97.5327L107.195 97.5299L107.198 97.5271L107.2 97.5243L107.203 97.5215L107.206 97.5187L107.209 97.5159L107.212 97.513L107.215 97.5102L107.217 97.5074L107.22 97.5046L107.223 97.5018L107.226 97.4989L107.229 97.4961L107.231 97.4933L107.234 97.4905L107.237 97.4877L107.24 97.4848L107.243 97.482L107.245 97.4792L107.248 97.4764L107.251 97.4735L107.254 97.4707L107.257 97.4679L107.26 97.465L107.262 97.4622L107.265 97.4594L107.268 97.4565L107.271 97.4537L107.274 97.4509L107.277 97.448L107.279 97.4452L107.282 97.4424L107.285 97.4395L107.288 97.4367L107.291 97.4339L107.294 97.431L107.296 97.4282L107.299 97.4254L107.302 97.4225L107.305 97.4197L107.308 97.4168L107.311 97.414L107.313 97.4112L107.316 97.4083L107.319 97.4055L107.322 97.4026L107.325 97.3998L107.328 97.3969L107.33 97.3941L107.333 97.3912L107.336 97.3884L107.339 97.3856L107.342 97.3827L107.345 97.3799L107.347 97.377L107.35 97.3742L107.353 97.3713L107.356 97.3685L107.359 97.3656L107.362 97.3628L107.364 97.3599L107.367 97.357L107.37 97.3542L107.373 97.3513L107.376 97.3485L107.379 97.3456L107.382 97.3428L107.384 97.3399L107.387 97.3371L107.39 97.3342L107.393 97.3313L107.396 97.3285L107.399 97.3256L107.402 97.3228L107.404 97.3199L107.407 97.317L107.41 97.3142L107.413 97.3113L107.416 97.3085L107.419 97.3056L107.422 97.3027L107.424 97.2999L107.427 97.297L107.43 97.2941L107.433 97.2913L107.436 97.2884L107.439 97.2855L107.442 97.2827L107.444 97.2798L107.447 97.2769L107.45 97.2741L107.453 97.2712L107.456 97.2683L107.459 97.2655L107.462 97.2626L107.464 97.2597L107.467 97.2569L107.47 97.254L107.473 97.2511L107.476 97.2482L107.479 97.2454L107.482 97.2425L107.484 97.2396L107.487 97.2367L107.49 97.2339L107.493 97.231L107.496 97.2281L107.499 97.2253L107.502 97.2224L107.505 97.2195L107.507 97.2166L107.51 97.2137L107.513 97.2109L107.516 97.208L107.519 97.2051L107.522 97.2022L107.525 97.1994L107.528 97.1965L107.53 97.1936L107.533 97.1907L107.536 97.1878L107.539 97.185L107.542 97.1821L107.545 97.1792L107.548 97.1763L107.55 97.1734L107.553 97.1705L107.556 97.1677L107.559 97.1648L107.562 97.1619L107.565 97.159L107.568 97.1561L107.571 97.1532L107.574 97.1504L107.576 97.1475L107.579 97.1446L107.582 97.1417L107.585 97.1388L107.588 97.1359L107.591 97.133L107.594 97.1301L107.597 97.1273L107.599 97.1244L107.602 97.1215L107.603 97.1213C107.687 97.1905 107.793 97.2856 107.919 97.4115C108.465 97.9561 109.193 98.7853 109.841 99.5381C110.009 99.7323 110.173 99.9243 110.328 100.105C110.69 100.528 111 100.891 111.174 101.078C111.619 101.922 112.001 102.946 112.196 103.9C112.324 104.933 112.253 105.847 111.836 106.75C111.239 107.91 110.224 108.783 109.053 109.725C108.97 109.792 108.885 109.86 108.8 109.928C107.728 110.787 106.553 111.729 105.736 112.976L105.736 112.976L105.732 112.982C103.126 117.047 101.537 122.269 101.617 127.147L101.617 127.147L101.618 127.159C101.692 129.364 101.839 131.516 102.202 133.747C102.281 134.255 102.472 134.943 102.676 135.665C102.692 135.725 102.71 135.785 102.727 135.846C102.922 136.538 103.133 137.283 103.305 138.026C103.492 138.836 103.626 139.61 103.646 140.273C103.667 140.954 103.563 141.413 103.383 141.679L103.383 141.679L103.376 141.689C103.153 142.03 102.921 142.122 102.686 142.129C102.401 142.137 102.024 142.019 101.581 141.75C100.697 141.215 99.8316 140.258 99.4155 139.59C96.9851 135.548 96.8098 129.519 97.2946 124.807L97.2954 124.8L97.296 124.792C97.6374 120.544 98.6056 116.367 100.2 112.399ZM107.401 96.9821C107.401 96.9821 107.402 96.9824 107.403 96.983C107.402 96.9825 107.401 96.9822 107.401 96.9821Z" stroke="#FF570F" stroke-width="1.4"/>
<defs>
<clipPath id="clip0">
<rect width="102" height="102" transform="matrix(-0.707107 -0.707107 -0.707107 0.707107 137.25 85.364)" fill="white"/>
</clipPath>
</defs>
</svg>
