<svg width="68" height="120" viewBox="0 0 68 120" fill="none" xmlns="http://www.w3.org/2000/svg">
<mask id="mask0" mask-type="alpha" maskUnits="userSpaceOnUse" x="0" y="0" width="68" height="120">
<rect width="68" height="120" fill="#C4C4C4"/>
</mask>
<g mask="url(#mask0)">
<path d="M11.717 16.3115L11.8401 16.4346L12.0075 16.4823L13.0641 16.7834L3.16812 21.1698C2.92598 19.7253 2.58728 17.2109 2.74952 14.3111C2.93372 11.0189 3.76117 7.28002 6.0664 4.061L11.3766 15.9089L11.4271 16.0216L11.5144 16.1089L11.515 16.1095L11.5156 16.1101L11.5162 16.1107L11.5168 16.1113L11.5173 16.1118L11.5179 16.1124L11.5185 16.113L11.5191 16.1136L11.5197 16.1142L11.5202 16.1147L11.5208 16.1153L11.5214 16.1159L11.5219 16.1164L11.5225 16.117L11.5231 16.1175L11.5236 16.1181L11.5242 16.1187L11.5247 16.1192L11.5253 16.1198L11.5258 16.1203L11.5264 16.1209L11.5269 16.1214L11.5275 16.122L11.528 16.1225L11.5285 16.123L11.5291 16.1236L11.5296 16.1241L11.5301 16.1246L11.5307 16.1252L11.5312 16.1257L11.5317 16.1262L11.5323 16.1268L11.5328 16.1273L11.5333 16.1278L11.5338 16.1283L11.5343 16.1288L11.5349 16.1294L11.5354 16.1299L11.5359 16.1304L11.5364 16.1309L11.5369 16.1314L11.5374 16.1319L11.5379 16.1324L11.5384 16.1329L11.5389 16.1334L11.5394 16.1339L11.5399 16.1344L11.5404 16.1349L11.5409 16.1354L11.5414 16.1359L11.5419 16.1364L11.5423 16.1368L11.5428 16.1373L11.5433 16.1378L11.5438 16.1383L11.5443 16.1388L11.5447 16.1392L11.5452 16.1397L11.5457 16.1402L11.5462 16.1407L11.5466 16.1411L11.5471 16.1416L11.5476 16.1421L11.548 16.1425L11.5485 16.143L11.549 16.1435L11.5494 16.1439L11.5499 16.1444L11.5503 16.1448L11.5508 16.1453L11.5512 16.1457L11.5517 16.1462L11.5521 16.1466L11.5526 16.1471L11.553 16.1475L11.5535 16.148L11.5539 16.1484L11.5544 16.1489L11.5548 16.1493L11.5552 16.1497L11.5557 16.1502L11.5561 16.1506L11.5565 16.151L11.557 16.1515L11.5574 16.1519L11.5578 16.1523L11.5583 16.1528L11.5587 16.1532L11.5591 16.1536L11.5595 16.154L11.56 16.1545L11.5604 16.1549L11.5608 16.1553L11.5612 16.1557L11.5616 16.1561L11.562 16.1565L11.5624 16.1569L11.5629 16.1574L11.5633 16.1578L11.5637 16.1582L11.5641 16.1586L11.5645 16.159L11.5649 16.1594L11.5653 16.1598L11.5657 16.1602L11.5661 16.1606L11.5665 16.161L11.5669 16.1614L11.5673 16.1618L11.5677 16.1622L11.5681 16.1626L11.5685 16.163L11.5689 16.1633L11.5692 16.1637L11.5696 16.1641L11.57 16.1645L11.5704 16.1649L11.5708 16.1653L11.5712 16.1657L11.5715 16.166L11.5719 16.1664L11.5723 16.1668L11.5727 16.1672L11.5731 16.1676L11.5734 16.1679L11.5738 16.1683L11.5742 16.1687L11.5746 16.1691L11.5749 16.1694L11.5753 16.1698L11.5757 16.1702L11.576 16.1705L11.5764 16.1709L11.5768 16.1713L11.5771 16.1716L11.5775 16.172L11.5778 16.1723L11.5782 16.1727L11.5786 16.1731L11.5789 16.1734L11.5793 16.1738L11.5796 16.1741L11.58 16.1745L11.5803 16.1748L11.5807 16.1752L11.581 16.1755L11.5814 16.1759L11.5818 16.1763L11.5821 16.1766L11.5824 16.1769L11.5828 16.1773L11.5831 16.1776L11.5835 16.178L11.5838 16.1783L11.5842 16.1787L11.5845 16.179L11.5849 16.1794L11.5852 16.1797L11.5855 16.18L11.5859 16.1804L11.5862 16.1807L11.5866 16.1811L11.5869 16.1814L11.5872 16.1817L11.5876 16.1821L11.5879 16.1824L11.5882 16.1827L11.5886 16.1831L11.5889 16.1834L11.5892 16.1837L11.5896 16.1841L11.5899 16.1844L11.5902 16.1847L11.5905 16.185L11.5909 16.1854L11.5912 16.1857L11.5915 16.186L11.5918 16.1863L11.5922 16.1867L11.5925 16.187L11.5928 16.1873L11.5931 16.1876L11.5935 16.188L11.5938 16.1883L11.5941 16.1886L11.5944 16.1889L11.5947 16.1892L11.595 16.1895L11.5954 16.1899L11.5957 16.1902L11.596 16.1905L11.5963 16.1908L11.5966 16.1911L11.5969 16.1914L11.5973 16.1918L11.5976 16.1921L11.5979 16.1924L11.5982 16.1927L11.5985 16.193L11.5988 16.1933L11.5991 16.1936L11.5994 16.1939L11.5998 16.1942L11.6001 16.1946L11.6004 16.1949L11.6007 16.1952L11.601 16.1955L11.6013 16.1958L11.6016 16.1961L11.6019 16.1964L11.6022 16.1967L11.6025 16.197L11.6028 16.1973L11.6031 16.1976L11.6034 16.1979L11.6037 16.1982L11.604 16.1985L11.6043 16.1988L11.6046 16.1991L11.6049 16.1994L11.6053 16.1998L11.6056 16.2001L11.6059 16.2004L11.6062 16.2007L11.6065 16.201L11.6068 16.2013L11.6071 16.2016L11.6074 16.2019L11.6077 16.2022L11.608 16.2025L11.6083 16.2028L11.6086 16.2031L11.6089 16.2034L11.6092 16.2037L11.6095 16.204L11.6098 16.2043L11.6101 16.2046L11.6104 16.2049L11.6107 16.2052L11.611 16.2054L11.6112 16.2057L11.6115 16.206L11.6118 16.2063L11.6121 16.2066L11.6124 16.2069L11.6127 16.2072L11.613 16.2075L11.6133 16.2078L11.6136 16.2081L11.6139 16.2084L11.6142 16.2087L11.6145 16.209L11.6148 16.2093L11.6151 16.2096L11.6154 16.2099L11.6157 16.2102L11.616 16.2105L11.6163 16.2108L11.6166 16.2111L11.6169 16.2114L11.6172 16.2117L11.6175 16.212L11.6178 16.2123L11.6181 16.2126L11.6184 16.2129L11.6187 16.2132L11.619 16.2135L11.6193 16.2138L11.6196 16.2141L11.6199 16.2144L11.6202 16.2147L11.6205 16.215L11.6208 16.2153L11.6211 16.2156L11.6214 16.2159L11.6217 16.2162L11.622 16.2165L11.6223 16.2167L11.6225 16.217L11.6228 16.2173L11.6231 16.2176L11.6234 16.2179L11.6237 16.2182L11.624 16.2185L11.6243 16.2188L11.6246 16.2191L11.625 16.2194L11.6253 16.2198L11.6256 16.2201L11.6259 16.2204L11.6262 16.2207L11.6265 16.221L11.6268 16.2213L11.6271 16.2216L11.6274 16.2219L11.6277 16.2222L11.628 16.2225L11.6283 16.2228L11.6286 16.2231L11.6289 16.2234L11.6292 16.2237L11.6295 16.224L11.6298 16.2243L11.6301 16.2246L11.6304 16.2249L11.6307 16.2252L11.631 16.2255L11.6313 16.2258L11.6317 16.2262L11.632 16.2265L11.6323 16.2268L11.6326 16.2271L11.6329 16.2274L11.6332 16.2277L11.6335 16.228L11.6338 16.2283L11.6342 16.2287L11.6345 16.229L11.6348 16.2293L11.6351 16.2296L11.6354 16.2299L11.6357 16.2302L11.636 16.2305L11.6364 16.2309L11.6367 16.2312L11.637 16.2315L11.6373 16.2318L11.6376 16.2321L11.638 16.2325L11.6383 16.2328L11.6386 16.2331L11.6389 16.2334L11.6392 16.2337L11.6396 16.2341L11.6399 16.2344L11.6402 16.2347L11.6405 16.235L11.6409 16.2354L11.6412 16.2357L11.6415 16.236L11.6419 16.2364L11.6422 16.2367L11.6425 16.237L11.6429 16.2373L11.6432 16.2377L11.6435 16.238L11.6438 16.2383L11.6442 16.2387L11.6445 16.239L11.6449 16.2394L11.6452 16.2397L11.6455 16.24L11.6459 16.2404L11.6462 16.2407L11.6466 16.2411L11.6469 16.2414L11.6472 16.2417L11.6476 16.2421L11.6479 16.2424L11.6483 16.2428L11.6486 16.2431L11.649 16.2435L11.6493 16.2438L11.6497 16.2442L11.65 16.2445L11.6504 16.2449L11.6507 16.2452L11.6511 16.2456L11.6514 16.2459L11.6518 16.2463L11.6521 16.2466L11.6525 16.247L11.6528 16.2473L11.6532 16.2477L11.6536 16.2481L11.6539 16.2484L11.6543 16.2488L11.6547 16.2492L11.655 16.2495L11.6554 16.2499L11.6558 16.2503L11.6561 16.2506L11.6565 16.251L11.6569 16.2514L11.6572 16.2517L11.6576 16.2521L11.658 16.2525L11.6584 16.2529L11.6587 16.2532L11.6591 16.2536L11.6595 16.254L11.6599 16.2544L11.6602 16.2547L11.6606 16.2551L11.661 16.2555L11.6614 16.2559L11.6618 16.2563L11.6622 16.2567L11.6626 16.2571L11.6629 16.2574L11.6633 16.2578L11.6637 16.2582L11.6641 16.2586L11.6645 16.259L11.6649 16.2594L11.6653 16.2598L11.6657 16.2602L11.6661 16.2606L11.6665 16.261L11.6669 16.2614L11.6673 16.2618L11.6677 16.2622L11.6681 16.2626L11.6686 16.263L11.669 16.2635L11.6694 16.2639L11.6698 16.2643L11.6702 16.2647L11.6706 16.2651L11.671 16.2655L11.6715 16.266L11.6719 16.2664L11.6723 16.2668L11.6727 16.2672L11.6731 16.2676L11.6736 16.2681L11.674 16.2685L11.6744 16.2689L11.6749 16.2694L11.6753 16.2698L11.6757 16.2702L11.6762 16.2707L11.6766 16.2711L11.677 16.2715L11.6775 16.272L11.6779 16.2724L11.6784 16.2729L11.6788 16.2733L11.6793 16.2738L11.6797 16.2742L11.6802 16.2747L11.6806 16.2751L11.6811 16.2756L11.6815 16.276L11.682 16.2765L11.6824 16.2769L11.6829 16.2774L11.6834 16.2779L11.6838 16.2783L11.6843 16.2788L11.6848 16.2793L11.6852 16.2797L11.6857 16.2802L11.6862 16.2807L11.6867 16.2812L11.6871 16.2816L11.6876 16.2821L11.6881 16.2826L11.6886 16.2831L11.6891 16.2836L11.6895 16.284L11.69 16.2845L11.6905 16.285L11.691 16.2855L11.6915 16.286L11.692 16.2865L11.6925 16.287L11.693 16.2875L11.6935 16.288L11.694 16.2885L11.6945 16.289L11.695 16.2895L11.6955 16.29L11.696 16.2905L11.6966 16.2911L11.6971 16.2916L11.6976 16.2921L11.6981 16.2926L11.6986 16.2931L11.6992 16.2936L11.6997 16.2942L11.7002 16.2947L11.7007 16.2952L11.7013 16.2958L11.7018 16.2963L11.7023 16.2968L11.7029 16.2974L11.7034 16.2979L11.7039 16.2984L11.7045 16.299L11.705 16.2995L11.7056 16.3001L11.7061 16.3006L11.7067 16.3012L11.7072 16.3017L11.7078 16.3023L11.7084 16.3029L11.7089 16.3034L11.7095 16.304L11.71 16.3045L11.7106 16.3051L11.7112 16.3057L11.7118 16.3063L11.7123 16.3068L11.7129 16.3074L11.7135 16.308L11.7141 16.3086L11.7147 16.3092L11.7152 16.3097L11.7158 16.3103L11.7164 16.3109L11.717 16.3115Z" stroke="#FF570F" stroke-width="1.4"/>
<path d="M16.7352 110.988L16.7575 110.99L16.7798 110.99C18.0311 110.989 18.946 111.904 18.945 113.155C18.944 114.407 18.0264 115.324 16.7744 115.325C15.5232 115.326 14.6083 114.411 14.6092 113.16C14.6102 111.882 15.6441 110.916 16.7352 110.988Z" stroke="#FF570F" stroke-width="1.4"/>
<path d="M19.595 65.6236L19.6068 65.6189L19.6185 65.6138L21.9465 64.5938L23.0996 115.896C23.0954 116.747 22.4639 117.38 21.6825 117.453C21.6816 117.453 21.6807 117.453 21.6798 117.453L13.0675 118.169L13.0476 118.171L13.0277 118.174C12.5001 118.249 12.1118 118.095 11.8743 117.858L11.8273 117.811L11.7719 117.774C11.4024 117.528 11.2607 117.165 11.261 116.711L11.2611 116.711L11.261 116.703L10.6953 69.2989L10.9937 69.1709L10.9938 69.171L11.0039 69.1664L13.9306 67.8526L19.595 65.6236ZM16.7749 117.478C19.1726 117.476 21.0959 115.553 21.0978 113.155C21.0996 110.757 19.1781 108.835 16.7796 108.837C14.3819 108.839 12.4586 110.762 12.4567 113.16C12.4549 115.558 14.3764 117.48 16.7749 117.478Z" stroke="#FF570F" stroke-width="1.4"/>
<path d="M18.1721 63.8434L14.6463 65.3148L14.6663 39.6192L18.191 39.6165L18.1721 63.8434Z" stroke="#FF570F" stroke-width="1.4"/>
<path d="M24.932 14.7794L25.1282 14.5831L25.1284 14.3056L25.1285 14.2966C25.1285 14.2542 25.1286 14.1999 25.1261 14.1515C25.1233 14.0978 25.1158 14.0061 25.0816 13.9033C25.0398 13.7776 24.9686 13.6773 24.9125 13.6117L18.6355 0.857724C21.5318 1.40052 27.1525 3.30542 30.564 9.5523L30.5647 9.55349C34.2978 16.3563 30.9164 21.8904 27.3319 27.7235C26.4021 29.0677 25.5798 30.5068 24.8671 31.8291L24.8623 31.838L24.8577 31.8471L24.6575 32.2471C21.3272 38.5982 20.421 40.3711 20.4183 43.8091L20.4033 63.0354L20.3255 63.0687L20.3446 38.5394C20.3449 38.2198 20.192 37.9562 20.0217 37.7859C19.8513 37.6155 19.5878 37.4626 19.2681 37.4629L14.1489 37.4669L21.7884 33.8726L21.8944 33.8228L21.9771 33.74C21.9805 33.7366 21.984 33.7331 21.9877 33.7295C22.0849 33.6327 22.2937 33.4248 22.3577 33.0741C22.3788 33.0249 22.3953 32.9726 22.4064 32.9175C22.439 32.7549 22.415 32.6123 22.3805 32.5088C22.3537 32.4283 22.3184 32.3636 22.288 32.3167L17.8628 22.6489L17.8126 22.5391L17.7272 22.4538C17.7178 22.4444 17.7124 22.4382 17.7077 22.4327L17.7018 22.4256L17.6911 22.413C17.6863 22.4073 17.6619 22.3782 17.6295 22.3476C17.6024 22.322 17.5143 22.2404 17.3731 22.193C17.1956 22.1335 17.022 22.155 16.8859 22.2138C16.7827 22.2584 16.7147 22.3189 16.6973 22.3345L16.6965 22.3352C16.6751 22.3543 16.6554 22.3743 16.6553 22.3744C16.6532 22.3765 16.6538 22.3779 16.6326 22.3918C16.603 22.4112 16.5319 22.4527 16.3908 22.5103L16.3835 22.5133L16.3764 22.5164L7.75605 26.2742L7.63961 26.325L7.54979 26.4148L7.54919 26.4154L7.5486 26.416L7.54801 26.4166L7.54743 26.4172L7.54684 26.4178L7.54626 26.4183L7.54568 26.4189L7.5451 26.4195L7.54453 26.4201L7.54396 26.4206L7.54339 26.4212L7.54282 26.4218L7.54225 26.4223L7.54169 26.4229L7.54112 26.4235L7.54057 26.424L7.54001 26.4246L7.53945 26.4251L7.5389 26.4257L7.53835 26.4263L7.5378 26.4268L7.53725 26.4273L7.53671 26.4279L7.53617 26.4284L7.53563 26.429L7.53509 26.4295L7.53455 26.43L7.53402 26.4306L7.53349 26.4311L7.53296 26.4316L7.53243 26.4322L7.5319 26.4327L7.53138 26.4332L7.53086 26.4337L7.53034 26.4343L7.52982 26.4348L7.5293 26.4353L7.52879 26.4358L7.52828 26.4363L7.52777 26.4368L7.52726 26.4373L7.52675 26.4378L7.52625 26.4384L7.52575 26.4389L7.52525 26.4394L7.52475 26.4399L7.52425 26.4403L7.52376 26.4408L7.52327 26.4413L7.52278 26.4418L7.52229 26.4423L7.5218 26.4428L7.52131 26.4433L7.52083 26.4438L7.52035 26.4443L7.51987 26.4447L7.51939 26.4452L7.51892 26.4457L7.51844 26.4462L7.51797 26.4466L7.5175 26.4471L7.51703 26.4476L7.51656 26.448L7.5161 26.4485L7.51564 26.449L7.51517 26.4494L7.51471 26.4499L7.51426 26.4503L7.5138 26.4508L7.51334 26.4513L7.51289 26.4517L7.51244 26.4522L7.51199 26.4526L7.51154 26.4531L7.51109 26.4535L7.51065 26.454L7.5102 26.4544L7.50976 26.4548L7.50932 26.4553L7.50888 26.4557L7.50845 26.4562L7.50801 26.4566L7.50758 26.457L7.50715 26.4575L7.50672 26.4579L7.50629 26.4583L7.50586 26.4587L7.50543 26.4592L7.50501 26.4596L7.50459 26.46L7.50416 26.4604L7.50374 26.4609L7.50333 26.4613L7.50291 26.4617L7.50249 26.4621L7.50208 26.4625L7.50167 26.4629L7.50125 26.4633L7.50085 26.4638L7.50044 26.4642L7.50003 26.4646L7.49962 26.465L7.49922 26.4654L7.49882 26.4658L7.49842 26.4662L7.49802 26.4666L7.49762 26.467L7.49722 26.4674L7.49682 26.4678L7.49643 26.4682L7.49604 26.4686L7.49564 26.469L7.49525 26.4693L7.49487 26.4697L7.49448 26.4701L7.49409 26.4705L7.4937 26.4709L7.49332 26.4713L7.49294 26.4717L7.49256 26.472L7.49217 26.4724L7.4918 26.4728L7.49142 26.4732L7.49104 26.4736L7.49066 26.4739L7.49029 26.4743L7.48992 26.4747L7.48955 26.4751L7.48917 26.4754L7.4888 26.4758L7.48844 26.4762L7.48807 26.4765L7.4877 26.4769L7.48734 26.4773L7.48697 26.4776L7.48661 26.478L7.48625 26.4784L7.48589 26.4787L7.48553 26.4791L7.48517 26.4794L7.48481 26.4798L7.48445 26.4801L7.4841 26.4805L7.48374 26.4809L7.48339 26.4812L7.48304 26.4816L7.48268 26.4819L7.48233 26.4823L7.48198 26.4826L7.48164 26.483L7.48129 26.4833L7.48094 26.4837L7.4806 26.484L7.48025 26.4844L7.47991 26.4847L7.47956 26.485L7.47922 26.4854L7.47888 26.4857L7.47854 26.4861L7.4782 26.4864L7.47786 26.4867L7.47752 26.4871L7.47719 26.4874L7.47685 26.4877L7.47652 26.4881L7.47618 26.4884L7.47585 26.4888L7.47551 26.4891L7.47518 26.4894L7.47485 26.4897L7.47452 26.4901L7.47419 26.4904L7.47386 26.4907L7.47353 26.4911L7.47321 26.4914L7.47288 26.4917L7.47256 26.492L7.47223 26.4924L7.47191 26.4927L7.47158 26.493L7.47126 26.4933L7.47094 26.4937L7.47061 26.494L7.47029 26.4943L7.46997 26.4946L7.46965 26.4949L7.46933 26.4953L7.46902 26.4956L7.4687 26.4959L7.46838 26.4962L7.46806 26.4965L7.46775 26.4969L7.46743 26.4972L7.46712 26.4975L7.4668 26.4978L7.46649 26.4981L7.46617 26.4984L7.46586 26.4987L7.46555 26.4991L7.46524 26.4994L7.46493 26.4997L7.46462 26.5L7.46431 26.5003L7.464 26.5006L7.46369 26.5009L7.46338 26.5012L7.46307 26.5015L7.46276 26.5018L7.46246 26.5021L7.46215 26.5025L7.46184 26.5028L7.46153 26.5031L7.46123 26.5034L7.46092 26.5037L7.46062 26.504L7.46031 26.5043L7.46001 26.5046L7.4597 26.5049L7.4594 26.5052L7.4591 26.5055L7.45879 26.5058L7.45849 26.5061L7.45819 26.5064L7.45789 26.5067L7.45759 26.507L7.45729 26.5073L7.45698 26.5076L7.45668 26.5079L7.45638 26.5082L7.45608 26.5085L7.45578 26.5088L7.45548 26.5091L7.45518 26.5094L7.45488 26.5097L7.45458 26.51L7.45428 26.5103L7.45399 26.5106L7.45369 26.5109L7.45339 26.5112L7.45309 26.5115L7.45279 26.5118L7.45249 26.5121L7.45219 26.5124L7.4519 26.5127L7.4516 26.513L7.4513 26.5133L7.451 26.5136L7.45071 26.5139L7.45041 26.5142L7.45011 26.5145L7.44981 26.5148L7.44952 26.5151L7.44922 26.5154L7.44892 26.5157L7.44862 26.516L7.44833 26.5163L7.44803 26.5166L7.44773 26.5169L7.44744 26.5172L7.44714 26.5175L7.44684 26.5178L7.44654 26.5181L7.44625 26.5184L7.44595 26.5187L7.44565 26.519L7.44535 26.5192L7.44506 26.5195L7.44476 26.5198L7.44446 26.5201L7.44416 26.5204L7.44386 26.5207L7.44356 26.521L7.44327 26.5213L7.44297 26.5216L7.44267 26.5219L7.44237 26.5222L7.44207 26.5225L7.44177 26.5228L7.44147 26.5231L7.44117 26.5234L7.44087 26.5237L7.44057 26.524L7.44027 26.5243L7.43997 26.5246L7.43967 26.5249L7.43937 26.5252L7.43907 26.5255L7.43877 26.5258L7.43846 26.5261L7.43816 26.5264L7.43786 26.5267L7.43756 26.527L7.43725 26.5273L7.43695 26.5277L7.43665 26.528L7.43634 26.5283L7.43604 26.5286L7.43573 26.5289L7.43543 26.5292L7.43512 26.5295L7.43481 26.5298L7.43451 26.5301L7.4342 26.5304L7.43389 26.5307L7.43358 26.531L7.43328 26.5313L7.43297 26.5316L7.43266 26.5319L7.43235 26.5323L7.43204 26.5326L7.43173 26.5329L7.43142 26.5332L7.4311 26.5335L7.43079 26.5338L7.43048 26.5341L7.43017 26.5344L7.42985 26.5347L7.42954 26.5351L7.42922 26.5354L7.42891 26.5357L7.42859 26.536L7.42827 26.5363L7.42796 26.5366L7.42764 26.537L7.42732 26.5373L7.427 26.5376L7.42668 26.5379L7.42636 26.5382L7.42604 26.5386L7.42572 26.5389L7.4254 26.5392L7.42507 26.5395L7.42475 26.5399L7.42443 26.5402L7.4241 26.5405L7.42377 26.5408L7.42345 26.5412L7.42312 26.5415L7.42279 26.5418L7.42246 26.5421L7.42213 26.5425L7.4218 26.5428L7.42147 26.5431L7.42114 26.5435L7.42081 26.5438L7.42047 26.5441L7.42014 26.5445L7.4198 26.5448L7.41947 26.5451L7.41913 26.5455L7.41879 26.5458L7.41845 26.5461L7.41811 26.5465L7.41777 26.5468L7.41743 26.5472L7.41709 26.5475L7.41675 26.5479L7.4164 26.5482L7.41606 26.5485L7.41571 26.5489L7.41537 26.5492L7.41502 26.5496L7.41467 26.5499L7.41432 26.5503L7.41397 26.5506L7.41362 26.551L7.41327 26.5513L7.41291 26.5517L7.41256 26.552L7.4122 26.5524L7.41185 26.5528L7.41149 26.5531L7.41113 26.5535L7.41077 26.5538L7.41041 26.5542L7.41005 26.5546L7.40968 26.5549L7.40932 26.5553L7.40895 26.5556L7.40859 26.556L7.40822 26.5564L7.40785 26.5568L7.40748 26.5571L7.40711 26.5575L7.40674 26.5579L7.40636 26.5582L7.40599 26.5586L7.40561 26.559L7.40524 26.5594L7.40486 26.5597L7.40448 26.5601L7.4041 26.5605L7.40372 26.5609L7.40333 26.5613L7.40295 26.5617L7.40256 26.562L7.40218 26.5624L7.40179 26.5628L7.4014 26.5632L7.40101 26.5636L7.40062 26.564L7.40022 26.5644L7.39983 26.5648L7.39943 26.5652L7.39904 26.5656L7.39864 26.566L7.39824 26.5664L7.39784 26.5668L7.39743 26.5672L7.39703 26.5676L7.39662 26.568L7.39622 26.5684L7.39581 26.5688L7.3954 26.5692L7.39499 26.5696L7.39458 26.57L7.39416 26.5704L7.39375 26.5709L7.39333 26.5713L7.39291 26.5717L7.39249 26.5721L7.39207 26.5725L7.39165 26.573L7.39122 26.5734L7.3908 26.5738L7.39037 26.5742L7.38994 26.5747L7.38951 26.5751L7.38908 26.5755L7.38864 26.576L7.38821 26.5764L7.38777 26.5768L7.38733 26.5773L7.38689 26.5777L7.38645 26.5782L7.38601 26.5786L7.38556 26.579L7.38512 26.5795L7.38467 26.5799L7.38422 26.5804L7.38376 26.5808L7.38331 26.5813L7.38286 26.5817L7.3824 26.5822L7.38194 26.5827L7.38148 26.5831L7.38102 26.5836L7.38056 26.584L7.38009 26.5845L7.37962 26.585L7.37915 26.5854L7.37868 26.5859L7.37821 26.5864L7.37774 26.5869L7.37726 26.5873L7.37678 26.5878L7.3763 26.5883L7.37582 26.5888L7.37534 26.5893L7.37485 26.5897L7.37437 26.5902L7.37388 26.5907L7.37339 26.5912L7.3729 26.5917L7.3724 26.5922L7.37191 26.5927L7.37141 26.5932L7.37091 26.5937L7.3704 26.5942L7.3699 26.5947L7.36939 26.5952L7.36889 26.5957L7.36838 26.5962L7.36787 26.5967L7.36735 26.5973L7.36684 26.5978L7.36632 26.5983L7.3658 26.5988L7.36528 26.5993L7.36475 26.5998L7.36423 26.6004L7.3637 26.6009L7.36317 26.6014L7.36264 26.602L7.3621 26.6025L7.36157 26.603L7.36103 26.6036L7.36049 26.6041L7.35995 26.6047L7.3594 26.6052L7.35885 26.6057L7.35831 26.6063L7.35775 26.6068L7.3572 26.6074L7.35665 26.608L7.35609 26.6085L7.35553 26.6091L7.35497 26.6096L7.3544 26.6102L7.35384 26.6108L7.35327 26.6113L7.3527 26.6119L7.35212 26.6125L7.35155 26.6131L7.35097 26.6136L7.35039 26.6142L7.34981 26.6148L7.34923 26.6154L7.34864 26.616L7.34805 26.6165L7.34746 26.6171L7.34687 26.6177L7.79799 27.0689C7.34686 26.6177 7.34664 26.618 7.34641 26.6182L7.34594 26.6187L7.34499 26.6196L7.34305 26.6216L7.33901 26.6257L7.33024 26.6349C7.32412 26.6415 7.31738 26.6489 7.31017 26.6572C7.2959 26.6737 7.279 26.6945 7.26118 26.7195C7.22739 26.7667 7.18047 26.8424 7.14689 26.9429C7.11239 27.0462 7.08803 27.1887 7.12046 27.3515C7.14291 27.4642 7.18833 27.565 7.24861 27.6519L11.9745 37.4173L12.0238 37.5193L12.104 37.5994C12.1813 37.6768 12.2719 37.7384 12.3636 37.7864C12.3508 37.7992 12.3381 37.8125 12.3256 37.8261C12.142 38.0268 12.0295 38.2808 11.9665 38.5623L11.9498 38.6368L11.9503 38.7131L12.1283 66.4496L11.7054 66.6288L11.724 42.7028C11.7245 42.1278 11.5601 41.475 11.2852 40.7689C11.0074 40.0556 10.6003 39.2469 10.0773 38.3487C9.03156 36.5526 7.49315 34.3485 5.51149 31.756L5.50703 31.7501L5.50243 31.7444C4.27853 30.214 3.05608 28.7875 2.04103 27.62C1.76263 27.2997 1.50142 27.0008 1.26069 26.7252C0.930912 26.3478 0.6396 26.0143 0.395289 25.7306L24.5247 15.122L24.64 15.0714L24.7291 14.9823L24.7296 14.9817L24.7302 14.9811L24.7308 14.9805L24.7314 14.9799L24.732 14.9794L24.7326 14.9788L24.7332 14.9782L24.7337 14.9776L24.7343 14.977L24.7349 14.9765L24.7355 14.9759L24.736 14.9753L24.7366 14.9748L24.7372 14.9742L24.7377 14.9736L24.7383 14.9731L24.7388 14.9725L24.7394 14.972L24.7399 14.9714L24.7405 14.9709L24.741 14.9703L24.7416 14.9698L24.7421 14.9692L24.7427 14.9687L24.7432 14.9681L24.7438 14.9676L24.7443 14.9671L24.7448 14.9665L24.7454 14.966L24.7459 14.9655L24.7464 14.9649L24.7469 14.9644L24.7475 14.9639L24.748 14.9634L24.7485 14.9629L24.749 14.9623L24.7495 14.9618L24.7501 14.9613L24.7506 14.9608L24.7511 14.9603L24.7516 14.9598L24.7521 14.9593L24.7526 14.9588L24.7531 14.9583L24.7536 14.9578L24.7541 14.9573L24.7546 14.9568L24.7551 14.9563L24.7556 14.9558L24.7561 14.9553L24.7566 14.9548L24.757 14.9543L24.7575 14.9538L24.758 14.9534L24.7585 14.9529L24.759 14.9524L24.7594 14.9519L24.7599 14.9514L24.7604 14.951L24.7609 14.9505L24.7613 14.95L24.7618 14.9495L24.7623 14.9491L24.7627 14.9486L24.7632 14.9482L24.7637 14.9477L24.7641 14.9472L24.7646 14.9468L24.765 14.9463L24.7655 14.9459L24.766 14.9454L24.7664 14.945L24.7669 14.9445L24.7673 14.9441L24.7677 14.9436L24.7682 14.9432L24.7686 14.9427L24.7691 14.9423L24.7695 14.9418L24.77 14.9414L24.7704 14.941L24.7708 14.9405L24.7713 14.9401L24.7717 14.9397L24.7721 14.9392L24.7726 14.9388L24.773 14.9384L24.7734 14.938L24.7738 14.9375L24.7743 14.9371L24.7747 14.9367L24.7751 14.9363L24.7755 14.9358L24.7759 14.9354L24.7764 14.935L24.7768 14.9346L24.7772 14.9342L24.7776 14.9338L24.778 14.9334L24.7784 14.933L24.7788 14.9325L24.7792 14.9321L24.7796 14.9317L24.78 14.9313L24.7804 14.9309L24.7808 14.9305L24.7812 14.9301L24.7816 14.9297L24.782 14.9293L24.7824 14.9289L24.7828 14.9286L24.7832 14.9282L24.7836 14.9278L24.784 14.9274L24.7844 14.927L24.7848 14.9266L24.7851 14.9262L24.7855 14.9258L24.7859 14.9255L24.7863 14.9251L24.7867 14.9247L24.787 14.9243L24.7874 14.9239L24.7878 14.9236L24.7882 14.9232L24.7886 14.9228L24.7889 14.9224L24.7893 14.9221L24.7897 14.9217L24.79 14.9213L24.7904 14.921L24.7908 14.9206L24.7911 14.9202L24.7915 14.9199L24.7919 14.9195L24.7922 14.9191L24.7926 14.9188L24.793 14.9184L24.7933 14.918L24.7937 14.9177L24.794 14.9173L24.7944 14.917L24.7947 14.9166L24.7951 14.9163L24.7955 14.9159L24.7958 14.9156L24.7962 14.9152L24.7965 14.9149L24.7969 14.9145L24.7972 14.9142L24.7976 14.9138L24.7979 14.9135L24.7982 14.9131L24.7986 14.9128L24.7989 14.9124L24.7993 14.9121L24.7996 14.9117L24.8 14.9114L24.8003 14.9111L24.8006 14.9107L24.801 14.9104L24.8013 14.91L24.8017 14.9097L24.802 14.9094L24.8023 14.909L24.8027 14.9087L24.803 14.9084L24.8033 14.908L24.8037 14.9077L24.804 14.9074L24.8043 14.907L24.8047 14.9067L24.805 14.9064L24.8053 14.9061L24.8056 14.9057L24.806 14.9054L24.8063 14.9051L24.8066 14.9047L24.8069 14.9044L24.8073 14.9041L24.8076 14.9038L24.8079 14.9035L24.8082 14.9031L24.8086 14.9028L24.8089 14.9025L24.8092 14.9022L24.8095 14.9019L24.8098 14.9015L24.8101 14.9012L24.8105 14.9009L24.8108 14.9006L24.8111 14.9003L24.8114 14.8999L24.8117 14.8996L24.812 14.8993L24.8124 14.899L24.8127 14.8987L24.813 14.8984L24.8133 14.8981L24.8136 14.8978L24.8139 14.8974L24.8142 14.8971L24.8145 14.8968L24.8148 14.8965L24.8152 14.8962L24.8155 14.8959L24.8158 14.8956L24.8161 14.8953L24.8164 14.895L24.8167 14.8947L24.817 14.8944L24.8173 14.8941L24.8176 14.8937L24.8179 14.8934L24.8182 14.8931L24.8185 14.8928L24.8188 14.8925L24.8191 14.8922L24.8194 14.8919L24.8197 14.8916L24.82 14.8913L24.8204 14.891L24.8207 14.8907L24.821 14.8904L24.8213 14.8901L24.8216 14.8898L24.8219 14.8895L24.8222 14.8892L24.8225 14.8889L24.8228 14.8886L24.8231 14.8883L24.8234 14.888L24.8237 14.8877L24.824 14.8874L24.8243 14.8871L24.8246 14.8868L24.8249 14.8865L24.8252 14.8862L24.8255 14.8859L24.8258 14.8856L24.8261 14.8853L24.8264 14.885L24.8266 14.8847L24.8269 14.8844L24.8272 14.8841L24.8275 14.8838L24.8278 14.8835L24.8281 14.8832L24.8284 14.8829L24.8287 14.8826L24.829 14.8823L24.8293 14.882L24.8296 14.8817L24.8299 14.8814L24.8302 14.8811L24.8305 14.8808L24.8308 14.8805L24.8311 14.8803L24.8314 14.88L24.8317 14.8797L24.832 14.8794L24.8323 14.8791L24.8326 14.8788L24.8329 14.8785L24.8332 14.8782L24.8335 14.8779L24.8338 14.8776L24.8341 14.8773L24.8344 14.877L24.8347 14.8767L24.835 14.8764L24.8353 14.8761L24.8356 14.8758L24.8359 14.8755L24.8362 14.8752L24.8365 14.8749L24.8368 14.8746L24.8371 14.8743L24.8374 14.874L24.8377 14.8737L24.838 14.8734L24.8383 14.8731L24.8386 14.8728L24.8389 14.8725L24.8392 14.8722L24.8395 14.8719L24.8398 14.8716L24.8401 14.8713L24.8404 14.871L24.8407 14.8707L24.841 14.8704L24.8413 14.8701L24.8416 14.8698L24.8419 14.8695L24.8422 14.8692L24.8425 14.8689L24.8428 14.8686L24.8431 14.8682L24.8434 14.8679L24.8437 14.8676L24.844 14.8673L24.8443 14.867L24.8446 14.8667L24.845 14.8664L24.8453 14.8661L24.8456 14.8658L24.8459 14.8655L24.8462 14.8652L24.8465 14.8649L24.8468 14.8646L24.8471 14.8642L24.8474 14.8639L24.8477 14.8636L24.8481 14.8633L24.8484 14.863L24.8487 14.8627L24.849 14.8624L24.8493 14.8621L24.8496 14.8617L24.8499 14.8614L24.8503 14.8611L24.8506 14.8608L24.8509 14.8605L24.8512 14.8602L24.8515 14.8598L24.8518 14.8595L24.8522 14.8592L24.8525 14.8589L24.8528 14.8586L24.8531 14.8582L24.8534 14.8579L24.8538 14.8576L24.8541 14.8573L24.8544 14.8569L24.8547 14.8566L24.8551 14.8563L24.8554 14.856L24.8557 14.8556L24.8561 14.8553L24.8564 14.855L24.8567 14.8547L24.857 14.8543L24.8574 14.854L24.8577 14.8537L24.858 14.8533L24.8584 14.853L24.8587 14.8527L24.859 14.8523L24.8594 14.852L24.8597 14.8516L24.8601 14.8513L24.8604 14.851L24.8607 14.8506L24.8611 14.8503L24.8614 14.85L24.8618 14.8496L24.8621 14.8493L24.8624 14.8489L24.8628 14.8486L24.8631 14.8482L24.8635 14.8479L24.8638 14.8475L24.8642 14.8472L24.8645 14.8468L24.8649 14.8465L24.8652 14.8461L24.8656 14.8458L24.8659 14.8454L24.8663 14.8451L24.8666 14.8447L24.867 14.8444L24.8674 14.844L24.8677 14.8436L24.8681 14.8433L24.8684 14.8429L24.8688 14.8426L24.8692 14.8422L24.8695 14.8418L24.8699 14.8415L24.8703 14.8411L24.8706 14.8407L24.871 14.8404L24.8714 14.84L24.8717 14.8396L24.8721 14.8393L24.8725 14.8389L24.8729 14.8385L24.8732 14.8381L24.8736 14.8378L24.874 14.8374L24.8744 14.837L24.8747 14.8366L24.8751 14.8362L24.8755 14.8359L24.8759 14.8355L24.8763 14.8351L24.8767 14.8347L24.8771 14.8343L24.8774 14.8339L24.8778 14.8335L24.8782 14.8331L24.8786 14.8327L24.879 14.8323L24.8794 14.832L24.8798 14.8316L24.8802 14.8312L24.8806 14.8308L24.881 14.8304L24.8814 14.83L24.8818 14.8295L24.8822 14.8291L24.8826 14.8287L24.883 14.8283L24.8834 14.8279L24.8839 14.8275L24.8843 14.8271L24.8847 14.8267L24.8851 14.8263L24.8855 14.8258L24.8859 14.8254L24.8864 14.825L24.8868 14.8246L24.8872 14.8242L24.8876 14.8237L24.888 14.8233L24.8885 14.8229L24.8889 14.8225L24.8893 14.822L24.8898 14.8216L24.8902 14.8212L24.8906 14.8207L24.8911 14.8203L24.8915 14.8198L24.892 14.8194L24.8924 14.819L24.8928 14.8185L24.8933 14.8181L24.8937 14.8176L24.8942 14.8172L24.8946 14.8167L24.8951 14.8163L24.8955 14.8158L24.896 14.8154L24.8964 14.8149L24.8969 14.8145L24.8974 14.814L24.8978 14.8135L24.8983 14.8131L24.8988 14.8126L24.8992 14.8121L24.8997 14.8117L24.9002 14.8112L24.9006 14.8107L24.9011 14.8103L24.9016 14.8098L24.9021 14.8093L24.9025 14.8088L24.903 14.8083L24.9035 14.8079L24.904 14.8074L24.9045 14.8069L24.905 14.8064L24.9055 14.8059L24.9059 14.8054L24.9064 14.8049L24.9069 14.8044L24.9074 14.8039L24.9079 14.8034L24.9084 14.8029L24.9089 14.8024L24.9095 14.8019L24.91 14.8014L24.9105 14.8009L24.911 14.8004L24.9115 14.7999L24.912 14.7994L24.9125 14.7988L24.913 14.7983L24.9136 14.7978L24.9141 14.7973L24.9146 14.7967L24.9151 14.7962L24.9157 14.7957L24.9162 14.7952L24.9167 14.7946L24.9173 14.7941L24.9178 14.7935L24.9184 14.793L24.9189 14.7925L24.9194 14.7919L24.92 14.7914L24.9205 14.7908L24.9211 14.7903L24.9216 14.7897L24.9222 14.7892L24.9228 14.7886L24.9233 14.788L24.9239 14.7875L24.9244 14.7869L24.925 14.7864L24.9256 14.7858L24.9261 14.7852L24.9267 14.7846L24.9273 14.7841L24.9279 14.7835L24.9285 14.7829L24.929 14.7823L24.9296 14.7817L24.9302 14.7812L24.9308 14.7806L24.9314 14.78L24.932 14.7794Z" stroke="#FF570F" stroke-width="1.4"/>
<path d="M60.6099 47.6635L60.6123 47.2886L60.9257 47.0828C64.3793 44.8152 66.7056 41.0005 66.7387 36.7041C66.7722 32.3643 64.5089 28.6053 61.0739 26.5455L61.0174 33.8654C60.9914 37.2434 58.1382 40.0717 54.6283 40.0988C51.1116 40.1259 48.2887 37.3304 48.3131 33.9448C48.3131 33.9438 48.3131 33.9428 48.3132 33.9418L48.3034 26.4434C44.8933 28.6266 42.5816 32.4265 42.5482 36.7553C42.5138 41.2153 44.7077 44.8958 48.1742 47.0181L48.5124 47.2251L48.5087 47.6215L48.013 101.71L48.0103 102.012L47.7889 102.217C45.7724 104.086 44.4445 106.589 44.4205 109.503C44.455 114.851 48.7403 119.123 53.9926 119.085C59.352 118.968 63.7045 114.6 63.7451 109.337C63.7677 106.404 62.5445 103.863 60.5175 102.13L60.2704 101.919L60.2724 101.594L60.6099 47.6635ZM48.7724 106.705L48.7755 106.303L49.1249 106.103L53.8556 103.398L54.1999 103.201L54.5458 103.395L59.2353 106.028L59.5958 106.23L59.5926 106.643L59.5502 112.139L59.5471 112.541L59.1977 112.741L54.467 115.446L54.1227 115.643L53.7768 115.449L49.0873 112.816L48.7268 112.614L48.73 112.2L48.7724 106.705Z" stroke="#FF570F" stroke-width="1.4"/>
</g>
</svg>
