<svg width="77" height="160" viewBox="0 0 77 160" fill="none" xmlns="http://www.w3.org/2000/svg">
<path d="M76.0575 158.617L76.0575 126.399L50.537 126.399L50.537 158.617L76.0575 158.617Z" stroke="#FF570F" stroke-width="1.4" stroke-miterlimit="10"/>
<path d="M69.8069 76.1201L69.8069 59L56.8221 59L56.8221 76.1201L69.8069 76.1201Z" stroke="#FF570F" stroke-width="1.4" stroke-miterlimit="10"/>
<path d="M57.3964 120.611C57.4309 112.417 57.4655 104.189 57.5 95.9947C55.3244 91.9849 52.6088 87.9752 50.4332 83.9654C50.4332 81.3503 50.4332 78.7352 50.4332 76.1201C58.9285 76.1201 67.4239 76.1201 75.9537 76.1201C75.9537 78.7352 75.9537 81.3503 75.9537 83.9654C73.9162 88.01 71.1411 92.0198 69.1381 96.0645C69.1036 104.258 69.0345 112.417 69 120.611C64.6833 120.611 61.7131 120.611 57.3964 120.611Z" stroke="#FF570F" stroke-width="1.4" stroke-miterlimit="10"/>
<path d="M76.0575 126.399L76.0575 100.632L71.6372 100.632L71.6372 126.399L76.0575 126.399Z" stroke="#FF570F" stroke-width="1.4" stroke-miterlimit="10"/>
<path d="M54.9917 126.399L54.9917 100.632L50.5714 100.632L50.5714 126.399L54.9917 126.399Z" stroke="#FF570F" stroke-width="1.4" stroke-miterlimit="10"/>
<path d="M60 101.5C60 103.433 61.567 105 63.5 105C65.433 105 67 103.433 67 101.5C67 99.567 65.433 98 63.5 98C61.567 98 60 99.567 60 101.5Z" stroke="#FF570F" stroke-width="1.4" stroke-miterlimit="10"/>
<path d="M62 101.5C62 102.328 62.6716 103 63.5 103C64.3284 103 65 102.328 65 101.5C65 100.672 64.3284 100 63.5 100C62.6716 100 62 100.672 62 101.5Z" stroke="#FF570F" stroke-width="1.4" stroke-miterlimit="10"/>
<path d="M59.7574 67.5426C59.7574 69.526 61.3499 71.1339 63.3143 71.1339C65.2788 71.1339 66.8713 69.526 66.8713 67.5426C66.8713 65.5591 65.2788 63.9512 63.3143 63.9512C61.3499 63.9512 59.7574 65.5591 59.7574 67.5426Z" stroke="#FF570F" stroke-width="1.4" stroke-miterlimit="10"/>
<path d="M16.6154 95.4971L16.6154 49.8374L6.23774 49.8374L6.23774 95.4971L16.6154 95.4971Z" stroke="#FF570F" stroke-width="1.4" stroke-miterlimit="10"/>
<path d="M19.0139 49.8372L19.0139 35.8069L3.98595 35.8069L3.98595 49.8372L19.0139 49.8372Z" stroke="#FF570F" stroke-width="1.4" stroke-miterlimit="10"/>
<path d="M7.06994 35.807C6.97204 33.7537 6.48253 30.2828 4.37764 26.7141C3.39861 25.052 2.32169 23.781 1.34267 22.8033C1.34267 17.8169 1.34267 12.8305 1.34267 7.79521C3.15386 3.88432 7.06994 1.39113 11.3776 1.34225C15.7343 1.29336 19.7972 3.83544 21.6573 7.79522C21.6573 12.9771 21.6573 18.1102 21.6573 23.2921C20.5804 24.1721 19.1608 25.492 17.986 27.4963C15.9301 30.8695 15.6364 34.1937 15.5874 35.807C8.83218 35.807 13.8741 35.807 7.06994 35.807Z" stroke="#FF570F" stroke-width="1.4" stroke-miterlimit="10"/>
<path d="M4.42657 153.525C3.5944 144.627 2 134.85 2 124.34C2 114.025 3.64335 104.443 4.42657 95.6924C9.07692 95.6924 13.7762 95.6924 18.4266 95.6924C19.944 103.416 21.1678 112.949 21.2168 123.851C21.2657 135.437 19.993 145.459 18.4266 153.574C17.4475 156.605 14.6084 158.707 11.4266 158.707C8.24475 158.658 5.40559 156.556 4.42657 153.525Z" stroke="#FF570F" stroke-width="1.4" stroke-miterlimit="10"/>
<path d="M16.8112 46.4153L6.18879 46.4153" stroke="#FF570F" stroke-width="1.4" stroke-miterlimit="10"/>
<path d="M16.8112 43.802L6.18879 43.802" stroke="#FF570F" stroke-width="1.4" stroke-miterlimit="10"/>
<path d="M16.8112 41.1399L6.18879 41.1399" stroke="#FF570F" stroke-width="1.4" stroke-miterlimit="10"/>
<path d="M6.38459 10.7284C6.38459 13.5093 8.64195 15.7637 11.4265 15.7637C14.2111 15.7637 16.4685 13.5093 16.4685 10.7284C16.4685 7.94748 14.2111 5.69312 11.4265 5.69312C8.64195 5.69311 6.38459 7.94748 6.38459 10.7284Z" stroke="#FF570F" stroke-width="1.4" stroke-miterlimit="10"/>
<path d="M7.51049 149.174C7.51049 151.334 9.26378 153.085 11.4266 153.085C13.5894 153.085 15.3427 151.334 15.3427 149.174C15.3427 147.014 13.5894 145.263 11.4266 145.263C9.26378 145.263 7.51049 147.014 7.51049 149.174Z" stroke="#FF570F" stroke-width="1.4" stroke-miterlimit="10"/>
<path d="M8.48952 10.7283C8.48952 12.3483 9.80449 13.6615 11.4266 13.6615C13.0487 13.6615 14.3636 12.3483 14.3636 10.7283C14.3636 9.10839 13.0487 7.79517 11.4266 7.79517C9.80449 7.79517 8.48952 9.10839 8.48952 10.7283Z" stroke="#FF570F" stroke-width="1.4" stroke-miterlimit="10"/>
</svg>
