<svg width="138" height="113" viewBox="0 0 138 113" fill="none" xmlns="http://www.w3.org/2000/svg">
<path d="M25.1541 3.6103L25.1575 3.60916C25.7524 3.4107 26.2044 3.41969 26.5292 3.53619C26.8408 3.64801 27.1174 3.88767 27.3218 4.326L27.5613 4.83958L28.1135 4.71229C41.8272 1.55097 54.9343 0.7 69 0.7C83.0656 0.7 96.1728 1.55097 109.887 4.71229L110.439 4.83958L110.678 4.326C110.883 3.88767 111.159 3.64801 111.471 3.53619C111.796 3.41968 112.248 3.4107 112.842 3.60916L112.846 3.61029L130.809 9.49942C130.81 9.49966 130.81 9.49991 130.811 9.50016C131.883 9.85806 132.508 10.2982 132.914 10.8042C133.327 11.3182 133.568 11.9679 133.752 12.8532L133.754 12.8605L133.756 12.8678C135.866 22.0197 136.498 35.324 137.007 46.0375C137.05 46.9407 137.092 47.8255 137.134 48.6879L133.876 53.0591L133.738 53.2452V53.4774V80.2935V80.6123L133.978 80.8216L137.3 83.7125V107.274L131.991 112.3H113.866L105.274 107.506L105.115 107.417H104.933H69H33.0673H32.8853L32.7263 107.506L24.1344 112.3H6.00943L0.7 107.274V83.7125L4.02182 80.8216L4.26229 80.6123V80.2935V53.4774V53.2452L4.12359 53.0591L0.866292 48.6879C0.908256 47.8256 0.950283 46.9409 0.993184 46.0378C1.50199 35.3267 2.13382 22.0258 4.24295 12.8741C4.46782 11.9754 4.70927 11.3408 5.1158 10.8322C5.51435 10.3336 6.12383 9.89295 7.19957 9.49669L25.1541 3.6103ZM44.4666 28.831L44.4699 28.8313C52.7854 29.5313 61.3282 29.5313 68.9867 29.5313H69H69.0133C76.7492 29.5313 85.2146 29.5313 93.5301 28.8313L93.5334 28.831C97.204 28.5045 99.658 27.0392 101.499 24.855C103.303 22.7145 104.502 19.8977 105.733 16.935C106.132 15.9999 106.198 15.1408 105.985 14.3663C105.776 13.6013 105.315 12.9898 104.786 12.5048L104.774 12.4936L104.761 12.483C103.791 11.6737 102.51 10.7942 100.844 9.92049L100.844 9.92038L100.832 9.91447C98.9226 8.95912 96.2896 8.88997 93.9325 10.0695L93.9251 10.0732L93.9177 10.0771C87.6436 13.4058 79.0326 14.6457 69 14.6457C58.968 14.6457 50.3574 13.406 44.0834 10.0777C41.7241 8.81344 39.0794 8.87637 37.158 9.91955C35.4236 10.7884 34.1343 11.6695 33.2267 12.4929C32.6787 12.9533 32.2213 13.5708 32.014 14.34C31.8036 15.1203 31.8666 15.9974 32.2675 16.9353C33.4977 19.8979 34.6967 22.7145 36.501 24.855C38.342 27.0392 40.796 28.5045 44.4666 28.831Z" stroke="#FF570F" stroke-width="1.4"/>
<path d="M28.2987 66.574C28.2987 65.866 28.3887 65.176 28.5687 64.504C28.7607 63.832 29.0487 63.232 29.4327 62.704C29.8287 62.164 30.3327 61.732 30.9447 61.408C31.5567 61.084 32.2887 60.922 33.1407 60.922C33.9927 60.922 34.7187 61.084 35.3187 61.408C35.9307 61.732 36.4287 62.164 36.8127 62.704C37.2087 63.232 37.4967 63.832 37.6767 64.504C37.8687 65.176 37.9647 65.866 37.9647 66.574C37.9647 67.27 37.8687 67.96 37.6767 68.644C37.4967 69.316 37.2087 69.922 36.8127 70.462C36.4287 70.99 35.9307 71.416 35.3187 71.74C34.7187 72.064 33.9927 72.226 33.1407 72.226C32.2887 72.226 31.5567 72.064 30.9447 71.74C30.3327 71.416 29.8287 70.99 29.4327 70.462C29.0487 69.922 28.7607 69.316 28.5687 68.644C28.3887 67.96 28.2987 67.27 28.2987 66.574ZM27.0747 66.574C27.0747 67.462 27.2007 68.308 27.4527 69.112C27.7047 69.916 28.0827 70.624 28.5867 71.236C29.0907 71.848 29.7207 72.34 30.4767 72.712C31.2447 73.072 32.1327 73.252 33.1407 73.252C34.1487 73.252 35.0307 73.072 35.7867 72.712C36.5427 72.34 37.1727 71.848 37.6767 71.236C38.1807 70.624 38.5587 69.916 38.8107 69.112C39.0627 68.308 39.1887 67.462 39.1887 66.574C39.1887 65.686 39.0627 64.84 38.8107 64.036C38.5587 63.232 38.1807 62.524 37.6767 61.912C37.1727 61.288 36.5427 60.796 35.7867 60.436C35.0307 60.064 34.1487 59.878 33.1407 59.878C32.1327 59.878 31.2447 60.064 30.4767 60.436C29.7207 60.796 29.0907 61.288 28.5867 61.912C28.0827 62.524 27.7047 63.232 27.4527 64.036C27.2007 64.84 27.0747 65.686 27.0747 66.574ZM48.2645 60.148L52.5305 71.416L56.9585 60.148H58.7585V73H57.5345V61.894H57.4985L53.1065 73H51.9545L47.7245 61.894H47.6885V73H46.4645V60.148H48.2645ZM67.9077 65.782V61.192H72.1197C74.0517 61.192 75.0177 61.996 75.0177 63.604C75.0177 63.904 74.9577 64.186 74.8377 64.45C74.7177 64.714 74.5377 64.948 74.2977 65.152C74.0577 65.344 73.7577 65.5 73.3977 65.62C73.0377 65.728 72.6117 65.782 72.1197 65.782H67.9077ZM66.6837 60.148V73H72.1197C72.8157 73 73.4097 72.94 73.9017 72.82C74.4057 72.688 74.8257 72.526 75.1617 72.334C75.5097 72.13 75.7857 71.896 75.9897 71.632C76.1937 71.368 76.3497 71.104 76.4577 70.84C76.5657 70.564 76.6377 70.3 76.6737 70.048C76.7097 69.784 76.7277 69.55 76.7277 69.346C76.7277 68.506 76.4817 67.804 75.9897 67.24C75.4977 66.664 74.8377 66.322 74.0097 66.214V66.178C74.3457 66.106 74.6457 65.98 74.9097 65.8C75.1857 65.62 75.4197 65.404 75.6117 65.152C75.8157 64.888 75.9717 64.6 76.0797 64.288C76.1877 63.964 76.2417 63.634 76.2417 63.298C76.2417 62.698 76.1277 62.2 75.8997 61.804C75.6717 61.396 75.3657 61.072 74.9817 60.832C74.6097 60.58 74.1717 60.406 73.6677 60.31C73.1757 60.202 72.6597 60.148 72.1197 60.148H66.6837ZM67.9077 71.956V66.826H72.1197C73.2117 66.826 74.0457 67.036 74.6217 67.456C75.2097 67.864 75.5037 68.482 75.5037 69.31C75.5037 69.826 75.4137 70.258 75.2337 70.606C75.0537 70.942 74.8077 71.212 74.4957 71.416C74.1837 71.62 73.8237 71.764 73.4157 71.848C73.0077 71.92 72.5757 71.956 72.1197 71.956H67.9077ZM85.3136 66.25V61.192H89.8856C90.8216 61.192 91.5176 61.42 91.9736 61.876C92.4296 62.332 92.6576 62.956 92.6576 63.748C92.6576 64.144 92.5796 64.498 92.4236 64.81C92.2796 65.11 92.0816 65.368 91.8296 65.584C91.5776 65.8 91.2836 65.968 90.9476 66.088C90.6116 66.196 90.2576 66.25 89.8856 66.25H85.3136ZM84.0896 60.148V73H85.3136V67.294H89.9576C90.5336 67.27 90.9836 67.366 91.3076 67.582C91.6436 67.798 91.8956 68.086 92.0636 68.446C92.2436 68.794 92.3576 69.196 92.4056 69.652C92.4656 70.096 92.5076 70.546 92.5316 71.002C92.5436 71.134 92.5556 71.29 92.5676 71.47C92.5796 71.65 92.5916 71.836 92.6036 72.028C92.6276 72.208 92.6576 72.388 92.6936 72.568C92.7416 72.736 92.8016 72.88 92.8736 73H94.2236C94.0916 72.844 93.9836 72.628 93.8996 72.352C93.8276 72.064 93.7736 71.764 93.7376 71.452C93.7016 71.128 93.6776 70.81 93.6656 70.498C93.6536 70.186 93.6416 69.922 93.6296 69.706C93.6056 69.322 93.5516 68.968 93.4676 68.644C93.3956 68.308 93.2696 68.014 93.0896 67.762C92.9216 67.51 92.6996 67.306 92.4236 67.15C92.1476 66.982 91.7996 66.868 91.3796 66.808V66.772C92.2076 66.604 92.8316 66.22 93.2516 65.62C93.6716 65.02 93.8816 64.312 93.8816 63.496C93.8816 62.92 93.7736 62.422 93.5576 62.002C93.3536 61.57 93.0716 61.222 92.7116 60.958C92.3636 60.682 91.9496 60.478 91.4696 60.346C91.0016 60.214 90.5036 60.148 89.9756 60.148H84.0896ZM103.313 67.96L105.887 61.372L108.371 67.96H103.313ZM105.257 60.148L100.091 73H101.387L102.935 69.004H108.785L110.351 73H111.665L106.625 60.148H105.257Z" fill="#FF570F"/>
</svg>
