<svg width="138" height="26" viewBox="0 0 138 26" fill="none" xmlns="http://www.w3.org/2000/svg">
<path d="M30.4624 10.3545H33.0702V6.75802H35.8568V18.823H33.4769V21.4289H41.0118V18.823H38.6002V6.75802H41.3897V10.3545H44.035V4.1521H30.4624V10.3545Z" fill="#FF570F"/>
<path d="M54.3627 6.75802H56.5407V11.4055H50.0212V6.75802H52.1588V4.1521H45.2729V6.75802H47.2374V18.823H45.2729V21.4289H52.1588V18.823H50.0212V14.0085H56.5407V18.823H54.3627V21.4289H61.1822V18.823H59.3187V6.75802H61.2918V4.1521H54.3627V6.75802Z" fill="#FF570F"/>
<path d="M69.1265 3.91895C66.6947 3.91895 64.7994 4.73383 63.4667 6.34058C62.1801 7.90125 61.5281 10.0263 61.5281 12.6524C61.501 14.2283 61.7863 15.794 62.3676 17.2595C62.8896 18.573 63.7939 19.7003 64.9638 20.496C66.2028 21.2889 67.6525 21.6903 69.1236 21.6478C70.5941 21.6857 72.0425 21.2846 73.2834 20.496C74.4662 19.7066 75.3885 18.5855 75.9345 17.2739C76.532 15.8124 76.8264 14.2451 76.7999 12.6668C76.7999 10.0493 76.1335 7.92716 74.8209 6.35785C73.5084 4.78854 71.5583 3.91895 69.1265 3.91895ZM66.4927 7.29944C67.2741 6.79387 68.1853 6.52485 69.1164 6.52485C70.0475 6.52485 70.9587 6.79387 71.7401 7.29944C72.4703 7.84601 73.0231 8.59511 73.3295 9.45328C73.7103 10.4814 73.898 11.5707 73.8834 12.6668C73.8834 14.668 73.4651 16.2747 72.6401 17.4438C71.8641 18.5438 70.716 19.0793 69.1265 19.0793C68.185 19.1227 67.2555 18.8555 66.4812 18.3192C65.7593 17.7759 65.2224 17.0238 64.9436 16.1653C64.5687 15.0377 64.3892 13.8546 64.4129 12.6668C64.3965 11.5712 64.5742 10.4813 64.9379 9.44752C65.2318 8.59367 65.7729 7.84608 66.4927 7.29944Z" fill="#FF570F"/>
<path d="M88.7051 16.1221C88.495 15.4008 88.2486 14.6906 87.9666 13.9942C87.8441 13.72 87.6796 13.4665 87.4791 13.2426C87.8615 13.0398 88.2084 12.7762 88.5061 12.4623C89.1926 11.7367 89.5273 10.6396 89.5273 9.10484C89.5273 7.69966 89.1811 6.60258 88.4974 5.84528C87.8547 5.11833 86.9917 4.62087 86.0396 4.42859C85.0177 4.2345 83.9787 4.14382 82.9386 4.15792H76.8979V6.74944H78.8711V18.823H76.8979V21.429H83.5847V18.823H81.6116V14.3483H83.279C83.828 14.3223 84.3781 14.3698 84.9146 14.4894C85.18 14.5701 85.2406 14.6824 85.2637 14.7256C85.4848 15.209 85.6596 15.7123 85.7858 16.2286L87.3089 21.429H90.8687V18.823H89.5157L88.7051 16.1221ZM85.18 11.5466C84.5342 11.6888 83.8738 11.7545 83.2126 11.7424H81.6116V6.75519H83.2126C83.9269 6.7399 84.6409 6.79487 85.3444 6.91932C85.7153 6.9886 86.0467 7.19407 86.2733 7.49522C86.5156 7.80908 86.6425 8.35906 86.6425 9.0962C86.6425 9.89669 86.5012 10.4899 86.2214 10.8527C85.9657 11.1978 85.5974 11.4432 85.18 11.5466Z" fill="#FF570F"/>
<path d="M99.9007 6.75802H101.554L98.0977 16.7901L94.5784 6.75802H96.2313V4.1521H90.3955V6.75802H91.6763L96.8371 21.4289H98.0718L98.1093 21.5354L98.1468 21.4289H99.4074L104.427 6.75802H105.768V4.1521H99.9007V6.75802Z" fill="#FF570F"/>
<path d="M107.266 6.75802H109.236V18.823H107.266V21.4289H113.952V18.823H112.014V6.75802H113.952V4.1521H107.266V6.75802Z" fill="#FF570F"/>
<path d="M129.253 6.75802V4.1521H123.048V6.75802H123.893L120.123 10.4581V6.75802H121.617V4.1521H115.372V6.75802H117.345V18.823H115.372V21.4289H121.617V18.823H120.123V14.4807L124.121 18.823H123.186V21.4289H129.253V18.823H127.839L121.897 12.3759L127.672 6.75802H129.253Z" fill="#FF570F"/>
<path d="M4.75963 8.98996L9.7877 6.98585V19.5691H12.0291V6.95994L21.1275 11.1179L21.8516 9.47659L10.9041 3.87891L3.87402 6.93402L4.75963 8.98996Z" fill="#FF570F"/>
<path d="M12.1157 19.6697H9.68964V7.12962L4.70773 9.11646L3.75 6.88487L10.907 3.76929L21.9814 9.43032L21.1766 11.2473L21.0843 11.2069L12.1157 7.11523V19.6697ZM9.87426 19.471H11.9166V6.80136L21.0756 10.9881L21.7247 9.52246L10.8983 3.98813L4.00386 6.98565L4.81158 8.86018L9.8858 6.84456L9.87426 19.471Z" fill="#FF570F"/>
<path d="M24.9272 19.7042L16.8904 14.7486L24.0849 10.5475L13.4258 5.18018V5.22625L13.3335 5.18018V21.1094H15.5922V16.4562L23.6695 21.3513L24.9272 19.7042ZM15.5922 13.0814V8.52036L19.5558 10.441L15.5922 13.0814Z" fill="#FF570F"/>
<path d="M23.6954 21.4809L15.6902 16.6319V21.2074H13.2354V5.01611L13.3277 5.06218V5.01611L24.2896 10.5418L17.0778 14.7516L25.0685 19.6755L23.6954 21.4809ZM15.4941 16.2806L23.655 21.2217L24.7915 19.7302L16.7143 14.7458L23.8973 10.5533L13.5238 5.33573V5.38468L13.4344 5.33573V21.0173H15.4941V16.2806ZM15.4941 13.2514V8.35629L19.7548 10.418L15.4941 13.2514ZM15.6902 8.67879V12.8828L19.3567 10.4525L15.6902 8.67879Z" fill="#FF570F"/>
<path d="M137.861 5.75585C137.868 6.22836 137.777 6.69724 137.595 7.13322C137.412 7.5692 137.141 7.96291 136.799 8.28978C136.467 8.62728 136.07 8.89396 135.632 9.07363C135.194 9.2533 134.723 9.34223 134.249 9.33502C133.777 9.34311 133.309 9.25337 132.873 9.07148C132.438 8.88958 132.045 8.61948 131.719 8.27826C131.385 7.94917 131.121 7.55621 130.942 7.12284C130.763 6.68946 130.673 6.22455 130.678 5.75585C130.671 5.28333 130.762 4.81445 130.944 4.37847C131.127 3.94249 131.398 3.54878 131.74 3.22192C132.07 2.88502 132.465 2.61863 132.901 2.43894C133.338 2.25925 133.806 2.17002 134.278 2.17667C134.75 2.16945 135.218 2.25959 135.654 2.44143C136.089 2.62328 136.482 2.89291 136.808 3.23343C137.145 3.56115 137.412 3.9536 137.593 4.38711C137.774 4.82062 137.865 5.28623 137.861 5.75585ZM137.374 5.75585C137.381 5.34831 137.304 4.94361 137.148 4.56706C136.991 4.19051 136.759 3.85022 136.465 3.56745C136.175 3.2768 135.83 3.04764 135.449 2.89374C135.068 2.73985 134.66 2.6644 134.249 2.67194C133.844 2.66554 133.441 2.74222 133.067 2.89724C132.692 3.05226 132.353 3.28232 132.071 3.57321C131.778 3.85545 131.547 4.19491 131.391 4.57042C131.235 4.94593 131.158 5.34945 131.166 5.75585C131.164 6.16637 131.244 6.57317 131.4 6.95264C131.557 7.3321 131.788 7.67665 132.08 7.96626C132.371 8.25587 132.718 8.48478 133.098 8.63967C133.479 8.79457 133.887 8.87237 134.298 8.86855C134.705 8.87441 135.108 8.79578 135.483 8.63764C135.857 8.47951 136.195 8.24533 136.474 7.95C136.764 7.66367 136.993 7.32171 137.148 6.94466C137.303 6.56761 137.379 6.16324 137.374 5.75585ZM136.274 4.75955C136.285 4.92073 136.259 5.0822 136.198 5.23183C136.137 5.38145 136.043 5.51533 135.923 5.62339C135.649 5.82901 135.312 5.93107 134.971 5.91134L136.197 7.83482H135.501L134.347 5.9171H133.413V7.84058H132.801V3.57897H134.769C134.961 3.57522 135.154 3.58484 135.346 3.60777C135.501 3.63439 135.65 3.69008 135.784 3.77189C135.948 3.85966 136.08 3.99801 136.159 4.16638C136.24 4.34848 136.279 4.54611 136.274 4.74515V4.75955ZM135.672 4.71924C135.679 4.59886 135.649 4.47913 135.586 4.37617C135.523 4.27321 135.43 4.19196 135.32 4.14335C135.091 4.05412 134.846 4.01389 134.601 4.02529H133.401V5.46502H134.523C134.839 5.49752 135.157 5.43002 135.432 5.2721C135.514 5.20317 135.579 5.11583 135.62 5.01722C135.662 4.91861 135.679 4.81156 135.672 4.70484V4.71924Z" fill="#FF570F"/>
<path d="M134.249 9.47922C133.758 9.48684 133.271 9.39305 132.819 9.20376C132.366 9.01447 131.957 8.73376 131.618 8.37926C131.272 8.03603 130.998 7.6271 130.813 7.17657C130.628 6.72605 130.535 6.24306 130.539 5.75607C130.532 5.26539 130.627 4.77851 130.816 4.32574C131.006 3.87296 131.287 3.46398 131.641 3.12423C131.982 2.77023 132.392 2.48915 132.845 2.29808C133.299 2.10701 133.786 2.00993 134.278 2.01276C134.768 2.00632 135.255 2.10036 135.707 2.28906C136.16 2.47776 136.569 2.75711 136.909 3.10984C137.261 3.4542 137.539 3.86633 137.726 4.32122C137.914 4.7761 138.007 5.26426 137.999 5.75607C138.006 6.24674 137.912 6.73362 137.723 7.18639C137.533 7.63917 137.252 8.04815 136.897 8.3879C136.553 8.73913 136.141 9.01694 135.685 9.20452C135.23 9.3921 134.742 9.48555 134.249 9.47922ZM134.278 2.30071C133.823 2.29486 133.372 2.38116 132.951 2.55438C132.531 2.72761 132.15 2.98416 131.832 3.30852C131.504 3.62511 131.244 4.00585 131.07 4.42697C130.896 4.84809 130.81 5.30054 130.819 5.75607C130.817 6.20769 130.905 6.65521 131.079 7.07215C131.253 7.48909 131.509 7.86697 131.832 8.18346C132.142 8.51133 132.517 8.77181 132.933 8.94867C133.349 9.12553 133.797 9.21498 134.249 9.21143C134.705 9.21706 135.157 9.13068 135.578 8.95749C136 8.7843 136.382 8.52787 136.701 8.20361C137.031 7.88752 137.291 7.507 137.466 7.08586C137.641 6.66472 137.728 6.21201 137.72 5.75607C137.725 5.30211 137.638 4.85174 137.465 4.43209C137.291 4.01243 137.035 3.63219 136.71 3.31428C136.395 2.98861 136.017 2.73067 135.599 2.55636C135.181 2.38204 134.731 2.29504 134.278 2.30071ZM134.298 8.99547C133.87 8.9985 133.445 8.917 133.048 8.75563C132.652 8.59427 132.291 8.35623 131.986 8.05519C131.682 7.75416 131.441 7.39607 131.275 7.00151C131.11 6.60694 131.025 6.18369 131.024 5.75607C131.023 5.33283 131.106 4.91359 131.268 4.52235C131.43 4.13111 131.667 3.77554 131.967 3.47599C132.266 3.17645 132.622 2.93881 133.014 2.77666C133.405 2.61452 133.825 2.53106 134.249 2.53106C134.677 2.5236 135.102 2.60266 135.499 2.76349C135.896 2.92432 136.255 3.16359 136.557 3.46689C136.866 3.7647 137.11 4.12304 137.274 4.51944C137.438 4.91584 137.518 5.34175 137.509 5.77046C137.515 6.19779 137.435 6.62201 137.274 7.01778C137.112 7.41356 136.872 7.77279 136.569 8.07404C136.273 8.3738 135.919 8.61014 135.529 8.76859C135.138 8.92703 134.72 9.00423 134.298 8.99547ZM134.249 2.79598C133.861 2.79635 133.477 2.87333 133.118 3.02251C132.76 3.17168 132.435 3.3901 132.161 3.6652C131.888 3.9403 131.672 4.26665 131.525 4.62548C131.378 4.98431 131.304 5.36854 131.307 5.75607C131.305 6.14795 131.382 6.53624 131.532 6.89841C131.682 7.26058 131.902 7.58942 132.18 7.86585C132.459 8.14229 132.789 8.36081 133.153 8.50875C133.516 8.6567 133.906 8.73111 134.298 8.72767C135.014 8.73787 135.706 8.4729 136.231 7.98765H135.423L134.269 6.06993H133.554V7.97326H132.66V3.45249H134.768C134.966 3.44972 135.164 3.4603 135.36 3.48417C135.533 3.51346 135.7 3.575 135.85 3.66557C136.044 3.76423 136.199 3.92426 136.292 4.12053C136.382 4.32125 136.428 4.53953 136.424 4.75977C136.437 4.94311 136.407 5.12688 136.338 5.29705C136.268 5.46722 136.161 5.61929 136.023 5.74167C135.792 5.92179 135.511 6.02726 135.218 6.04401L136.372 7.84944C136.65 7.57607 136.87 7.24952 137.019 6.88934C137.168 6.52915 137.242 6.14273 137.238 5.75319C137.245 5.36455 137.172 4.97862 137.023 4.61946C136.874 4.26029 136.652 3.93558 136.372 3.66557C136.096 3.38416 135.766 3.1619 135.401 3.01238C135.035 2.86287 134.644 2.78923 134.249 2.79598ZM132.931 7.69107H133.274V5.77046H134.428L135.582 7.69107H135.94L134.717 5.77046H134.973C135.283 5.78979 135.59 5.69789 135.839 5.51131C135.942 5.41405 136.022 5.29446 136.072 5.16171C136.122 5.02896 136.141 4.88655 136.127 4.74537C136.129 4.56696 136.093 4.3902 136.02 4.22707C135.953 4.08442 135.839 3.96874 135.697 3.89881C135.576 3.82402 135.442 3.77228 135.302 3.7462C135.119 3.72604 134.935 3.71739 134.751 3.72028H132.925L132.931 7.69107ZM134.523 5.59194H133.274V3.86426H134.613C134.879 3.85106 135.144 3.89525 135.392 3.99383C135.527 4.05427 135.641 4.15435 135.718 4.28084C135.796 4.40733 135.832 4.55426 135.824 4.70218C135.831 4.8273 135.808 4.9522 135.758 5.06709C135.708 5.18199 135.632 5.28376 135.536 5.36446C135.233 5.5508 134.877 5.6318 134.523 5.59482V5.59194ZM133.542 5.30399H134.523C135.037 5.30399 135.25 5.21761 135.343 5.14274C135.407 5.08826 135.457 5.01947 135.49 4.94193C135.522 4.86439 135.536 4.78029 135.53 4.69642C135.538 4.60176 135.517 4.50686 135.468 4.42518C135.419 4.34351 135.346 4.27923 135.259 4.24147C135.049 4.16178 134.825 4.12648 134.601 4.13781H133.542V5.30399Z" fill="#FF570F"/>
<path d="M2.65971 2.02124H0V23.8476H2.65971V2.02124Z" fill="#FF570F"/>
<path d="M28.4346 2.02124H25.7749V23.8476H28.4346V2.02124Z" fill="#FF570F"/>
<path d="M0 23.2201L0 25.875H28.4347V23.2201H0Z" fill="#FF570F"/>
<path d="M0 -8.29697e-05L0 2.65479L28.4347 2.65479V-8.29697e-05L0 -8.29697e-05Z" fill="#FF570F"/>
</svg>
