<svg width="86" height="44" viewBox="0 0 86 44" fill="none" xmlns="http://www.w3.org/2000/svg">
<path d="M73.1547 39.5536H75.8516V43.9499H73.1547V39.5536ZM77.4233 39.5275H79.5485V43.9107H77.4233V39.5275ZM80.6294 39.4961H82.1828V43.8898H80.6294V39.4961ZM85.4176 39.4622H85.8275V43.8585H85.4176V39.4674V39.4622ZM63.6853 39.5536H59.9858V43.9499H63.6827C63.6827 42.4836 63.6827 41.0147 63.6827 39.5536H63.6853ZM58.8605 39.5275H55.9521V43.9107H58.8605V39.5275ZM55.2211 39.4961H53.0933V43.8898H55.2211V39.4961ZM52.2604 39.4674H50.9106V43.8663H52.25V39.4674H52.2604ZM71.0582 39.5981H66.5755V43.9891H71.0556V39.5981H71.0582ZM49.7488 39.4674H49.1875V43.8585H49.7488V39.4674ZM83.2245 39.4805H84.2062V43.8794H83.2245V39.4805Z" fill="#FF570F"/>
<path fill-rule="evenodd" clip-rule="evenodd" d="M85.8305 37.9907H81.4704V32.149C81.4704 30.4317 81.3556 29.3183 81.1859 28.8269C80.2642 26.2289 77.8492 27.1071 77.0999 29.4202C76.8911 30.058 76.7579 31.1819 76.7579 32.9331V37.9933H72.2673V24.4019H76.3193V26.7307C78.9876 23.4165 84.4729 23.0087 85.5798 27.5828C85.7674 28.5088 85.8498 29.4532 85.8253 30.3978V38.0063L85.8305 37.9907ZM69.9829 37.9907H65.6228V32.149C65.6228 30.4317 65.5106 29.3183 65.3409 28.8269C64.4193 26.2289 62.0043 27.1071 61.2524 29.4202C61.0487 30.0554 60.9182 31.1845 60.9182 32.9331V37.9933H56.4276V24.4019H60.477V26.7307C63.1452 23.4165 68.6331 23.0087 69.7427 27.5828C69.9255 28.5095 70.006 29.4535 69.9829 30.3978V38.0063V37.9907ZM53.9134 24.3992V28.3774H49.1617V24.3914L53.9134 24.3992ZM11.0962 24.3992V28.3852H4.90598V32.4888H10.1824V36.3022H4.90598V43.8585H0.146484V24.3862L11.0962 24.3992ZM18.2759 24.3862V43.8585H13.5347V24.3862H18.2759ZM25.5078 24.3862V39.4674H32.0714V43.8585H20.7692V24.3862H25.5078ZM39.2642 24.3862V39.4674H46.0366V43.8585H34.5177V24.3914L39.2642 24.3862ZM53.9082 30.7768V37.9854H49.1617V30.782L53.9082 30.7768Z" fill="#FF570F"/>
<path fill-rule="evenodd" clip-rule="evenodd" d="M12.0985 19.8095C13.3149 19.8095 14.4815 19.3261 15.3421 18.4655C16.2027 17.6049 16.6869 16.4375 16.6883 15.2198C16.6886 14.6164 16.5703 14.0188 16.3399 13.4612C16.1096 12.9036 15.7718 12.3968 15.3458 11.9699C14.9199 11.543 14.4141 11.2042 13.8574 10.973C13.3006 10.7418 12.7039 10.6226 12.1011 10.6222C11.4987 10.6219 10.9022 10.7407 10.3458 10.9716C9.78933 11.2026 9.28391 11.5413 8.8585 11.9683C8.43202 12.3942 8.09371 12.9002 7.86298 13.4572C7.63225 14.0143 7.51363 14.6115 7.51394 15.2145C7.51462 16.4323 7.99761 17.6001 8.85701 18.462C9.71641 19.3238 10.8821 19.8093 12.0985 19.8121V19.8095ZM4.11997e-05 21.9554C-0.00525158 19.3722 0.499465 16.8135 1.48518 14.4263C2.47089 12.0391 3.91817 9.87048 5.74381 8.04507C6.37457 7.41495 7.04708 6.82814 7.75674 6.28864L3.73871 2.35236L5.90829 0L10.5372 4.52699C13.3442 3.05422 16.4668 2.28725 19.6359 2.29225C22.8041 2.28757 25.9259 3.05454 28.7319 4.52699L33.3635 0L35.5331 2.35236L31.5098 6.28864C32.2188 6.82896 32.8904 7.41665 33.5202 8.04769C35.346 9.87257 36.7935 12.0407 37.7797 14.4274C38.7659 16.8142 39.2711 19.3725 39.2665 21.9554H37.1335C37.1355 19.6552 36.6835 17.3774 35.8035 15.2526C34.9236 13.1279 33.633 11.1981 32.0059 9.57411C31.3682 8.93744 30.6831 8.35027 29.9564 7.81768L28.1967 9.52706C29.3837 9.72209 30.4795 10.2853 31.3297 11.1371C31.866 11.6722 32.2913 12.3081 32.5812 13.0083C32.8711 13.7085 33.0198 14.4592 33.0189 15.2172C33.0189 15.9746 32.8698 16.7246 32.5802 17.4243C32.2906 18.124 31.8662 18.7597 31.3311 19.2952C30.796 19.8306 30.1608 20.2553 29.4617 20.5449C28.7626 20.8345 28.0134 20.9834 27.2568 20.9831C26.4999 20.9855 25.75 20.8381 25.0502 20.5494C24.3503 20.2607 23.7144 19.8363 23.1789 19.3007C22.6435 18.7652 22.219 18.1289 21.93 17.4285C21.641 16.7282 21.4931 15.9775 21.4948 15.2198C21.493 14.1659 21.7821 13.132 22.3303 12.2323L21.6332 11.4743L27.1159 6.11352C24.7781 5.00689 22.2244 4.43291 19.6385 4.43289C17.0525 4.43213 14.4986 5.00615 12.1612 6.11352L17.6439 11.4743L16.9964 12.1774C17.5652 13.0909 17.8664 14.1459 17.8658 15.2224C17.8637 16.7514 17.2554 18.217 16.1744 19.2972C15.0935 20.3774 13.6284 20.9838 12.1011 20.9831C11.3442 20.9855 10.5943 20.8381 9.89444 20.5494C9.19461 20.2607 8.55868 19.8363 8.02321 19.3007C7.48774 18.7652 7.0633 18.1289 6.77428 17.4285C6.48525 16.7282 6.33735 15.9775 6.33907 15.2198C6.33848 14.4629 6.48716 13.7133 6.77658 13.014C7.066 12.3148 7.49048 11.6796 8.02565 11.145C8.85766 10.3079 9.92692 9.74757 11.0881 9.54013L9.31539 7.80722C7.09293 9.43518 5.28493 11.5645 4.03797 14.0226C2.79102 16.4807 2.1402 19.1984 2.13829 21.9554H4.11997e-05ZM27.2568 19.8199C28.4751 19.8186 29.643 19.3335 30.5045 18.4711C31.3659 17.6087 31.8505 16.4394 31.8519 15.2198C31.8514 14.6162 31.7323 14.0186 31.5011 13.4612C31.27 12.9037 30.9314 12.3973 30.5047 11.9709C30.0793 11.5439 29.5738 11.2053 29.0174 10.9743C28.461 10.7433 27.8644 10.6245 27.2621 10.6248C26.6598 10.6239 26.0633 10.7421 25.5069 10.9727C24.9504 11.2032 24.4449 11.5416 24.0194 11.9683C23.593 12.3942 23.2547 12.9002 23.0239 13.4572C22.7932 14.0143 22.6746 14.6115 22.6749 15.2145C22.6769 16.431 23.1596 17.5972 24.0176 18.4586C24.8756 19.32 26.0391 19.8066 27.2542 19.8121L27.2568 19.8199ZM12.0411 12.6374C12.5472 12.6374 13.042 12.7877 13.4628 13.0693C13.8836 13.3508 14.2116 13.751 14.4051 14.2192C14.5987 14.6874 14.6492 15.2026 14.5503 15.6995C14.4514 16.1965 14.2074 16.6529 13.8493 17.011C13.4913 17.3691 13.0351 17.6129 12.5386 17.7114C12.0421 17.81 11.5276 17.7589 11.0601 17.5646C10.5927 17.3703 10.1932 17.0416 9.91241 16.62C9.63159 16.1985 9.48197 15.703 9.48248 15.1963C9.48248 14.86 9.54868 14.527 9.67729 14.2164C9.80591 13.9058 9.99441 13.6236 10.232 13.3859C10.4697 13.1483 10.7517 12.9599 11.0621 12.8314C11.3725 12.703 11.7052 12.6371 12.0411 12.6374ZM27.3143 12.6374C26.8081 12.6374 26.3133 12.7877 25.8925 13.0693C25.4717 13.3508 25.1438 13.751 24.9502 14.2192C24.7566 14.6874 24.7061 15.2026 24.805 15.6995C24.904 16.1965 25.1479 16.6529 25.506 17.011C25.8641 17.3691 26.3202 17.6129 26.8167 17.7114C27.3132 17.81 27.8277 17.7589 28.2952 17.5646C28.7627 17.3703 29.1621 17.0416 29.4429 16.62C29.7238 16.1985 29.8734 15.703 29.8729 15.1963C29.8729 14.86 29.8067 14.527 29.6781 14.2164C29.5494 13.9058 29.3609 13.6236 29.1233 13.3859C28.8857 13.1483 28.6036 12.9599 28.2932 12.8314C27.9828 12.703 27.6502 12.6371 27.3143 12.6374ZM18.2391 16.8377C18.2391 18.0374 18.2391 21.2549 19.6359 22.9407C21.0379 21.2549 21.0327 18.0374 21.0327 16.8377C21.0327 16.2078 20.4087 15.6955 19.6359 15.6955C18.8631 15.6955 18.2391 16.2052 18.2391 16.8377Z" fill="#FF570F"/>
<path fill-rule="evenodd" clip-rule="evenodd" d="M19.0199 16.8379C19.1583 16.8379 19.281 17.0261 19.281 17.2535C19.281 17.4809 19.1688 19.2896 19.0199 19.2896C18.8711 19.2896 18.7589 17.4809 18.7589 17.2535C18.7589 17.0261 18.8737 16.8379 19.0199 16.8379ZM25.3903 15.4213C25.5522 15.3298 25.8341 15.5154 26.0221 15.8369C26.2101 16.1584 26.2284 16.4981 26.0665 16.5949C25.9046 16.6916 25.6227 16.4981 25.4347 16.1767C25.2467 15.8552 25.2284 15.5154 25.3903 15.4213ZM10.232 15.4213C10.3965 15.3298 10.6784 15.5154 10.8638 15.8395C11.0492 16.1636 11.07 16.5008 10.9108 16.5949C10.7515 16.6889 10.4643 16.4981 10.2816 16.1767C10.0988 15.8552 10.0727 15.5154 10.232 15.4213ZM8.16682 15.7637C7.7987 15.9754 7.8457 16.7517 8.27387 17.4914C8.70204 18.231 9.34952 18.6649 9.72025 18.4506C10.091 18.2363 10.044 17.4626 9.61582 16.7177C9.18765 15.9728 8.54017 15.5467 8.16682 15.7637ZM23.4922 15.7637C23.1215 15.9754 23.1685 16.7517 23.5993 17.4914C24.0301 18.231 24.6749 18.6649 25.0431 18.4506C25.4112 18.2363 25.3694 17.4626 24.9412 16.7177C24.5131 15.9728 23.8656 15.5389 23.4975 15.7558L23.4922 15.7637Z" fill="#FF570F"/>
<path d="M37.0915 8.59133C37.5769 8.58817 38.0432 8.40145 38.3969 8.06859C38.5599 7.90834 38.6886 7.71656 38.7752 7.50492C38.8619 7.29328 38.9046 7.0662 38.9007 6.83752C38.9051 6.60245 38.861 6.36902 38.7711 6.1518C38.6813 5.93458 38.5477 5.73825 38.3786 5.57508C38.2082 5.40174 38.005 5.26415 37.7808 5.17035C37.5567 5.07655 37.3161 5.02844 37.0732 5.02881V4.6838C37.3631 4.68019 37.6509 4.73424 37.9198 4.84282C38.1887 4.9514 38.4334 5.11235 38.6397 5.31632C38.839 5.51566 38.9965 5.75296 39.1028 6.01423C39.2091 6.2755 39.262 6.55544 39.2584 6.83752C39.2597 7.11538 39.2056 7.3907 39.0994 7.6474C38.9931 7.9041 38.8368 8.13703 38.6397 8.33257C38.2159 8.73378 37.6564 8.95973 37.0732 8.9651L37.0915 8.59133ZM37.0915 5.02881C36.8485 5.02844 36.6079 5.07655 36.3838 5.17035C36.1597 5.26415 35.9565 5.40174 35.7861 5.57508C35.6178 5.7394 35.4847 5.93631 35.3949 6.15381C35.3051 6.3713 35.2606 6.60482 35.2639 6.84013C35.2631 7.07081 35.3089 7.29927 35.3987 7.51173C35.4884 7.7242 35.6202 7.91629 35.7861 8.07643C36.1393 8.40996 36.6059 8.59679 37.0915 8.59917V8.9651C36.5084 8.96174 35.9484 8.73655 35.525 8.33519C35.128 7.93386 34.9053 7.39188 34.9053 6.82706C34.9053 6.26225 35.128 5.72026 35.525 5.31894C35.7306 5.11389 35.9751 4.95208 36.2441 4.84301C36.5132 4.73393 36.8012 4.6798 37.0915 4.6838V5.02881Z" fill="#FF570F"/>
<path fill-rule="evenodd" clip-rule="evenodd" d="M37.2378 5.60369C37.7077 5.60369 38.1229 5.74744 38.1229 6.26496C38.1229 6.66748 37.8278 6.86874 37.4441 6.92624C37.5824 7.01779 37.702 7.13488 37.7965 7.27125C37.974 7.50126 38.0915 7.72865 38.3187 8.05537H37.9062C37.7305 7.75399 37.5333 7.46573 37.3161 7.19284C37.2695 7.11307 37.1966 7.05207 37.1099 7.02033V6.66748H37.1699C37.431 6.66748 37.76 6.63873 37.7887 6.29371C37.8174 5.9487 37.5276 5.86245 37.23 5.86245H37.1099V5.60107L37.2378 5.60369ZM37.1203 7.01249C37.0259 6.97687 36.9262 6.95743 36.8253 6.95499H36.4702V8.04753H36.1465V5.60369H37.1203V5.86506H36.4728V6.67009H37.1203V7.01249Z" fill="#FF570F"/>
</svg>
