<svg width="166" height="23" viewBox="0 0 166 23" fill="none" xmlns="http://www.w3.org/2000/svg">
<path fill-rule="evenodd" clip-rule="evenodd" d="M35.9625 5.12329H40.223L38.2234 12.771C37.9297 14.0578 37.4661 15.2978 36.8452 16.4566C36.2858 17.3521 35.5102 18.0852 34.5933 18.585C33.5352 19.1859 32.3399 19.488 31.13 19.4604C29.7383 19.4604 28.7159 19.2669 28.0539 18.8845C27.7299 18.7101 27.4434 18.471 27.2114 18.1814C26.9793 17.8918 26.8064 17.5575 26.7028 17.1983C26.4812 16.2987 26.4812 15.3568 26.7028 14.4571L30.9138 13.8905C30.7793 14.3383 30.711 14.8041 30.7111 15.2726C30.7346 15.5468 30.8584 15.8019 31.0579 15.9867C31.246 16.1242 31.4762 16.188 31.7064 16.1664C31.9315 16.1707 32.1547 16.1242 32.3602 16.0303C32.5658 15.9363 32.7485 15.7972 32.8954 15.6227C33.2968 15.0781 33.5738 14.4484 33.7061 13.7799L35.9625 5.12329Z" fill="#C4C4C4"/>
<path fill-rule="evenodd" clip-rule="evenodd" d="M40.6824 12.1718C41.1674 10.0621 42.32 8.17532 43.9611 6.80461C45.5985 5.50709 47.6239 4.8284 49.6944 4.88348C51.9883 4.88348 53.5886 5.51311 54.4954 6.77236C55.4021 8.03162 55.5613 9.79304 54.9728 12.0566C54.6273 13.5296 53.9896 14.9142 53.0992 16.1246C52.2958 17.163 51.2736 18.0024 50.1087 18.5802C48.841 19.1863 47.4544 19.4874 46.0554 19.4601C44.7948 19.5245 43.5386 19.263 42.4028 18.7C41.503 18.179 40.8397 17.3168 40.5563 16.2997C40.2095 15.2078 40.2545 13.8349 40.6869 12.1902L40.6824 12.1718ZM44.9294 12.1718C44.5556 13.5954 44.5466 14.6135 44.9024 15.2355C45.0981 15.5508 45.3758 15.804 45.7043 15.9668C46.0329 16.1295 46.3993 16.1954 46.7624 16.1569C47.6356 16.1711 48.4806 15.8412 49.1224 15.2355C49.7845 14.632 50.3204 13.5355 50.7348 11.9645C51.083 10.6377 51.074 9.66865 50.7077 9.05745C50.5055 8.74329 50.2233 8.49148 49.8916 8.32913C49.5599 8.16677 49.1912 8.10002 48.8252 8.13604C47.9689 8.13381 47.1436 8.46297 46.5147 9.05745C45.8182 9.71472 45.2897 10.759 44.9294 12.1902V12.1718Z" fill="#C4C4C4"/>
<path fill-rule="evenodd" clip-rule="evenodd" d="M59.107 5.12329H63.0748L66.2185 12.9138L68.2587 5.12329H72.267L68.5784 19.2024H64.5701L61.44 11.4718L59.4178 19.2024H55.4185L59.107 5.12329Z" fill="#C4C4C4"/>
<path fill-rule="evenodd" clip-rule="evenodd" d="M75.1227 5.12329H79.095L82.2341 12.9138L84.2743 5.12329H88.2826L84.5986 19.2024H80.5857L77.4601 11.4718L75.4334 19.2024H71.4341L75.1227 5.12329Z" fill="#C4C4C4"/>
<path fill-rule="evenodd" clip-rule="evenodd" d="M91.0976 5.12329H102.497L101.713 8.13168H94.5745L93.989 10.3661H100.61L99.8574 13.2409H93.2369L92.5118 16.0143H99.8529L99.0152 19.2024H87.4136L91.0976 5.12329Z" fill="#C4C4C4"/>
<path fill-rule="evenodd" clip-rule="evenodd" d="M101.767 14.5446L105.883 14.2866C105.777 14.7999 105.823 15.3338 106.014 15.8207C106.302 16.392 106.856 16.6776 107.667 16.6776C108.208 16.6911 108.739 16.5299 109.185 16.2169C109.548 15.9828 109.818 15.6233 109.946 15.2034C109.995 15.0345 110 14.8557 109.962 14.684C109.925 14.5122 109.844 14.3532 109.73 14.2221C109.495 13.9364 108.829 13.6646 107.766 13.4066C106.013 12.9797 104.833 12.41 104.226 11.6974C103.918 11.3283 103.711 10.8828 103.625 10.4056C103.538 9.92848 103.577 9.43655 103.735 8.97927C103.962 8.21469 104.369 7.51868 104.92 6.95217C105.547 6.27747 106.317 5.75895 107.171 5.43646C108.304 5.03241 109.499 4.84501 110.698 4.88361C112.457 4.88361 113.711 5.21839 114.459 5.88795C115.206 6.5575 115.476 7.62173 115.269 9.08062L111.216 9.32019C111.264 9.08077 111.261 8.83372 111.208 8.59543C111.155 8.35715 111.054 8.13307 110.91 7.93808C110.732 7.77979 110.526 7.65981 110.302 7.58539C110.078 7.51096 109.842 7.48362 109.608 7.50502C109.185 7.4864 108.766 7.59879 108.406 7.82751C108.125 8.00691 107.918 8.28562 107.825 8.61071C107.795 8.71615 107.794 8.82763 107.821 8.93369C107.848 9.03976 107.902 9.13658 107.978 9.21423C108.355 9.50272 108.802 9.68248 109.27 9.73482C110.542 9.97508 111.776 10.3937 112.936 10.9787C113.558 11.3104 114.039 11.8647 114.287 12.5359C114.493 13.2157 114.493 13.9431 114.287 14.6229C114.033 15.5594 113.557 16.4172 112.9 17.1199C112.207 17.885 111.352 18.4776 110.401 18.8521C109.291 19.2678 108.115 19.4678 106.933 19.4418C104.591 19.4418 103.09 18.9811 102.429 18.0597C101.768 17.1383 101.548 15.9666 101.767 14.5446Z" fill="#C4C4C4"/>
<path fill-rule="evenodd" clip-rule="evenodd" d="M117.462 5.12329H121.502L120.89 13.0059L125.087 5.12329H129.114L129.19 12.9967L132.703 5.12329H136.725L130.001 19.2024H125.83L125.74 10.3385L121.007 19.2024H116.836L117.462 5.12329Z" fill="#C4C4C4"/>
<path fill-rule="evenodd" clip-rule="evenodd" d="M143.494 16.8757H138.666L137.387 19.1792H133.045L141.904 5.1001H146.543L148.029 19.1792H143.575L143.494 16.8757ZM143.409 13.835L143.201 8.75348L140.373 13.8212L143.409 13.835Z" fill="#C4C4C4"/>
<path fill-rule="evenodd" clip-rule="evenodd" d="M150.047 5.12329H154.767L156.299 9.87314L160.32 5.12329H165.018L157.528 13.3054L155.983 19.2024H151.718L153.263 13.3054L150.047 5.12329Z" fill="#C4C4C4"/>
<path fill-rule="evenodd" clip-rule="evenodd" d="M11.0072 2.35362e-05C8.82718 0.0036675 6.69717 0.668324 4.88636 1.90999C3.07555 3.15165 1.66523 4.91458 0.833656 6.97595C0.00208018 9.03732 -0.213423 11.3046 0.214383 13.4912C0.64219 15.6779 1.6941 17.6857 3.23717 19.2609C4.78023 20.8362 6.74518 21.9081 8.88366 22.3412C11.0221 22.7744 13.2382 22.5493 15.2516 21.6945C17.2651 20.8396 18.9856 19.3934 20.1957 17.5385C21.4059 15.6836 22.0513 13.5034 22.0504 11.2734C22.0504 9.79105 21.7646 8.32322 21.2093 6.95396C20.6541 5.5847 19.8403 4.34091 18.8145 3.29377C17.7888 2.24664 16.5712 1.41673 15.2315 0.85154C13.8918 0.286355 12.4563 -0.00300545 11.0072 2.35362e-05Z" fill="#C4C4C4"/>
<path fill-rule="evenodd" clip-rule="evenodd" d="M160.149 15.3599C160.118 14.9593 160.206 14.5585 160.401 14.2097C160.597 13.861 160.89 13.5805 161.243 13.4049C161.597 13.2293 161.994 13.1666 162.382 13.2252C162.771 13.2837 163.133 13.4607 163.422 13.7331C163.711 14.0054 163.913 14.3605 164.002 14.752C164.091 15.1435 164.062 15.5533 163.919 15.9278C163.777 16.3024 163.528 16.6244 163.204 16.8518C162.88 17.0792 162.497 17.2015 162.104 17.2028C161.857 17.2139 161.61 17.1749 161.378 17.0882C161.146 17.0015 160.933 16.8686 160.752 16.6973C160.57 16.5261 160.423 16.3197 160.32 16.0902C160.216 15.8607 160.158 15.6125 160.149 15.3599ZM162.117 16.9171C162.415 16.9072 162.703 16.8078 162.946 16.6315C163.189 16.4552 163.376 16.2096 163.483 15.9255C163.591 15.6413 163.614 15.3311 163.55 15.0335C163.487 14.7358 163.339 14.4639 163.125 14.2517C162.911 14.0394 162.641 13.8961 162.349 13.8397C162.056 13.7832 161.754 13.8161 161.479 13.9343C161.205 14.0525 160.97 14.2506 160.805 14.5041C160.64 14.7576 160.551 15.0553 160.55 15.3599C160.549 15.5687 160.589 15.7756 160.667 15.9682C160.746 16.1608 160.862 16.3351 161.009 16.4806C161.155 16.626 161.329 16.7397 161.519 16.8147C161.71 16.8898 161.913 16.9246 162.117 16.9171ZM161.712 16.4564V15.535H162.095L162.68 16.4564H163.058L162.428 15.535C162.505 15.5369 162.581 15.5228 162.652 15.4936C162.723 15.4643 162.787 15.4206 162.841 15.3649C162.895 15.3093 162.938 15.243 162.966 15.17C162.994 15.0971 163.007 15.019 163.004 14.9407C163.004 14.5215 162.743 14.3326 162.221 14.3326H161.374V16.4795L161.712 16.4564ZM162.113 15.2494C162.396 15.2494 162.653 15.2494 162.653 14.8992C162.653 14.6366 162.401 14.586 162.167 14.586H161.716V15.2494H162.113Z" fill="#C4C4C4"/>
<path fill-rule="evenodd" clip-rule="evenodd" d="M3.65691 11.5686C3.65691 11.5686 3.24707 11.5686 3.24707 11.7114C3.24707 11.8542 3.43172 11.9187 3.58035 11.9371C3.70397 11.9407 3.82513 11.9733 3.93447 12.0324C4.0438 12.0915 4.13838 12.1756 4.21087 12.278C4.35322 12.5316 4.42633 12.8196 4.42255 13.1119V16.8574C4.41995 16.9973 4.4454 17.1361 4.49734 17.2655C4.54928 17.3949 4.62661 17.5119 4.72453 17.6095C4.82246 17.7071 4.93891 17.7831 5.06669 17.8328C5.19446 17.8826 5.33085 17.905 5.46742 17.8986H8.53898C8.53898 17.8986 8.72363 17.8986 8.72363 17.7835C8.72363 17.6683 8.55699 17.6913 8.55699 17.6913C8.55699 17.6913 8.03906 17.5393 7.90845 17.3458C7.77375 17.0315 7.71653 16.6882 7.74181 16.3461V12.4393C7.71779 12.1891 7.59952 11.9584 7.41206 11.7958C7.2246 11.6333 6.98266 11.5518 6.73748 11.5686H3.65691Z" fill="white"/>
<path fill-rule="evenodd" clip-rule="evenodd" d="M12.4216 16.9357V12.4392C12.3954 12.1846 12.2717 11.951 12.0776 11.7896C11.8834 11.6281 11.6346 11.5519 11.3857 11.5777H9.08878V16.8573C9.08488 16.9971 9.1093 17.1362 9.1605 17.2659C9.2117 17.3955 9.28858 17.513 9.38629 17.6108C9.48401 17.7085 9.60045 17.7846 9.72829 17.8341C9.85614 17.8836 9.99262 17.9056 10.1291 17.8985H11.5343C11.655 17.8968 11.774 17.8703 11.8845 17.8206C11.9949 17.7709 12.0944 17.699 12.1772 17.6092C12.2599 17.5194 12.3242 17.4135 12.3662 17.2978C12.4082 17.1821 12.427 17.0589 12.4216 16.9357Z" fill="white"/>
<path fill-rule="evenodd" clip-rule="evenodd" d="M17.8982 11.5684C17.8982 11.5684 18.3036 11.5684 18.3036 11.7112C18.3036 11.854 18.1189 11.9185 17.9703 11.9369C17.8474 11.9412 17.7271 11.9741 17.6186 12.0332C17.5101 12.0923 17.4163 12.176 17.3443 12.2778C17.1982 12.53 17.1234 12.8187 17.1281 13.1117V16.8572C17.132 16.997 17.1076 17.1361 17.0564 17.2658C17.0052 17.3954 16.9283 17.5128 16.8306 17.6106C16.7328 17.7084 16.6164 17.7845 16.4886 17.834C16.3607 17.8835 16.2242 17.9055 16.0877 17.8984H12.9981C12.9981 17.8984 12.8135 17.8984 12.8135 17.7832C12.8135 17.6681 12.9756 17.6911 12.9756 17.6911C12.9756 17.6911 13.498 17.5391 13.6287 17.3456C13.7615 17.0308 13.8171 16.6876 13.7908 16.3458V12.4391C13.8025 12.3105 13.8393 12.1856 13.899 12.0718C13.9586 11.958 14.04 11.8575 14.1382 11.7764C14.2364 11.6952 14.3495 11.635 14.4709 11.5993C14.5922 11.5635 14.7193 11.553 14.8447 11.5684H17.8982Z" fill="white"/>
<path fill-rule="evenodd" clip-rule="evenodd" d="M8.59335 9.85461C8.59335 9.85461 8.40869 9.85461 8.40869 10.0251C8.40869 10.1955 8.61136 10.2324 8.61136 10.2324H12.2144C13.4349 10.2324 13.4439 9.49526 13.4439 9.49526V4.74541C13.4399 4.45244 13.5147 4.16397 13.6601 3.91153C13.7862 3.64893 14.1375 3.59365 14.2861 3.57061C14.4347 3.54758 14.6194 3.47847 14.6194 3.34487C14.6194 3.21126 14.214 3.20205 14.214 3.20205H11.0614C10.9074 3.18139 10.7509 3.19393 10.6019 3.23889C10.453 3.28384 10.3149 3.3602 10.1965 3.46305C10.0782 3.5659 9.98215 3.69297 9.9147 3.83607C9.84724 3.97917 9.80982 4.13513 9.80485 4.29392V8.92859C9.80485 8.92859 9.81386 9.85461 8.59335 9.85461Z" fill="white"/>
<path fill-rule="evenodd" clip-rule="evenodd" d="M5.38656 6.15039C4.9777 6.15039 4.57802 6.27441 4.23807 6.50677C3.89812 6.73913 3.63316 7.06939 3.47669 7.45579C3.32023 7.84218 3.27929 8.26736 3.35906 8.67756C3.43882 9.08776 3.63571 9.46455 3.92481 9.76029C4.21392 10.056 4.58226 10.2574 4.98326 10.339C5.38427 10.4206 5.79992 10.3787 6.17765 10.2187C6.55539 10.0586 6.87824 9.78759 7.10539 9.43984C7.33254 9.09209 7.45378 8.68325 7.45378 8.26502C7.45378 7.70418 7.23598 7.16632 6.84831 6.76975C6.46063 6.37318 5.93482 6.15039 5.38656 6.15039Z" fill="white"/>
</svg>
