<svg width="118" height="39" viewBox="0 0 118 39" fill="none" xmlns="http://www.w3.org/2000/svg">
<path d="M99.1756 28.7814C96.8208 28.7814 95.4604 26.6537 96.1118 24.41L98.9084 14.8454C99.5976 12.4639 101.489 10.4337 104.155 10.4337H117.599L113.922 22.9848V22.9647C113.667 23.7816 113.514 24.628 113.467 25.4839C113.448 26.7125 113.869 27.7091 114.367 28.7814H99.1756ZM103.982 24.6637H105.4C105.438 24.6637 105.458 24.6637 105.476 24.6049L108.394 14.6303H106.996C106.956 14.6303 106.938 14.6303 106.919 14.669L103.988 24.6637H103.982ZM20.0242 14.5514H18.6046C18.5849 14.5514 18.5667 14.5514 18.5469 14.5916L15.6167 24.5848H16.9968C17.0727 24.5848 17.0925 24.5663 17.1107 24.526L20.0226 14.5514H20.0242ZM24.8476 10.4337C27.4908 10.4337 28.4913 12.8152 27.8355 15.0589L25.0586 24.5461C24.3891 26.8301 22.3395 28.7814 19.8693 28.7814H10.7721C8.12883 28.7814 7.11314 26.3999 7.78419 24.1562L10.013 16.5429C10.6567 14.3378 10.6202 12.5691 9.66073 10.4337H24.8476ZM57.0614 14.8067C57.7127 12.5691 56.3524 10.4337 53.9976 10.4337H29.4463C30.4043 12.58 30.4225 14.3765 29.7909 16.563L26.2094 28.7876H34.1528L38.3082 14.6566C38.3279 14.5576 38.3477 14.5576 38.4433 14.5576H39.7839L35.627 28.7938H43.5947L47.7319 14.6226C47.7501 14.5638 47.7698 14.5638 47.8275 14.5638H49.1484L42.1994 38.346L50.8184 35.9459L57.0614 14.8067ZM68.9537 10.4337H73.7224C76.0408 10.4337 77.4573 12.5413 76.7877 14.8067L73.8758 24.7798C73.7747 25.0935 73.6535 25.4 73.5129 25.6974C73.3522 25.9825 73.1731 26.2565 72.977 26.5175C71.9416 27.8452 70.314 28.7814 68.7442 28.7814H55.3185L58.9956 16.2303C59.2524 15.4213 59.4054 14.5818 59.4511 13.7328C59.4693 12.4949 59.0487 11.5076 58.5705 10.4337H60.696L62.8474 3.1129L71.8277 0.654053L68.9537 10.4337ZM68.9203 14.5514H67.5539C67.4582 14.5514 67.4582 14.5328 67.4187 14.6303L64.5341 24.5848H65.9309C65.9704 24.5848 65.9886 24.5848 66.0083 24.5461L68.9203 14.5514ZM93.4883 10.4337H78.306C79.2837 12.6001 79.3596 14.1475 78.7083 16.3866L75.0888 28.704H83.0747L87.2119 14.5916C87.2119 14.5514 87.2119 14.5514 87.2499 14.5514H88.6861L85.967 23.8049H93.9149L96.5521 14.8067C97.2034 12.5691 95.843 10.4337 93.4883 10.4337Z" fill="#C4C4C4"/>
<path d="M6.2687 9.07187C6.25067 9.90697 5.91252 10.7017 5.32668 11.2858C4.74084 11.8699 3.95388 12.197 3.13435 12.197C2.31481 12.197 1.52786 11.8699 0.942017 11.2858C0.356177 10.7017 0.0180336 9.90697 0 9.07187C0 7.32794 1.39523 5.96312 3.16243 5.96312C3.56757 5.95593 3.97006 6.03101 4.34643 6.18398C4.72281 6.33695 5.06555 6.56475 5.35467 6.8541C5.64379 7.14345 5.87351 7.48857 6.03043 7.86933C6.18736 8.25009 6.26836 8.65888 6.2687 9.07187ZM0.781875 9.07187C0.781875 10.4645 1.80515 11.5555 3.16243 11.5555C4.48328 11.574 5.48682 10.4568 5.48682 9.09199C5.48682 7.72717 4.48328 6.58827 3.126 6.58827C1.80515 6.58827 0.781875 7.7086 0.781875 9.07187ZM2.6599 10.6843H1.95394V7.57552C2.34183 7.51466 2.73355 7.48259 3.126 7.47958C3.7014 7.47958 3.96253 7.57552 4.16597 7.72717C4.26895 7.8021 4.35193 7.90208 4.40734 8.01802C4.46276 8.13396 4.48886 8.26217 4.48328 8.39101C4.48328 8.77013 4.20393 9.00998 3.85171 9.13068V9.16472C4.15535 9.25911 4.29654 9.50515 4.39067 9.92295C4.4289 10.1853 4.50406 10.4407 4.61384 10.6812H3.86689C3.77276 10.5667 3.71507 10.3021 3.62398 9.92295C3.56932 9.59954 3.38257 9.4479 2.99239 9.4479H2.65687L2.6599 10.6843ZM2.67964 8.94034H3.01365C3.40383 8.94034 3.72113 8.80727 3.72113 8.4854C3.72113 8.20068 3.51618 8.0119 3.06982 8.0119C2.9388 8.00896 2.80787 8.02142 2.67964 8.04903V8.94034Z" fill="#C4C4C4"/>
</svg>
