<svg width="111" height="23" viewBox="0 0 111 23" fill="none" xmlns="http://www.w3.org/2000/svg">
<path d="M15.1997 22.8455L15.9474 21.4727V22.8455H15.1997Z" fill="#FF570F"/>
<path d="M15.9474 13.6274V15.0003L15.1997 13.6274H15.9474Z" fill="#FF570F"/>
<path d="M9.90567 20.5348C10.1461 20.2944 10.3697 20.054 10.5765 19.8135C10.9759 19.3243 11.3247 18.7959 11.6175 18.2364C11.3182 17.716 11.0763 17.1645 10.8962 16.5918C10.8129 16.3131 10.7463 16.0297 10.6967 15.7431C10.645 15.4652 10.6128 15.184 10.6005 14.9016C10.5758 14.432 10.6032 13.9611 10.6822 13.4976C10.7602 13.5271 10.8407 13.5497 10.9227 13.5649C10.9486 13.576 10.9762 13.5825 11.0044 13.5841C10.9996 13.9787 11.0302 14.373 11.0958 14.7622C11.1659 15.1595 11.2689 15.5503 11.4035 15.9307C11.8026 16.7024 12.2354 17.467 12.6489 18.2364C12.2258 19.0033 11.8219 19.7751 11.3819 20.5396C11.0832 20.9252 10.7613 21.2922 10.4178 21.6384C10.0548 21.9946 9.66935 22.327 9.26373 22.6337C9.11707 22.6121 8.97281 22.5736 8.82615 22.5376C8.41882 22.4446 8.01739 22.3274 7.62402 22.1865C8.15595 21.9055 8.66201 21.5781 9.1363 21.208C9.40701 21.0004 9.664 20.7756 9.90567 20.5348Z" fill="#FF570F"/>
<path d="M11.3484 22.4124C11.3706 22.3896 11.3915 22.3655 11.4109 22.3403L11.4494 22.2706L11.7643 21.6936L12.3918 20.5419L13.6493 18.2363L12.3918 15.9306L11.7643 14.7789L11.4494 14.2019L11.4109 14.1322C11.4109 14.1057 11.3989 14.0817 11.3917 14.0577L11.3628 13.9086C11.346 13.8124 11.3292 13.7138 11.3171 13.6177H11.4013H12.1514L14.6663 18.2363L12.1514 22.8404H11.3773H10.9541L11.221 22.5639L11.3484 22.4124Z" fill="#FF570F"/>
<path d="M13.168 22.8454L15.6804 18.2364L13.168 13.6274H14.1826L15.9473 16.8636V19.6092L14.1826 22.8454H13.168Z" fill="#FF570F"/>
<path d="M7.75584 17.1692C7.84632 15.5144 8.51123 13.9431 9.63598 12.7261C9.70413 12.8165 9.77801 12.9024 9.85717 12.9833C8.92355 14.3525 8.49828 16.0051 8.65504 17.6548C7.10886 18.7987 5.2497 19.4422 3.32719 19.4989C2.92927 19.0943 2.56049 18.6621 2.22363 18.2054C4.13024 18.4326 6.06073 18.071 7.75584 17.1692Z" fill="#FF570F"/>
<path d="M10.098 13.1919C10.1387 13.2288 10.1839 13.2603 10.2326 13.2857C10.2831 13.3097 10.324 13.3482 10.3721 13.3698C10.2035 13.8978 10.1001 14.4444 10.0643 14.9975C10.0475 15.2834 10.0475 15.57 10.0643 15.8558C10.0846 16.1445 10.1207 16.4318 10.1725 16.7165C10.216 16.9651 10.2746 17.2108 10.348 17.4522C10.4202 17.6927 10.5043 17.9331 10.6005 18.1735C10.449 18.3803 10.2879 18.5871 10.1196 18.7914C9.94555 18.9987 9.75929 19.1953 9.56185 19.3805C9.32142 19.5993 9.081 19.8132 8.81413 20.0224C8.54636 20.2256 8.26786 20.4142 7.97985 20.5874C7.37191 20.9574 6.72735 21.2636 6.05644 21.501C5.80399 21.3688 5.57559 21.2173 5.32073 21.0707C5.07795 20.9248 4.8443 20.7642 4.62109 20.5898C6.5137 20.2552 8.25776 19.3471 9.61715 17.9884C9.21046 16.3826 9.38065 14.685 10.098 13.1919Z" fill="#FF570F"/>
<path d="M2.35378 15.7692C3.62351 16.0798 4.9463 16.1053 6.22704 15.8437C6.6367 14.7374 7.30917 13.7473 8.18651 12.9586C8.36148 12.8025 8.54445 12.6557 8.73468 12.5186C8.93183 12.3816 9.13139 12.2566 9.33094 12.1436C9.34894 12.1817 9.3642 12.2211 9.37662 12.2614C9.38864 12.2998 9.41509 12.3311 9.42952 12.3672C9.44394 12.4032 9.45356 12.42 9.46558 12.4465C8.16885 13.4809 7.27629 14.9376 6.94351 16.5626C5.13192 17.2064 3.16622 17.2777 1.31273 16.7669L1.11558 16.3654C1.02662 16.1755 0.930453 15.988 0.853516 15.7932L0.632324 15.2042C0.920836 15.3244 1.20454 15.4446 1.48824 15.5312C1.77194 15.6177 2.06767 15.7019 2.35378 15.7692Z" fill="#FF570F"/>
<path d="M4.71727 10.1482C5.83484 9.77872 7.02544 9.68631 8.18663 9.87889C8.42706 9.91976 8.64584 9.97025 8.87185 10.0328C9.09785 10.0953 9.32385 10.177 9.54023 10.2732C9.51975 10.3081 9.49727 10.3418 9.47291 10.3742C9.45368 10.4102 9.44166 10.4487 9.42242 10.4848C9.40319 10.5208 9.39838 10.5353 9.38395 10.5593C7.771 10.1892 6.07917 10.4003 4.60668 11.1556C2.96779 10.1463 1.68122 8.65481 0.92334 6.88559L1.11568 6.49129C1.20704 6.30376 1.296 6.11382 1.39698 5.9311L1.72156 5.39014C1.80571 5.69067 1.89707 5.98159 1.99805 6.26048C2.09903 6.53937 2.23847 6.82308 2.35388 7.08755C2.90773 8.26871 3.71458 9.3136 4.71727 10.1482Z" fill="#FF570F"/>
<path d="M4.63526 12.1707C5.98297 11.2026 7.62765 10.738 9.2827 10.858C9.25484 10.9624 9.23316 11.0684 9.21778 11.1753C7.56718 11.3119 6.0149 12.0162 4.8252 13.1685C2.96782 12.6774 1.30349 11.6335 0.0527344 10.1752C0.118656 9.60739 0.224708 9.04499 0.370097 8.49219C1.38221 10.1257 2.87083 11.4095 4.63526 12.1707Z" fill="#FF570F"/>
<path d="M9.21073 11.5117C9.21073 11.567 9.21073 11.6247 9.21073 11.6776C9.22227 11.7315 9.2303 11.7861 9.23477 11.8411C8.17515 12.2425 7.23346 12.9039 6.49632 13.7645C6.32968 13.9557 6.17319 14.1556 6.02749 14.3632C5.88563 14.5699 5.74859 14.7863 5.62117 15.0147C5.36151 15.0292 5.09463 15.034 4.82295 15.0147C4.55127 14.9955 4.29401 14.9763 4.02233 14.9426C2.65507 14.7509 1.34398 14.2715 0.175511 13.5361C0.127426 13.2548 0.0865535 12.9735 0.0480853 12.6922C0.00961705 12.4109 0.0168298 12.1513 0 11.8675C1.44562 13.1305 3.24404 13.9194 5.15233 14.1276C6.15841 12.8087 7.59412 11.8833 9.21073 11.5117Z" fill="#FF570F"/>
<path d="M6.58754 6.60693C8.18529 7.05174 9.57638 8.04294 10.5185 9.4079C10.4712 9.43595 10.4213 9.4593 10.3694 9.47762C10.3238 9.50407 10.2805 9.54013 10.23 9.56417C9.09495 8.35682 7.57334 7.58454 5.92877 7.3811C5.15073 5.62487 4.9276 3.6729 5.28924 1.78638C5.52966 1.63972 5.77009 1.48826 6.02254 1.35362C6.27498 1.21898 6.53224 1.11319 6.78949 0.980957C6.14659 2.79115 6.07608 4.7553 6.58754 6.60693Z" fill="#FF570F"/>
<path d="M9.96576 9.76154C9.92729 9.80241 9.88401 9.83607 9.84314 9.87214C9.80227 9.9082 9.77101 9.95869 9.73255 9.99716C8.75018 9.42644 7.64155 9.10839 6.50603 9.07152C6.2656 9.07152 5.99632 9.07152 5.74628 9.07152C5.49624 9.07152 5.24138 9.1196 4.98172 9.16047C4.80862 8.96813 4.64032 8.76377 4.47683 8.54739C4.31574 8.331 4.17389 8.10981 4.03204 7.87419C3.32809 6.68965 2.88238 5.36973 2.72412 4.00092C2.91165 3.78935 3.10159 3.58018 3.29634 3.37341C3.49108 3.16664 3.70987 2.98632 3.91904 2.79639C3.84339 4.71466 4.35505 6.61033 5.38564 8.23002C7.04425 8.19066 8.66443 8.73243 9.96576 9.76154Z" fill="#FF570F"/>
<path d="M15.9474 3.23584V5.98151L15.1997 4.60867L15.9474 3.23584Z" fill="#FF570F"/>
<path d="M9.1364 1.63714C8.98493 1.9521 8.8527 2.26705 8.73729 2.5772C8.62676 2.89263 8.53286 3.21364 8.456 3.53891C8.3062 4.15229 8.22555 4.78051 8.21557 5.41183C8.71743 5.74149 9.17829 6.1297 9.5884 6.56828C9.78527 6.77805 9.96914 6.99966 10.139 7.23186C10.3048 7.46341 10.4573 7.70423 10.5958 7.95314C10.7113 8.15985 10.8141 8.37343 10.9035 8.59267C10.9953 8.80702 11.0756 9.02612 11.144 9.24903L11.0237 9.26827C10.9841 9.26883 10.9449 9.27699 10.9083 9.29231L10.8194 9.30433C10.1 7.80803 8.87322 6.61535 7.35725 5.93836C7.12498 4.03291 7.48511 2.10215 8.38868 0.40856L8.82385 0.297964C9.02729 0.245265 9.2336 0.204325 9.44174 0.175346L10.0644 0.0839844C9.88413 0.338836 9.71583 0.596092 9.55955 0.853348C9.40436 1.10673 9.2631 1.36838 9.1364 1.63714Z" fill="#FF570F"/>
<path d="M13.168 4.60897L15.6804 0H15.9473V1.37283L14.1826 4.60897L15.9473 7.8451V9.21794H15.6804L13.168 4.60897Z" fill="#FF570F"/>
<path d="M14.6661 9.21794H13.6491L11.1343 4.62339C11.9734 3.05822 12.81 1.54354 13.6491 0H14.6661L12.1513 4.60897L14.6661 9.21794Z" fill="#FF570F"/>
<path d="M10.639 3.4958C10.4377 3.89521 10.2665 4.30909 10.1269 4.73399C10.3938 5.06697 10.6349 5.41981 10.8481 5.78946C11.0523 6.15079 11.2291 6.52691 11.3771 6.91465C11.781 7.69363 12.2186 8.45098 12.6321 9.21794H11.6175C11.5454 9.0833 11.4636 8.94866 11.4011 8.81402C11.3386 8.67938 11.341 8.55196 11.3001 8.41491C11.1489 7.87042 10.93 7.34702 10.6486 6.85695C10.505 6.60196 10.3444 6.35697 10.1677 6.12365C9.86449 5.71408 9.52053 5.33628 9.14111 4.99605C9.22555 4.46764 9.36247 3.94896 9.54984 3.44771C9.65924 3.13954 9.78937 2.83912 9.93933 2.54852C10.09 2.24449 10.2561 1.94838 10.437 1.66134C10.6245 1.38405 10.8321 1.10436 11.0597 0.822257C11.1703 0.68281 11.2833 0.543363 11.4011 0.403916C11.5189 0.264469 11.5406 0.134639 11.6175 0H12.6321C12.209 0.769364 11.805 1.53392 11.3651 2.30569C11.0979 2.68648 10.8553 3.08399 10.639 3.4958Z" fill="#FF570F"/>
<path d="M62.2104 12.9498C62.2066 13.2695 62.0771 13.5749 61.8498 13.7999C61.6226 14.0249 61.316 14.1513 60.9962 14.1519H58.9358C58.6156 14.152 58.3083 14.0258 58.0806 13.8007C57.8528 13.5757 57.723 13.2699 57.7192 12.9498V7.61475H56.4834V12.9498C56.484 13.5535 56.7241 14.1322 57.151 14.5591C57.5778 14.9859 58.1566 15.226 58.7602 15.2266H61.1645C61.7684 15.226 62.3474 14.986 62.7746 14.5592C63.2019 14.1324 63.4425 13.5537 63.4438 12.9498V7.61475H62.2056L62.2104 12.9498Z" fill="#FF570F"/>
<path d="M38.3241 12.9498V7.61475H37.0859V12.9498C37.0872 13.5537 37.3278 14.1324 37.7551 14.5592C38.1823 14.986 38.7613 15.226 39.3652 15.2266H42.7961V14.164H39.5383C39.2165 14.1633 38.908 14.0352 38.6805 13.8076C38.4529 13.5801 38.3248 13.2716 38.3241 12.9498Z" fill="#FF570F"/>
<path d="M98.2573 12.9498V7.61475H97.019V12.9498C97.0203 13.5533 97.2606 14.1316 97.6873 14.5584C98.114 14.9851 98.6924 15.2254 99.2959 15.2266H102.724V14.164H99.4714C99.1496 14.1633 98.8411 14.0352 98.6136 13.8076C98.386 13.5801 98.2579 13.2716 98.2573 12.9498Z" fill="#FF570F"/>
<path d="M107.745 14.164C107.425 14.1633 107.118 14.0369 106.891 13.8119C106.664 13.5869 106.534 13.2816 106.531 12.9618V7.61475H105.292V12.9498C105.294 13.5537 105.534 14.1324 105.962 14.5592C106.389 14.986 106.968 15.226 107.572 15.2266H111V14.164H107.745Z" fill="#FF570F"/>
<path d="M86.5055 7.41012C86.235 7.39986 85.9679 7.47363 85.7411 7.6213C85.5142 7.76897 85.3386 7.98328 85.2385 8.23478V8.24921L84.4018 10.7713L83.6348 13.0986C83.63 13.1123 83.6208 13.124 83.6086 13.1318C83.5964 13.1397 83.5819 13.1432 83.5675 13.1419C83.5534 13.1431 83.5393 13.1395 83.5275 13.1316C83.5157 13.1237 83.5069 13.1121 83.5026 13.0986L82.7332 10.7713L81.9014 8.24921V8.23478C81.8017 7.98347 81.6265 7.76924 81.4 7.62156C81.1736 7.47388 80.9069 7.40001 80.6367 7.41012C79.9515 7.41012 79.2158 7.81885 79.2158 8.72285V15.2264H80.4516V8.73487C80.4516 8.56898 80.5069 8.49444 80.6103 8.49444H80.6487H80.6728L80.6872 8.50647C80.694 8.51271 80.6997 8.52002 80.704 8.5281C80.7123 8.53947 80.7195 8.55154 80.7257 8.56417C80.7331 8.57649 80.7395 8.58935 80.7449 8.60263L80.7593 8.63149L80.8122 8.79498L82.5265 13.8656C82.6241 14.0569 82.7744 14.2164 82.9598 14.325C83.1451 14.4336 83.3577 14.487 83.5723 14.4786C83.7873 14.4868 84.0001 14.4335 84.1858 14.3249C84.3715 14.2163 84.5223 14.0569 84.6206 13.8656L86.3348 8.79498L86.3877 8.63149C86.3886 8.62189 86.3886 8.61223 86.3877 8.60263L86.4069 8.56417C86.4131 8.55154 86.4203 8.53947 86.4286 8.5281L86.4454 8.50647L86.4598 8.49444H86.4863H86.5223C86.6281 8.49444 86.681 8.57859 86.681 8.73487V15.2264H87.9192V8.73487C87.9264 7.81885 87.1883 7.41012 86.5055 7.41012Z" fill="#FF570F"/>
<path d="M93.0882 7.61475H91.8501V15.229H93.0882V7.61475Z" fill="#FF570F"/>
<path d="M52.6197 10.1681V10.0527C52.6283 9.77867 52.5967 9.50488 52.5259 9.24003C52.3863 8.76975 52.0982 8.3573 51.7047 8.06435C51.3112 7.77139 50.8334 7.61366 50.3428 7.61475H47.6981C47.3872 7.61666 47.0799 7.68155 46.7948 7.80552C46.5096 7.92949 46.2526 8.10996 46.0391 8.33603C45.4188 8.9948 45.4188 9.77858 45.4188 10.5479V12.8392C45.4006 13.3719 45.5667 13.8945 45.889 14.319C46.2114 14.7434 46.6704 15.0436 47.1884 15.1689C47.4488 15.2194 47.7144 15.2388 47.9794 15.2266H49.6239H49.9581C50.5437 15.2669 51.1274 15.1249 51.6291 14.8203C51.8963 14.6345 52.1212 14.3943 52.289 14.1154C52.4569 13.8366 52.5638 13.5254 52.6029 13.2022C52.6202 13.0185 52.6258 12.8338 52.6197 12.6493V10.1681ZM46.657 11.0384C46.657 10.6874 46.657 10.2907 46.657 9.9036C46.6614 9.5804 46.7917 9.27165 47.0203 9.04309C47.2489 8.81452 47.5576 8.68419 47.8808 8.67984C48.0828 8.67984 48.2872 8.67984 48.4915 8.67984H49.1118H49.7321H49.8716C50.0971 8.66425 50.3236 8.68536 50.5424 8.74235C50.6504 8.77912 50.7531 8.83006 50.8477 8.89382L46.6715 13.07C46.6613 12.9525 46.6573 12.8345 46.6595 12.7166V11.6106C46.6619 11.4207 46.6595 11.2284 46.657 11.0384ZM51.3935 12.1925C51.4127 12.7575 51.4344 13.3946 51.0713 13.76C50.6938 14.1712 50.201 14.1688 49.6287 14.164H48.114C47.9262 14.1752 47.7377 14.1607 47.5538 14.1207C47.4492 14.0896 47.349 14.0452 47.2557 13.9884L51.3839 9.85792V11.8198C51.3839 11.94 51.3887 12.065 51.3935 12.1925Z" fill="#FF570F"/>
<path d="M31.2747 7.6167H28.8271C28.2235 7.61734 27.6447 7.85742 27.2179 8.28427C26.791 8.71112 26.5509 9.28988 26.5503 9.89354V12.9494C26.5503 13.5537 26.79 14.1333 27.2169 14.561C27.6437 14.9888 28.2228 15.2297 28.8271 15.231H33.5515V14.1635H29.0027C28.6825 14.1635 28.3752 14.0373 28.1475 13.8123C27.9197 13.5873 27.7899 13.2815 27.7861 12.9614V9.89354C27.7899 9.57339 27.9197 9.26765 28.1475 9.04261C28.3752 8.81757 28.6825 8.69138 29.0027 8.69141H31.0992C31.4193 8.69138 31.7266 8.81757 31.9544 9.04261C32.1821 9.26765 32.3119 9.57339 32.3157 9.89354V10.6629H33.5515V9.89354C33.5509 9.28988 33.3108 8.71112 32.884 8.28427C32.4571 7.85742 31.8784 7.61734 31.2747 7.6167Z" fill="#FF570F"/>
<path d="M74.6356 9.88842C74.6356 9.80427 74.6356 9.72253 74.6236 9.648C74.6222 9.63762 74.6222 9.62712 74.6236 9.61674C74.6145 9.544 74.6016 9.47178 74.5851 9.40036C74.5865 9.39402 74.5865 9.38746 74.5851 9.38112C74.5694 9.30683 74.5485 9.23373 74.5226 9.16234C74.5226 9.16234 74.5226 9.1407 74.5226 9.13108L74.4745 9.00366L74.4625 8.9748L74.4408 8.93393V8.9171C74.4072 8.84738 74.3711 8.78246 74.3326 8.71755L74.2773 8.6358C74.233 8.56742 74.1848 8.5016 74.1331 8.43865L74.0946 8.39538C74.0595 8.35224 74.0217 8.31129 73.9816 8.27276L73.9119 8.21025L73.8614 8.16697C73.7119 8.03853 73.5462 7.93021 73.3685 7.8448L73.3204 7.82316C73.137 7.74133 72.9439 7.68316 72.7458 7.65006H72.6905C72.5893 7.63678 72.4873 7.62956 72.3852 7.62842H66.6245V8.6911H67.5598V15.2259H72.3683C72.4706 15.2251 72.5726 15.2171 72.6737 15.2018H72.729C72.9276 15.1711 73.121 15.1128 73.3036 15.0287L73.3517 15.0071C73.5288 14.9216 73.6944 14.8142 73.8446 14.6873L73.8951 14.6416C73.9191 14.62 73.9432 14.6032 73.9648 14.5815C73.9864 14.5599 74.0417 14.4998 74.0778 14.4589C74.1139 14.4181 74.1042 14.4277 74.1163 14.4132C74.1685 14.3515 74.2167 14.2865 74.2605 14.2185L74.3158 14.1343C74.3543 14.0694 74.3903 14.0045 74.424 13.9372V13.918L74.4456 13.8771L74.4577 13.8482C74.4745 13.8074 74.4889 13.7641 74.5058 13.7232C74.5226 13.6823 74.5058 13.7016 74.5058 13.692C74.5313 13.6205 74.5522 13.5474 74.5683 13.4732C74.5693 13.4668 74.5693 13.4603 74.5683 13.4539C74.5848 13.3817 74.5976 13.3087 74.6067 13.2352C74.6057 13.2248 74.6057 13.2143 74.6067 13.2039C74.6067 13.1222 74.6188 13.0404 74.6188 12.9635V9.89083L74.6356 9.88842ZM73.4046 11.4969C73.4046 11.8287 73.4046 12.1701 73.4046 12.4826V12.949C73.4037 13.227 73.3079 13.4963 73.133 13.7123C72.9581 13.9283 72.7146 14.0781 72.4429 14.1368H72.4212C72.3475 14.1508 72.2727 14.1589 72.1976 14.1608H68.7932V8.67668H72.1904C72.2655 8.67662 72.3404 8.68386 72.414 8.69831H72.4357C72.7078 8.75615 72.9518 8.90568 73.1268 9.12188C73.3019 9.33808 73.3974 9.60783 73.3974 9.88602V10.3524C73.3974 10.6626 73.3974 11.0064 73.3974 11.3382L73.4046 11.4969Z" fill="#FF570F"/>
</svg>
