<svg width="20" height="12" viewBox="0 0 20 12" fill="none" xmlns="http://www.w3.org/2000/svg">
<path d="M-1.54424e-05 4.20026C-1.53412e-05 1.88449 1.88448 -7.56937e-07 4.20025 -6.55711e-07L13.2008 -2.62285e-07C16.5092 -1.1767e-07 19.2012 2.69197 19.2012 6.00039C19.2012 9.3088 16.5092 12.0008 13.2008 12.0008L2.40012 11.9996L2.40012 10.7995L13.2008 10.8007C15.8476 10.8007 18.0011 8.64726 18.0011 6.00043C18.0011 3.35359 15.8477 1.20007 13.2008 1.20007L4.20025 1.20007C2.54606 1.20007 1.20005 2.54603 1.20005 4.20026C1.20005 5.85449 2.54602 7.20045 4.20025 7.20045L13.2008 7.20045C13.8624 7.20045 14.4009 6.66197 14.4009 6.00039C14.4009 5.33881 13.8624 4.80032 13.2008 4.80032L3.60019 4.80032L3.60019 3.60025L13.2008 3.60025C14.5245 3.60025 15.6009 4.67667 15.6009 6.00039C15.6009 7.32411 14.5245 8.40052 13.2008 8.40052L4.20025 8.40052C1.88448 8.40052 -1.55436e-05 6.51603 -1.54424e-05 4.20026Z" fill="#292929"/>
</svg>
