<svg width="50" height="50" viewBox="0 0 50 50" fill="none" xmlns="http://www.w3.org/2000/svg">
<path d="M12.2868 8.23886C12.6069 7.76181 12.6671 7.15897 12.4471 6.62876C12.2271 6.09773 11.7593 5.71404 11.1943 5.60366C11.1271 5.59053 11.0754 5.53882 11.0623 5.47009C10.9511 4.90664 10.5676 4.43883 10.0372 4.21886C9.50537 3.9989 8.90415 4.05839 8.4271 4.37934C8.37005 4.41873 8.2958 4.41873 8.23875 4.37934C7.76251 4.05904 7.16048 4.00036 6.62864 4.21886C6.09761 4.43883 5.71393 4.90664 5.60354 5.47171C5.59041 5.53882 5.5387 5.59053 5.46997 5.60366C4.90652 5.71404 4.43871 6.09773 4.21875 6.62876C3.99878 7.15978 4.05892 7.76181 4.37922 8.23886C4.4178 8.29592 4.4178 8.37016 4.37922 8.42722C4.05892 8.90427 3.99862 9.5063 4.21875 10.0373C4.43871 10.5684 4.90652 10.952 5.47159 11.0624C5.5387 11.0756 5.59041 11.1273 5.60354 11.196C5.71474 11.7594 6.09826 12.2273 6.62864 12.4472C7.16048 12.6664 7.76105 12.6077 8.23875 12.2867C8.2958 12.2482 8.37005 12.2474 8.4271 12.2867C8.71418 12.4796 9.04696 12.5785 9.3812 12.5785C9.60279 12.5785 9.82503 12.5346 10.0374 12.4472C10.5684 12.2273 10.9521 11.7594 11.0625 11.1944C11.0756 11.1273 11.1273 11.0756 11.196 11.0624C11.7595 10.9512 12.2273 10.5677 12.4473 10.0373C12.6672 9.50694 12.6071 8.90427 12.2868 8.42722C12.2482 8.37016 12.2482 8.29592 12.2868 8.23886ZM11.0053 9.28795C11.0469 9.34971 11.0369 9.40839 11.0215 9.44616C11.0053 9.48474 10.972 9.53256 10.8996 9.54731C10.2118 9.68087 9.68157 10.2111 9.548 10.8974C9.53341 10.9715 9.48543 11.0055 9.44685 11.0209C9.40909 11.0371 9.35041 11.0472 9.28865 11.0047C8.99849 10.8094 8.66571 10.7121 8.3339 10.7121C8.00192 10.7121 7.6693 10.8094 7.37915 11.0047C7.31658 11.048 7.25952 11.0363 7.22094 11.0209C7.18236 11.0055 7.13454 10.9715 7.11979 10.899C6.98623 10.2113 6.45601 9.68104 5.76969 9.54747C5.69561 9.53288 5.66157 9.4849 5.64617 9.44632C5.62996 9.40855 5.62072 9.34987 5.66238 9.28811C6.05222 8.70765 6.05222 7.95811 5.66238 7.37764C5.62072 7.31588 5.63077 7.2572 5.64617 7.21944C5.66238 7.18086 5.69561 7.13304 5.76807 7.11829C6.45584 6.98472 6.98606 6.4545 7.11963 5.76818C7.13422 5.69411 7.1822 5.66007 7.22078 5.64467C7.25855 5.62927 7.31642 5.61922 7.37899 5.66088C7.95945 6.05153 8.70899 6.05153 9.28946 5.66088C9.35203 5.61922 9.41071 5.63008 9.44766 5.64467C9.48624 5.66088 9.53406 5.69411 9.54881 5.76656C9.68238 6.45434 10.2126 6.98456 10.8989 7.11813C10.973 7.13271 11.007 7.1807 11.0224 7.21927C11.0386 7.25704 11.0479 7.31572 11.0062 7.37748C10.6154 7.95876 10.6154 8.70748 11.0053 9.28795Z" fill="#FF570F" stroke="#FF570F" stroke-width="0.3"/>
<path d="M45.4782 41.6186C45.4395 41.5616 45.4395 41.4873 45.478 41.4303C45.7983 40.9532 45.8586 40.3512 45.6385 39.8202C45.4185 39.2891 44.9507 38.9055 44.3857 38.7951C44.3186 38.7819 44.2668 38.7302 44.2537 38.6615C44.1425 38.098 43.759 37.6302 43.2286 37.4103C42.6976 37.1903 42.0956 37.2498 41.6185 37.5707C41.5621 37.6093 41.488 37.6109 41.4302 37.5707C40.9531 37.2504 40.3525 37.191 39.82 37.4103C39.289 37.6302 38.9053 38.098 38.7949 38.6631C38.7818 38.7302 38.7301 38.7819 38.6614 38.7951C38.0979 38.9063 37.6301 39.2898 37.4102 39.8202C37.1902 40.3504 37.2503 40.9532 37.5706 41.4303C37.6092 41.4873 37.6092 41.5616 37.5706 41.6186C37.2503 42.0957 37.19 42.6977 37.4102 43.2287C37.6301 43.7598 38.0979 44.1434 38.663 44.2538C38.7301 44.267 38.7818 44.3187 38.7949 44.3874C38.9061 44.9508 39.2897 45.4187 39.82 45.6386C40.3511 45.8578 40.9531 45.7984 41.4302 45.4781C41.4866 45.4396 41.5606 45.4379 41.6185 45.4781C41.9056 45.671 42.2384 45.7699 42.5726 45.7699C42.7942 45.7699 43.0164 45.726 43.2288 45.6386C43.7598 45.4187 44.1435 44.9508 44.2539 44.3858C44.267 44.3187 44.3187 44.267 44.3874 44.2538C44.9509 44.1426 45.4187 43.7591 45.6387 43.2287C45.8586 42.6984 45.7983 42.0957 45.4782 41.6186ZM44.1968 42.4792C44.2385 42.541 44.2284 42.5996 44.213 42.6374C44.1968 42.676 44.1636 42.7238 44.0911 42.7385C43.4034 42.8721 42.8731 43.4023 42.7396 44.0887C42.725 44.1627 42.677 44.1968 42.6384 44.2122C42.5998 44.2276 42.5428 44.2384 42.4802 44.196C42.1901 44.0006 41.8573 43.9034 41.5255 43.9034C41.1937 43.9034 40.8609 44.0006 40.5707 44.196C40.509 44.2384 40.4503 44.2284 40.4125 44.2122C40.3739 44.196 40.3261 44.1627 40.3114 44.0903C40.1778 43.4025 39.6476 42.8723 38.9613 42.7387C38.8872 42.7241 38.8531 42.6761 38.8377 42.6376C38.8215 42.5998 38.8123 42.5411 38.8539 42.4794C39.2438 41.8989 39.2438 41.1494 38.8539 40.5689C38.8123 40.5071 38.8223 40.4484 38.8377 40.4107C38.8539 40.3721 38.8872 40.3243 38.9596 40.3095C39.6474 40.176 40.1776 39.6457 40.3112 38.9594C40.3258 38.8853 40.3738 38.8513 40.4123 38.8359C40.4501 38.8197 40.508 38.8097 40.5706 38.8521C41.151 39.2428 41.9006 39.2428 42.481 38.8521C42.5436 38.8097 42.6015 38.8213 42.6392 38.8359C42.6778 38.8521 42.7256 38.8854 42.7404 38.9578C42.874 39.6456 43.4042 40.1758 44.0905 40.3094C44.1646 40.324 44.1986 40.3719 44.214 40.4105C44.2302 40.4483 44.2395 40.507 44.1978 40.5687C43.8068 41.15 43.8068 41.8989 44.1968 42.4792Z" fill="#FF570F" stroke="#FF570F" stroke-width="0.3"/>
<path d="M41.5242 34.1912C40.8249 34.1912 40.1285 34.2939 39.4477 34.497L29.8801 24.9286L39.4485 15.3601C40.8842 15.7869 42.3948 15.7631 43.8483 15.2869C46.0305 14.5698 47.7618 12.8384 48.4789 10.6556C49.0092 9.04243 48.9784 7.35581 48.3925 5.77877L47.9734 4.65188L42.8427 9.78256C42.5408 10.0844 42.0531 10.0844 41.7513 9.78256L40.0747 8.106C39.7737 7.80498 39.7737 7.31561 40.0747 7.0146L45.2054 1.88375L44.0785 1.46457C42.5008 0.877941 40.815 0.847791 39.201 1.37817C37.0189 2.09529 35.2875 3.82664 34.5704 6.00944C34.0942 7.46134 34.0702 8.97192 34.4971 10.4084L24.9287 19.9768L15.3601 10.4094C15.5631 9.72858 15.6659 9.03238 15.6659 8.33293C15.6659 4.28975 12.3761 1 8.33277 1C4.28959 1 1 4.28975 1 8.33293C1 12.3761 4.28975 15.6659 8.33293 15.6659C9.03222 15.6659 9.72858 15.5633 10.4094 15.3601L19.977 24.9286L10.4086 34.497C8.97289 34.0702 7.46231 34.0933 6.00879 34.5702C3.82664 35.2873 2.09529 37.0187 1.37817 39.2015C0.847953 40.8147 0.878752 42.5013 1.46457 44.0783L1.88375 45.2052L7.01444 40.0746C7.31626 39.7727 7.80401 39.7727 8.10583 40.0746L9.78256 41.7511C10.0836 42.0521 10.0836 42.5415 9.78256 42.8425L4.65188 47.9732L5.77877 48.3924C6.60855 48.7004 7.46847 48.8555 8.33293 48.8555C9.111 48.8555 9.89214 48.7305 10.6571 48.4796C12.8392 47.7625 14.5706 46.0311 15.2877 43.8483C15.7639 42.3964 15.7879 40.8858 15.361 39.4493L24.9286 29.8803L34.497 39.4479C34.294 40.1287 34.1912 40.8249 34.1912 41.5243C34.1912 45.5675 37.481 48.8573 41.5242 48.8573C45.5674 48.8573 48.8571 45.5675 48.8571 41.5243C48.8571 37.4812 45.5672 34.1912 41.5242 34.1912ZM10.813 13.581L10.3483 13.7539C9.69065 13.9987 9.01212 14.1221 8.33293 14.1221C5.14044 14.1221 2.54381 11.5254 2.54381 8.33293C2.54381 5.14044 5.14044 2.54381 8.33277 2.54381C11.5253 2.54381 14.1219 5.14044 14.1219 8.33293C14.1219 9.01212 13.9984 9.69065 13.753 10.3483L13.58 10.813L23.836 21.069L21.069 23.8362L10.813 13.581ZM23.837 28.7881L13.581 39.0441L13.7539 39.5088C14.224 40.7724 14.2472 42.07 13.821 43.3659C13.2568 45.085 11.8937 46.4474 10.1755 47.0123C9.29627 47.301 8.41868 47.3835 7.54871 47.2601L10.8756 43.9333C11.3124 43.4964 11.5541 42.9143 11.5541 42.2961C11.5541 41.6778 11.3126 41.0958 10.8756 40.6589L9.19901 38.9823C8.3245 38.1078 6.79917 38.1078 5.92466 38.9823L2.59763 42.3092C2.47492 41.4401 2.55678 40.5608 2.84547 39.6833C3.40973 37.9642 4.7728 36.6018 6.49103 36.0369C7.78699 35.6115 9.08538 35.6333 10.3489 36.104L10.8137 36.2769L21.069 26.0201L26.0199 21.0692L36.276 10.8132L36.103 10.3484C35.6329 9.0849 35.6098 7.78731 36.0359 6.49135C36.6002 4.77231 37.9632 3.40989 39.6815 2.84498C40.5607 2.5571 41.4391 2.47378 42.3082 2.59714L38.9814 5.92401C38.5445 6.36086 38.3028 6.94295 38.3028 7.56119C38.3028 8.17943 38.5443 8.76152 38.9814 9.19837L40.6579 10.8749C41.5324 11.7494 43.0578 11.7494 43.9323 10.8749L47.2592 7.54806C47.3819 8.41722 47.3 9.29643 47.0113 10.174C46.4471 11.8931 45.084 13.2555 43.3658 13.8204C42.0698 14.2457 40.7722 14.224 39.5079 13.7533L39.0431 13.5803L28.7878 23.8372L23.837 28.7881ZM41.5242 47.3133C38.3317 47.3133 35.7351 44.7167 35.7351 41.5242C35.7351 40.845 35.8586 40.1665 36.104 39.5088L36.2769 39.0441L26.0209 28.7881L28.7881 26.0209L39.0441 36.2769L39.5088 36.104C40.1665 35.8586 40.845 35.7351 41.5242 35.7351C44.7167 35.7351 47.3133 38.3317 47.3133 41.5242C47.3133 44.7167 44.7165 47.3133 41.5242 47.3133Z" fill="#FF570F" stroke="#FF570F" stroke-width="0.3"/>
</svg>
