<svg width="42" height="42" viewBox="0 0 42 42" fill="none" xmlns="http://www.w3.org/2000/svg">
<path d="M0.324219 40.1137L40.1137 0.324219L41.6765 1.88706L1.88706 41.6765L0.324219 40.1137Z" fill="#FF570F"/>
<path d="M6.63158 13.2632C10.2889 13.2632 13.2632 10.2889 13.2632 6.63158C13.2632 2.97426 10.2889 0 6.63158 0C2.97426 0 0 2.97426 0 6.63158C0 10.2889 2.97426 13.2632 6.63158 13.2632ZM6.63158 2.21053C9.06979 2.21053 11.0526 4.19337 11.0526 6.63158C11.0526 9.06979 9.06979 11.0526 6.63158 11.0526C4.19337 11.0526 2.21053 9.06979 2.21053 6.63158C2.21053 4.19337 4.19337 2.21053 6.63158 2.21053Z" fill="#FF570F"/>
<path d="M35.3679 28.7373C31.7106 28.7373 28.7363 31.7116 28.7363 35.3689C28.7363 39.0262 31.7106 42.0005 35.3679 42.0005C39.0252 42.0005 41.9995 39.0262 41.9995 35.3689C41.9995 31.7116 39.0252 28.7373 35.3679 28.7373ZM35.3679 39.7899C32.9297 39.7899 30.9469 37.8071 30.9469 35.3689C30.9469 32.9307 32.9297 30.9478 35.3679 30.9478C37.8061 30.9478 39.789 32.9307 39.789 35.3689C39.789 37.8071 37.8061 39.7899 35.3679 39.7899Z" fill="#FF570F"/>
</svg>
