<svg width="67" height="50" viewBox="0 0 67 50" fill="none" xmlns="http://www.w3.org/2000/svg">
<path d="M10.7425 38.6758C10.1051 38.6758 9.48195 38.8648 8.95193 39.219C8.42191 39.5731 8.00881 40.0765 7.76487 40.6654C7.52093 41.2543 7.4571 41.9024 7.58146 42.5276C7.70582 43.1528 8.01278 43.727 8.46353 44.1778C8.91427 44.6285 9.48856 44.9355 10.1138 45.0599C10.739 45.1842 11.387 45.1204 11.9759 44.8764C12.5649 44.6325 13.0682 44.2194 13.4224 43.6894C13.7765 43.1594 13.9655 42.5362 13.9655 41.8988C13.9646 41.0443 13.6247 40.2251 13.0205 39.6208C12.4163 39.0166 11.597 38.6767 10.7425 38.6758ZM10.7425 42.9731C10.5301 42.9731 10.3223 42.9101 10.1457 42.7921C9.96899 42.674 9.83129 42.5062 9.74998 42.3099C9.66867 42.1136 9.64739 41.8976 9.68884 41.6892C9.7303 41.4808 9.83262 41.2894 9.98287 41.1391C10.1331 40.9889 10.3245 40.8865 10.5329 40.8451C10.7413 40.8036 10.9574 40.8249 11.1537 40.9062C11.35 40.9875 11.5178 41.1252 11.6358 41.3019C11.7539 41.4786 11.8169 41.6863 11.8169 41.8988C11.8165 42.1836 11.7033 42.4567 11.5019 42.6581C11.3004 42.8595 11.0274 42.9728 10.7425 42.9731Z" fill="#FF570F"/>
<path d="M55.8656 38.6758C55.2281 38.6758 54.605 38.8648 54.075 39.219C53.545 39.5731 53.1319 40.0765 52.8879 40.6654C52.644 41.2543 52.5801 41.9024 52.7045 42.5276C52.8289 43.1528 53.1358 43.727 53.5866 44.1778C54.0373 44.6285 54.6116 44.9355 55.2368 45.0599C55.862 45.1842 56.51 45.1204 57.099 44.8764C57.6879 44.6325 58.1913 44.2194 58.5454 43.6894C58.8996 43.1594 59.0886 42.5362 59.0886 41.8988C59.0876 41.0443 58.7478 40.2251 58.1435 39.6208C57.5393 39.0166 56.7201 38.6767 55.8656 38.6758ZM55.8656 42.9731C55.6531 42.9731 55.4454 42.9101 55.2687 42.7921C55.092 42.674 54.9543 42.5062 54.873 42.3099C54.7917 42.1136 54.7704 41.8976 54.8119 41.6892C54.8533 41.4808 54.9557 41.2894 55.1059 41.1391C55.2562 40.9889 55.4476 40.8865 55.656 40.8451C55.8644 40.8036 56.0804 40.8249 56.2767 40.9062C56.473 40.9875 56.6408 41.1252 56.7589 41.3019C56.8769 41.4786 56.9399 41.6863 56.9399 41.8988C56.9396 42.1836 56.8263 42.4567 56.6249 42.6581C56.4235 42.8595 56.1504 42.9728 55.8656 42.9731Z" fill="#FF570F"/>
<path d="M65.5344 29.007H64.1524L59.97 16.8402C59.8973 16.6286 59.7603 16.4449 59.5782 16.3149C59.396 16.1849 59.1779 16.115 58.9541 16.115H46.1964C45.9114 16.115 45.6382 16.2282 45.4367 16.4297C45.2352 16.6312 45.122 16.9044 45.122 17.1893V32.23H39.7504V1.07433C39.7504 0.789403 39.6372 0.516142 39.4357 0.314665C39.2342 0.113189 38.961 0 38.676 0H6.44601C6.16107 0 5.88781 0.113189 5.68634 0.314665C5.48486 0.516142 5.37167 0.789403 5.37167 1.07433V32.23H1.07433C0.789403 32.23 0.516142 32.3432 0.314665 32.5447C0.113188 32.7462 0 33.0194 0 33.3044V41.899C0 42.184 0.113188 42.4572 0.314665 42.6587C0.516142 42.8602 0.789403 42.9734 1.07433 42.9734H3.30103C3.55907 44.7632 4.45349 46.4001 5.82037 47.584C7.18724 48.768 8.93501 49.4197 10.7433 49.4197C12.5517 49.4197 14.2994 48.768 15.6663 47.584C17.0332 46.4001 17.9276 44.7632 18.1857 42.9734H48.4231C48.6811 44.7632 49.5755 46.4001 50.9424 47.584C52.3093 48.768 54.057 49.4197 55.8654 49.4197C57.6737 49.4197 59.4215 48.768 60.7884 47.584C62.1552 46.4001 63.0497 44.7632 63.3077 42.9734H65.5344C65.8193 42.9734 66.0926 42.8602 66.2941 42.6587C66.4955 42.4572 66.6087 42.184 66.6087 41.899V30.0814C66.6087 29.7964 66.4955 29.5232 66.2941 29.3217C66.0926 29.1202 65.8193 29.007 65.5344 29.007ZM47.2707 18.2637H58.1874L61.8804 29.007H47.2707V18.2637ZM26.8584 2.14867V14.258L23.0964 12.095C22.9335 12.0013 22.7489 11.9521 22.561 11.9521C22.3731 11.9521 22.1885 12.0013 22.0256 12.095L18.2637 14.258V2.14867H26.8584ZM7.52034 2.14867H16.115V16.115C16.115 16.3034 16.1646 16.4885 16.2587 16.6517C16.3529 16.8149 16.4883 16.9505 16.6514 17.0448C16.8144 17.1392 16.9995 17.189 17.1879 17.1893C17.3763 17.1895 17.5614 17.1402 17.7248 17.0463L22.561 14.2655L27.3973 17.0463C27.5606 17.1402 27.7458 17.1895 27.9342 17.1893C28.1226 17.189 28.3076 17.1392 28.4707 17.0448C28.6338 16.9505 28.7692 16.8149 28.8633 16.6517C28.9574 16.4885 29.007 16.3034 29.007 16.115V2.14867H37.6017V32.23H7.52034V2.14867ZM2.14867 34.3787H45.122V40.8247H18.1857C17.9276 39.0349 17.0332 37.398 15.6663 36.2141C14.2994 35.0301 12.5517 34.3784 10.7433 34.3784C8.93501 34.3784 7.18724 35.0301 5.82037 36.2141C4.45349 37.398 3.55907 39.0349 3.30103 40.8247H2.14867V34.3787ZM10.7433 47.2707C9.68093 47.2707 8.64237 46.9557 7.759 46.3654C6.87564 45.7752 6.18713 44.9362 5.78057 43.9547C5.374 42.9731 5.26762 41.8931 5.47489 40.8511C5.68215 39.8091 6.19376 38.8519 6.945 38.1007C7.69624 37.3494 8.65338 36.8378 9.69538 36.6306C10.7374 36.4233 11.8174 36.5297 12.799 36.9363C13.7805 37.3428 14.6195 38.0313 15.2097 38.9147C15.8 39.7981 16.115 40.8366 16.115 41.899C16.1134 43.3232 15.547 44.6886 14.5399 45.6956C13.5329 46.7027 12.1675 47.2691 10.7433 47.2707ZM55.8654 47.2707C54.803 47.2707 53.7644 46.9557 52.881 46.3654C51.9977 45.7752 51.3092 44.9362 50.9026 43.9547C50.496 42.9731 50.3897 41.8931 50.5969 40.8511C50.8042 39.8091 51.3158 38.8519 52.067 38.1007C52.8183 37.3494 53.7754 36.8378 54.8174 36.6306C55.8594 36.4233 56.9395 36.5297 57.921 36.9363C58.9026 37.3428 59.7415 38.0313 60.3318 38.9147C60.922 39.7981 61.2371 40.8366 61.2371 41.899C61.2355 43.3232 60.669 44.6886 59.662 45.6956C58.6549 46.7027 57.2895 47.2691 55.8654 47.2707ZM64.4601 40.8247H63.3077C63.0497 39.0349 62.1552 37.398 60.7884 36.2141C59.4215 35.0301 57.6737 34.3784 55.8654 34.3784C54.057 34.3784 52.3093 35.0301 50.9424 36.2141C49.5755 37.398 48.6811 39.0349 48.4231 40.8247H47.2707V31.1557H64.4601V40.8247Z" fill="#FF570F"/>
</svg>
