<svg width="57" height="57" viewBox="0 0 57 57" fill="none" xmlns="http://www.w3.org/2000/svg">
<path d="M56.0806 0H0.919355C0.410747 0 0 0.412094 0 0.919355V10.1129C0 10.6202 0.410747 11.0323 0.919355 11.0323H1.83871V56.0806C1.83871 56.5879 2.24946 57 2.75806 57H8.27419C8.7828 57 9.19355 56.5879 9.19355 56.0806V11.0323H47.8065V29.4194H34.0161C33.5075 29.4194 33.0968 29.8314 33.0968 30.3387V42.2903H27.5806V31.2581H28.5C29.0086 31.2581 29.4194 30.846 29.4194 30.3387V17.4677C29.4194 16.9605 29.0086 16.5484 28.5 16.5484H13.7903C13.2817 16.5484 12.871 16.9605 12.871 17.4677V29.4194H11.9516C11.443 29.4194 11.0323 29.8314 11.0323 30.3387V56.0806C11.0323 56.5879 11.443 57 11.9516 57H41.371C41.8796 57 42.2903 56.5879 42.2903 56.0806V44.129H47.8065V56.0806C47.8065 56.5879 48.2172 57 48.7258 57H54.2419C54.7505 57 55.1613 56.5879 55.1613 56.0806V11.0323H56.0806C56.5893 11.0323 57 10.6202 57 10.1129V0.919355C57 0.412094 56.5893 0 56.0806 0ZM7.35484 55.1613H3.67742V11.0323H7.35484V55.1613ZM40.4516 31.2581H42.2903V34.9355H40.4516V31.2581ZM33.0968 44.129H34.9355V47.8065H33.0968V44.129ZM20.2258 18.3871H22.0645V22.0645H20.2258V18.3871ZM14.7097 18.3871H18.3871V22.9839C18.3871 23.4911 18.7978 23.9032 19.3065 23.9032H22.9839C23.4925 23.9032 23.9032 23.4911 23.9032 22.9839V18.3871H27.5806V29.4194H14.7097V18.3871ZM18.3871 31.2581H20.2258V34.9355H18.3871V31.2581ZM12.871 31.2581H16.5484V35.8548C16.5484 36.3621 16.9591 36.7742 17.4677 36.7742H21.1452C21.6538 36.7742 22.0645 36.3621 22.0645 35.8548V31.2581H25.7419V42.2903H12.871V31.2581ZM18.3871 44.129H20.2258V47.8065H18.3871V44.129ZM12.871 44.129H16.5484V48.7258C16.5484 49.2331 16.9591 49.6452 17.4677 49.6452H21.1452C21.6538 49.6452 22.0645 49.2331 22.0645 48.7258V44.129H25.7419V55.1613H12.871V44.129ZM40.4516 55.1613H27.5806V44.129H31.2581V48.7258C31.2581 49.2331 31.6688 49.6452 32.1774 49.6452H35.8548C36.3634 49.6452 36.7742 49.2331 36.7742 48.7258V44.129H40.4516V55.1613ZM41.371 42.2903H34.9355V31.2581H38.6129V35.8548C38.6129 36.3621 39.0237 36.7742 39.5323 36.7742H43.2097C43.7183 36.7742 44.129 36.3621 44.129 35.8548V31.2581H47.8065V42.2903H41.371ZM53.3226 55.1613H49.6452V11.0323H53.3226V55.1613ZM55.1613 9.19355H1.83871V1.83871H55.1613V9.19355Z" fill="#FF570F"/>
</svg>
