<svg width="21" height="14" viewBox="0 0 21 14" fill="none" xmlns="http://www.w3.org/2000/svg">
<path d="M6.615 5.92506V8.55006C6.615 8.55006 9.135 8.55006 10.185 8.55006C9.6075 10.2826 8.715 11.1751 6.615 11.1751C4.4625 11.1751 2.73 9.39006 2.73 7.23756C2.73 5.08506 4.4625 3.30006 6.615 3.30006C7.77 3.30006 8.5575 3.72006 9.1875 4.29756C9.765 3.72006 9.7125 3.66756 11.0775 2.35506C9.87 1.25256 8.3475 0.622559 6.615 0.622559C2.94 0.727559 0 3.66756 0 7.34256C0 11.0176 2.94 13.9576 6.615 13.9576C12.1275 13.9576 13.44 9.18006 13.02 5.97756L6.615 5.92506Z" fill="#FF570F"/>
<path d="M18.6365 6.08246V3.77246H17.009V6.08246H14.6465V7.70996H17.009V10.0725H18.6365V7.70996H20.9465V6.08246H18.6365Z" fill="#FF570F"/>
</svg>
