<svg width="18" height="18" viewBox="0 0 18 18" fill="none" xmlns="http://www.w3.org/2000/svg">
<path d="M8.99756 5.93848C7.33302 5.93848 5.9834 7.2881 5.9834 8.95264C5.9834 10.6172 7.33302 11.9668 8.99756 11.9668C10.6621 11.9668 12.0117 10.6172 12.0117 8.95264C12.0117 7.2881 10.6621 5.93848 8.99756 5.93848Z" fill="#FF570F"/>
<path d="M12.1466 0H5.84837C2.65426 0 0 2.65426 0 5.84837V12.1016C0 15.3407 2.65426 17.95 5.84837 17.95H12.1016C15.3407 17.95 17.95 15.2957 17.95 12.1016V5.84837C17.995 2.65426 15.3407 0 12.1466 0ZM8.99749 13.6762C6.43321 13.6762 4.3188 11.6068 4.3188 8.99749C4.3188 6.38822 6.43321 4.3188 8.99749 4.3188C11.5618 4.3188 13.6762 6.38822 13.6762 8.99749C13.6762 11.5618 11.6068 13.6762 8.99749 13.6762ZM13.5862 5.44348C12.9564 5.44348 12.4615 4.90363 12.4615 4.3188C12.4615 3.73396 13.0014 3.14912 13.5862 3.14912C14.216 3.14912 14.7109 3.68897 14.7109 4.27381C14.7109 4.94862 14.216 5.44348 13.5862 5.44348Z" fill="#FF570F"/>
</svg>
