<svg width="145" height="50" viewBox="0 0 145 50" fill="none" xmlns="http://www.w3.org/2000/svg">
<g clip-path="url(#clip0)">
<path d="M44.5186 26.5701L47.3524 31.8694L48.0155 33.6904L49.4324 38.161V32.0329L51.5124 31.8694L48.0155 29.3043L44.5186 26.5701Z" fill="#FF570F"/>
<path d="M35.8643 36.3401C33.7843 36.5881 32.6225 40.8896 31.0412 40.3935C29.1255 40.6416 27.3799 39.8298 26.7962 38.1385C26.6318 39.7903 25.3793 39.7903 25.1299 40.044V40.1229C25.3793 40.5401 27.4593 41.1997 28.2924 43.5055C29.5393 43.0094 30.8712 42.0172 31.9537 42.1017C32.2401 42.1473 32.5139 42.2515 32.7578 42.4077C33.0017 42.564 33.2104 42.7688 33.3706 43.0094C33.0362 41.4365 33.705 40.4443 34.1187 39.2829C34.7006 38.3133 35.2825 37.3323 35.8643 36.3401Z" fill="#FF570F"/>
<path d="M21.1342 23.3454C20.6355 22.0995 20.1367 20.8592 19.0542 20.0305C17.7225 19.5558 16.2938 19.4145 14.8942 19.6189L16.8949 20.9438L17.7223 22.5956L16.2261 22.5167L14.7355 24.9183L13.9024 24.8337L10.5755 24.4165L10.7398 21.2707C11.4086 21.1918 12.5705 21.6879 12.8199 21.1918L13.2393 16.5577C13.476 16.5247 13.7024 16.44 13.9024 16.3096H14.1687C14.0963 16.4917 14.0806 16.6912 14.1236 16.8822C14.1667 17.0732 14.2666 17.247 14.4103 17.3807C14.5539 17.5145 14.7348 17.6022 14.9293 17.6324C15.1237 17.6626 15.3228 17.6338 15.5006 17.5499C16.1336 16.8667 16.9886 16.4275 17.915 16.3096L16.6682 15.7459L19.723 15.2216C19.638 14.9735 19.638 14.8044 19.553 14.5563C17.6577 14.5059 15.7615 14.6172 13.8854 14.889C13.367 15.0375 12.8385 15.1486 12.3041 15.2216L11.556 19.7711H8.50114L8.58049 19.5231L10.3318 16.1405L9.0679 14.4887C9.40229 12.6621 9.90104 11.591 10.7342 11.591C11.6523 11.3429 12.2304 11.591 13.0012 11.6699L12.9162 9.41485L13.9137 9.33028H14.2481L13.9987 13.3048L16.2658 13.0567C18.4308 12.5606 19.6663 13.4683 20.5958 14.7931L20.9699 13.4908C22.1374 14.0546 22.8855 15.3118 23.3843 16.8058C23.6336 13.4908 22.7155 11.5064 19.0542 10.4296L20.7205 8.5241L18.5555 8.69323L17.3086 9.68545L16.6455 10.7622L16.3111 8.36061L21.718 7.79685L21.2192 9.28518L23.883 12.5155C24.1451 12.3079 24.3563 12.0436 24.5007 11.7428C24.645 11.442 24.7187 11.1125 24.7162 10.7791L23.3843 7.30074C24.1803 7.70296 24.801 8.38062 25.1299 9.20625C25.4643 10.035 25.2999 11.0272 25.4643 12.7636L25.1299 13.0116L24.7162 13.4288L25.1299 15.0017L25.2149 15.1652L26.2124 16.7381L27.3799 15.9094L28.7118 16.8227L27.7087 13.3443L30.4574 13.4288C31.591 14.421 32.7868 15.3287 33.9544 16.3266C33.1954 14.0043 32.0097 11.8422 30.4574 9.95042C29.5393 9.78693 28.7118 9.53887 27.7937 9.38666C27.4593 7.73484 26.7962 6.48892 25.1299 5.90825C24.5001 5.63706 23.8212 5.497 23.1349 5.4967C22.5069 5.67239 21.9487 6.03662 21.5366 6.53966C19.7812 6.20984 17.9879 6.12634 16.2091 6.29161H12.4005L12.8142 7.61645L10.3204 7.8645L8.65417 8.36061L8.56916 8.44518L7.48664 9.00894L8.56916 10.0857L8.73918 10.1703L8.56916 10.2549C8.06167 10.3208 7.57239 10.4863 7.12971 10.7417C6.68703 10.9972 6.29977 11.3376 5.9904 11.7432C6.65917 12.1547 7.57166 11.7432 7.99106 12.9835L7.57166 15.8023C8.13842 16.879 7.07291 18.0573 6.73852 19.1848L5.57666 20.7746L6.48914 23.8415L8.56916 26.2375L9.98606 27.8104L10.3204 26.7392L11.3349 28.5602L9.58932 29.6313L11.8564 34.102L13.9364 33.775L18.4308 33.2112L20.5108 28.081L16.5435 31.7229C15.7373 31.3554 14.8464 31.2113 13.9647 31.3057C13.392 31.4069 12.8329 31.5734 12.2984 31.8018C11.9697 30.9731 11.0516 29.9809 11.2159 29.6482C11.7203 29.2367 12.2984 30.0654 12.7972 30.398C13.1667 30.2095 13.5591 30.0693 13.9647 29.9809C14.5862 29.9065 15.2165 29.9919 15.7954 30.2289C17.0422 28.8252 19.3716 27.1677 19.3716 26.0063C19.4319 25.563 19.38 25.1117 19.2207 24.6933C19.0613 24.2749 18.7996 23.9027 18.4591 23.6104C19.3036 23.5089 20.9699 23.8415 21.1342 23.3454ZM9.15292 24.3376L8.58616 23.0917L7.93438 21.423L8.59749 21.3384L9.34562 21.2538L9.15292 24.3376ZM14.3955 28.2839L13.8967 27.1226L13.398 26.0458H14.3955V28.2839Z" fill="#FF570F"/>
<path d="M52.3457 29.2809H53.7569V7.53103C53.7623 6.54061 53.564 5.55956 53.1741 4.64822C52.7843 3.73687 52.2111 2.91449 51.4898 2.23167C50.5543 1.226 49.3486 0.508007 48.0156 0.162663C47.3811 0.0688028 46.7413 0.0142009 46.1 -0.00082763H7.65659C6.65344 -0.0181311 5.65694 0.164239 4.72568 0.535561C3.79441 0.906883 2.94718 1.45966 2.23379 2.1614C1.5204 2.86313 0.955257 3.69966 0.571586 4.62179C0.187915 5.54393 -0.00653958 6.53306 -0.000344798 7.53103V42.4842C-0.00577895 43.4747 0.192538 44.4557 0.582408 45.367C0.972278 46.2784 1.54546 47.1008 2.2667 47.7836C2.96421 48.5099 3.80499 49.085 4.73635 49.4731C5.66772 49.8611 6.66961 50.0537 7.67926 50.0386H46.1C46.6903 50.0277 47.2792 49.9768 47.8626 49.8864V48.2966L45.9356 47.1014L44.9381 43.0424L42.6087 47.0169L41.6055 45.444L41.2768 38.5717L44.1106 42.7943L43.8613 37.416L46.6044 39.3159L45.8506 31.6206L42.9374 27.1499L38.7774 26.0731L40.5287 27.6235L42.11 31.9306L36.533 29.6756L39.8599 31.9306L41.5262 34.4957L37.6949 33.667L39.2762 37.6415L39.5255 41.7795L38.0293 47.0789L34.1186 43.3524L34.8668 47.6539L30.9561 44.7562L32.373 48.5672H32.0386L26.8811 44.6773L25.963 41.7175L25.1298 43.375L24.2967 45.1001L25.1298 46.673L26.1273 48.5785H22.5511L18.476 43.2059L19.9723 40.7253L20.0573 35.9221L18.391 39.6485L15.6422 41.1538L16.5604 38.008L14.8941 35.1892L14.3954 38.5041L13.8966 39.1637L12.4684 41.1538L12.0547 34.6987L9.72527 36.2716L8.56907 29.0554L8.40471 27.5615L6.65909 36.7508L7.99098 35.8431L7.9343 41.3849L8.59741 40.8888L10.5981 39.4005V42.2193L11.4312 41.6555L11.6523 43.9726L13.9193 46.1205L14.0837 46.3686L15.869 44.4518L16.8721 46.5997L17.4389 48.5898H7.65659C6.83784 48.6001 6.02539 48.4462 5.26779 48.1372C4.51018 47.8282 3.82296 47.3705 3.24719 46.7914C2.08986 45.6427 1.43244 44.0879 1.41656 42.4617V7.50847C1.44569 5.89996 2.1021 4.36565 3.24719 3.22953C3.82026 2.64529 4.50647 2.1827 5.26435 1.86972C6.02223 1.55674 6.83604 1.39986 7.65659 1.40858H46.1C46.747 1.40221 47.3918 1.4857 48.0156 1.65663C48.9664 1.96792 49.825 2.50826 50.515 3.22953C51.6655 4.37122 52.3224 5.91466 52.3457 7.53103V25.8251L48.5994 22.8428L50.515 21.8506L48.0156 21.0218L43.0224 19.37L39.3612 16.6358L36.8674 17.7971L30.9561 15.5421L29.7092 16.1058L29.0405 17.1826L25.1298 16.912H24.7161L23.1348 17.6562L24.8804 18.8175C23.8171 19.072 22.8756 19.6857 22.2167 20.5539C23.1348 21.4221 24.3704 21.8506 25.1298 23.0119C25.2873 23.1688 25.4024 23.3627 25.4642 23.5757L25.1298 23.8237L22.5511 26.0788L23.6336 26.744L21.0548 29.8785C20.8054 31.1977 21.0548 31.7784 21.7179 33.1032L22.5511 33.8474L22.3867 36.001L25.1298 38.7352L25.2998 38.8142C25.2134 38.603 25.1562 38.3811 25.1298 38.1545C25.1298 37.4893 25.4642 36.9143 26.2973 36.9932C28.1288 37.1305 29.8456 37.9331 31.1205 39.2482C31.7893 36.2659 33.3875 34.6085 35.5355 33.8643L33.2685 31.0455L28.7741 30.882L31.8743 32.1336L32.1236 33.4584L29.6242 35.0313H26.0706L25.9006 33.4584L28.0656 32.2971V31.2879L27.2325 30.7242L28.4624 27.6235L28.7911 28.9483L30.9561 29.2809L31.5229 28.3676H33.6029L32.271 27.2401L31.5229 26.8229L35.2692 25.5827H28.5417L26.9605 26.8229L25.1298 31.4571L25.0505 31.6262L23.0498 31.0624L25.1298 27.8321L26.2123 26.0957H25.0788L25.1582 26.0111L27.4252 23.0345L27.5045 21.129L29.0858 22.6173V24.0267L33.6652 24.1902L34.7988 23.0627L39.0438 24.9682L36.7144 21.3206L34.0336 20.8583L32.7017 19.7816L34.7817 19.2178L30.8144 18.654L29.6469 20.3904H28.043L28.6097 18.0734L36.431 18.406L36.1816 19.8943L38.8454 22.4594L39.5085 20.2044L40.5117 21.2755L40.8064 24.7483L44.0483 25.3121L45.6862 24.2409L43.3568 23.3445V22.0197L47.7662 24.2747L48.0156 25.0189L48.35 26.0957L50.7644 26.8399L52.3457 29.1569V29.2809ZM24.2967 33.791L25.1298 35.1102L24.2967 36.4182L23.6336 35.7586L23.5486 34.0222L24.2967 33.791Z" fill="#FF570F"/>
<path fill-rule="evenodd" clip-rule="evenodd" d="M143.056 45.738H145V49.9098H124.03V45.738H137.519V35.1505H136.47C134.521 35.1505 133.172 35.4493 132.571 36.3457C131.89 37.1056 131.425 38.0317 131.222 39.0292C131.1 39.4656 131.051 39.9187 131.075 40.371V41.7184C131.051 42.1205 131.101 42.5236 131.222 42.9079C131.222 43.2067 131.375 43.5055 131.375 43.8043C131.375 44.1031 131.375 44.2496 131.522 44.4019V44.8472H126.127C126.127 44.7007 126.127 44.7007 125.98 44.5484V44.1031C125.795 43.5749 125.694 43.0215 125.679 42.4625C125.555 41.7175 125.506 40.9622 125.532 40.2075V38.5726C125.679 37.8228 125.832 37.2308 125.98 36.481C126.517 34.9836 127.439 33.6522 128.655 32.6192C130.004 31.4241 132.101 30.8265 135.099 30.8265H143.033V45.738H143.056ZM118.379 28.4418C118.221 29.1676 117.794 29.8077 117.183 30.2345C116.454 30.6455 115.623 30.8411 114.786 30.7983C113.992 30.8257 113.206 30.6303 112.519 30.2345C111.908 29.8064 111.48 29.1672 111.317 28.4418H118.379ZM111.788 30.8265H106.239V49.9098H111.788V42.4569C111.897 42.1926 112.042 41.9441 112.219 41.7184C112.519 41.4196 112.666 41.1208 112.967 40.822C113.432 40.2368 113.939 39.6866 114.486 39.1758C115 38.6424 115.551 38.145 116.135 37.6875C116.395 37.3969 116.697 37.1461 117.03 36.9433C117.367 36.7192 117.719 36.5195 118.085 36.3457V49.9098H123.48V30.8265H118.085C117.631 30.9787 117.331 31.2775 116.883 31.4241C116.435 31.7229 116.135 32.0217 115.687 32.3205C115.311 32.5317 114.958 32.7811 114.633 33.0646C114.374 33.3612 114.072 33.6177 113.737 33.8257C113.284 34.2711 112.984 34.5699 112.536 35.0209C112.244 35.2795 111.992 35.5796 111.788 35.9116V30.8378V30.8265ZM99.1037 30.8265C99.8422 31.9169 100.494 33.0629 101.053 34.2542C101.625 35.4205 102.136 36.6153 102.584 37.834C103.393 39.9334 104.093 42.0729 104.681 44.244C105.128 46.3356 105.576 48.2693 105.877 49.8816H100.317V49.4363C100.261 49.3769 100.22 49.3064 100.194 49.2295C100.169 49.1527 100.16 49.0713 100.169 48.9909V48.5399C100.113 48.481 100.07 48.4107 100.044 48.3338C100.017 48.257 100.008 48.1753 100.016 48.0945V47.6491H99.8689V47.1981C99.8771 47.1173 99.8677 47.0357 99.8413 46.9588C99.8149 46.8819 99.7721 46.8116 99.7158 46.7527H94.4733C94.6207 46.0086 94.768 45.411 94.921 44.6668C95.0684 44.0692 95.3688 43.3251 95.5218 42.7275H98.6673C98.52 42.2821 98.3669 41.8311 98.2196 41.2392C98.0666 40.7882 97.9192 40.3428 97.7662 39.8974C97.6911 39.2699 97.4989 38.6619 97.1994 38.1046C96.9979 37.7809 96.8452 37.4295 96.746 37.0617C96.1461 38.1722 95.6344 39.3277 95.2157 40.5175C94.7623 41.7127 94.4676 42.9023 94.0142 44.0974C93.7138 45.1404 93.5665 46.1833 93.2661 47.0797C93.1517 48.0354 92.9506 48.9789 92.6653 49.8985H87.2811C87.4341 48.8556 87.7345 47.8126 88.0292 46.6174L88.9304 43.0432C89.6136 40.7676 90.4138 38.5284 91.3278 36.3344C92.0775 34.426 92.9796 32.5804 94.0255 30.8152L99.1037 30.8265ZM80.3383 30.8265C83.1721 30.8265 85.2861 31.5706 86.635 32.9124C87.8018 34.14 88.5375 35.7104 88.732 37.3887V38.2851C88.7779 39.2402 88.6287 40.1947 88.2937 41.0909C87.9586 41.9872 87.4445 42.8066 86.7823 43.4998C85.4335 44.9938 83.4838 45.5858 80.939 45.5858H79.4371C78.8364 45.4392 78.3886 45.4392 77.9409 45.2926V40.9686C78.2135 41.1328 78.5193 41.2349 78.8364 41.2673C79.2898 41.2673 79.5902 41.4139 79.8849 41.4139C80.7401 41.3946 81.5728 41.1367 82.2879 40.6698C82.5951 40.3557 82.8334 39.9815 82.9875 39.571C83.1417 39.1605 83.2084 38.7226 83.1834 38.2851C83.1834 38.1328 83.0361 37.9863 83.0361 37.6875C83.0035 37.3703 82.9009 37.0642 82.7357 36.7911C82.6532 36.5314 82.5174 36.2916 82.3369 36.0869C82.1564 35.8821 81.9352 35.7169 81.6872 35.6015C80.94 35.2496 80.1145 35.0943 79.2898 35.1505H76.8924V49.9098H71.3438V30.8265H80.3383ZM69.4565 30.8265V49.9098H63.9079V35.1505H57.9116V49.9098H52.3687V30.8265H69.4565Z" fill="#FF570F"/>
<path d="M63.7884 4.85968C63.8121 5.73787 63.5718 6.60313 63.0983 7.3447C62.6248 8.08628 61.9396 8.67045 61.1304 9.02246C60.3212 9.37447 59.4249 9.4783 58.556 9.32067C57.6872 9.16303 56.8854 8.75111 56.2532 8.1376C55.6211 7.5241 55.1873 6.73692 55.0075 5.87681C54.8277 5.0167 54.91 4.12278 55.2438 3.30945C55.5777 2.49612 56.1479 1.80038 56.8815 1.31126C57.6152 0.822138 58.4788 0.561889 59.362 0.563817C59.9374 0.552601 60.5092 0.655269 61.0443 0.86585C61.5794 1.07643 62.067 1.39073 62.4789 1.79046C62.8908 2.19019 63.2186 2.66738 63.4435 3.19428C63.6683 3.72119 63.7855 4.28729 63.7884 4.85968ZM56.0181 4.85968C56.0035 5.3102 56.081 5.75898 56.2461 6.17877C56.4111 6.59856 56.6602 6.98061 56.9783 7.3017C57.2963 7.6228 57.6766 7.87624 58.0961 8.04665C58.5157 8.21705 58.9656 8.30086 59.4187 8.29299C59.8599 8.29167 60.2963 8.20247 60.7023 8.03067C61.1083 7.85886 61.4756 7.60792 61.7825 7.29265C62.0894 6.97738 62.3297 6.60417 62.4893 6.19502C62.6489 5.78588 62.7244 5.34909 62.7116 4.91042C62.7153 4.03125 62.3678 3.1866 61.7455 2.56229C61.1232 1.93798 60.277 1.58514 59.3932 1.58141C58.5093 1.57767 57.6602 1.92333 57.0326 2.54236C56.4049 3.16138 56.0502 4.00306 56.0465 4.88223L56.0181 4.85968ZM58.6819 7.11472H57.6787V2.81886C58.2266 2.72078 58.7827 2.67547 59.3394 2.68356C59.8609 2.64163 60.3832 2.7534 60.8413 3.0049C60.9776 3.12055 61.0861 3.2652 61.1587 3.42816C61.2313 3.59112 61.2661 3.76823 61.2607 3.94639C61.2423 4.18684 61.1445 4.41449 60.9825 4.59393C60.8206 4.77338 60.6035 4.89455 60.3652 4.93861V4.99498C60.5795 5.08103 60.7661 5.22364 60.905 5.40744C61.0438 5.59123 61.1296 5.80923 61.153 6.03794C61.1964 6.41222 61.3037 6.77638 61.4704 7.11472H60.3935C60.2261 6.78442 60.1095 6.43093 60.0478 6.06613C59.9685 5.59257 59.7078 5.38398 59.1523 5.38398H58.6819V7.11472ZM58.6819 4.67928H59.158C59.7248 4.67928 60.1612 4.49323 60.1612 4.04786C60.1612 3.60249 59.8891 3.38262 59.26 3.38262C59.0698 3.37949 58.8798 3.3965 58.6932 3.43336L58.6819 4.67928Z" fill="#FF570F"/>
</g>
<defs>
<clipPath id="clip0">
<rect width="145" height="50" fill="white"/>
</clipPath>
</defs>
</svg>
