<svg width="65" height="45" viewBox="0 0 65 45" fill="none" xmlns="http://www.w3.org/2000/svg">
<path d="M51.3294 35.2441C49.6777 35.2441 48.334 36.5879 48.334 38.2395C48.334 39.891 49.6777 41.2348 51.3294 41.2348C52.981 41.2348 54.3246 39.8912 54.3248 38.2395C54.3248 36.588 52.981 35.2441 51.3294 35.2441ZM51.3294 39.2722C50.76 39.2722 50.2968 38.8091 50.2968 38.2398C50.2968 37.6704 50.76 37.2072 51.3294 37.2072C51.8986 37.2072 52.3618 37.6703 52.362 38.2398C52.362 38.809 51.8987 39.2722 51.3294 39.2722Z" fill="#FF570F"/>
<path d="M13.0657 35.2441C11.4141 35.2441 10.0703 36.5879 10.0703 38.2395C10.0703 39.891 11.4141 41.2348 13.0657 41.2348C14.7173 41.2348 16.061 39.8912 16.0611 38.2395C16.0611 36.588 14.7173 35.2441 13.0657 35.2441ZM13.0657 39.2722C12.4963 39.2722 12.0331 38.8091 12.0331 38.2398C12.0331 37.6704 12.4963 37.2072 13.0657 37.2072C13.6349 37.2072 14.0982 37.6703 14.0983 38.2398C14.0983 38.809 13.6351 39.2722 13.0657 39.2722Z" fill="#FF570F"/>
<path d="M63.3882 32.2231V19.1324H56.0654L53.0445 10.0697H42.242V9.01155H53.3442V7.04876H42.242V0H0V36.1999H7.40545C7.17516 36.8372 7.04901 37.5238 7.04901 38.2394C7.04901 41.5568 9.74795 44.2557 13.0654 44.2557C16.3829 44.2557 19.0819 41.5568 19.0819 38.2394C19.0819 37.5238 18.9557 36.8372 18.7254 36.1999H45.6708C45.4405 36.8372 45.3143 37.5238 45.3143 38.2394C45.3143 41.5568 48.0133 44.2557 51.3308 44.2557C54.6482 44.2557 57.3472 41.5568 57.3472 38.2394C57.3472 37.5238 57.221 36.8372 56.9907 36.1999H58.4053V38.2139H64.3961V32.2231H63.3882ZM13.0652 42.2928C10.8302 42.2928 9.01168 40.4744 9.01168 38.2394C9.01168 36.0043 10.8301 34.1859 13.0652 34.1859C15.3003 34.1859 17.1187 36.0043 17.1187 38.2394C17.1186 40.4744 15.3003 42.2928 13.0652 42.2928ZM40.2791 34.237H17.552C16.4493 33.0023 14.8469 32.2231 13.0652 32.2231C11.2835 32.2231 9.68104 33.0024 8.57839 34.2371H1.9628V18.0743H40.2791V34.237ZM40.2791 16.1115H1.9628V1.96279H40.2791V16.1115ZM42.2417 12.0326H51.6297L53.9962 19.1324H42.2417V12.0326ZM51.3301 42.2928C49.0952 42.2928 47.2766 40.4744 47.2766 38.2394C47.2766 36.0043 49.095 34.1859 51.3301 34.1859C53.5652 34.1859 55.3836 36.0043 55.3836 38.2394C55.3835 40.4744 53.5651 42.2928 51.3301 42.2928ZM58.4045 32.223V34.237H55.8169C54.7143 33.0023 53.1118 32.223 51.3301 32.223C49.5484 32.223 47.946 33.0023 46.8433 34.237H42.2419V21.0953H61.4255V23.1604H57.3976V30.1581H61.4255V32.2231H58.4045V32.223ZM61.4255 25.1232V28.1952H59.3604V25.1232H61.4255ZM62.4324 36.2511H60.3673V34.186H62.4324V36.2511Z" fill="#FF570F"/>
</svg>
