<svg width="68" height="58" viewBox="0 0 68 58" fill="none" xmlns="http://www.w3.org/2000/svg">
<path d="M67.7082 37.2062L62.5676 32.0655C61.8877 31.3858 60.9839 31.0113 60.0225 31.0113C59.3169 31.0113 58.6427 31.2137 58.065 31.5897L53.6766 27.2015L55.1979 25.6803C56.8201 24.0563 56.8201 21.414 55.1969 19.789C54.4968 19.0903 53.5921 18.6707 52.6185 18.5865C53.0382 17.169 52.6898 15.5697 51.5732 14.4521C50.9214 13.8002 50.0908 13.3913 49.1912 13.2706C49.378 12.7931 49.4756 12.2799 49.4756 11.7517C49.4756 10.639 49.0421 9.59312 48.2554 8.80727C47.5303 8.08211 46.6021 7.68088 45.652 7.60345C46.0557 6.19471 45.7038 4.61278 44.5965 3.50433C43.8097 2.71755 42.7634 2.28418 41.6503 2.28418C40.8304 2.28418 40.047 2.52032 39.3764 2.95927L39.1027 2.43917C38.4656 1.22885 37.1276 0.541547 35.7724 0.73107L29.4927 1.6063C28.7555 0.950078 27.8157 0.59082 26.8203 0.59082C25.7441 0.59082 24.7322 1.00998 23.9708 1.77152C23.246 2.49708 22.8569 3.43301 22.8018 4.38488C22.5233 4.32484 22.2367 4.2931 21.945 4.2931C20.8688 4.2931 19.8572 4.71212 19.0963 5.47301V5.47314C17.9945 6.57495 17.6667 8.16113 18.1107 9.55221C17.246 9.65607 16.4087 10.0379 15.7465 10.7001C15.7465 10.7001 15.7465 10.7001 15.7465 10.7002C14.7106 11.7362 14.3582 13.2007 14.6889 14.5286C13.767 14.6017 12.8656 14.9892 12.1619 15.6927V15.6928C10.5913 17.2634 10.5913 19.819 12.1619 21.3898L13.7312 22.9591C13.9043 23.1322 14.0898 23.2849 14.2841 23.4198C14.4584 24.5742 14.9164 25.6658 15.6137 26.5959L9.93544 32.2751C8.54131 31.3709 6.65391 31.529 5.43284 32.7502L0.292859 37.8907C-0.336407 38.5201 0.117679 39.5912 0.997163 39.5912C1.25203 39.5912 1.50703 39.494 1.70147 39.2996L6.84211 34.1589C7.46872 33.5323 8.48819 33.532 9.1148 34.1589L12.3131 37.3572C12.7021 37.746 13.3328 37.746 13.7217 37.3572C14.1107 36.968 14.1107 36.3374 13.7217 35.9484L11.4009 33.6277L17.6772 27.3503C18.0662 26.9613 18.0661 26.3307 17.6772 25.9418C17.1619 25.4265 16.7693 24.8089 16.5179 24.1357C16.5387 24.136 16.5596 24.1371 16.5805 24.1371C17.6121 24.1371 18.6437 23.7444 19.4291 22.9591C20.1053 22.283 20.5108 21.4086 20.5928 20.4671C20.9233 20.5533 21.2666 20.5986 21.6171 20.5986C22.6931 20.5986 23.7048 20.1796 24.4657 19.4186C25.1093 18.775 25.4887 17.9659 25.6048 17.127C26.0319 17.2783 26.4863 17.3573 26.9527 17.3573C28.0288 17.3573 29.0404 16.9383 29.8013 16.1773C31.1916 14.787 31.3503 12.6255 30.2794 11.058C30.9967 10.8875 31.6551 10.5225 32.1896 9.98797C32.202 9.97562 32.2131 9.96207 32.2254 9.94958C32.4089 9.93604 32.5929 9.91452 32.7768 9.88238L35.0848 9.47943C35.3694 9.49324 35.6503 9.38659 35.8519 9.17688L35.87 9.15882C35.8701 9.15869 35.8703 9.15855 35.8704 9.15842L36.839 8.18982L39.7864 5.24258C39.7965 5.23262 39.8063 5.22239 39.8159 5.2119L40.1146 4.91334C40.5251 4.50268 41.0707 4.27663 41.6508 4.27663C42.2317 4.27663 42.7777 4.50268 43.188 4.91294C44.0348 5.76068 44.0349 7.13914 43.1884 7.98569L42.3663 8.80766C41.9773 9.19667 41.9773 9.8274 42.3663 10.2163C42.7554 10.6054 43.386 10.6053 43.775 10.2164L43.7783 10.2131C44.6258 9.36946 46.0016 9.37066 46.8478 10.2167C47.258 10.6267 47.4841 11.1719 47.4841 11.7521C47.4841 12.3325 47.258 12.8782 46.8475 13.2888L45.6899 14.4465C45.6876 14.4487 45.6855 14.4509 45.6834 14.453C45.2949 14.8424 45.2954 15.4727 45.6846 15.8613C46.0736 16.2498 46.7039 16.2497 47.0929 15.8609L47.0968 15.8571C47.5046 15.45 48.0486 15.2257 48.6292 15.2257C49.2102 15.2257 49.7557 15.4512 50.1649 15.8605C51.0117 16.7083 51.0118 18.0867 50.1651 18.9334L49.3085 19.7901C48.9196 20.1789 48.9195 20.8093 49.3082 21.1984C49.6968 21.5873 50.3273 21.5878 50.7166 21.1995C51.1276 20.7893 51.6735 20.5634 52.2535 20.5634C52.8335 20.5634 53.3793 20.7893 53.7892 21.1984C54.6359 22.046 54.6359 23.4253 53.7896 24.2725L51.5752 26.4867C51.5715 26.4903 51.5674 26.4934 51.5638 26.4971C51.5601 26.5008 51.557 26.5048 51.5534 26.5085L38.7689 39.2919C37.901 40.1598 36.7472 40.6378 35.5202 40.6378C34.2933 40.6378 33.14 40.1599 32.2725 39.2919L32.0919 39.1112C31.7029 38.7224 31.0722 38.7224 30.6833 39.1112L23.7842 46.0103L16.5543 38.7804C16.1653 38.3915 15.5346 38.3915 15.1457 38.7804C14.7567 39.1695 14.7567 39.8001 15.1457 40.1891L23.2528 48.2963C23.8794 48.9229 23.8794 49.9424 23.2528 50.5688L18.1119 55.7093C17.7229 56.0985 17.7229 56.7291 18.1119 57.1181C18.3063 57.3125 18.5613 57.4097 18.8162 57.4097C19.0711 57.4097 19.3261 57.3125 19.5205 57.1181L24.6612 51.9774C25.8822 50.7564 26.0403 48.8691 25.1364 47.4751L31.4161 41.1953C32.578 42.125 34.0101 42.6298 35.5198 42.6298C37.279 42.6298 38.9331 41.9446 40.177 40.7006L52.2681 28.6105L56.6007 32.9431L44.2185 45.3254L41.6353 42.7422C41.2463 42.3533 40.6155 42.3533 40.2267 42.7422C39.8376 43.1313 39.8376 43.7619 40.2267 44.1509L42.8656 46.7899C42.4893 47.3679 42.2867 48.0422 42.2867 48.7482C42.2867 49.7095 42.6611 50.6133 43.341 51.2932L48.4816 56.434C48.8708 56.823 49.5014 56.8228 49.8902 56.434C50.2792 56.0448 50.2792 55.4142 49.8902 55.0254L44.7496 49.8844C44.4461 49.581 44.2789 49.1775 44.2789 48.7482C44.2789 48.319 44.4461 47.9154 44.7496 47.6119L58.8867 33.4748C59.1903 33.1712 59.5938 33.004 60.023 33.004C60.4523 33.004 60.8559 33.1712 61.1594 33.4748L66.3 38.6154C66.689 39.0043 67.3197 39.0043 67.7086 38.6154C68.0972 38.2259 68.0972 37.5953 67.7082 37.2062ZM25.3803 3.18C25.7368 2.82353 26.2026 2.61767 26.7017 2.58898C26.6852 2.60957 26.6674 2.6287 26.6518 2.64995C26.3068 3.11559 26.1667 3.68734 26.2574 4.2595L26.4297 5.34697C26.6609 6.80711 27.4508 8.0845 28.6535 8.94393C28.7489 9.01206 28.8462 9.07594 28.9448 9.13757C28.5519 9.06041 28.1907 8.86902 27.9011 8.57896L26.515 7.19359L25.3754 6.05406C24.5877 5.25944 24.5893 3.97183 25.3803 3.18ZM18.0205 21.5502C17.2266 22.3442 15.9347 22.3443 15.1406 21.5502L13.5713 19.981C12.7774 19.187 12.7774 17.8951 13.5713 17.101V17.1011C14.3647 16.3076 15.6555 16.3073 16.4495 17.0994L17.4358 18.0857L18.0205 18.6705C18.4052 19.0551 18.617 19.5663 18.617 20.1103C18.617 20.6544 18.4052 21.1656 18.0205 21.5502ZM23.0569 18.0098C22.6723 18.3945 22.161 18.6062 21.617 18.6062C21.0731 18.6062 20.5616 18.3943 20.177 18.0097L18.8444 16.6771L17.8598 15.6924C17.8588 15.6913 17.8576 15.6903 17.8565 15.6892L17.1558 14.9885C16.3618 14.1944 16.3618 12.9025 17.1558 12.1085V12.1086C17.9495 11.3149 19.2407 11.3146 20.0348 12.1077L23.0575 15.1302C23.8507 15.9244 23.8507 17.216 23.0569 18.0098ZM28.3925 14.7686C28.0079 15.1532 27.4964 15.3649 26.9526 15.3649C26.4087 15.3649 25.8972 15.153 25.5126 14.7684L24.4662 13.7221C24.4659 13.7219 24.4657 13.7216 24.4654 13.7213L21.444 10.7C21.4426 10.6985 21.441 10.6972 21.4395 10.6957L20.5053 9.76152C19.7114 8.96744 19.7114 7.67557 20.5053 6.88148V6.88162C21.2993 6.08753 22.5911 6.08753 23.3852 6.88162L23.9615 7.45789C23.965 7.46134 23.9681 7.46506 23.9716 7.46851L25.0642 8.5605L28.3925 11.8886C29.1863 12.6827 29.1863 13.9746 28.3925 14.7686ZM37.1574 5.05385L34.6831 7.52709L32.4338 7.91995C31.508 8.08171 30.5764 7.86974 29.8114 7.32322C29.0464 6.77656 28.5441 5.96415 28.397 5.03552L28.2248 3.94792C28.2167 3.89692 28.2353 3.8588 28.2523 3.83596C28.2693 3.81298 28.3002 3.78416 28.3515 3.77699L36.0476 2.70453C36.1056 2.6963 36.1634 2.69245 36.2209 2.69245C36.6847 2.69245 37.1202 2.94957 37.3401 3.3674L37.8586 4.35247L37.1574 5.05385Z" fill="#FF570F"/>
</svg>
