<svg width="65" height="33" viewBox="0 0 65 33" fill="none" xmlns="http://www.w3.org/2000/svg">
<path d="M49.3134 18.1221C45.438 18.1221 42.2852 21.2749 42.2852 25.1503C42.2852 29.0257 45.438 32.1786 49.3134 32.1786C53.1888 32.1786 56.3417 29.0257 56.3417 25.1503C56.3417 21.2749 53.1887 18.1221 49.3134 18.1221ZM49.3134 30.2032C46.5272 30.2032 44.2604 27.9364 44.2604 25.1502C44.2604 22.364 46.5272 20.0972 49.3134 20.0972C52.0996 20.0972 54.3664 22.364 54.3664 25.1502C54.3664 27.9364 52.0995 30.2032 49.3134 30.2032Z" fill="#FF570F"/>
<path d="M49.3128 21.1426C47.1028 21.1426 45.3047 22.9405 45.3047 25.1507C45.3047 27.3606 47.1026 29.1585 49.3128 29.1585C51.523 29.1585 53.3209 27.3606 53.3209 25.1507C53.3208 22.9405 51.5227 21.1426 49.3128 21.1426ZM49.3128 27.1831C48.192 27.1831 47.2801 26.2713 47.2801 25.1505C47.2801 24.0298 48.1919 23.1178 49.3128 23.1178C50.4337 23.1178 51.3455 24.0297 51.3455 25.1505C51.3454 26.2713 50.4335 27.1831 49.3128 27.1831Z" fill="#FF570F"/>
<path d="M15.0829 18.1221C11.2075 18.1221 8.05469 21.2749 8.05469 25.1503C8.05469 29.0257 11.2075 32.1786 15.0829 32.1786C18.9584 32.1786 22.1112 29.0257 22.1112 25.1503C22.1112 21.2749 18.9584 18.1221 15.0829 18.1221ZM15.0829 30.2032C12.2967 30.2032 10.0299 27.9364 10.0299 25.1502C10.0299 22.364 12.2967 20.0972 15.0829 20.0972C17.8692 20.0972 20.136 22.364 20.136 25.1502C20.136 27.9364 17.8692 30.2032 15.0829 30.2032Z" fill="#FF570F"/>
<path d="M15.0823 21.1426C12.8724 21.1426 11.0742 22.9405 11.0742 25.1507C11.0742 27.3606 12.8721 29.1585 15.0823 29.1585C17.2925 29.1585 19.0904 27.3606 19.0904 25.1507C19.0904 22.9405 17.2923 21.1426 15.0823 21.1426ZM15.0823 27.1831C13.9616 27.1831 13.0496 26.2713 13.0496 25.1505C13.0496 24.0298 13.9614 23.1178 15.0823 23.1178C16.2032 23.1178 17.115 24.0297 17.115 25.1505C17.115 26.2713 16.2031 27.1831 15.0823 27.1831Z" fill="#FF570F"/>
<path d="M41.2582 24.1631H23.1367V26.1385H41.2582V24.1631Z" fill="#FF570F"/>
<path d="M62.3816 22.1492V22.149V12.0813H45.8142L37.7599 0H19.5878L11.5335 12.0813H8.01594V4.00797H6.0407V12.0813H2.01361V22.149H0V28.1515H7.00914V22.149H3.98898V20.0972H9.02287V15.1017H3.98898V14.0566H23.1367V12.0813H13.9076L20.6449 1.97525H36.7029L43.4402 12.0813H26.1379V3.00117H24.1625V14.0566H60.4063V15.1017H55.3724V20.0973H60.4063V22.1492H57.386V28.1516H64.3952V22.1492H62.3816ZM5.03389 24.1244V26.1763H1.97537V24.1244H5.03389ZM7.04737 17.077V18.1221H3.98898V17.077H7.04737ZM57.3478 18.1221V17.077H60.4063V18.1221H57.3478ZM62.4198 26.1763H59.3613V24.1244H62.4198V26.1763Z" fill="#FF570F"/>
</svg>
