<svg width="51" height="51" viewBox="0 0 51 51" fill="none" xmlns="http://www.w3.org/2000/svg">
<path d="M0.74707 10.6582C1.15975 10.6582 1.49414 10.3237 1.49414 9.91113V1.49414H9.91113C10.8748 1.49414 10.8748 0 9.91113 0H0.74707C0.334388 0 0 0.334488 0 0.74707V9.91113C0 10.3237 0.334388 10.6582 0.74707 10.6582Z" fill="#FF570F"/>
<path d="M9.91113 49.5059H1.49414V41.0889C1.49414 40.1253 0 40.1253 0 41.0889V50.253C0 50.6656 0.334388 51.0001 0.74707 51.0001H9.91113C10.8748 51.0001 10.8748 49.5059 9.91113 49.5059Z" fill="#FF570F"/>
<path d="M50.252 40.3418C49.8393 40.3418 49.5049 40.6763 49.5049 41.0889V49.5059H41.0879C40.1243 49.5059 40.1243 51 41.0879 51H50.252C50.6647 51 50.9991 50.6655 50.9991 50.2529V41.0889C50.9991 40.6763 50.6647 40.3418 50.252 40.3418Z" fill="#FF570F"/>
<path d="M50.252 0H41.0879C40.1243 0 40.1243 1.49414 41.0879 1.49414H49.5049V9.91113C49.5049 10.8748 50.9991 10.8748 50.9991 9.91113V0.74707C50.9991 0.334488 50.6647 0 50.252 0Z" fill="#FF570F"/>
<path d="M39.6748 26.2472H43.7286C44.6923 26.2472 44.6923 24.7531 43.7286 24.7531H39.6727C39.5379 22.154 38.7028 19.6631 37.2327 17.5087C36.6895 16.7127 35.4553 17.5549 35.9985 18.3509C37.2986 20.256 38.0432 22.4558 38.1765 24.753H34.2657C33.3021 24.753 33.3021 26.2471 34.2657 26.2471H38.1777C37.8041 32.6563 32.6564 37.804 26.2472 38.1776V34.2658C26.2472 33.3021 24.7531 33.3021 24.7531 34.2658V38.1777C18.3439 37.8041 13.1962 32.6564 12.8225 26.2472H16.7345C17.6982 26.2472 17.6982 24.7531 16.7345 24.7531H12.8225C13.1962 18.3439 18.3439 13.1962 24.7531 12.8226V16.7345C24.7531 17.6981 26.2472 17.6981 26.2472 16.7345V12.8238C28.8544 12.9727 31.302 13.8981 33.3653 15.5278C34.1213 16.1253 35.0476 14.9526 34.2913 14.3553C31.9616 12.5152 29.1941 11.4759 26.2472 11.3256V7.27162C26.2472 6.3079 24.7531 6.3079 24.7531 7.27162V11.3254C17.5196 11.7023 11.7023 17.5196 11.3254 24.7531H7.27162C6.3079 24.7531 6.3079 26.2472 7.27162 26.2472H11.3254C11.7023 33.4806 17.5196 39.2979 24.7531 39.6749V43.7287C24.7531 44.6923 26.2472 44.6923 26.2472 43.7287V39.6749C33.4806 39.2979 39.2979 33.4806 39.6748 26.2472Z" fill="#FF570F"/>
<path d="M25.499 24.7529C24.5376 24.7529 24.536 26.2471 25.499 26.2471C26.4604 26.2471 26.462 24.7529 25.499 24.7529Z" fill="#FF570F"/>
</svg>
