<svg width="52" height="52" viewBox="0 0 52 52" fill="none" xmlns="http://www.w3.org/2000/svg">
<path d="M31.5092 1.625H20.4909C15.4873 1.62502 10.6887 3.61267 7.1507 7.15071C3.61267 10.6887 1.62503 15.4873 1.62502 20.4909C1.62279 21.3141 1.78385 22.1297 2.09889 22.8903C2.41393 23.6509 2.87669 24.3414 3.46039 24.922C4.05839 25.5232 4.76969 25.9999 5.55312 26.3244C6.33656 26.6489 7.17657 26.8148 8.02455 26.8125H11.375V25.1875H8.02455C7.39006 25.1892 6.76153 25.0651 6.17534 24.8223C5.58915 24.5795 5.05694 24.2228 4.60951 23.7729C4.17716 23.3429 3.83439 22.8314 3.60103 22.2681C3.36768 21.7047 3.24837 21.1007 3.25002 20.4909C3.25002 20.4313 3.25141 20.3719 3.25201 20.3124H6.1635L8.36296 22.5119L9.51209 21.3628L7.07458 18.9253C6.9222 18.773 6.71552 18.6874 6.50002 18.6874H3.34563C3.49184 17.3004 3.80571 15.9363 4.28038 14.6249H10.9688L12.7397 16.9862L10.8005 18.9255L11.9496 20.0745L14.1491 17.875H17.0625V16.25H14.2188L12.0251 13.3249C11.9494 13.224 11.8512 13.142 11.7384 13.0856C11.6256 13.0292 11.5012 12.9998 11.375 12.9999H4.96414C5.52163 11.8439 6.20651 10.7538 7.00605 9.74985H14.2188L16.4125 12.6748C16.4882 12.7757 16.5863 12.8577 16.6991 12.9141C16.812 12.9705 16.9364 12.9998 17.0625 12.9999H24.375V11.3749H21.125V8.5311L24.05 6.33734C24.1509 6.26167 24.2328 6.16353 24.2892 6.05071C24.3457 5.93789 24.375 5.81349 24.375 5.68735V3.25H28.4375V6.49985C28.4375 6.71533 28.5231 6.92199 28.6755 7.07436L31.113 9.51186L32.2621 8.36284L30.0625 6.16328V3.25H31.5092C32.6606 3.2503 33.8091 3.36576 34.9375 3.59466V8.12485H36.5625V4.00546C37.9913 4.44348 39.357 5.06575 40.625 5.85657V9.74985H38.1875C37.972 9.74985 37.7653 9.83546 37.613 9.98784L33.5148 14.086L31.4992 11.6672C31.4229 11.5757 31.3275 11.5021 31.2196 11.4516C31.1118 11.401 30.9941 11.3749 30.875 11.3749H27.625V12.9999H30.4945L34.125 17.3565V25.1875H30.0625V20.3125C30.0625 20.1521 30.015 19.9953 29.926 19.8618L28.301 17.4243L26.949 18.3257L28.4375 20.5585V25.1875H26V26.8125H43.9755C44.8235 26.8148 45.6635 26.6489 46.4469 26.3244C47.2304 25.9999 47.9417 25.5232 48.5397 24.9219C49.1234 24.3414 49.5861 23.6508 49.9012 22.8902C50.2162 22.1297 50.3773 21.3141 50.375 20.4909C50.375 15.4874 48.3873 10.6888 44.8493 7.15073C41.3113 3.6127 36.5127 1.62504 31.5092 1.625ZM22.75 5.2811L19.825 7.47486C19.7241 7.55054 19.6422 7.64867 19.5858 7.76149C19.5294 7.87431 19.5 7.99871 19.5 8.12485V11.3749H17.4688L15.2751 8.44987C15.1994 8.34896 15.1012 8.26705 14.9884 8.21064C14.8756 8.15423 14.7512 8.12486 14.625 8.12485H8.47883C11.6948 4.99701 16.0047 3.24794 20.4909 3.25H22.75V5.2811ZM47.3906 23.7729C46.9432 24.2228 46.4109 24.5794 45.8247 24.8223C45.2385 25.0651 44.61 25.1892 43.9755 25.1875H35.75V20.3124H38.1875C38.3137 20.3123 38.4381 20.283 38.5509 20.2266C38.6637 20.1701 38.7619 20.0882 38.8376 19.9873L41.0313 17.0624H44.6875V15.4374H40.625C40.4989 15.4374 40.3745 15.4667 40.2617 15.5232C40.1488 15.5796 40.0507 15.6615 39.975 15.7624L37.7813 18.6874H35.75V17.0624C35.75 16.8723 35.6834 16.6882 35.5617 16.5422L34.5594 15.3395L38.524 11.3749H41.4375C41.653 11.3749 41.8597 11.2892 42.012 11.1369C42.1644 10.9845 42.25 10.7778 42.25 10.5624V7.00335C44.1463 8.51453 45.7027 10.4086 46.8176 12.5618C47.9325 14.7151 48.5809 17.0792 48.7204 19.5H43.875C43.6595 19.5 43.4528 19.5856 43.3005 19.738L40.863 22.1755L42.0121 23.3245L44.2115 21.125H48.7063C48.5706 22.1282 48.1082 23.0588 47.3906 23.7729Z" fill="#FF570F"/>
<path d="M31.9832 46.127C32.1251 46.2439 32.3025 46.3093 32.4863 46.3124C32.6702 46.3155 32.8497 46.2561 32.9954 46.144L43.5579 38.019C43.6495 37.9485 43.7251 37.8593 43.7794 37.7574C43.8338 37.6554 43.8658 37.543 43.8733 37.4277C43.8808 37.3123 43.8636 37.1967 43.8229 37.0886C43.7822 36.9804 43.7188 36.8822 43.6371 36.8005L42.5865 35.75L45.2621 33.0745C45.3662 32.9704 45.44 32.8399 45.4757 32.6971L46.2882 29.4471C46.3182 29.3273 46.3204 29.2023 46.2948 29.0815C46.2692 28.9607 46.2164 28.8473 46.1404 28.75C46.0645 28.6527 45.9673 28.5739 45.8563 28.5198C45.7453 28.4656 45.6235 28.4375 45.5 28.4375H35.75C35.5795 28.4375 35.4133 28.4912 35.2749 28.5909C35.1366 28.6906 35.0331 28.8313 34.9792 28.9931L34.1667 31.4306C34.119 31.5737 34.1121 31.7273 34.1467 31.8742C34.1814 32.021 34.2563 32.1553 34.363 32.262L35.4897 33.3887L33.475 36.075C33.3741 36.2095 33.3175 36.3719 33.3128 36.54C33.3082 36.708 33.3557 36.8733 33.449 37.0132L34.8125 39.0584L31.7733 45.1366C31.6911 45.3011 31.667 45.4886 31.7052 45.6685C31.7433 45.8484 31.8413 46.01 31.9832 46.127ZM36.4767 39.3634C36.5408 39.2352 36.5699 39.0925 36.561 38.9495C36.5521 38.8066 36.5055 38.6685 36.4261 38.5493L35.1199 36.5901L37.2126 33.8C37.3299 33.6435 37.3869 33.45 37.373 33.2549C37.3591 33.0598 37.2754 32.8763 37.1371 32.738L35.8672 31.4681L36.3356 30.0625H44.4594L43.9539 32.0846L40.863 35.1755C40.7106 35.3279 40.625 35.5345 40.625 35.75C40.625 35.9655 40.7106 36.1721 40.863 36.3245L41.8337 37.2952L34.8091 42.6987L36.4767 39.3634Z" fill="#FF570F"/>
<path d="M20.7187 20.3127H17.0625V21.9377H21.125C21.2511 21.9377 21.3755 21.9083 21.4884 21.8519C21.6012 21.7955 21.6993 21.7136 21.775 21.6127L24.2125 18.3627L22.9124 17.3877L20.7187 20.3127Z" fill="#FF570F"/>
<path d="M10.4263 27.9863L9.07422 28.8877L11.5673 32.6273C12.1723 33.542 12.4866 34.6182 12.4689 35.7148C12.4513 36.8113 12.1024 37.8768 11.4682 38.7715C10.9105 39.5549 10.5187 40.444 10.3169 41.3842C10.1151 42.3245 10.1075 43.296 10.2947 44.2393L11.391 49.7213C11.4279 49.9055 11.5274 50.0712 11.6726 50.1903C11.8179 50.3094 11.9999 50.3745 12.1877 50.3745H15.4377C15.5826 50.3745 15.7249 50.3357 15.8498 50.2622C15.9747 50.1888 16.0776 50.0832 16.148 49.9566L17.9572 46.7001C19.3534 44.1843 21.4362 42.1176 23.9627 40.7409C27.2696 38.9284 29.9027 36.0965 31.4702 32.6667L33.2399 28.7732L31.7605 28.1008L30.8691 30.062H26.0002V31.687H30.1305L29.9908 31.9942C29.654 32.7339 29.26 33.4462 28.8123 34.1245H21.9377V35.7495H27.5856C26.8029 36.6585 25.9201 37.4762 24.9538 38.187H19.5002V39.812H22.3369C21.2281 40.503 20.2038 41.321 19.2847 42.2495H13.8127V43.8745H17.8699C17.3769 44.5203 16.9314 45.2008 16.5367 45.9109L14.9597 48.7495H12.8538L11.8881 43.9206C11.7442 43.1952 11.75 42.4481 11.9052 41.7251C12.0604 41.0021 12.3616 40.3184 12.7905 39.716C13.6152 38.5525 14.0689 37.1669 14.0919 35.7409C14.1149 34.315 13.7061 32.9154 12.9193 31.7259L10.4263 27.9863Z" fill="#FF570F"/>
</svg>
