<svg width="57" height="55" viewBox="0 0 57 55" fill="none" xmlns="http://www.w3.org/2000/svg">
<path d="M49.4966 37.0934L44.128 44.8066L40.3395 41.6973C39.9299 41.3606 39.3264 41.422 38.9897 41.8297C38.653 42.2394 38.7125 42.8447 39.1231 43.1795L43.7145 46.9488C43.8872 47.0908 44.1021 47.1676 44.3228 47.1676C44.3659 47.1676 44.4101 47.1647 44.4542 47.158C44.719 47.1215 44.9569 46.9757 45.1104 46.756L51.0718 38.1899C51.374 37.7553 51.2675 37.1577 50.832 36.8545C50.3955 36.5485 49.7988 36.6578 49.4966 37.0934Z" fill="#FF570F"/>
<path d="M48.054 30.4143L54.1219 24.3627V10.7965L43.4587 0.158203H30.023L29.2948 0.884434L5.75612 24.3464L5.7638 24.3541L0 30.1025L24.1249 54.2792L32.5633 45.8628C34.0791 51.0433 38.8644 54.8414 44.5274 54.8414C51.4041 54.8414 56.999 49.2464 56.999 42.3698C57 36.7182 53.2182 31.9397 48.054 30.4143ZM42.6653 2.07691L52.2032 11.5927V23.5655L45.7852 29.9615C45.695 29.9519 45.6019 29.9548 45.5108 29.9471C45.4398 29.9413 45.3678 29.9346 45.2978 29.9289C45.2431 29.925 45.1846 29.9183 45.1309 29.9145C44.9246 29.903 44.7251 29.8962 44.5284 29.8962C37.6518 29.8962 32.0568 35.4912 32.0568 42.3678C32.0568 42.5588 32.0626 42.7525 32.0741 42.954C32.0779 43.0231 32.0865 43.0979 32.0913 43.1689C32.0961 43.2313 32.1009 43.2955 32.1067 43.3608C32.1124 43.4337 32.1105 43.5095 32.1182 43.5824L29.8848 45.809L8.47781 24.3579L30.8164 2.07691H42.6653ZM2.71401 30.1063L7.11936 25.7125L28.5331 47.1723L24.1277 51.5661L2.71401 30.1063ZM44.5284 52.9227C39.2049 52.9227 34.8015 48.9567 34.0878 43.827L34.0849 43.8078C34.0638 43.6534 34.0532 43.52 34.0379 43.378C34.0302 43.308 34.0206 43.2322 34.0148 43.1651C33.9947 42.9012 33.9746 42.6384 33.9746 42.3698C33.9746 36.5513 38.709 31.8169 44.5274 31.8169C44.797 31.8169 45.0618 31.837 45.3266 31.8572C45.3688 31.861 45.4168 31.8677 45.4599 31.8716C45.6326 31.8888 45.8015 31.9042 45.9933 31.931L46.0173 31.9339C51.1316 32.6621 55.0803 37.0578 55.0803 42.3688C55.0813 48.1892 50.3469 52.9227 44.5284 52.9227Z" fill="#FF570F"/>
<path d="M40.7057 16.3421C42.7875 16.3421 44.4808 14.6488 44.4808 12.567C44.4808 10.4852 42.7875 8.79102 40.7057 8.79102C38.6239 8.79102 36.9297 10.4852 36.9297 12.567C36.9297 14.6488 38.6239 16.3421 40.7057 16.3421ZM40.7057 10.7107C41.7293 10.7107 42.5621 11.5434 42.5621 12.568C42.5621 13.5907 41.7293 14.4243 40.7057 14.4243C39.6821 14.4243 38.8484 13.5916 38.8484 12.568C38.8484 11.5434 39.6811 10.7107 40.7057 10.7107Z" fill="#FF570F"/>
</svg>
