<svg width="57" height="49" viewBox="0 0 57 49" fill="none" xmlns="http://www.w3.org/2000/svg">
<path d="M40.5394 32.6182H15.8555V34.3565H40.5394V32.6182Z" fill="#FF570F"/>
<path d="M32.6066 28.21H23.791V29.9483H32.6066V28.21Z" fill="#FF570F"/>
<path d="M32.6066 24.6836H23.791V26.4219H32.6066V24.6836Z" fill="#FF570F"/>
<path d="M32.6066 21.1562H23.791V22.8946H32.6066V21.1562Z" fill="#FF570F"/>
<path d="M1.73835 34.3555H12.3296V32.6172H0V39.6449H2.64464V48.4606H12.317V39.6449H21.1451V37.9066H1.73835V34.3555ZM4.38299 39.6449H10.5788V46.7222H4.38299V39.6449Z" fill="#FF570F"/>
<path d="M44.0658 32.6172V34.3555H54.657V37.9067H35.25V39.645H44.0781V48.4607H53.7505V39.645H56.3951V32.6173H44.0658V32.6172ZM52.0122 46.7222H45.8164V39.6449H52.0122V46.7222Z" fill="#FF570F"/>
<path d="M22.0152 21.1572H6.17188V29.9481H22.0153V21.1572H22.0152ZM10.5798 28.2097H7.91011V22.8956H10.5796V28.2097H10.5798ZM20.2769 28.2097H12.3179V22.8956H20.2769V28.2097Z" fill="#FF570F"/>
<path d="M50.2241 21.1572H34.3809V29.9481H50.2243V21.1572H50.2241ZM44.0781 28.2097H36.1191V22.8956H44.0781V28.2097ZM48.486 28.2097H45.8165V22.8956H48.486V28.2097Z" fill="#FF570F"/>
<path d="M3.51381 14.0802C4.54391 14.0802 5.4718 13.6346 6.11517 12.926L7.54907 16.7497H2.64464V31.7239H4.38299V18.4879H52.0125V31.7238H53.7509V16.7496H48.8464L50.2803 12.9259C50.9236 13.6345 51.8517 14.08 52.8817 14.08C54.8192 14.08 56.3955 12.5037 56.3955 10.5662C56.3955 8.62873 54.8194 7.05241 52.8818 7.05241C51.4118 7.05241 50.1504 7.96014 49.6269 9.24446L49.6265 9.24401L49.6215 9.25811C49.583 9.35405 49.5481 9.45186 49.5179 9.55177L47.9156 14.0923L45.6906 0H10.7052L8.48014 14.0927L6.88003 9.55959C6.84798 9.45253 6.81075 9.34766 6.769 9.24501L6.76867 9.24401C6.24514 7.96025 4.98373 7.05263 3.51392 7.05263C1.57632 7.05241 0 8.62873 0 10.5662C0 12.5037 1.57632 14.0802 3.51381 14.0802ZM52.8816 8.79076C53.8606 8.79076 54.6571 9.58723 54.6571 10.5662C54.6571 11.5452 53.8606 12.3417 52.8816 12.3417C51.9026 12.3417 51.1061 11.5453 51.1061 10.5662C51.1061 9.58712 51.9026 8.79076 52.8816 8.79076ZM12.1906 1.73824H27.3285V3.52626H25.553V5.26461H30.8424V3.52626H29.0669V1.73824H44.2048L46.5751 16.7498H9.82031L12.1906 1.73824ZM3.51381 8.79076C4.49281 8.79076 5.28928 9.58723 5.28928 10.5662C5.28928 11.5452 4.49281 12.3417 3.51381 12.3417C2.53482 12.3417 1.73835 11.5453 1.73835 10.5662C1.73835 9.58712 2.53482 8.79076 3.51381 8.79076Z" fill="#FF570F"/>
<path d="M22.0391 43.1723H34.3562V36.1445H22.0391V43.1723ZM23.7774 37.8829H32.618V41.434H23.7774V37.8829Z" fill="#FF570F"/>
</svg>
