<svg width="65" height="60" viewBox="0 0 65 60" fill="none" xmlns="http://www.w3.org/2000/svg">
<path d="M29.3163 11.9755H31.3466V10.0226H29.3163V7.96651H31.3466V6.01353H29.3163V1.95286H31.6253L38.4306 24.3127L40.2987 23.7442L33.0721 0H27.3633V24.0285H29.3163V11.9755Z" fill="#FF570F"/>
<path d="M59.8317 31.0883L55.2576 26.5142C54.3178 25.5744 53.0684 25.057 51.7395 25.057H12.8642L10.6112 21.1949L10.6217 21.1969L12.471 11.0254H7.54845L6.63421 14.3775L5.84814 13.0299H0.301978V30.4745L1.71226 31.7565L0 38.0348H4.96899L5.87568 35.5415L11.9257 41.0416H27.3629V59.0823H33.0718L38.5625 41.0416H59.8656C62.3632 41.0416 64.3952 39.0096 64.3952 36.5122V36.0561C64.3952 33.4491 62.3841 31.3032 59.8317 31.0883ZM9.0401 12.9781H10.131L9.10613 18.6148L8.01355 16.7417L9.0401 12.9781ZM3.60123 36.0819H2.55682L5.031 27.0099H6.90022L3.60123 36.0819ZM12.6807 39.0887L11.5213 38.0348H27.3629V39.0887H12.6807ZM38.4303 34.7696L31.6251 57.1296H29.316V53.0689H31.3464V51.116H29.316V49.0599H31.3464V47.1071H29.316V34.0516H27.3632V36.0819H9.37327L6.59698 33.558L9.68846 25.057H3.53947L2.28905 29.6416L2.25496 29.6106V14.9827H4.72663L11.7426 27.0099H51.7396C52.547 27.0099 53.306 27.3243 53.8769 27.8952L56.0501 30.0684H52.3938V32.0212H58.003L58.1013 32.1195L54.9314 36.0819H40.072L40.2984 35.3381L38.4303 34.7696ZM59.8656 39.0887H39.1569L39.4778 38.0348H55.8699L59.8527 33.0561C61.3157 33.2712 62.4422 34.5343 62.4422 36.056V36.5122H62.4423C62.4423 37.9329 61.2865 39.0887 59.8656 39.0887Z" fill="#FF570F"/>
</svg>
