<svg width="65" height="59" viewBox="0 0 65 59" fill="none" xmlns="http://www.w3.org/2000/svg">
<path d="M19.1022 38.2402C15.228 38.2402 12.0762 41.3922 12.0762 45.2664C12.0762 49.1405 15.228 52.2923 19.1022 52.2923C22.9763 52.2923 26.1282 49.1405 26.1282 45.2664C26.1282 41.3922 22.9763 38.2402 19.1022 38.2402ZM19.1022 50.3162C16.3176 50.3162 14.0523 48.0508 14.0523 45.2664C14.0523 42.4816 16.3177 40.2164 19.1022 40.2164C21.8866 40.2164 24.152 42.4818 24.152 45.2664C24.152 48.0508 21.8866 50.3162 19.1022 50.3162Z" fill="#FF570F"/>
<path d="M19.1008 41.2598C16.8913 41.2598 15.0938 43.0573 15.0938 45.2669C15.0938 47.4762 16.8913 49.2738 19.1008 49.2738C21.3104 49.2738 23.1079 47.4763 23.1079 45.2669C23.1079 43.0573 21.3103 41.2598 19.1008 41.2598ZM19.1008 47.2977C17.981 47.2977 17.0699 46.3866 17.0699 45.2669C17.0699 44.147 17.981 43.2359 19.1008 43.2359C20.2207 43.2359 21.1318 44.147 21.1318 45.2669C21.1318 46.3866 20.2207 47.2977 19.1008 47.2977Z" fill="#FF570F"/>
<path d="M45.2852 50.2975C45.2852 51.9521 46.6312 53.2981 48.2857 53.2981C49.9402 53.2981 51.2864 51.9519 51.2864 50.2975C51.2864 48.6431 49.9401 47.2969 48.2857 47.2969C46.6313 47.2969 45.2852 48.643 45.2852 50.2975ZM49.3104 50.2974C49.3104 50.8623 48.8508 51.322 48.2857 51.322C47.7209 51.322 47.2612 50.8624 47.2612 50.2974C47.2612 49.7324 47.7207 49.2727 48.2857 49.2727C48.8508 49.2727 49.3106 49.7324 49.3104 50.2974Z" fill="#FF570F"/>
<path d="M18.0948 29.1836H16.082V31.1596H18.0948V29.1836Z" fill="#FF570F"/>
<path d="M14.0713 29.1836H12.0586V31.1596H14.0713V29.1836Z" fill="#FF570F"/>
<path d="M10.0458 29.1836H8.0332V31.1596H10.0458V29.1836Z" fill="#FF570F"/>
<path d="M6.03765 22.1387H5.01312V24.1148H9.03832V22.1387H8.01365V19.6986L5.71178 17.3965L4.31445 18.7939L6.03765 20.517V22.1387Z" fill="#FF570F"/>
<path d="M13.0826 22.1387H12.0578V24.1148H16.0832V22.1387H15.0587V19.6986L12.7564 17.3965L11.3594 18.7939L13.0826 20.517V22.1387Z" fill="#FF570F"/>
<path d="M61.3494 16.127V0H58.3488C53.6989 0 49.8591 3.53004 49.3652 8.05066H47.093C46.6836 6.88022 45.5688 6.03793 44.2602 6.03793C42.6056 6.03793 41.2596 7.38419 41.2596 9.03859C41.2596 9.89346 41.6195 10.6655 42.1952 11.2124L38.204 27.177V13.0822H19.1202V25.1581H0V51.2861H7.51009C9.69072 55.4681 14.0681 58.3303 19.102 58.3303C24.1357 58.3303 28.5132 55.4681 30.6939 51.2861H40.3163C40.805 55.2503 44.1913 58.3303 48.2856 58.3303C52.7146 58.3303 56.318 54.7271 56.318 50.298C56.318 48.8318 55.9212 47.4572 55.2321 46.2727H55.3117V29.1835H52.2927H51.3046H39.7394L44.0278 12.0293C44.1047 12.0352 44.1819 12.0393 44.2604 12.0393C45.5688 12.0393 46.6837 11.1972 47.0931 10.0267H49.3653C49.8592 14.5474 53.6984 18.0773 58.3405 18.0773L64.3785 18.129L64.3954 16.153L61.3494 16.127ZM37.1682 39.4681L37.5977 37.75C37.9923 38.1207 38.2404 38.6455 38.2404 39.2284C38.2404 40.3482 37.3293 41.2593 36.2096 41.2593C35.0897 41.2593 34.1786 40.3482 34.1786 39.2284C34.1786 38.2917 34.8169 37.5034 35.6808 37.2698L35.2511 38.9888L37.1682 39.4681ZM30.1469 46.2107L28.1928 45.8662L27.8495 47.8122L29.8052 48.1569C29.6391 48.7709 29.4216 49.3638 29.1573 49.931L27.4394 48.9392L26.4513 50.6505L28.166 51.6404C27.8022 52.1561 27.3978 52.6409 26.9538 53.0869L25.6802 51.5691L24.1666 52.8394L25.4394 54.3563C24.925 54.7162 24.3792 55.0337 23.8063 55.3034L23.1279 53.4391L21.2709 54.115L21.9503 55.9814C21.3485 56.1415 20.7267 56.2517 20.0898 56.3088V54.2391H18.1138V56.3088C17.477 56.2517 16.8552 56.1417 16.2532 55.9814L16.9327 54.115L15.0756 53.4391L14.3971 55.3035C13.8242 55.0339 13.2785 54.7163 12.7641 54.3564L14.0369 52.8395L12.5232 51.5692L11.2498 53.0869C10.8057 52.6409 10.4012 52.1561 10.0376 51.6404L11.7522 50.6505L10.7642 48.9392L9.04627 49.931C8.78202 49.3638 8.56443 48.771 8.39842 48.1569L10.354 47.8122L10.0108 45.8662L8.05669 46.2107C8.03016 45.8992 8.01355 45.5847 8.01355 45.2664C8.01355 44.9481 8.03016 44.6337 8.05669 44.3221L10.0108 44.6666L10.354 42.7207L8.39842 42.3758C8.56443 41.7617 8.78202 41.1689 9.04627 40.6017L10.7642 41.5935L11.7522 39.8822L10.0375 38.8923C10.4012 38.3766 10.8057 37.8918 11.2497 37.4458L12.5232 38.9635L14.0369 37.6932L12.764 36.1763C13.2784 35.8164 13.8241 35.4987 14.397 35.2292L15.0755 37.0936L16.9325 36.4177L16.2531 34.5513C16.8549 34.3912 17.4766 34.2815 18.1137 34.225V36.2097H20.0897V34.225C20.7266 34.2815 21.3484 34.3912 21.9502 34.5513L21.2708 36.4177L23.1278 37.0936L23.8063 35.2292C24.3792 35.4988 24.925 35.8164 25.4394 36.1763L24.1664 37.6932L25.6801 38.9635L26.9537 37.4458C27.3978 37.8918 27.8021 38.3765 28.1659 38.8923L26.4511 39.8822L27.4391 41.5935L29.1571 40.6017C29.4213 41.1689 29.6389 41.7618 29.8049 42.3758L27.8493 42.7207L28.1925 44.6666L30.1466 44.3221C30.1732 44.6337 30.1898 44.9481 30.1898 45.2664C30.1898 45.5847 30.1733 45.8992 30.1469 46.2107ZM52.2924 31.1595H53.3353V44.0579C53.0079 43.7924 52.6592 43.5532 52.2924 43.3411V31.1595ZM51.3677 45.0877L50.1161 46.5793L51.6297 47.8496L52.8801 46.3594C53.3635 46.9225 53.7455 47.5743 53.9971 48.2877L52.0778 48.6262L52.4211 50.5721L54.34 50.2338C54.3402 50.2553 54.3416 50.2765 54.3416 50.298C54.3416 51.048 54.2035 51.7662 53.9532 52.4295L52.2652 51.4549L51.2772 53.1661L52.9633 54.1397C52.489 54.7162 51.9099 55.2025 51.2563 55.5722L50.5903 53.7426L48.7333 54.4185L49.3998 56.2494C49.0382 56.317 48.6659 56.3541 48.2851 56.3541C47.9042 56.3541 47.5319 56.3171 47.1705 56.2494L47.8369 54.4185L45.9799 53.7426L45.314 55.5722C44.6604 55.2025 44.0811 54.7162 43.607 54.1396L45.293 53.166L44.3049 51.4548L42.617 52.4294C42.3667 51.7659 42.2287 51.0479 42.2287 50.2979C42.2287 50.2763 42.23 50.2552 42.2303 50.2337L44.1492 50.572L44.4924 48.626L42.5731 48.2876C42.8251 47.5742 43.2068 46.9222 43.6901 46.3592L44.9407 47.8496L46.4543 46.5793L45.2027 45.0877C45.8359 44.7116 46.5431 44.448 47.2969 44.3236V46.2727H49.273V44.3236C50.0274 44.448 50.7344 44.7116 51.3677 45.0877ZM50.3164 31.1595V33.2088H47.279V35.1848H50.3164V38.2403H47.279V40.2163H50.3164V42.5264C49.6673 42.3567 48.9869 42.2656 48.2854 42.2656C44.1912 42.2656 40.805 45.3457 40.3162 49.31H31.5247C31.9404 48.036 32.1661 46.6772 32.1661 45.2664C32.1661 38.0628 26.3057 32.2024 19.1021 32.2024C11.8985 32.2024 6.03805 38.0628 6.03805 45.2664C6.03805 46.6772 6.26369 48.0362 6.67949 49.31H1.976V31.1595H6.01957V29.1835H1.976V27.1343H21.0962V15.0583H36.2277V17.1076H23.1455V23.3299L25.6542 29.1835H20.1082V31.1595H37.2082L36.1926 35.2219C33.9907 35.2311 32.2024 37.0246 32.2024 39.2285C32.2024 41.438 33.9999 43.2356 36.2095 43.2356C38.4189 43.2356 40.2164 41.438 40.2164 39.2285C40.2164 37.7063 39.3631 36.3796 38.1096 35.7017L39.2452 31.1596H50.3164V31.1595ZM36.2278 19.0836V29.1835H27.8041L25.1217 22.9244V19.0836H36.2278ZM44.2602 10.0631C43.6953 10.0631 43.2356 9.60356 43.2356 9.03859C43.2356 8.47363 43.6953 8.01393 44.2602 8.01393C44.8251 8.01393 45.2848 8.47363 45.2848 9.03859C45.2848 9.60356 44.8252 10.0631 44.2602 10.0631ZM59.3734 16.11L58.3488 16.1013C54.79 16.1012 51.8389 13.4547 51.3567 10.0267H53.3171V8.05066H51.3567C51.8389 4.62262 54.7897 1.97613 58.3488 1.97613H59.3734V16.11Z" fill="#FF570F"/>
</svg>
