<svg width="19" height="19" viewBox="0 0 19 19" fill="none" xmlns="http://www.w3.org/2000/svg">
<path d="M4.5 1L5.25258 0.341495C5.07032 0.133205 4.80989 0.00976419 4.53328 0.000553846C4.25666 -0.0086565 3.9886 0.0971876 3.79289 0.292893L4.5 1ZM8 5L8.70711 5.70711C9.07937 5.33484 9.09926 4.7377 8.75258 4.3415L8 5ZM6 7L5.29289 6.29289C5.10003 6.48576 4.99431 6.74903 5.00024 7.02172C5.00616 7.29441 5.12321 7.55285 5.32428 7.73715L6 7ZM12 12.5L11.3243 13.2372C11.7189 13.5989 12.3285 13.5857 12.7071 13.2071L12 12.5ZM14 10.5L14.6585 9.74742C14.2623 9.40074 13.6652 9.42063 13.2929 9.79289L14 10.5ZM18 14L18.7526 14.6585C19.1163 14.2429 19.0741 13.6111 18.6585 13.2474L18 14ZM14.5 18L14.2691 18.973C14.6299 19.0586 15.0084 18.9375 15.2526 18.6585L14.5 18ZM4.5 13L3.74318 13.6536L4.5 13ZM1 4.5L0.292893 3.79289C0.0565957 4.02919 -0.0460516 4.3679 0.0193209 4.69562L1 4.5ZM3.74742 1.6585L7.24742 5.6585L8.75258 4.3415L5.25258 0.341495L3.74742 1.6585ZM7.29289 4.29289L5.29289 6.29289L6.70711 7.70711L8.70711 5.70711L7.29289 4.29289ZM5.32428 7.73715L11.3243 13.2372L12.6757 11.7628L6.67572 6.26285L5.32428 7.73715ZM12.7071 13.2071L14.7071 11.2071L13.2929 9.79289L11.2929 11.7929L12.7071 13.2071ZM13.3415 11.2526L17.3415 14.7526L18.6585 13.2474L14.6585 9.74742L13.3415 11.2526ZM17.2474 13.3415L13.7474 17.3415L15.2526 18.6585L18.7526 14.6585L17.2474 13.3415ZM14.5 18C14.7309 17.027 14.731 17.027 14.7311 17.0271C14.7311 17.0271 14.7312 17.0271 14.7312 17.0271C14.7312 17.0271 14.7311 17.0271 14.7309 17.027C14.7305 17.0269 14.7296 17.0267 14.7283 17.0264C14.7258 17.0258 14.7216 17.0248 14.7157 17.0233C14.7039 17.0205 14.6856 17.016 14.661 17.0099C14.6118 16.9976 14.5378 16.9788 14.4415 16.9535C14.249 16.9029 13.9683 16.8264 13.6215 16.7242C12.9269 16.5195 11.9726 16.2132 10.9339 15.8077C8.80964 14.9781 6.5123 13.8001 5.25682 12.3464L3.74318 13.6536C5.34154 15.5044 8.04419 16.8263 10.2064 17.6707C11.3111 18.102 12.3217 18.4262 13.0561 18.6426C13.4239 18.751 13.7237 18.8328 13.9332 18.8878C14.038 18.9154 14.1202 18.9362 14.1771 18.9504C14.2056 18.9575 14.2277 18.963 14.2431 18.9667C14.2509 18.9686 14.2569 18.9701 14.2613 18.9711C14.2634 18.9716 14.2652 18.972 14.2665 18.9724C14.2672 18.9725 14.2677 18.9726 14.2682 18.9728C14.2684 18.9728 14.2686 18.9729 14.2687 18.9729C14.2689 18.9729 14.2691 18.973 14.5 18ZM5.25682 12.3464C4.22244 11.1487 3.3966 9.18834 2.82091 7.42139C2.53924 6.55688 2.32813 5.77305 2.18758 5.20563C2.11741 4.92234 2.06509 4.69407 2.03058 4.53797C2.01334 4.45994 2.00056 4.40002 1.99224 4.36036C1.98808 4.34053 1.98504 4.32577 1.98311 4.31635C1.98215 4.31163 1.98146 4.30826 1.98106 4.30625C1.98085 4.30525 1.98072 4.30459 1.98066 4.30428C1.98063 4.30412 1.98061 4.30405 1.98062 4.30406C1.98062 4.30407 1.98063 4.30415 1.98063 4.30415C1.98065 4.30425 1.98068 4.30438 1 4.5C0.0193209 4.69562 0.019354 4.69579 0.0193916 4.69598C0.01941 4.69607 0.019452 4.69628 0.0194889 4.69646C0.0195627 4.69683 0.0196542 4.69729 0.0197635 4.69783C0.0199821 4.69892 0.0202718 4.70036 0.0206327 4.70215C0.0213544 4.70572 0.0223607 4.71069 0.0236519 4.717C0.026234 4.72963 0.029956 4.74767 0.0348193 4.77086C0.0445449 4.81724 0.0588413 4.88422 0.0777209 4.96963C0.115469 5.1404 0.171608 5.38517 0.246248 5.6865C0.39532 6.28831 0.619258 7.12007 0.919294 8.04095C1.507 9.84478 2.43117 12.1344 3.74318 13.6536L5.25682 12.3464ZM1.70711 5.20711L5.20711 1.70711L3.79289 0.292893L0.292893 3.79289L1.70711 5.20711Z" fill="#292929"/>
<path d="M11.882 3.35558C11.5009 3.42074 11.2449 3.78249 11.31 4.16355C11.3752 4.54462 11.7369 4.80071 12.118 4.73554L11.882 3.35558ZM14.2961 6.96831C14.2786 7.35451 14.5774 7.68178 14.9637 7.69928C15.3499 7.71678 15.6771 7.41789 15.6946 7.03169L14.2961 6.96831ZM14.0967 4.7021L14.5774 4.19324L14.0967 4.7021ZM12.118 4.73554C12.4578 4.67744 12.7046 4.69419 12.9128 4.75939C13.123 4.8252 13.3474 4.95717 13.6161 5.21096L14.5774 4.19324C14.201 3.8377 13.7978 3.56945 13.3312 3.42336C12.8627 3.27665 12.3837 3.26979 11.882 3.35558L12.118 4.73554ZM13.6161 5.21096C13.8937 5.47324 14.0626 5.72062 14.1637 5.97935C14.2656 6.23997 14.3149 6.55304 14.2961 6.96831L15.6946 7.03169C15.72 6.47183 15.6573 5.95467 15.4676 5.46948C15.2771 4.9824 14.9746 4.56839 14.5774 4.19324L13.6161 5.21096Z" fill="#292929"/>
<path d="M10.882 0.416324C10.5009 0.48149 10.2449 0.843234 10.31 1.2243C10.3752 1.60537 10.7369 1.86146 11.118 1.79629L10.882 0.416324ZM17.2898 7.96831C17.2723 8.35451 17.5712 8.68178 17.9574 8.69928C18.3436 8.71678 18.6709 8.41789 18.6884 8.03169L17.2898 7.96831ZM15.8924 2.63824L16.3731 2.12938L15.8924 2.63824ZM11.118 1.79629C12.0187 1.64227 12.7494 1.67475 13.4088 1.88122C14.0702 2.0883 14.713 2.48708 15.4117 3.1471L16.3731 2.12938C15.5667 1.36761 14.7449 0.832558 13.8272 0.545187C12.9075 0.257206 11.9446 0.234613 10.882 0.416324L11.118 1.79629ZM15.4117 3.1471C16.1392 3.83433 16.6223 4.52264 16.9179 5.27858C17.2143 6.0364 17.3381 6.90296 17.2898 7.96831L18.6884 8.03169C18.7432 6.82175 18.606 5.7511 18.2218 4.7687C17.8369 3.78441 17.2201 2.92948 16.3731 2.12938L15.4117 3.1471Z" fill="#292929"/>
</svg>
