<svg width="103" height="443" viewBox="0 0 103 443" fill="none" xmlns="http://www.w3.org/2000/svg">
<path fill-rule="evenodd" clip-rule="evenodd" d="M82.6072 9.28448L82.6072 -3.41285e-05L102.532 -3.49994e-05L102.532 100.154L82.6072 100.154L82.6072 35.7306L32.0412 35.7306L32.0412 40.7383C32.0412 50.0499 33.4683 56.4922 37.7494 59.3615C41.3785 62.6123 45.8015 64.8356 50.5659 65.8038C52.6502 66.3847 54.8143 66.6224 56.9742 66.5076L63.4093 66.5076C65.3299 66.6214 67.255 66.3829 69.0906 65.8038C70.5176 65.8038 71.9447 65.073 73.3717 65.073C74.7988 65.073 75.4989 65.073 76.2258 64.3692L78.3529 64.3692L78.353 90.1386C77.6529 90.1386 77.6529 90.1385 76.9259 90.8423L74.7988 90.8423C72.2762 91.7238 69.6332 92.2077 66.9635 92.2769C63.4053 92.8676 59.7977 93.1034 56.1933 92.9808L48.3849 92.9808C44.8039 92.277 41.9767 91.5461 38.3956 90.8423C31.244 88.2746 24.8853 83.8698 19.9517 78.0659C14.2435 71.6236 11.3894 61.6082 11.3894 47.2889L11.3894 9.39279L82.6072 9.39279L82.6072 9.28448ZM-1.37808e-05 127.141C3.46675 127.896 6.52378 129.935 8.56227 132.853C10.525 136.334 11.4591 140.306 11.2548 144.303C11.3855 148.095 10.4524 151.847 8.56227 155.13C6.51742 158.047 3.46467 160.093 -1.23065e-05 160.869L-1.37808e-05 127.141ZM11.3894 158.622L11.3894 185.122L102.532 185.122L102.532 158.622L66.9366 158.622C65.6742 158.099 64.4877 157.407 63.4093 156.565C61.9823 155.13 60.5553 154.427 59.1282 152.992C56.3334 150.772 53.7055 148.347 51.266 145.738C48.7182 143.28 46.3431 140.648 44.1577 137.861C42.7697 136.619 41.5721 135.178 40.6035 133.584C39.5334 131.976 38.5796 130.294 37.7494 128.549L102.532 128.549L102.532 102.78L11.3894 102.78L11.3894 128.549C12.1164 130.714 13.5435 132.149 14.2435 134.288C15.6706 136.426 17.0976 137.861 18.5247 139.999C19.5338 141.796 20.7248 143.483 22.0788 145.034C23.4954 146.27 24.7205 147.711 25.7138 149.311C27.8409 151.476 29.2679 152.911 31.4219 155.049C32.6571 156.444 34.0907 157.648 35.6762 158.622L11.4433 158.622L11.3894 158.622ZM11.3894 219.202C16.5973 215.675 22.0708 212.562 27.7601 209.89C33.3304 207.16 39.0372 204.721 44.8577 202.582C54.8844 198.716 65.1027 195.373 75.4719 192.566C85.4613 190.428 94.6967 188.289 102.397 186.855L102.397 213.409L100.27 213.409C99.9867 213.673 99.6499 213.872 99.2829 213.994C98.9159 214.115 98.5272 214.156 98.1431 214.113L95.9891 214.113C95.7079 214.382 95.3722 214.586 95.005 214.712C94.6379 214.838 94.248 214.883 93.862 214.844L91.7349 214.844L91.7349 215.548L89.5809 215.548C89.1949 215.508 88.8049 215.553 88.4378 215.679C88.0707 215.805 87.735 216.01 87.4537 216.278L87.4537 241.317C83.8996 240.613 81.0455 239.909 77.4913 239.179C74.6373 238.475 71.0831 237.04 68.229 236.309L68.229 221.286C66.1019 221.99 63.9479 222.721 61.1207 223.425C58.9667 224.155 56.8395 224.859 54.7124 225.59C51.7156 225.948 48.8117 226.866 46.1501 228.297C44.6038 229.259 42.9256 229.989 41.1689 230.462C46.4727 233.328 51.9913 235.771 57.6742 237.771C63.3824 239.936 69.0637 241.344 74.7719 243.509C79.7531 244.944 84.7343 245.648 89.0154 247.083C93.5798 247.629 98.0858 248.589 102.478 249.952L102.478 275.667C97.4969 274.936 92.5157 273.502 86.8075 272.094L69.7368 267.79C58.8686 264.527 48.1741 260.705 37.6956 256.34C28.5809 252.759 19.7661 248.451 11.3356 243.455L11.3894 219.202ZM11.3894 308.826C11.3894 295.292 14.9436 285.195 21.3518 278.753C27.2148 273.18 34.7153 269.667 42.7306 268.737L47.0118 268.737C51.5735 268.519 56.1321 269.231 60.4126 270.831C64.6931 272.431 68.6069 274.887 71.9178 278.049C79.053 284.491 81.8802 293.803 81.8802 305.957L81.8802 313.13C81.1801 315.999 81.1801 318.138 80.4801 320.276L59.8283 320.276C60.6129 318.974 61.1003 317.514 61.2553 315.999C61.2553 313.834 61.9554 312.399 61.9554 310.992C61.863 306.907 60.6316 302.93 58.4012 299.515C56.9011 298.047 55.1141 296.909 53.1534 296.173C51.1928 295.437 49.1014 295.118 47.0118 295.238C46.2848 295.238 45.5847 295.941 44.1577 295.941C42.643 296.097 41.1811 296.587 39.8765 297.376C38.6364 297.77 37.4911 298.419 36.5132 299.281C35.5353 300.143 34.746 301.199 34.1953 302.384C32.5141 305.952 31.7724 309.895 32.0412 313.834L32.0412 325.284L102.532 325.284L102.532 351.784L11.3894 351.784L11.3894 308.826ZM11.3894 360.798L102.532 360.798L102.532 387.298L32.0412 387.298L32.0412 415.937L102.532 415.937L102.532 442.41L11.3895 442.41L11.3894 360.798Z" fill="#FF570F"/>
</svg>
