<svg width="16" height="15" viewBox="0 0 16 15" fill="none" xmlns="http://www.w3.org/2000/svg">
<path d="M13.0048 3.07959H12.6073H12.3973V3.96814V5.58765H12.1494H3.70289H3.60287V3.96814V3.07959H2.99558C1.34401 3.07959 0 4.42322 0 6.07511V10.6664C0 12.3183 1.34401 13.6619 2.99558 13.6619H3.59305V13.4701V13.2168V12.872V10.574H3.60287H4.05098H4.84081H11.1594H11.9487H12.3973H12.4065L12.4068 12.872L12.4065 12.9535V13.2068V13.6618H13.0048C14.6564 13.6618 16 12.3182 16 10.6664V6.07505C16 4.42322 14.6564 3.07959 13.0048 3.07959Z" fill="#FF570F"/>
<path d="M11.6239 3.08009V0H4.23047V3.08009V3.96857H11.0267H11.6239V3.08009Z" fill="#FF570F"/>
<path d="M11.6875 12.0984V11.3743H10.8982H5.10624H4.31641V11.6276V12.0984V12.8725V13.6622V14.8967H11.6875V12.0984Z" fill="#FF570F"/>
</svg>
