<svg width="14" height="14" viewBox="0 0 14 14" fill="none" xmlns="http://www.w3.org/2000/svg">
<path d="M12.5652 3.25508L13.9652 2.97508C13.9652 2.97508 12.8102 4.27008 12.5652 4.37508C12.5302 5.00508 12.5652 5.21508 12.5652 5.21508C9.90516 16.6601 0.0351562 11.5851 0.0351562 11.5851C3.64016 11.6551 3.92016 10.1851 3.92016 10.1851C1.82016 9.87008 1.40016 8.50508 1.40016 8.50508C2.13516 8.85508 2.52016 8.22508 2.52016 8.22508C0.280156 7.63008 0.560156 5.46008 0.560156 5.46008C0.945156 5.81008 1.57516 5.95008 1.92516 5.98508C1.71516 5.70508 -0.384844 3.15008 0.875156 1.85508C0.875156 1.85508 2.45016 4.65508 6.51016 4.90008L6.79016 4.83008C6.72016 4.62008 6.72016 4.44508 6.72016 4.23508C6.72016 2.62508 8.01516 1.33008 9.62516 1.33008C11.5852 1.33008 12.0052 2.45008 12.0052 2.45008L13.4052 1.61008C13.4052 1.57508 13.2652 2.97508 12.5652 3.25508Z" fill="#FF570F"/>
</svg>
