<svg width="61" height="71" viewBox="0 0 61 71" fill="none" xmlns="http://www.w3.org/2000/svg">
<g clip-path="url(#clip0)">
<path d="M10.512 27.8643H17.808C18.288 27.8643 18.816 27.9203 19.392 28.0323C19.984 28.1443 20.528 28.3763 21.024 28.7283C21.536 29.0643 21.96 29.5523 22.296 30.1923C22.632 30.8163 22.8 31.6403 22.8 32.6643C22.8 34.1683 22.336 35.3283 21.408 36.1443C20.48 36.9603 19.152 37.3683 17.424 37.3683H11.568V45.0003H10.512V27.8643ZM11.568 36.4563H17.592C18.36 36.4563 19.008 36.3443 19.536 36.1203C20.08 35.8803 20.512 35.5763 20.832 35.2083C21.152 34.8403 21.384 34.4323 21.528 33.9843C21.672 33.5363 21.744 33.0883 21.744 32.6403C21.744 32.3203 21.696 31.9443 21.6 31.5123C21.504 31.0643 21.312 30.6403 21.024 30.2403C20.736 29.8243 20.328 29.4803 19.8 29.2083C19.288 28.9203 18.6 28.7763 17.736 28.7763H11.568V36.4563ZM24.6917 27.8643H30.3077C31.8437 27.8643 33.1157 28.1043 34.1237 28.5843C35.1477 29.0643 35.9637 29.7043 36.5717 30.5043C37.1797 31.3043 37.6037 32.2163 37.8437 33.2403C38.0997 34.2643 38.2277 35.3203 38.2277 36.4083C38.2277 37.6243 38.0677 38.7603 37.7477 39.8163C37.4437 40.8563 36.9637 41.7603 36.3077 42.5283C35.6517 43.2963 34.8197 43.9043 33.8117 44.3523C32.8197 44.7843 31.6357 45.0003 30.2597 45.0003H24.6917V27.8643ZM30.3557 44.0883C31.1557 44.0883 31.9557 43.9683 32.7557 43.7283C33.5717 43.4723 34.3077 43.0563 34.9637 42.4803C35.6197 41.8883 36.1477 41.1043 36.5477 40.1283C36.9637 39.1363 37.1717 37.8963 37.1717 36.4083C37.1717 35.2403 37.0517 34.2403 36.8117 33.4083C36.5877 32.5763 36.2837 31.8803 35.8997 31.3203C35.5317 30.7443 35.0997 30.2963 34.6037 29.9763C34.1237 29.6403 33.6197 29.3843 33.0917 29.2083C32.5797 29.0323 32.0597 28.9203 31.5317 28.8723C31.0197 28.8083 30.5557 28.7763 30.1397 28.7763H25.7477V44.0883H30.3557ZM40.6995 27.8643H51.4515V28.7763H41.7555V35.6403H50.4915V36.5523H41.7555V45.0003H40.6995V27.8643Z" fill="#FF570F"/>
</g>
<path d="M8.69829 0.5H60.5V70.5H0.5V8.21604L8.69829 0.5Z" stroke="#FF570F"/>
<path d="M0.5 8.5H9V0.5" stroke="#FF570F"/>
<defs>
<clipPath id="clip0">
<rect x="10" y="27" width="42" height="18" fill="white"/>
</clipPath>
</defs>
</svg>
