<svg width="25" height="15" viewBox="0 0 25 15" fill="none" xmlns="http://www.w3.org/2000/svg">
<path d="M12.2443 14.1834H13.6519C13.6519 14.1834 14.0998 14.1195 14.2917 13.9275C14.4837 13.7356 14.4837 13.2877 14.4837 13.2877C14.4837 13.2877 14.4837 11.4322 15.3155 11.1762C16.1472 10.9203 17.2989 12.9678 18.4506 13.7995C19.3464 14.3754 19.9862 14.2474 19.9862 14.2474L23.1214 14.1834C23.1214 14.1834 24.721 14.0555 23.9532 12.7758C23.8892 12.6478 23.5053 11.8161 21.6498 10.0885C19.7303 8.29701 19.9862 8.55294 22.2896 5.41777C23.6972 3.49828 24.2731 2.34659 24.0811 1.83473C23.8892 1.38685 22.8654 1.51481 22.8654 1.51481H19.3464C19.3464 1.51481 19.0905 1.45083 18.8985 1.57879C18.7066 1.70676 18.5786 1.96269 18.5786 1.96269C18.5786 1.96269 18.0027 3.4343 17.2989 4.71396C15.7633 7.33726 15.1235 7.52921 14.8676 7.33726C14.2917 7.01735 14.4197 5.86565 14.4197 5.03387C14.4197 2.47456 14.8036 1.38685 13.6519 1.13091C13.268 1.06693 13.0121 1.00295 11.9883 0.938965C10.7087 0.938965 9.68496 0.938965 9.10911 1.25888C8.72522 1.45083 8.4053 1.89871 8.59725 1.89871C8.85318 1.89871 9.36505 2.02667 9.62098 2.41057C10.0049 2.92244 9.94089 4.01015 9.94089 4.01015C9.94089 4.01015 10.1328 7.01735 9.42903 7.40125C8.98115 7.65718 8.34132 7.14531 6.93369 4.71396C6.22988 3.49828 5.65403 2.15464 5.65403 2.15464C5.65403 2.15464 5.65403 1.89871 5.46209 1.77074C5.20615 1.57879 4.95022 1.57879 4.95022 1.57879H1.62311C1.62311 1.57879 1.11124 1.57879 0.919295 1.83473C0.727346 2.02668 0.919295 2.41057 0.919295 2.41057C0.919295 2.41057 3.5426 8.48896 6.48581 11.5601C9.1731 14.3754 12.2443 14.1834 12.2443 14.1834Z" fill="#FF570F"/>
</svg>
