<svg width="1600" height="62" viewBox="0 0 1600 62" fill="none" xmlns="http://www.w3.org/2000/svg">
<path d="M-331.08 39.16L-331.474 38.2408L-331.482 38.2444L-331.08 39.16ZM-325.97 35.73L-326.677 35.0229L-325.97 35.73ZM-322.54 30.69L-321.624 31.092L-321.621 31.0839L-322.54 30.69ZM-322.54 18.3L-323.459 18.6939L-323.456 18.702L-322.54 18.3ZM-331.08 9.76L-331.482 10.6757L-331.474 10.6791L-331.08 9.76ZM-372.1 8.5V7.5H-373.1V8.5H-372.1ZM-372.1 61H-373.1V62H-372.1V61ZM-360.62 61V62H-359.62V61H-360.62ZM-360.62 40.42V39.42H-361.62V40.42H-360.62ZM-360.62 19.91V18.91H-361.62V19.91H-360.62ZM-332.62 19.91H-331.62V18.91H-332.62V19.91ZM-332.62 29.08V30.08H-331.62V29.08H-332.62ZM-360.62 29.08H-361.62V30.08H-360.62V29.08ZM-337.24 41.42C-334.915 41.42 -332.724 40.974 -330.678 40.0756L-331.482 38.2444C-333.262 39.026 -335.178 39.42 -337.24 39.42V41.42ZM-330.686 40.0791C-328.614 39.1912 -326.803 37.9775 -325.263 36.4371L-326.677 35.0229C-328.03 36.3758 -329.626 37.4488 -331.474 38.2409L-330.686 40.0791ZM-325.263 36.4371C-323.726 34.9007 -322.513 33.1166 -321.624 31.092L-323.456 30.288C-324.247 32.09 -325.32 33.666 -326.677 35.0229L-325.263 36.4371ZM-321.621 31.0839C-320.726 28.9958 -320.28 26.7848 -320.28 24.46H-322.28C-322.28 26.5219 -322.674 28.4641 -323.459 30.2961L-321.621 31.0839ZM-320.28 24.46C-320.28 22.1353 -320.726 19.9443 -321.624 17.898L-323.456 18.702C-322.674 20.4823 -322.28 22.398 -322.28 24.46H-320.28ZM-321.621 17.9061C-322.509 15.8342 -323.722 14.0233 -325.263 12.4829L-326.677 13.8971C-325.324 15.25 -324.251 16.8458 -323.459 18.6939L-321.621 17.9061ZM-325.263 12.4829C-326.803 10.9425 -328.614 9.72881 -330.686 8.84085L-331.474 10.6791C-329.626 11.4712 -328.03 12.5442 -326.677 13.8971L-325.263 12.4829ZM-330.678 8.84435C-332.724 7.94597 -334.915 7.5 -337.24 7.5V9.5C-335.178 9.5 -333.262 9.89402 -331.482 10.6756L-330.678 8.84435ZM-337.24 7.5H-372.1V9.5H-337.24V7.5ZM-373.1 8.5V61H-371.1V8.5H-373.1ZM-372.1 62H-360.62V60H-372.1V62ZM-359.62 61V40.42H-361.62V61H-359.62ZM-360.62 41.42H-337.24V39.42H-360.62V41.42ZM-360.62 20.91H-332.62V18.91H-360.62V20.91ZM-333.62 19.91V29.08H-331.62V19.91H-333.62ZM-332.62 28.08H-360.62V30.08H-332.62V28.08ZM-359.62 29.08V19.91H-361.62V29.08H-359.62ZM-276.991 61L-277.919 61.3708L-277.668 62H-276.991V61ZM-265.511 61V62H-264.036L-264.582 60.6297L-265.511 61ZM-273.911 39.93L-274.178 38.9665L-275.253 39.2648L-274.84 40.3003L-273.911 39.93ZM-269.221 37.83L-268.679 38.6703L-268.669 38.6642L-268.66 38.6579L-269.221 37.83ZM-265.511 34.33L-266.304 33.7216L-266.307 33.7256L-265.511 34.33ZM-262.991 29.78L-262.053 30.1282L-262.05 30.1196L-262.991 29.78ZM-263.341 18.3L-264.26 18.6939L-264.256 18.702L-263.341 18.3ZM-271.881 9.76L-272.283 10.6757L-272.275 10.6791L-271.881 9.76ZM-312.901 8.5V7.5H-313.901V8.5H-312.901ZM-312.901 61H-313.901V62H-312.901V61ZM-301.421 61V62H-300.421V61H-301.421ZM-301.421 40.49V39.49H-302.421V40.49H-301.421ZM-285.181 40.49L-284.252 40.1192L-284.503 39.49H-285.181V40.49ZM-301.421 29.08H-302.421V30.08H-301.421V29.08ZM-301.421 19.91V18.91H-302.421V19.91H-301.421ZM-273.421 19.91H-272.421V18.91H-273.421V19.91ZM-273.421 29.08V30.08H-272.421V29.08H-273.421ZM-276.991 62H-265.511V60H-276.991V62ZM-264.582 60.6297L-272.982 39.5597L-274.84 40.3003L-266.44 61.3703L-264.582 60.6297ZM-273.643 40.8935C-271.867 40.4002 -270.211 39.659 -268.679 38.6703L-269.763 36.9897C-271.124 37.8676 -272.594 38.5265 -274.178 38.9665L-273.643 40.8935ZM-268.66 38.6579C-267.126 37.6185 -265.809 36.3771 -264.714 34.9344L-266.307 33.7256C-267.266 34.9896 -268.423 36.0815 -269.782 37.0021L-268.66 38.6579ZM-264.717 34.9384C-263.584 33.4603 -262.695 31.8561 -262.053 30.1282L-263.928 29.4318C-264.5 30.9705 -265.291 32.3997 -266.304 33.7216L-264.717 34.9384ZM-262.05 30.1196C-261.402 28.3259 -261.081 26.4372 -261.081 24.46H-263.081C-263.081 26.2161 -263.366 27.8741 -263.931 29.4404L-262.05 30.1196ZM-261.081 24.46C-261.081 22.1353 -261.527 19.9443 -262.425 17.898L-264.256 18.702C-263.475 20.4823 -263.081 22.398 -263.081 24.46H-261.081ZM-262.422 17.9061C-263.31 15.8342 -264.523 14.0233 -266.064 12.4829L-267.478 13.8971C-266.125 15.25 -265.052 16.8458 -264.26 18.6939L-262.422 17.9061ZM-266.064 12.4829C-267.604 10.9425 -269.415 9.72881 -271.487 8.84085L-272.275 10.6791C-270.427 11.4712 -268.831 12.5442 -267.478 13.8971L-266.064 12.4829ZM-271.479 8.84435C-273.525 7.94597 -275.716 7.5 -278.041 7.5V9.5C-275.979 9.5 -274.063 9.89402 -272.283 10.6756L-271.479 8.84435ZM-278.041 7.5H-312.901V9.5H-278.041V7.5ZM-313.901 8.5V61H-311.901V8.5H-313.901ZM-312.901 62H-301.421V60H-312.901V62ZM-300.421 61V40.49H-302.421V61H-300.421ZM-301.421 41.49H-285.181V39.49H-301.421V41.49ZM-286.109 40.8608L-277.919 61.3708L-276.062 60.6292L-284.252 40.1192L-286.109 40.8608ZM-300.421 29.08V19.91H-302.421V29.08H-300.421ZM-301.421 20.91H-273.421V18.91H-301.421V20.91ZM-274.421 19.91V29.08H-272.421V19.91H-274.421ZM-273.421 28.08H-301.421V30.08H-273.421V28.08ZM-253.702 8.5V7.5H-254.702V8.5H-253.702ZM-253.702 61H-254.702V62H-253.702V61ZM-242.222 61V62H-241.222V61H-242.222ZM-242.222 8.5H-241.222V7.5H-242.222V8.5ZM-254.702 8.5V61H-252.702V8.5H-254.702ZM-253.702 62H-242.222V60H-253.702V62ZM-241.222 61V8.5H-243.222V61H-241.222ZM-242.222 7.5H-253.702V9.5H-242.222V7.5ZM-197.442 58.9L-197.049 59.8199L-197.038 59.8149L-197.442 58.9ZM-189.112 53.23L-189.819 52.5229L-189.112 53.23ZM-183.512 44.9L-184.427 44.4963L-184.432 44.5077L-183.512 44.9ZM-183.512 24.53L-184.432 24.9223L-184.427 24.9336L-183.512 24.53ZM-197.442 10.6L-197.845 11.515L-197.834 11.5198L-197.442 10.6ZM-232.442 8.5V7.5H-233.442V8.5H-232.442ZM-232.442 61H-233.442V62H-232.442V61ZM-220.892 61V62H-219.892V61H-220.892ZM-220.892 60.93V59.93H-221.892V60.93H-220.892ZM-192.752 49.59V50.59H-191.752V49.59H-192.752ZM-220.892 49.59H-221.892V50.59H-220.892V49.59ZM-220.892 19.84V18.84H-221.892V19.84H-220.892ZM-192.752 19.84H-191.752V18.84H-192.752V19.84ZM-207.592 61.93C-203.869 61.93 -200.352 61.2283 -197.05 59.8198L-197.834 57.9802C-200.878 59.2784 -204.128 59.93 -207.592 59.93V61.93ZM-197.038 59.8149C-193.755 58.3666 -190.875 56.4072 -188.405 53.9371L-189.819 52.5229C-192.109 54.8128 -194.782 56.6334 -197.845 57.9851L-197.038 59.8149ZM-188.405 53.9371C-185.932 51.4645 -183.994 48.5802 -182.592 45.2923L-184.432 44.5077C-185.736 47.5665 -187.532 50.2355 -189.819 52.5229L-188.405 53.9371ZM-182.597 45.3036C-181.138 41.9969 -180.412 38.452 -180.412 34.68H-182.412C-182.412 38.188 -183.086 41.4565 -184.427 44.4964L-182.597 45.3036ZM-180.412 34.68C-180.412 30.9528 -181.139 27.4315 -182.597 24.1264L-184.427 24.9336C-183.085 27.9752 -182.412 31.2205 -182.412 34.68H-180.412ZM-182.592 24.1377C-183.994 20.8498 -185.932 17.9655 -188.405 15.4929L-189.819 16.9071C-187.532 19.1944 -185.736 21.8635 -184.432 24.9223L-182.592 24.1377ZM-188.405 15.4929C-190.877 13.0202 -193.762 11.0823 -197.049 9.68015L-197.834 11.5198C-194.775 12.8243 -192.106 14.6198 -189.819 16.9071L-188.405 15.4929ZM-197.038 9.68508C-200.343 8.22694 -203.865 7.5 -207.592 7.5V9.5C-204.132 9.5 -200.887 10.1731 -197.845 11.5149L-197.038 9.68508ZM-207.592 7.5H-232.442V9.5H-207.592V7.5ZM-233.442 8.5V61H-231.442V8.5H-233.442ZM-232.442 62H-220.892V60H-232.442V62ZM-219.892 61V60.93H-221.892V61H-219.892ZM-220.892 61.93H-207.592V59.93H-220.892V61.93ZM-192.752 48.59H-220.892V50.59H-192.752V48.59ZM-219.892 49.59V19.84H-221.892V49.59H-219.892ZM-220.892 20.84H-192.752V18.84H-220.892V20.84ZM-193.752 19.84V49.59H-191.752V19.84H-193.752ZM-145.153 40.35V41.35H-144.153V40.35H-145.153ZM-145.153 28.8H-144.153V27.8H-145.153V28.8ZM-162.513 28.8H-163.513V29.8H-162.513V28.8ZM-162.513 19.98V18.98H-163.513V19.98H-162.513ZM-126.253 19.98V20.98H-125.253V19.98H-126.253ZM-126.253 8.5H-125.253V7.5H-126.253V8.5ZM-174.063 8.5V7.5H-175.063V8.5H-174.063ZM-174.063 61H-175.063V62H-174.063V61ZM-126.323 61V62H-125.323V61H-126.323ZM-126.323 49.45H-125.323V48.45H-126.323V49.45ZM-162.513 49.45H-163.513V50.45H-162.513V49.45ZM-162.513 40.35V39.35H-163.513V40.35H-162.513ZM-144.153 40.35V28.8H-146.153V40.35H-144.153ZM-145.153 27.8H-162.513V29.8H-145.153V27.8ZM-161.513 28.8V19.98H-163.513V28.8H-161.513ZM-162.513 20.98H-126.253V18.98H-162.513V20.98ZM-125.253 19.98V8.5H-127.253V19.98H-125.253ZM-126.253 7.5H-174.063V9.5H-126.253V7.5ZM-175.063 8.5V61H-173.063V8.5H-175.063ZM-174.063 62H-126.323V60H-174.063V62ZM-125.323 61V49.45H-127.323V61H-125.323ZM-126.323 48.45H-162.513V50.45H-126.323V48.45ZM-161.513 49.45V40.35H-163.513V49.45H-161.513ZM-162.513 41.35H-145.153V39.35H-162.513V41.35ZM-60.8641 31.25H-59.8641V30.25H-60.8641V31.25ZM-92.2941 31.25V30.25H-93.2941V31.25H-92.2941ZM-92.2941 38.04H-93.2941V39.04H-92.2941V38.04ZM-60.8641 38.04V39.04H-59.8641V38.04H-60.8641ZM-60.8641 30.25H-92.2941V32.25H-60.8641V30.25ZM-93.2941 31.25V38.04H-91.2941V31.25H-93.2941ZM-92.2941 39.04H-60.8641V37.04H-92.2941V39.04ZM-59.8641 38.04V31.25H-61.8641V38.04H-59.8641ZM15.502 39.16L15.1081 38.2408L15.1 38.2444L15.502 39.16ZM20.612 35.73L19.9049 35.0229L20.612 35.73ZM24.042 30.69L24.9577 31.092L24.9612 31.0839L24.042 30.69ZM24.042 18.3L23.1229 18.6939L23.1264 18.702L24.042 18.3ZM15.502 9.76L15.1 10.6757L15.1081 10.6791L15.502 9.76ZM-25.518 8.5V7.5H-26.518V8.5H-25.518ZM-25.518 61H-26.518V62H-25.518V61ZM-14.038 61V62H-13.038V61H-14.038ZM-14.038 40.42V39.42H-15.038V40.42H-14.038ZM-14.038 19.91V18.91H-15.038V19.91H-14.038ZM13.962 19.91H14.962V18.91H13.962V19.91ZM13.962 29.08V30.08H14.962V29.08H13.962ZM-14.038 29.08H-15.038V30.08H-14.038V29.08ZM9.34204 41.42C11.6667 41.42 13.8577 40.974 15.904 40.0756L15.1 38.2444C13.3197 39.026 11.404 39.42 9.34204 39.42V41.42ZM15.896 40.0791C17.9679 39.1912 19.7787 37.9775 21.3192 36.4371L19.9049 35.0229C18.552 36.3758 16.9562 37.4488 15.1081 38.2409L15.896 40.0791ZM21.3192 36.4371C22.8556 34.9007 24.0688 33.1166 24.9577 31.092L23.1264 30.288C22.3353 32.09 21.2618 33.666 19.9049 35.0229L21.3192 36.4371ZM24.9612 31.0839C25.8561 28.9958 26.302 26.7848 26.302 24.46H24.302C24.302 26.5219 23.908 28.4641 23.1229 30.2961L24.9612 31.0839ZM26.302 24.46C26.302 22.1353 25.856 19.9443 24.9577 17.898L23.1264 18.702C23.908 20.4823 24.302 22.398 24.302 24.46H26.302ZM24.9612 17.9061C24.0732 15.8342 22.8596 14.0233 21.3192 12.4829L19.9049 13.8971C21.2578 15.25 22.3308 16.8458 23.1229 18.6939L24.9612 17.9061ZM21.3192 12.4829C19.7787 10.9425 17.9679 9.72881 15.896 8.84085L15.1081 10.6791C16.9562 11.4712 18.552 12.5442 19.9049 13.8971L21.3192 12.4829ZM15.904 8.84435C13.8577 7.94597 11.6667 7.5 9.34204 7.5V9.5C11.404 9.5 13.3197 9.89402 15.1 10.6756L15.904 8.84435ZM9.34204 7.5H-25.518V9.5H9.34204V7.5ZM-26.518 8.5V61H-24.518V8.5H-26.518ZM-25.518 62H-14.038V60H-25.518V62ZM-13.038 61V40.42H-15.038V61H-13.038ZM-14.038 41.42H9.34204V39.42H-14.038V41.42ZM-14.038 20.91H13.962V18.91H-14.038V20.91ZM12.962 19.91V29.08H14.962V19.91H12.962ZM13.962 28.08H-14.038V30.08H13.962V28.08ZM-13.038 29.08V19.91H-15.038V29.08H-13.038ZM69.5912 61L68.6626 61.3708L68.9138 62H69.5912V61ZM81.0713 61V62H82.5465L82.0002 60.6297L81.0713 61ZM72.6713 39.93L72.4036 38.9665L71.3295 39.2648L71.7423 40.3003L72.6713 39.93ZM77.3612 37.83L77.9034 38.6703L77.9128 38.6642L77.9221 38.6579L77.3612 37.83ZM81.0713 34.33L80.2776 33.7216L80.2746 33.7256L81.0713 34.33ZM83.5912 29.78L84.5287 30.1282L84.5318 30.1196L83.5912 29.78ZM83.2412 18.3L82.3221 18.6939L82.3256 18.702L83.2412 18.3ZM74.7013 9.76L74.2993 10.6757L74.3073 10.6791L74.7013 9.76ZM33.6812 8.5V7.5H32.6812V8.5H33.6812ZM33.6812 61H32.6812V62H33.6812V61ZM45.1613 61V62H46.1613V61H45.1613ZM45.1613 40.49V39.49H44.1613V40.49H45.1613ZM61.4012 40.49L62.33 40.1192L62.0787 39.49H61.4012V40.49ZM45.1613 29.08H44.1613V30.08H45.1613V29.08ZM45.1613 19.91V18.91H44.1613V19.91H45.1613ZM73.1613 19.91H74.1613V18.91H73.1613V19.91ZM73.1613 29.08V30.08H74.1613V29.08H73.1613ZM69.5912 62H81.0713V60H69.5912V62ZM82.0002 60.6297L73.6002 39.5597L71.7423 40.3003L80.1424 61.3703L82.0002 60.6297ZM72.9389 40.8935C74.7148 40.4002 76.3709 39.659 77.9034 38.6703L76.8191 36.9897C75.4583 37.8676 73.9877 38.5265 72.4036 38.9665L72.9389 40.8935ZM77.9221 38.6579C79.4564 37.6185 80.7735 36.3771 81.868 34.9344L80.2746 33.7256C79.3157 34.9896 78.1594 36.0815 76.8004 37.0021L77.9221 38.6579ZM81.8649 34.9384C82.9981 33.4603 83.8869 31.8561 84.5287 30.1282L82.6538 29.4318C82.0823 30.9705 81.2911 32.3997 80.2776 33.7216L81.8649 34.9384ZM84.5318 30.1196C85.1796 28.3259 85.5013 26.4372 85.5013 24.46H83.5013C83.5013 26.2161 83.2163 27.8741 82.6507 29.4404L84.5318 30.1196ZM85.5013 24.46C85.5013 22.1353 85.0553 19.9443 84.1569 17.898L82.3256 18.702C83.1072 20.4823 83.5013 22.398 83.5013 24.46H85.5013ZM84.1604 17.9061C83.2724 15.8342 82.0588 14.0233 80.5184 12.4829L79.1042 13.8971C80.4571 15.25 81.5301 16.8458 82.3221 18.6939L84.1604 17.9061ZM80.5184 12.4829C78.9779 10.9425 77.1671 9.72881 75.0952 8.84085L74.3073 10.6791C76.1554 11.4712 77.7512 12.5442 79.1042 13.8971L80.5184 12.4829ZM75.1032 8.84435C73.0569 7.94597 70.866 7.5 68.5413 7.5V9.5C70.6032 9.5 72.5189 9.89402 74.2993 10.6756L75.1032 8.84435ZM68.5413 7.5H33.6812V9.5H68.5413V7.5ZM32.6812 8.5V61H34.6812V8.5H32.6812ZM33.6812 62H45.1613V60H33.6812V62ZM46.1613 61V40.49H44.1613V61H46.1613ZM45.1613 41.49H61.4012V39.49H45.1613V41.49ZM60.4726 40.8608L68.6626 61.3708L70.52 60.6292L62.33 40.1192L60.4726 40.8608ZM46.1613 29.08V19.91H44.1613V29.08H46.1613ZM45.1613 20.91H73.1613V18.91H45.1613V20.91ZM72.1613 19.91V29.08H74.1613V19.91H72.1613ZM73.1613 28.08H45.1613V30.08H73.1613V28.08ZM92.8805 8.5V7.5H91.8805V8.5H92.8805ZM92.8805 61H91.8805V62H92.8805V61ZM104.36 61V62H105.36V61H104.36ZM104.36 8.5H105.36V7.5H104.36V8.5ZM91.8805 8.5V61H93.8805V8.5H91.8805ZM92.8805 62H104.36V60H92.8805V62ZM105.36 61V8.5H103.36V61H105.36ZM104.36 7.5H92.8805V9.5H104.36V7.5ZM149.14 58.9L149.533 59.8199L149.544 59.8149L149.14 58.9ZM157.47 53.23L156.763 52.5229L157.47 53.23ZM163.07 44.9L162.155 44.4963L162.15 44.5077L163.07 44.9ZM163.07 24.53L162.15 24.9223L162.155 24.9336L163.07 24.53ZM149.14 10.6L148.737 11.515L148.748 11.5198L149.14 10.6ZM114.14 8.5V7.5H113.14V8.5H114.14ZM114.14 61H113.14V62H114.14V61ZM125.69 61V62H126.69V61H125.69ZM125.69 60.93V59.93H124.69V60.93H125.69ZM153.83 49.59V50.59H154.83V49.59H153.83ZM125.69 49.59H124.69V50.59H125.69V49.59ZM125.69 19.84V18.84H124.69V19.84H125.69ZM153.83 19.84H154.83V18.84H153.83V19.84ZM138.99 61.93C142.713 61.93 146.23 61.2283 149.533 59.8198L148.748 57.9802C145.704 59.2784 142.454 59.93 138.99 59.93V61.93ZM149.544 59.8149C152.827 58.3666 155.707 56.4072 158.177 53.9371L156.763 52.5229C154.473 54.8128 151.8 56.6334 148.737 57.9851L149.544 59.8149ZM158.177 53.9371C160.65 51.4645 162.588 48.5802 163.99 45.2923L162.15 44.5077C160.846 47.5665 159.05 50.2355 156.763 52.5229L158.177 53.9371ZM163.985 45.3036C165.444 41.9969 166.17 38.452 166.17 34.68H164.17C164.17 38.188 163.496 41.4565 162.155 44.4964L163.985 45.3036ZM166.17 34.68C166.17 30.9528 165.443 27.4315 163.985 24.1264L162.155 24.9336C163.497 27.9752 164.17 31.2205 164.17 34.68H166.17ZM163.99 24.1377C162.588 20.8498 160.65 17.9655 158.177 15.4929L156.763 16.9071C159.05 19.1944 160.846 21.8635 162.15 24.9223L163.99 24.1377ZM158.177 15.4929C155.705 13.0202 152.82 11.0823 149.533 9.68015L148.748 11.5198C151.807 12.8243 154.476 14.6198 156.763 16.9071L158.177 15.4929ZM149.544 9.68508C146.239 8.22694 142.717 7.5 138.99 7.5V9.5C142.45 9.5 145.695 10.1731 148.737 11.5149L149.544 9.68508ZM138.99 7.5H114.14V9.5H138.99V7.5ZM113.14 8.5V61H115.14V8.5H113.14ZM114.14 62H125.69V60H114.14V62ZM126.69 61V60.93H124.69V61H126.69ZM125.69 61.93H138.99V59.93H125.69V61.93ZM153.83 48.59H125.69V50.59H153.83V48.59ZM126.69 49.59V19.84H124.69V49.59H126.69ZM125.69 20.84H153.83V18.84H125.69V20.84ZM152.83 19.84V49.59H154.83V19.84H152.83ZM201.429 40.35V41.35H202.429V40.35H201.429ZM201.429 28.8H202.429V27.8H201.429V28.8ZM184.069 28.8H183.069V29.8H184.069V28.8ZM184.069 19.98V18.98H183.069V19.98H184.069ZM220.329 19.98V20.98H221.329V19.98H220.329ZM220.329 8.5H221.329V7.5H220.329V8.5ZM172.519 8.5V7.5H171.519V8.5H172.519ZM172.519 61H171.519V62H172.519V61ZM220.259 61V62H221.259V61H220.259ZM220.259 49.45H221.259V48.45H220.259V49.45ZM184.069 49.45H183.069V50.45H184.069V49.45ZM184.069 40.35V39.35H183.069V40.35H184.069ZM202.429 40.35V28.8H200.429V40.35H202.429ZM201.429 27.8H184.069V29.8H201.429V27.8ZM185.069 28.8V19.98H183.069V28.8H185.069ZM184.069 20.98H220.329V18.98H184.069V20.98ZM221.329 19.98V8.5H219.329V19.98H221.329ZM220.329 7.5H172.519V9.5H220.329V7.5ZM171.519 8.5V61H173.519V8.5H171.519ZM172.519 62H220.259V60H172.519V62ZM221.259 61V49.45H219.259V61H221.259ZM220.259 48.45H184.069V50.45H220.259V48.45ZM185.069 49.45V40.35H183.069V49.45H185.069ZM184.069 41.35H201.429V39.35H184.069V41.35ZM285.718 31.25H286.718V30.25H285.718V31.25ZM254.288 31.25V30.25H253.288V31.25H254.288ZM254.288 38.04H253.288V39.04H254.288V38.04ZM285.718 38.04V39.04H286.718V38.04H285.718ZM285.718 30.25H254.288V32.25H285.718V30.25ZM253.288 31.25V38.04H255.288V31.25H253.288ZM254.288 39.04H285.718V37.04H254.288V39.04ZM286.718 38.04V31.25H284.718V38.04H286.718ZM362.084 39.16L361.69 38.2408L361.682 38.2444L362.084 39.16ZM367.194 35.73L366.487 35.0229L367.194 35.73ZM370.624 30.69L371.54 31.092L371.543 31.0839L370.624 30.69ZM370.624 18.3L369.705 18.6939L369.708 18.702L370.624 18.3ZM362.084 9.76L361.682 10.6757L361.69 10.6791L362.084 9.76ZM321.064 8.5V7.5H320.064V8.5H321.064ZM321.064 61H320.064V62H321.064V61ZM332.544 61V62H333.544V61H332.544ZM332.544 40.42V39.42H331.544V40.42H332.544ZM332.544 19.91V18.91H331.544V19.91H332.544ZM360.544 19.91H361.544V18.91H360.544V19.91ZM360.544 29.08V30.08H361.544V29.08H360.544ZM332.544 29.08H331.544V30.08H332.544V29.08ZM355.924 41.42C358.249 41.42 360.44 40.974 362.486 40.0756L361.682 38.2444C359.902 39.026 357.986 39.42 355.924 39.42V41.42ZM362.478 40.0791C364.55 39.1912 366.361 37.9775 367.901 36.4371L366.487 35.0229C365.134 36.3758 363.538 37.4488 361.69 38.2409L362.478 40.0791ZM367.901 36.4371C369.438 34.9007 370.651 33.1166 371.54 31.092L369.708 30.288C368.917 32.09 367.844 33.666 366.487 35.0229L367.901 36.4371ZM371.543 31.0839C372.438 28.9958 372.884 26.7848 372.884 24.46H370.884C370.884 26.5219 370.49 28.4641 369.705 30.2961L371.543 31.0839ZM372.884 24.46C372.884 22.1353 372.438 19.9443 371.54 17.898L369.708 18.702C370.49 20.4823 370.884 22.398 370.884 24.46H372.884ZM371.543 17.9061C370.655 15.8342 369.442 14.0233 367.901 12.4829L366.487 13.8971C367.84 15.25 368.913 16.8458 369.705 18.6939L371.543 17.9061ZM367.901 12.4829C366.361 10.9425 364.55 9.72881 362.478 8.84085L361.69 10.6791C363.538 11.4712 365.134 12.5442 366.487 13.8971L367.901 12.4829ZM362.486 8.84435C360.44 7.94597 358.249 7.5 355.924 7.5V9.5C357.986 9.5 359.902 9.89402 361.682 10.6756L362.486 8.84435ZM355.924 7.5H321.064V9.5H355.924V7.5ZM320.064 8.5V61H322.064V8.5H320.064ZM321.064 62H332.544V60H321.064V62ZM333.544 61V40.42H331.544V61H333.544ZM332.544 41.42H355.924V39.42H332.544V41.42ZM332.544 20.91H360.544V18.91H332.544V20.91ZM359.544 19.91V29.08H361.544V19.91H359.544ZM360.544 28.08H332.544V30.08H360.544V28.08ZM333.544 29.08V19.91H331.544V29.08H333.544ZM416.173 61L415.245 61.3708L415.496 62H416.173V61ZM427.653 61V62H429.128L428.582 60.6297L427.653 61ZM419.253 39.93L418.986 38.9665L417.912 39.2648L418.324 40.3003L419.253 39.93ZM423.943 37.83L424.485 38.6703L424.495 38.6642L424.504 38.6579L423.943 37.83ZM427.653 34.33L426.86 33.7216L426.857 33.7256L427.653 34.33ZM430.173 29.78L431.111 30.1282L431.114 30.1196L430.173 29.78ZM429.823 18.3L428.904 18.6939L428.908 18.702L429.823 18.3ZM421.283 9.76L420.881 10.6757L420.889 10.6791L421.283 9.76ZM380.263 8.5V7.5H379.263V8.5H380.263ZM380.263 61H379.263V62H380.263V61ZM391.743 61V62H392.743V61H391.743ZM391.743 40.49V39.49H390.743V40.49H391.743ZM407.983 40.49L408.912 40.1192L408.661 39.49H407.983V40.49ZM391.743 29.08H390.743V30.08H391.743V29.08ZM391.743 19.91V18.91H390.743V19.91H391.743ZM419.743 19.91H420.743V18.91H419.743V19.91ZM419.743 29.08V30.08H420.743V29.08H419.743ZM416.173 62H427.653V60H416.173V62ZM428.582 60.6297L420.182 39.5597L418.324 40.3003L426.724 61.3703L428.582 60.6297ZM419.521 40.8935C421.297 40.4002 422.953 39.659 424.485 38.6703L423.401 36.9897C422.04 37.8676 420.57 38.5265 418.986 38.9665L419.521 40.8935ZM424.504 38.6579C426.038 37.6185 427.356 36.3771 428.45 34.9344L426.857 33.7256C425.898 34.9896 424.741 36.0815 423.382 37.0021L424.504 38.6579ZM428.447 34.9384C429.58 33.4603 430.469 31.8561 431.111 30.1282L429.236 29.4318C428.664 30.9705 427.873 32.3997 426.86 33.7216L428.447 34.9384ZM431.114 30.1196C431.762 28.3259 432.083 26.4372 432.083 24.46H430.083C430.083 26.2161 429.798 27.8741 429.233 29.4404L431.114 30.1196ZM432.083 24.46C432.083 22.1353 431.637 19.9443 430.739 17.898L428.908 18.702C429.689 20.4823 430.083 22.398 430.083 24.46H432.083ZM430.742 17.9061C429.854 15.8342 428.641 14.0233 427.1 12.4829L425.686 13.8971C427.039 15.25 428.112 16.8458 428.904 18.6939L430.742 17.9061ZM427.1 12.4829C425.56 10.9425 423.749 9.72881 421.677 8.84085L420.889 10.6791C422.737 11.4712 424.333 12.5442 425.686 13.8971L427.1 12.4829ZM421.685 8.84435C419.639 7.94597 417.448 7.5 415.123 7.5V9.5C417.185 9.5 419.101 9.89402 420.881 10.6756L421.685 8.84435ZM415.123 7.5H380.263V9.5H415.123V7.5ZM379.263 8.5V61H381.263V8.5H379.263ZM380.263 62H391.743V60H380.263V62ZM392.743 61V40.49H390.743V61H392.743ZM391.743 41.49H407.983V39.49H391.743V41.49ZM407.055 40.8608L415.245 61.3708L417.102 60.6292L408.912 40.1192L407.055 40.8608ZM392.743 29.08V19.91H390.743V29.08H392.743ZM391.743 20.91H419.743V18.91H391.743V20.91ZM418.743 19.91V29.08H420.743V19.91H418.743ZM419.743 28.08H391.743V30.08H419.743V28.08ZM439.463 8.5V7.5H438.463V8.5H439.463ZM439.463 61H438.463V62H439.463V61ZM450.943 61V62H451.943V61H450.943ZM450.943 8.5H451.943V7.5H450.943V8.5ZM438.463 8.5V61H440.463V8.5H438.463ZM439.463 62H450.943V60H439.463V62ZM451.943 61V8.5H449.943V61H451.943ZM450.943 7.5H439.463V9.5H450.943V7.5ZM495.722 58.9L496.115 59.8199L496.126 59.8149L495.722 58.9ZM504.052 53.23L503.345 52.5229L504.052 53.23ZM509.652 44.9L508.737 44.4963L508.732 44.5077L509.652 44.9ZM509.652 24.53L508.732 24.9223L508.737 24.9336L509.652 24.53ZM495.722 10.6L495.319 11.515L495.33 11.5198L495.722 10.6ZM460.722 8.5V7.5H459.722V8.5H460.722ZM460.722 61H459.722V62H460.722V61ZM472.272 61V62H473.272V61H472.272ZM472.272 60.93V59.93H471.272V60.93H472.272ZM500.412 49.59V50.59H501.412V49.59H500.412ZM472.272 49.59H471.272V50.59H472.272V49.59ZM472.272 19.84V18.84H471.272V19.84H472.272ZM500.412 19.84H501.412V18.84H500.412V19.84ZM485.572 61.93C489.295 61.93 492.812 61.2283 496.115 59.8198L495.33 57.9802C492.286 59.2784 489.036 59.93 485.572 59.93V61.93ZM496.126 59.8149C499.409 58.3666 502.289 56.4072 504.759 53.9371L503.345 52.5229C501.055 54.8128 498.382 56.6334 495.319 57.9851L496.126 59.8149ZM504.759 53.9371C507.232 51.4645 509.17 48.5802 510.572 45.2923L508.732 44.5077C507.428 47.5665 505.633 50.2355 503.345 52.5229L504.759 53.9371ZM510.567 45.3036C512.026 41.9969 512.752 38.452 512.752 34.68H510.752C510.752 38.188 510.078 41.4565 508.737 44.4964L510.567 45.3036ZM512.752 34.68C512.752 30.9528 512.025 27.4315 510.567 24.1264L508.737 24.9336C510.079 27.9752 510.752 31.2205 510.752 34.68H512.752ZM510.572 24.1377C509.17 20.8498 507.232 17.9655 504.759 15.4929L503.345 16.9071C505.633 19.1944 507.428 21.8635 508.732 24.9223L510.572 24.1377ZM504.759 15.4929C502.287 13.0202 499.402 11.0823 496.115 9.68015L495.33 11.5198C498.389 12.8243 501.058 14.6198 503.345 16.9071L504.759 15.4929ZM496.126 9.68508C492.821 8.22694 489.299 7.5 485.572 7.5V9.5C489.032 9.5 492.277 10.1731 495.319 11.5149L496.126 9.68508ZM485.572 7.5H460.722V9.5H485.572V7.5ZM459.722 8.5V61H461.722V8.5H459.722ZM460.722 62H472.272V60H460.722V62ZM473.272 61V60.93H471.272V61H473.272ZM472.272 61.93H485.572V59.93H472.272V61.93ZM500.412 48.59H472.272V50.59H500.412V48.59ZM473.272 49.59V19.84H471.272V49.59H473.272ZM472.272 20.84H500.412V18.84H472.272V20.84ZM499.412 19.84V49.59H501.412V19.84H499.412ZM548.011 40.35V41.35H549.011V40.35H548.011ZM548.011 28.8H549.011V27.8H548.011V28.8ZM530.651 28.8H529.651V29.8H530.651V28.8ZM530.651 19.98V18.98H529.651V19.98H530.651ZM566.911 19.98V20.98H567.911V19.98H566.911ZM566.911 8.5H567.911V7.5H566.911V8.5ZM519.101 8.5V7.5H518.101V8.5H519.101ZM519.101 61H518.101V62H519.101V61ZM566.841 61V62H567.841V61H566.841ZM566.841 49.45H567.841V48.45H566.841V49.45ZM530.651 49.45H529.651V50.45H530.651V49.45ZM530.651 40.35V39.35H529.651V40.35H530.651ZM549.011 40.35V28.8H547.011V40.35H549.011ZM548.011 27.8H530.651V29.8H548.011V27.8ZM531.651 28.8V19.98H529.651V28.8H531.651ZM530.651 20.98H566.911V18.98H530.651V20.98ZM567.911 19.98V8.5H565.911V19.98H567.911ZM566.911 7.5H519.101V9.5H566.911V7.5ZM518.101 8.5V61H520.101V8.5H518.101ZM519.101 62H566.841V60H519.101V62ZM567.841 61V49.45H565.841V61H567.841ZM566.841 48.45H530.651V50.45H566.841V48.45ZM531.651 49.45V40.35H529.651V49.45H531.651ZM530.651 41.35H548.011V39.35H530.651V41.35ZM632.3 31.25H633.3V30.25H632.3V31.25ZM600.87 31.25V30.25H599.87V31.25H600.87ZM600.87 38.04H599.87V39.04H600.87V38.04ZM632.3 38.04V39.04H633.3V38.04H632.3ZM632.3 30.25H600.87V32.25H632.3V30.25ZM599.87 31.25V38.04H601.87V31.25H599.87ZM600.87 39.04H632.3V37.04H600.87V39.04ZM633.3 38.04V31.25H631.3V38.04H633.3ZM708.666 39.16L708.272 38.2408L708.264 38.2444L708.666 39.16ZM713.776 35.73L713.069 35.0229L713.776 35.73ZM717.206 30.69L718.122 31.092L718.125 31.0839L717.206 30.69ZM717.206 18.3L716.287 18.6939L716.29 18.702L717.206 18.3ZM708.666 9.76L708.264 10.6757L708.272 10.6791L708.666 9.76ZM667.646 8.5V7.5H666.646V8.5H667.646ZM667.646 61H666.646V62H667.646V61ZM679.126 61V62H680.126V61H679.126ZM679.126 40.42V39.42H678.126V40.42H679.126ZM679.126 19.91V18.91H678.126V19.91H679.126ZM707.126 19.91H708.126V18.91H707.126V19.91ZM707.126 29.08V30.08H708.126V29.08H707.126ZM679.126 29.08H678.126V30.08H679.126V29.08ZM702.506 41.42C704.831 41.42 707.022 40.974 709.068 40.0756L708.264 38.2444C706.484 39.026 704.568 39.42 702.506 39.42V41.42ZM709.06 40.0791C711.132 39.1912 712.943 37.9775 714.483 36.4371L713.069 35.0229C711.716 36.3758 710.12 37.4488 708.272 38.2409L709.06 40.0791ZM714.483 36.4371C716.02 34.9007 717.233 33.1166 718.122 31.092L716.29 30.288C715.499 32.09 714.426 33.666 713.069 35.0229L714.483 36.4371ZM718.125 31.0839C719.02 28.9958 719.466 26.7848 719.466 24.46H717.466C717.466 26.5219 717.072 28.4641 716.287 30.2961L718.125 31.0839ZM719.466 24.46C719.466 22.1353 719.02 19.9443 718.122 17.898L716.29 18.702C717.072 20.4823 717.466 22.398 717.466 24.46H719.466ZM718.125 17.9061C717.237 15.8342 716.024 14.0233 714.483 12.4829L713.069 13.8971C714.422 15.25 715.495 16.8458 716.287 18.6939L718.125 17.9061ZM714.483 12.4829C712.943 10.9425 711.132 9.72881 709.06 8.84085L708.272 10.6791C710.12 11.4712 711.716 12.5442 713.069 13.8971L714.483 12.4829ZM709.068 8.84435C707.022 7.94597 704.831 7.5 702.506 7.5V9.5C704.568 9.5 706.484 9.89402 708.264 10.6756L709.068 8.84435ZM702.506 7.5H667.646V9.5H702.506V7.5ZM666.646 8.5V61H668.646V8.5H666.646ZM667.646 62H679.126V60H667.646V62ZM680.126 61V40.42H678.126V61H680.126ZM679.126 41.42H702.506V39.42H679.126V41.42ZM679.126 20.91H707.126V18.91H679.126V20.91ZM706.126 19.91V29.08H708.126V19.91H706.126ZM707.126 28.08H679.126V30.08H707.126V28.08ZM680.126 29.08V19.91H678.126V29.08H680.126ZM762.755 61L761.827 61.3708L762.078 62H762.755V61ZM774.235 61V62H775.711L775.164 60.6297L774.235 61ZM765.835 39.93L765.568 38.9665L764.494 39.2648L764.906 40.3003L765.835 39.93ZM770.525 37.83L771.067 38.6703L771.077 38.6642L771.086 38.6579L770.525 37.83ZM774.235 34.33L773.442 33.7216L773.439 33.7256L774.235 34.33ZM776.755 29.78L777.693 30.1282L777.696 30.1196L776.755 29.78ZM776.405 18.3L775.486 18.6939L775.49 18.702L776.405 18.3ZM767.865 9.76L767.463 10.6757L767.471 10.6791L767.865 9.76ZM726.845 8.5V7.5H725.845V8.5H726.845ZM726.845 61H725.845V62H726.845V61ZM738.325 61V62H739.325V61H738.325ZM738.325 40.49V39.49H737.325V40.49H738.325ZM754.565 40.49L755.494 40.1192L755.243 39.49H754.565V40.49ZM738.325 29.08H737.325V30.08H738.325V29.08ZM738.325 19.91V18.91H737.325V19.91H738.325ZM766.325 19.91H767.325V18.91H766.325V19.91ZM766.325 29.08V30.08H767.325V29.08H766.325ZM762.755 62H774.235V60H762.755V62ZM775.164 60.6297L766.764 39.5597L764.906 40.3003L773.306 61.3703L775.164 60.6297ZM766.103 40.8935C767.879 40.4002 769.535 39.659 771.067 38.6703L769.983 36.9897C768.622 37.8676 767.152 38.5265 765.568 38.9665L766.103 40.8935ZM771.086 38.6579C772.62 37.6185 773.938 36.3771 775.032 34.9344L773.439 33.7256C772.48 34.9896 771.323 36.0815 769.964 37.0021L771.086 38.6579ZM775.029 34.9384C776.162 33.4603 777.051 31.8561 777.693 30.1282L775.818 29.4318C775.246 30.9705 774.455 32.3997 773.442 33.7216L775.029 34.9384ZM777.696 30.1196C778.344 28.3259 778.665 26.4372 778.665 24.46H776.665C776.665 26.2161 776.38 27.8741 775.815 29.4404L777.696 30.1196ZM778.665 24.46C778.665 22.1353 778.219 19.9443 777.321 17.898L775.49 18.702C776.271 20.4823 776.665 22.398 776.665 24.46H778.665ZM777.324 17.9061C776.437 15.8342 775.223 14.0233 773.682 12.4829L772.268 13.8971C773.621 15.25 774.694 16.8458 775.486 18.6939L777.324 17.9061ZM773.682 12.4829C772.142 10.9425 770.331 9.72881 768.259 8.84085L767.471 10.6791C769.319 11.4712 770.915 12.5442 772.268 13.8971L773.682 12.4829ZM768.267 8.84435C766.221 7.94597 764.03 7.5 761.705 7.5V9.5C763.767 9.5 765.683 9.89402 767.463 10.6756L768.267 8.84435ZM761.705 7.5H726.845V9.5H761.705V7.5ZM725.845 8.5V61H727.845V8.5H725.845ZM726.845 62H738.325V60H726.845V62ZM739.325 61V40.49H737.325V61H739.325ZM738.325 41.49H754.565V39.49H738.325V41.49ZM753.637 40.8608L761.827 61.3708L763.684 60.6292L755.494 40.1192L753.637 40.8608ZM739.325 29.08V19.91H737.325V29.08H739.325ZM738.325 20.91H766.325V18.91H738.325V20.91ZM765.325 19.91V29.08H767.325V19.91H765.325ZM766.325 28.08H738.325V30.08H766.325V28.08ZM786.045 8.5V7.5H785.045V8.5H786.045ZM786.045 61H785.045V62H786.045V61ZM797.525 61V62H798.525V61H797.525ZM797.525 8.5H798.525V7.5H797.525V8.5ZM785.045 8.5V61H787.045V8.5H785.045ZM786.045 62H797.525V60H786.045V62ZM798.525 61V8.5H796.525V61H798.525ZM797.525 7.5H786.045V9.5H797.525V7.5ZM842.304 58.9L842.697 59.8199L842.708 59.8149L842.304 58.9ZM850.634 53.23L849.927 52.5229L850.634 53.23ZM856.234 44.9L855.319 44.4963L855.314 44.5077L856.234 44.9ZM856.234 24.53L855.314 24.9223L855.319 24.9336L856.234 24.53ZM842.304 10.6L841.901 11.515L841.912 11.5198L842.304 10.6ZM807.304 8.5V7.5H806.304V8.5H807.304ZM807.304 61H806.304V62H807.304V61ZM818.854 61V62H819.854V61H818.854ZM818.854 60.93V59.93H817.854V60.93H818.854ZM846.994 49.59V50.59H847.994V49.59H846.994ZM818.854 49.59H817.854V50.59H818.854V49.59ZM818.854 19.84V18.84H817.854V19.84H818.854ZM846.994 19.84H847.994V18.84H846.994V19.84ZM832.154 61.93C835.877 61.93 839.394 61.2283 842.697 59.8198L841.912 57.9802C838.868 59.2784 835.619 59.93 832.154 59.93V61.93ZM842.708 59.8149C845.991 58.3666 848.871 56.4072 851.341 53.9371L849.927 52.5229C847.637 54.8128 844.964 56.6334 841.901 57.9851L842.708 59.8149ZM851.341 53.9371C853.814 51.4645 855.752 48.5802 857.154 45.2923L855.314 44.5077C854.01 47.5665 852.214 50.2355 849.927 52.5229L851.341 53.9371ZM857.149 45.3036C858.608 41.9969 859.334 38.452 859.334 34.68H857.334C857.334 38.188 856.661 41.4565 855.319 44.4964L857.149 45.3036ZM859.334 34.68C859.334 30.9528 858.607 27.4315 857.149 24.1264L855.319 24.9336C856.661 27.9752 857.334 31.2205 857.334 34.68H859.334ZM857.154 24.1377C855.752 20.8498 853.814 17.9655 851.341 15.4929L849.927 16.9071C852.214 19.1944 854.01 21.8635 855.314 24.9223L857.154 24.1377ZM851.341 15.4929C848.869 13.0202 845.984 11.0823 842.697 9.68015L841.912 11.5198C844.971 12.8243 847.64 14.6198 849.927 16.9071L851.341 15.4929ZM842.708 9.68508C839.403 8.22694 835.881 7.5 832.154 7.5V9.5C835.614 9.5 838.859 10.1731 841.901 11.5149L842.708 9.68508ZM832.154 7.5H807.304V9.5H832.154V7.5ZM806.304 8.5V61H808.304V8.5H806.304ZM807.304 62H818.854V60H807.304V62ZM819.854 61V60.93H817.854V61H819.854ZM818.854 61.93H832.154V59.93H818.854V61.93ZM846.994 48.59H818.854V50.59H846.994V48.59ZM819.854 49.59V19.84H817.854V49.59H819.854ZM818.854 20.84H846.994V18.84H818.854V20.84ZM845.994 19.84V49.59H847.994V19.84H845.994ZM894.593 40.35V41.35H895.593V40.35H894.593ZM894.593 28.8H895.593V27.8H894.593V28.8ZM877.233 28.8H876.233V29.8H877.233V28.8ZM877.233 19.98V18.98H876.233V19.98H877.233ZM913.493 19.98V20.98H914.493V19.98H913.493ZM913.493 8.5H914.493V7.5H913.493V8.5ZM865.683 8.5V7.5H864.683V8.5H865.683ZM865.683 61H864.683V62H865.683V61ZM913.423 61V62H914.423V61H913.423ZM913.423 49.45H914.423V48.45H913.423V49.45ZM877.233 49.45H876.233V50.45H877.233V49.45ZM877.233 40.35V39.35H876.233V40.35H877.233ZM895.593 40.35V28.8H893.593V40.35H895.593ZM894.593 27.8H877.233V29.8H894.593V27.8ZM878.233 28.8V19.98H876.233V28.8H878.233ZM877.233 20.98H913.493V18.98H877.233V20.98ZM914.493 19.98V8.5H912.493V19.98H914.493ZM913.493 7.5H865.683V9.5H913.493V7.5ZM864.683 8.5V61H866.683V8.5H864.683ZM865.683 62H913.423V60H865.683V62ZM914.423 61V49.45H912.423V61H914.423ZM913.423 48.45H877.233V50.45H913.423V48.45ZM878.233 49.45V40.35H876.233V49.45H878.233ZM877.233 41.35H894.593V39.35H877.233V41.35ZM978.882 31.25H979.882V30.25H978.882V31.25ZM947.452 31.25V30.25H946.452V31.25H947.452ZM947.452 38.04H946.452V39.04H947.452V38.04ZM978.882 38.04V39.04H979.882V38.04H978.882ZM978.882 30.25H947.452V32.25H978.882V30.25ZM946.452 31.25V38.04H948.452V31.25H946.452ZM947.452 39.04H978.882V37.04H947.452V39.04ZM979.882 38.04V31.25H977.882V38.04H979.882ZM1055.25 39.16L1054.85 38.2408L1054.85 38.2444L1055.25 39.16ZM1060.36 35.73L1059.65 35.0229L1060.36 35.73ZM1063.79 30.69L1064.7 31.092L1064.71 31.0839L1063.79 30.69ZM1063.79 18.3L1062.87 18.6939L1062.87 18.702L1063.79 18.3ZM1055.25 9.76L1054.85 10.6757L1054.85 10.6791L1055.25 9.76ZM1014.23 8.5V7.5H1013.23V8.5H1014.23ZM1014.23 61H1013.23V62H1014.23V61ZM1025.71 61V62H1026.71V61H1025.71ZM1025.71 40.42V39.42H1024.71V40.42H1025.71ZM1025.71 19.91V18.91H1024.71V19.91H1025.71ZM1053.71 19.91H1054.71V18.91H1053.71V19.91ZM1053.71 29.08V30.08H1054.71V29.08H1053.71ZM1025.71 29.08H1024.71V30.08H1025.71V29.08ZM1049.09 41.42C1051.41 41.42 1053.6 40.974 1055.65 40.0756L1054.85 38.2444C1053.07 39.026 1051.15 39.42 1049.09 39.42V41.42ZM1055.64 40.0791C1057.71 39.1912 1059.52 37.9775 1061.07 36.4371L1059.65 35.0229C1058.3 36.3758 1056.7 37.4488 1054.85 38.2409L1055.64 40.0791ZM1061.07 36.4371C1062.6 34.9007 1063.81 33.1166 1064.7 31.092L1062.87 30.288C1062.08 32.09 1061.01 33.666 1059.65 35.0229L1061.07 36.4371ZM1064.71 31.0839C1065.6 28.9958 1066.05 26.7848 1066.05 24.46H1064.05C1064.05 26.5219 1063.65 28.4641 1062.87 30.2961L1064.71 31.0839ZM1066.05 24.46C1066.05 22.1353 1065.6 19.9443 1064.7 17.898L1062.87 18.702C1063.65 20.4823 1064.05 22.398 1064.05 24.46H1066.05ZM1064.71 17.9061C1063.82 15.8342 1062.61 14.0233 1061.07 12.4829L1059.65 13.8971C1061 15.25 1062.08 16.8458 1062.87 18.6939L1064.71 17.9061ZM1061.07 12.4829C1059.52 10.9425 1057.71 9.72881 1055.64 8.84085L1054.85 10.6791C1056.7 11.4712 1058.3 12.5442 1059.65 13.8971L1061.07 12.4829ZM1055.65 8.84435C1053.6 7.94597 1051.41 7.5 1049.09 7.5V9.5C1051.15 9.5 1053.07 9.89402 1054.85 10.6756L1055.65 8.84435ZM1049.09 7.5H1014.23V9.5H1049.09V7.5ZM1013.23 8.5V61H1015.23V8.5H1013.23ZM1014.23 62H1025.71V60H1014.23V62ZM1026.71 61V40.42H1024.71V61H1026.71ZM1025.71 41.42H1049.09V39.42H1025.71V41.42ZM1025.71 20.91H1053.71V18.91H1025.71V20.91ZM1052.71 19.91V29.08H1054.71V19.91H1052.71ZM1053.71 28.08H1025.71V30.08H1053.71V28.08ZM1026.71 29.08V19.91H1024.71V29.08H1026.71ZM1109.34 61L1108.41 61.3708L1108.66 62H1109.34V61ZM1120.82 61V62H1122.29L1121.75 60.6297L1120.82 61ZM1112.42 39.93L1112.15 38.9665L1111.08 39.2648L1111.49 40.3003L1112.42 39.93ZM1117.11 37.83L1117.65 38.6703L1117.66 38.6642L1117.67 38.6579L1117.11 37.83ZM1120.82 34.33L1120.02 33.7216L1120.02 33.7256L1120.82 34.33ZM1123.34 29.78L1124.27 30.1282L1124.28 30.1196L1123.34 29.78ZM1122.99 18.3L1122.07 18.6939L1122.07 18.702L1122.99 18.3ZM1114.45 9.76L1114.05 10.6757L1114.05 10.6791L1114.45 9.76ZM1073.43 8.5V7.5H1072.43V8.5H1073.43ZM1073.43 61H1072.43V62H1073.43V61ZM1084.91 61V62H1085.91V61H1084.91ZM1084.91 40.49V39.49H1083.91V40.49H1084.91ZM1101.15 40.49L1102.08 40.1192L1101.82 39.49H1101.15V40.49ZM1084.91 29.08H1083.91V30.08H1084.91V29.08ZM1084.91 19.91V18.91H1083.91V19.91H1084.91ZM1112.91 19.91H1113.91V18.91H1112.91V19.91ZM1112.91 29.08V30.08H1113.91V29.08H1112.91ZM1109.34 62H1120.82V60H1109.34V62ZM1121.75 60.6297L1113.35 39.5597L1111.49 40.3003L1119.89 61.3703L1121.75 60.6297ZM1112.68 40.8935C1114.46 40.4002 1116.12 39.659 1117.65 38.6703L1116.57 36.9897C1115.2 37.8676 1113.73 38.5265 1112.15 38.9665L1112.68 40.8935ZM1117.67 38.6579C1119.2 37.6185 1120.52 36.3771 1121.61 34.9344L1120.02 33.7256C1119.06 34.9896 1117.91 36.0815 1116.55 37.0021L1117.67 38.6579ZM1121.61 34.9384C1122.74 33.4603 1123.63 31.8561 1124.27 30.1282L1122.4 29.4318C1121.83 30.9705 1121.04 32.3997 1120.02 33.7216L1121.61 34.9384ZM1124.28 30.1196C1124.93 28.3259 1125.25 26.4372 1125.25 24.46H1123.25C1123.25 26.2161 1122.96 27.8741 1122.4 29.4404L1124.28 30.1196ZM1125.25 24.46C1125.25 22.1353 1124.8 19.9443 1123.9 17.898L1122.07 18.702C1122.85 20.4823 1123.25 22.398 1123.25 24.46H1125.25ZM1123.91 17.9061C1123.02 15.8342 1121.8 14.0233 1120.26 12.4829L1118.85 13.8971C1120.2 15.25 1121.28 16.8458 1122.07 18.6939L1123.91 17.9061ZM1120.26 12.4829C1118.72 10.9425 1116.91 9.72881 1114.84 8.84085L1114.05 10.6791C1115.9 11.4712 1117.5 12.5442 1118.85 13.8971L1120.26 12.4829ZM1114.85 8.84435C1112.8 7.94597 1110.61 7.5 1108.29 7.5V9.5C1110.35 9.5 1112.27 9.89402 1114.05 10.6756L1114.85 8.84435ZM1108.29 7.5H1073.43V9.5H1108.29V7.5ZM1072.43 8.5V61H1074.43V8.5H1072.43ZM1073.43 62H1084.91V60H1073.43V62ZM1085.91 61V40.49H1083.91V61H1085.91ZM1084.91 41.49H1101.15V39.49H1084.91V41.49ZM1100.22 40.8608L1108.41 61.3708L1110.27 60.6292L1102.08 40.1192L1100.22 40.8608ZM1085.91 29.08V19.91H1083.91V29.08H1085.91ZM1084.91 20.91H1112.91V18.91H1084.91V20.91ZM1111.91 19.91V29.08H1113.91V19.91H1111.91ZM1112.91 28.08H1084.91V30.08H1112.91V28.08ZM1132.63 8.5V7.5H1131.63V8.5H1132.63ZM1132.63 61H1131.63V62H1132.63V61ZM1144.11 61V62H1145.11V61H1144.11ZM1144.11 8.5H1145.11V7.5H1144.11V8.5ZM1131.63 8.5V61H1133.63V8.5H1131.63ZM1132.63 62H1144.11V60H1132.63V62ZM1145.11 61V8.5H1143.11V61H1145.11ZM1144.11 7.5H1132.63V9.5H1144.11V7.5ZM1188.89 58.9L1189.28 59.8199L1189.29 59.8149L1188.89 58.9ZM1197.22 53.23L1196.51 52.5229L1197.22 53.23ZM1202.82 44.9L1201.9 44.4963L1201.9 44.5077L1202.82 44.9ZM1202.82 24.53L1201.9 24.9223L1201.9 24.9336L1202.82 24.53ZM1188.89 10.6L1188.48 11.515L1188.49 11.5198L1188.89 10.6ZM1153.89 8.5V7.5H1152.89V8.5H1153.89ZM1153.89 61H1152.89V62H1153.89V61ZM1165.44 61V62H1166.44V61H1165.44ZM1165.44 60.93V59.93H1164.44V60.93H1165.44ZM1193.58 49.59V50.59H1194.58V49.59H1193.58ZM1165.44 49.59H1164.44V50.59H1165.44V49.59ZM1165.44 19.84V18.84H1164.44V19.84H1165.44ZM1193.58 19.84H1194.58V18.84H1193.58V19.84ZM1178.74 61.93C1182.46 61.93 1185.98 61.2283 1189.28 59.8198L1188.49 57.9802C1185.45 59.2784 1182.2 59.93 1178.74 59.93V61.93ZM1189.29 59.8149C1192.57 58.3666 1195.45 56.4072 1197.92 53.9371L1196.51 52.5229C1194.22 54.8128 1191.55 56.6334 1188.48 57.9851L1189.29 59.8149ZM1197.92 53.9371C1200.4 51.4645 1202.33 48.5802 1203.74 45.2923L1201.9 44.5077C1200.59 47.5665 1198.8 50.2355 1196.51 52.5229L1197.92 53.9371ZM1203.73 45.3036C1205.19 41.9969 1205.92 38.452 1205.92 34.68H1203.92C1203.92 38.188 1203.24 41.4565 1201.9 44.4964L1203.73 45.3036ZM1205.92 34.68C1205.92 30.9528 1205.19 27.4315 1203.73 24.1264L1201.9 24.9336C1203.24 27.9752 1203.92 31.2205 1203.92 34.68H1205.92ZM1203.74 24.1377C1202.33 20.8498 1200.4 17.9655 1197.92 15.4929L1196.51 16.9071C1198.8 19.1944 1200.59 21.8635 1201.9 24.9223L1203.74 24.1377ZM1197.92 15.4929C1195.45 13.0202 1192.57 11.0823 1189.28 9.68015L1188.49 11.5198C1191.55 12.8243 1194.22 14.6198 1196.51 16.9071L1197.92 15.4929ZM1189.29 9.68508C1185.98 8.22694 1182.46 7.5 1178.74 7.5V9.5C1182.2 9.5 1185.44 10.1731 1188.48 11.5149L1189.29 9.68508ZM1178.74 7.5H1153.89V9.5H1178.74V7.5ZM1152.89 8.5V61H1154.89V8.5H1152.89ZM1153.89 62H1165.44V60H1153.89V62ZM1166.44 61V60.93H1164.44V61H1166.44ZM1165.44 61.93H1178.74V59.93H1165.44V61.93ZM1193.58 48.59H1165.44V50.59H1193.58V48.59ZM1166.44 49.59V19.84H1164.44V49.59H1166.44ZM1165.44 20.84H1193.58V18.84H1165.44V20.84ZM1192.58 19.84V49.59H1194.58V19.84H1192.58ZM1241.18 40.35V41.35H1242.18V40.35H1241.18ZM1241.18 28.8H1242.18V27.8H1241.18V28.8ZM1223.82 28.8H1222.82V29.8H1223.82V28.8ZM1223.82 19.98V18.98H1222.82V19.98H1223.82ZM1260.08 19.98V20.98H1261.08V19.98H1260.08ZM1260.08 8.5H1261.08V7.5H1260.08V8.5ZM1212.27 8.5V7.5H1211.27V8.5H1212.27ZM1212.27 61H1211.27V62H1212.27V61ZM1260.01 61V62H1261.01V61H1260.01ZM1260.01 49.45H1261.01V48.45H1260.01V49.45ZM1223.82 49.45H1222.82V50.45H1223.82V49.45ZM1223.82 40.35V39.35H1222.82V40.35H1223.82ZM1242.18 40.35V28.8H1240.18V40.35H1242.18ZM1241.18 27.8H1223.82V29.8H1241.18V27.8ZM1224.82 28.8V19.98H1222.82V28.8H1224.82ZM1223.82 20.98H1260.08V18.98H1223.82V20.98ZM1261.08 19.98V8.5H1259.08V19.98H1261.08ZM1260.08 7.5H1212.27V9.5H1260.08V7.5ZM1211.27 8.5V61H1213.27V8.5H1211.27ZM1212.27 62H1260.01V60H1212.27V62ZM1261.01 61V49.45H1259.01V61H1261.01ZM1260.01 48.45H1223.82V50.45H1260.01V48.45ZM1224.82 49.45V40.35H1222.82V49.45H1224.82ZM1223.82 41.35H1241.18V39.35H1223.82V41.35ZM1325.46 31.25H1326.46V30.25H1325.46V31.25ZM1294.03 31.25V30.25H1293.03V31.25H1294.03ZM1294.03 38.04H1293.03V39.04H1294.03V38.04ZM1325.46 38.04V39.04H1326.46V38.04H1325.46ZM1325.46 30.25H1294.03V32.25H1325.46V30.25ZM1293.03 31.25V38.04H1295.03V31.25H1293.03ZM1294.03 39.04H1325.46V37.04H1294.03V39.04ZM1326.46 38.04V31.25H1324.46V38.04H1326.46ZM1408.39 36.04L1408 35.1208L1407.99 35.1244L1408.39 36.04ZM1414.23 32.12L1413.52 31.4129L1414.23 32.12ZM1418.15 26.36L1419.07 26.762L1419.07 26.7539L1418.15 26.36ZM1418.15 12.2L1417.23 12.5939L1417.23 12.602L1418.15 12.2ZM1408.39 2.44L1407.99 3.35567L1408 3.35914L1408.39 2.44ZM1361.51 0.999995V-4.76837e-06H1360.51V0.999995H1361.51ZM1361.51 61H1360.51V62H1361.51V61ZM1374.63 61V62H1375.63V61H1374.63ZM1374.63 37.48V36.48H1373.63V37.48H1374.63ZM1374.63 14.04V13.04H1373.63V14.04H1374.63ZM1406.63 14.04H1407.63V13.04H1406.63V14.04ZM1406.63 24.52V25.52H1407.63V24.52H1406.63ZM1374.63 24.52H1373.63V25.52H1374.63V24.52ZM1401.35 38.48C1403.99 38.48 1406.47 37.974 1408.79 36.9556L1407.99 35.1244C1405.93 36.026 1403.73 36.48 1401.35 36.48V38.48ZM1408.78 36.9591C1411.14 35.9512 1413.19 34.5742 1414.94 32.8271L1413.52 31.4129C1411.96 32.9725 1410.12 34.2088 1408 35.1209L1408.78 36.9591ZM1414.94 32.8271C1416.68 31.084 1418.06 29.06 1419.07 26.762L1417.23 25.958C1416.32 28.0334 1415.09 29.8493 1413.52 31.4129L1414.94 32.8271ZM1419.07 26.7539C1420.08 24.3858 1420.59 21.8781 1420.59 19.24H1418.59C1418.59 21.6152 1418.14 23.8541 1417.23 25.9661L1419.07 26.7539ZM1420.59 19.24C1420.59 16.6019 1420.08 14.1177 1419.07 11.798L1417.23 12.602C1418.14 14.6557 1418.59 16.8647 1418.59 19.24H1420.59ZM1419.07 11.8061C1418.06 9.45417 1416.68 7.39997 1414.94 5.65289L1413.52 7.0671C1415.08 8.62669 1416.32 10.4658 1417.23 12.5939L1419.07 11.8061ZM1414.94 5.65289C1413.19 3.90581 1411.14 2.52881 1408.78 1.52085L1408 3.35914C1410.12 4.27118 1411.96 5.50752 1413.52 7.0671L1414.94 5.65289ZM1408.79 1.52435C1406.47 0.50597 1403.99 -4.76837e-06 1401.35 -4.76837e-06V2C1403.73 2 1405.93 2.45402 1407.99 3.35564L1408.79 1.52435ZM1401.35 -4.76837e-06H1361.51V2H1401.35V-4.76837e-06ZM1360.51 0.999995V61H1362.51V0.999995H1360.51ZM1361.51 62H1374.63V60H1361.51V62ZM1375.63 61V37.48H1373.63V61H1375.63ZM1374.63 38.48H1401.35V36.48H1374.63V38.48ZM1374.63 15.04H1406.63V13.04H1374.63V15.04ZM1405.63 14.04V24.52H1407.63V14.04H1405.63ZM1406.63 23.52H1374.63V25.52H1406.63V23.52ZM1375.63 24.52V14.04H1373.63V24.52H1375.63ZM1470.21 61L1469.28 61.3708L1469.53 62H1470.21V61ZM1483.33 61V62H1484.8L1484.26 60.6297L1483.33 61ZM1473.73 36.92L1473.46 35.9565L1472.38 36.2548L1472.8 37.2903L1473.73 36.92ZM1479.09 34.52L1479.63 35.3603L1479.64 35.3542L1479.65 35.3479L1479.09 34.52ZM1483.33 30.52L1482.53 29.9116L1482.53 29.9156L1483.33 30.52ZM1486.21 25.32L1487.14 25.6682L1487.15 25.6596L1486.21 25.32ZM1485.81 12.2L1484.89 12.5939L1484.89 12.602L1485.81 12.2ZM1476.05 2.44L1475.64 3.35567L1475.65 3.35914L1476.05 2.44ZM1429.17 0.999995V-4.76837e-06H1428.17V0.999995H1429.17ZM1429.17 61H1428.17V62H1429.17V61ZM1442.29 61V62H1443.29V61H1442.29ZM1442.29 37.56V36.56H1441.29V37.56H1442.29ZM1460.85 37.56L1461.78 37.1892L1461.52 36.56H1460.85V37.56ZM1442.29 24.52H1441.29V25.52H1442.29V24.52ZM1442.29 14.04V13.04H1441.29V14.04H1442.29ZM1474.29 14.04H1475.29V13.04H1474.29V14.04ZM1474.29 24.52V25.52H1475.29V24.52H1474.29ZM1470.21 62H1483.33V60H1470.21V62ZM1484.26 60.6297L1474.66 36.5497L1472.8 37.2903L1482.4 61.3703L1484.26 60.6297ZM1473.99 37.8835C1476.01 37.3235 1477.89 36.4823 1479.63 35.3603L1478.54 33.6797C1476.98 34.691 1475.28 35.4498 1473.46 35.9565L1473.99 37.8835ZM1479.65 35.3479C1481.39 34.1685 1482.88 32.7604 1484.12 31.1244L1482.53 29.9156C1481.42 31.3729 1480.09 32.6315 1478.53 33.6921L1479.65 35.3479ZM1484.12 31.1284C1485.41 29.4503 1486.42 27.6295 1487.14 25.6682L1485.27 24.9718C1484.61 26.7439 1483.7 28.3897 1482.53 29.9116L1484.12 31.1284ZM1487.15 25.6596C1487.88 23.6259 1488.25 21.4839 1488.25 19.24H1486.25C1486.25 21.2628 1485.92 23.1741 1485.27 24.9804L1487.15 25.6596ZM1488.25 19.24C1488.25 16.6019 1487.74 14.1177 1486.72 11.798L1484.89 12.602C1485.79 14.6557 1486.25 16.8647 1486.25 19.24H1488.25ZM1486.73 11.8061C1485.72 9.45417 1484.34 7.39997 1482.59 5.65289L1481.18 7.0671C1482.74 8.62669 1483.98 10.4658 1484.89 12.5939L1486.73 11.8061ZM1482.59 5.65289C1480.85 3.90581 1478.79 2.52881 1476.44 1.52085L1475.65 3.35914C1477.78 4.27118 1479.62 5.50752 1481.18 7.0671L1482.59 5.65289ZM1476.45 1.52435C1474.13 0.50597 1471.64 -4.76837e-06 1469.01 -4.76837e-06V2C1471.38 2 1473.59 2.45402 1475.64 3.35564L1476.45 1.52435ZM1469.01 -4.76837e-06H1429.17V2H1469.01V-4.76837e-06ZM1428.17 0.999995V61H1430.17V0.999995H1428.17ZM1429.17 62H1442.29V60H1429.17V62ZM1443.29 61V37.56H1441.29V61H1443.29ZM1442.29 38.56H1460.85V36.56H1442.29V38.56ZM1459.92 37.9308L1469.28 61.3708L1471.14 60.6292L1461.78 37.1892L1459.92 37.9308ZM1443.29 24.52V14.04H1441.29V24.52H1443.29ZM1442.29 15.04H1474.29V13.04H1442.29V15.04ZM1473.29 14.04V24.52H1475.29V14.04H1473.29ZM1474.29 23.52H1442.29V25.52H1474.29V23.52ZM1496.82 0.999995V-4.76837e-06H1495.82V0.999995H1496.82ZM1496.82 61H1495.82V62H1496.82V61ZM1509.94 61V62H1510.94V61H1509.94ZM1509.94 0.999995H1510.94V-4.76837e-06H1509.94V0.999995ZM1495.82 0.999995V61H1497.82V0.999995H1495.82ZM1496.82 62H1509.94V60H1496.82V62ZM1510.94 61V0.999995H1508.94V61H1510.94ZM1509.94 -4.76837e-06H1496.82V2H1509.94V-4.76837e-06ZM1561.12 58.6L1561.51 59.5199L1561.52 59.5149L1561.12 58.6ZM1570.64 52.12L1569.93 51.4129L1570.64 52.12ZM1577.04 42.6L1576.12 42.1963L1576.12 42.2077L1577.04 42.6ZM1577.04 19.32L1576.12 19.7123L1576.12 19.7236L1577.04 19.32ZM1561.12 3.4L1560.72 4.31499L1560.73 4.31984L1561.12 3.4ZM1521.12 0.999995V-4.76837e-06H1520.12V0.999995H1521.12ZM1521.12 61H1520.12V62H1521.12V61ZM1534.32 61V62H1535.32V61H1534.32ZM1534.32 60.92V59.92H1533.32V60.92H1534.32ZM1566.48 47.96V48.96H1567.48V47.96H1566.48ZM1534.32 47.96H1533.32V48.96H1534.32V47.96ZM1534.32 13.96V12.96H1533.32V13.96H1534.32ZM1566.48 13.96H1567.48V12.96H1566.48V13.96ZM1549.52 61.92C1553.76 61.92 1557.76 61.1216 1561.51 59.5198L1560.73 57.6802C1557.23 59.1717 1553.5 59.92 1549.52 59.92V61.92ZM1561.52 59.5149C1565.26 57.8666 1568.54 55.6372 1571.35 52.8271L1569.93 51.4129C1567.3 54.0428 1564.23 56.1334 1560.72 57.6851L1561.52 59.5149ZM1571.35 52.8271C1574.16 50.0145 1576.36 46.7335 1577.96 42.9923L1576.12 42.2077C1574.62 45.7198 1572.56 48.7855 1569.93 51.4129L1571.35 52.8271ZM1577.95 43.0036C1579.61 39.2435 1580.44 35.212 1580.44 30.92H1578.44C1578.44 34.948 1577.67 38.7031 1576.12 42.1964L1577.95 43.0036ZM1580.44 30.92C1580.44 26.6795 1579.61 22.6748 1577.95 18.9164L1576.12 19.7236C1577.67 23.2185 1578.44 26.9472 1578.44 30.92H1580.44ZM1577.96 18.9277C1576.36 15.1865 1574.16 11.9055 1571.35 9.09289L1569.93 10.5071C1572.56 13.1344 1574.62 16.2002 1576.12 19.7123L1577.96 18.9277ZM1571.35 9.09289C1568.53 6.28023 1565.25 4.07568 1561.51 2.48015L1560.73 4.31984C1564.24 5.81764 1567.31 7.87976 1569.93 10.5071L1571.35 9.09289ZM1561.52 2.48508C1557.76 0.826941 1553.76 -4.76837e-06 1549.52 -4.76837e-06V2C1553.49 2 1557.22 2.77305 1560.72 4.31492L1561.52 2.48508ZM1549.52 -4.76837e-06H1521.12V2H1549.52V-4.76837e-06ZM1520.12 0.999995V61H1522.12V0.999995H1520.12ZM1521.12 62H1534.32V60H1521.12V62ZM1535.32 61V60.92H1533.32V61H1535.32ZM1534.32 61.92H1549.52V59.92H1534.32V61.92ZM1566.48 46.96H1534.32V48.96H1566.48V46.96ZM1535.32 47.96V13.96H1533.32V47.96H1535.32ZM1534.32 14.96H1566.48V12.96H1534.32V14.96ZM1565.48 13.96V47.96H1567.48V13.96H1565.48ZM1620.88 37.4V38.4H1621.88V37.4H1620.88ZM1620.88 24.2H1621.88V23.2H1620.88V24.2ZM1601.04 24.2H1600.04V25.2H1601.04V24.2ZM1601.04 14.12V13.12H1600.04V14.12H1601.04ZM1642.48 14.12V15.12H1643.48V14.12H1642.48ZM1642.48 0.999995H1643.48V-4.76837e-06H1642.48V0.999995ZM1587.84 0.999995V-4.76837e-06H1586.84V0.999995H1587.84ZM1587.84 61H1586.84V62H1587.84V61ZM1642.4 61V62H1643.4V61H1642.4ZM1642.4 47.8H1643.4V46.8H1642.4V47.8ZM1601.04 47.8H1600.04V48.8H1601.04V47.8ZM1601.04 37.4V36.4H1600.04V37.4H1601.04ZM1621.88 37.4V24.2H1619.88V37.4H1621.88ZM1620.88 23.2H1601.04V25.2H1620.88V23.2ZM1602.04 24.2V14.12H1600.04V24.2H1602.04ZM1601.04 15.12H1642.48V13.12H1601.04V15.12ZM1643.48 14.12V0.999995H1641.48V14.12H1643.48ZM1642.48 -4.76837e-06H1587.84V2H1642.48V-4.76837e-06ZM1586.84 0.999995V61H1588.84V0.999995H1586.84ZM1587.84 62H1642.4V60H1587.84V62ZM1643.4 61V47.8H1641.4V61H1643.4ZM1642.4 46.8H1601.04V48.8H1642.4V46.8ZM1602.04 47.8V37.4H1600.04V47.8H1602.04ZM1601.04 38.4H1620.88V36.4H1601.04V38.4ZM1717.21 27H1718.21V26H1717.21V27ZM1681.29 27V26H1680.29V27H1681.29ZM1681.29 34.76H1680.29V35.76H1681.29V34.76ZM1717.21 34.76V35.76H1718.21V34.76H1717.21ZM1717.21 26H1681.29V28H1717.21V26ZM1680.29 27V34.76H1682.29V27H1680.29ZM1681.29 35.76H1717.21V33.76H1681.29V35.76ZM1718.21 34.76V27H1716.21V34.76H1718.21Z" fill="#FF570F"/>
</svg>
